<?xml version="1.0" encoding="UTF-8"?>
<!DOCTYPE svg PUBLIC "-//W3C//DTD SVG 1.1//EN" "http://www.w3.org/Graphics/SVG/1.1/DTD/svg11.dtd">
<!-- Creator: CorelDRAW 2019 (64-Bit) -->
<svg xmlns="http://www.w3.org/2000/svg" xml:space="preserve" width="7.539mm" height="5.3751mm" version="1.1" style="shape-rendering:geometricPrecision; text-rendering:geometricPrecision; image-rendering:optimizeQuality; fill-rule:evenodd; clip-rule:evenodd"
viewBox="0 0 134.16 95.65"
 xmlns:xlink="http://www.w3.org/1999/xlink"
 xmlns:xodm="http://www.corel.com/coreldraw/odm/2003">
 <defs>
  <style type="text/css">
   <![CDATA[
    .fil1 {fill:black}
    .fil0 {fill:red}
   ]]>
  </style>
 </defs>
 <g id="Слой_x0020_1">
  <metadata id="CorelCorpID_0Corel-Layer"/>
  <g id="_1989457578496">
   <path class="fil0" d="M76.63 62.35c6.46,0 11.7,5.24 11.7,11.7 0,6.46 -5.24,11.7 -11.7,11.7 -6.46,0 -11.7,-5.24 -11.7,-11.7 0,-6.46 5.24,-11.7 11.7,-11.7zm0 6.52c2.86,0 5.17,2.32 5.17,5.17 0,2.86 -2.32,5.17 -5.17,5.17 -2.86,0 -5.17,-2.32 -5.17,-5.17 0,-2.86 2.32,-5.17 5.17,-5.17z"/>
   <path class="fil1" d="M133.98 95.65c-8.69,-0.51 -15.57,-7.59 -15.57,-16.25 0,-8.66 6.88,-15.74 15.57,-16.25l0 32.5zm-111.09 -56.37c-0.61,5.15 0.58,7.49 3.64,6.77l-0.13 -6.8 -3.51 0.02zm46.67 -1.01l-39.81 1.02 0.25 6.82 96.08 -2.56c1.86,0.01 2.7,-1.1 2.53,-3.35l-0.36 -21.72 -34.73 0.83c-2.64,0.17 -4.71,1.33 -6.22,3.5 -2.42,3.61 -4.86,7.21 -7.26,10.83 -1.63,2.47 -6.75,4.55 -10.47,4.64zm42.47 -14.54l9.21 -0.4c0.52,-0.02 0.96,0.38 0.98,0.9l0 0c0.02,0.52 -0.38,0.96 -0.9,0.99l-9.21 0.4c-0.52,0.02 -0.96,-0.38 -0.99,-0.9l0 0c-0.02,-0.52 0.38,-0.96 0.9,-0.99zm0.5 11.72l9.21 -0.4c0.52,-0.02 0.96,0.38 0.99,0.9l0 0c0.02,0.52 -0.38,0.96 -0.91,0.98l-9.21 0.4c-0.52,0.02 -0.96,-0.38 -0.99,-0.9l0 0c-0.02,-0.52 0.38,-0.96 0.9,-0.99zm-0.12 -2.93l9.21 -0.4c0.52,-0.02 0.96,0.38 0.99,0.91l0 0c0.02,0.52 -0.38,0.96 -0.9,0.98l-9.21 0.4c-0.52,0.02 -0.96,-0.38 -0.98,-0.9l0 0c-0.02,-0.52 0.38,-0.96 0.9,-0.99zm-0.13 -2.93l9.21 -0.4c0.52,-0.02 0.96,0.38 0.99,0.9l0 0c0.02,0.52 -0.38,0.96 -0.9,0.99l-9.21 0.4c-0.52,0.02 -0.96,-0.38 -0.99,-0.9l0 0c-0.02,-0.52 0.38,-0.96 0.9,-0.99zm-0.13 -2.93l9.21 -0.4c0.52,-0.02 0.96,0.38 0.99,0.9l0 0c0.02,0.52 -0.38,0.96 -0.9,0.99l-9.21 0.4c-0.52,0.02 -0.96,-0.38 -0.99,-0.9l0 0c-0.02,-0.52 0.38,-0.96 0.9,-0.99zm-19.22 20.96l-34.14 0.84 2.08 6.28 6.27 -0.41 0.23 8.02 0 -0c3.67,-2.9 8.66,-4.04 13.49,-2.6 1.55,0.46 2.96,1.15 4.22,2.01l0 0 -0.04 -7.74 6.22 -0.42 1.66 -5.98zm23.51 40.37l-28.86 -3.39 0 -0c2.47,-2.66 3.98,-6.85 3.98,-10.14 0,-3.29 -0.7,-5.16 -1.92,-7.32l0 -0.03 29.35 -0.41c-2.55,3.73 -4.04,8.24 -4.04,13.1 0,2.88 0.52,5.64 1.48,8.19z"/>
   <path class="fil1" d="M69.4 34.76c-20.77,0.61 -38.93,0.99 -54.54,1.49 -5.16,0.17 -8.06,-0.83 -9.11,-6.02l-5.76 -26.64 133.79 -3.59 0.37 9.85c-0.07,3.43 -1.72,5.41 -4.32,5.47l-37.01 0.85c-3.37,0.3 -6.35,1.65 -8.26,4.57l-6.9 10.53c-2.43,2.8 -5.15,3.4 -8.27,3.49z"/>
  </g>
 </g>
</svg>
