<?xml version="1.0" encoding="UTF-8"?>
<!DOCTYPE svg PUBLIC "-//W3C//DTD SVG 1.1//EN" "http://www.w3.org/Graphics/SVG/1.1/DTD/svg11.dtd">
<!-- Creator: CorelDRAW 2020 (64-Bit) -->
<svg xmlns="http://www.w3.org/2000/svg" xml:space="preserve" width="17.2591mm" height="5.3751mm" version="1.1" style="shape-rendering:geometricPrecision; text-rendering:geometricPrecision; image-rendering:optimizeQuality; fill-rule:evenodd; clip-rule:evenodd"
viewBox="0 0 5789.63 1803.1"
 xmlns:xlink="http://www.w3.org/1999/xlink"
 xmlns:xodm="http://www.corel.com/coreldraw/odm/2003">
 <defs>
  <style type="text/css">
   <![CDATA[
    .fil0 {fill:black}
    .fil1 {fill:red}
   ]]>
  </style>
 </defs>
 <g id="Слой_x0020_1">
  <metadata id="CorelCorpID_0Corel-Layer"/>
  <g id="_2782678596848">
   <path class="fil0" d="M105.43 0l5578.77 0c58,0 105.43,47.43 105.43,105.43l0 1203.61c0,58 -47.43,105.43 -105.43,105.43l-5578.77 0c-58,0 -105.43,-47.43 -105.43,-105.43l0 -1203.61c0,-58 47.43,-105.43 105.43,-105.43zm429.38 466.85l2637.54 0c9.46,0 17.18,7.72 17.18,17.18l0 443.03c0,9.46 -7.72,17.18 -17.18,17.18l-2637.54 0c-9.43,0 -17.14,-7.72 -17.14,-17.18l0 -443.03c0,-9.46 7.72,-17.18 17.14,-17.18zm3933.33 238.71l-182.96 104.33 -182.96 104.36 0 -208.69 0 -208.69 182.96 104.33 182.96 104.36zm493.39 -235.15l133.61 0 0 472.96 -133.61 0 0 -472.96zm212.74 0l133.61 0 0 472.96 -133.61 0 0 -472.96z"/>
   <g>
    <rect class="fil1" x="408.53" y="1504.21" width="860.11" height="298.87" rx="15.22" ry="22.28"/>
    <rect class="fil1" x="4521.01" y="1504.21" width="860.11" height="298.87" rx="15.22" ry="22.28"/>
   </g>
  </g>
 </g>
</svg>
