<?xml version="1.0" encoding="UTF-8"?>
<!DOCTYPE svg PUBLIC "-//W3C//DTD SVG 1.1//EN" "http://www.w3.org/Graphics/SVG/1.1/DTD/svg11.dtd">
<!-- Creator: CorelDRAW 2019 (64-Bit) -->
<svg xmlns="http://www.w3.org/2000/svg" xml:space="preserve" width="5.7308mm" height="5.3751mm" version="1.1" style="shape-rendering:geometricPrecision; text-rendering:geometricPrecision; image-rendering:optimizeQuality; fill-rule:evenodd; clip-rule:evenodd"
viewBox="0 0 56.4 52.9"
 xmlns:xlink="http://www.w3.org/1999/xlink"
 xmlns:xodm="http://www.corel.com/coreldraw/odm/2003">
 <defs>
  <style type="text/css">
   <![CDATA[
    .fil0 {fill:black}
    .fil1 {fill:red}
   ]]>
  </style>
 </defs>
 <g id="Слой_x0020_1">
  <metadata id="CorelCorpID_0Corel-Layer"/>
  <g id="_1989457568256">
   <path class="fil0" d="M0.17 22.97l56.07 0c0.09,0 0.17,0.07 0.17,0.17l0 19.78c0,1.86 -1.52,3.38 -3.38,3.38l-4.46 0 -4.32 -8.59 4.74 0c0.09,0 0.17,-0.07 0.17,-0.17l0 -8.12c0,-1.87 -1.53,-3.4 -3.4,-3.4l-35.1 0c-1.87,0 -3.4,1.53 -3.4,3.4l0 8.12c0,0.09 0.07,0.17 0.17,0.17l4 0 -3.8 8.59 -4.24 0c-1.86,0 -3.38,-1.52 -3.38,-3.38l0 -19.78c0,-0.09 0.07,-0.17 0.17,-0.17zm43.6 14.74l-31.87 0 -3.73 8.59 -2.88 6.61 45.99 0c-2.33,-4.91 -5.22,-10.27 -7.5,-15.19zm-30.05 0.9l28.87 0 5.85 11.76 -40.45 0 5.74 -11.76zm38.82 -14.64c1.4,0 2.53,1.13 2.53,2.54 0,1.4 -1.13,2.54 -2.53,2.54 -1.4,0 -2.53,-1.14 -2.53,-2.54 0,-1.4 1.13,-2.54 2.53,-2.54z"/>
   <path class="fil0" d="M7.62 37.34l41.17 0 0 -7.93c0,-1.67 -1.36,-3.03 -3.03,-3.03l-35.1 0c-1.67,0 -3.03,1.37 -3.03,3.03l0 7.93z"/>
   <path class="fil0" d="M16.3 0l23.73 0c0.13,0 0.24,0.14 0.24,0.31l0 21.9 -24.22 0 0 -21.9c0,-0.17 0.11,-0.31 0.24,-0.31zm0.02 0.34l0 21.53 23.69 0 0 -21.53 -23.69 0z"/>
   <path class="fil0" d="M19.19 2.3l17.95 0c0.09,0 0.17,0.08 0.17,0.17l0 0c0,0.09 -0.08,0.17 -0.17,0.17l-17.95 0c-0.09,0 -0.17,-0.08 -0.17,-0.17l0 0c0,-0.09 0.08,-0.17 0.17,-0.17zm-0.82 17.26l19.6 0c0.09,0 0.17,0.08 0.17,0.17l0 0c0,0.09 -0.08,0.17 -0.17,0.17l-19.6 0c-0.09,0 -0.17,-0.08 -0.17,-0.17l0 -0c0,-0.09 0.08,-0.17 0.17,-0.17zm0.25 -2.16l19.09 0c0.09,0 0.17,0.08 0.17,0.17l0 0c0,0.09 -0.08,0.17 -0.17,0.17l-19.09 0c-0.09,0 -0.17,-0.08 -0.17,-0.17l0 0c0,-0.09 0.08,-0.17 0.17,-0.17zm0.28 -2.16l18.52 0c0.09,0 0.17,0.08 0.17,0.17l0 0c0,0.09 -0.08,0.17 -0.17,0.17l-18.52 0c-0.09,0 -0.17,-0.08 -0.17,-0.17l0 0c0,-0.09 0.08,-0.17 0.17,-0.17zm0.17 -2.16l18.19 0c0.09,0 0.17,0.08 0.17,0.17l0 0c0,0.09 -0.08,0.17 -0.17,0.17l-18.19 0c-0.09,0 -0.17,-0.08 -0.17,-0.17l0 0c0,-0.09 0.08,-0.17 0.17,-0.17zm0.12 -2.16l17.95 0c0.09,0 0.17,0.08 0.17,0.17l0 0c0,0.09 -0.08,0.17 -0.17,0.17l-17.95 0c-0.09,0 -0.17,-0.08 -0.17,-0.17l0 0c0,-0.09 0.08,-0.17 0.17,-0.17zm0 -2.16l17.95 0c0.09,0 0.17,0.08 0.17,0.17l0 0c0,0.09 -0.08,0.17 -0.17,0.17l-17.95 0c-0.09,0 -0.17,-0.08 -0.17,-0.17l0 0c0,-0.09 0.08,-0.17 0.17,-0.17zm0 -2.16l17.95 0c0.09,0 0.17,0.08 0.17,0.17l0 0c0,0.09 -0.08,0.17 -0.17,0.17l-17.95 0c-0.09,0 -0.17,-0.08 -0.17,-0.17l0 0c0,-0.09 0.08,-0.17 0.17,-0.17zm0 -2.16l17.95 0c0.09,0 0.17,0.08 0.17,0.17l0 0c0,0.09 -0.08,0.17 -0.17,0.17l-17.95 0c-0.09,0 -0.17,-0.08 -0.17,-0.17l0 0c0,-0.09 0.08,-0.17 0.17,-0.17z"/>
   <path class="fil1" d="M52.42 24.52c-0.19,0.06 -0.26,0.2 -0.26,0.39 0,0.19 -0.01,1.19 0.01,1.29 0.03,0.13 0.2,0.3 0.38,0.25 0.19,-0.05 0.26,-0.21 0.26,-0.39 0,-0.19 0.01,-1.18 -0.01,-1.29 -0.03,-0.14 -0.2,-0.31 -0.38,-0.25zm0.72 0.45c-0.01,0.15 -0,0.55 -0,0.73 0,0.06 0.19,0.17 0.28,0.47 0.18,0.63 -0.27,1.26 -0.93,1.26 -0.45,0 -0.78,-0.29 -0.9,-0.61 -0.11,-0.3 -0.09,-0.64 0.09,-0.9 0.03,-0.05 0.05,-0.07 0.08,-0.11 0.02,-0.03 0.08,-0.06 0.08,-0.11 0,-0.21 0.01,-0.53 -0,-0.73 -0.13,0.03 -0.43,0.26 -0.52,0.36 -0.54,0.56 -0.62,1.46 -0.14,2.09 0.11,0.14 0.13,0.17 0.26,0.28 0.09,0.08 0.3,0.22 0.45,0.27 0.44,0.15 0.75,0.16 1.2,0 0.15,-0.05 0.36,-0.18 0.45,-0.27 0.28,-0.25 0.45,-0.5 0.54,-0.89 0.12,-0.49 -0.04,-1.04 -0.33,-1.38 -0.08,-0.1 -0.09,-0.1 -0.18,-0.18 -0.07,-0.06 -0.32,-0.25 -0.43,-0.28z"/>
   <path class="fil0" d="M13.35 16.09l2.37 0 0 6.11 -2.47 0 0 -6.01c0,-0.06 0.05,-0.1 0.1,-0.1z"/>
   <path class="fil0" d="M42.95 16.09l-2.37 0 0 6.11 2.47 0 0 -6.01c0,-0.06 -0.05,-0.1 -0.1,-0.1z"/>
  </g>
 </g>
</svg>
