<?xml version="1.0" encoding="UTF-8"?>
<!DOCTYPE svg PUBLIC "-//W3C//DTD SVG 1.1//EN" "http://www.w3.org/Graphics/SVG/1.1/DTD/svg11.dtd">
<!-- Creator: CorelDRAW 2019 (64-Bit) -->
<svg xmlns="http://www.w3.org/2000/svg" xml:space="preserve" width="9.2131mm" height="5.3655mm" version="1.1" style="shape-rendering:geometricPrecision; text-rendering:geometricPrecision; image-rendering:optimizeQuality; fill-rule:evenodd; clip-rule:evenodd"
viewBox="0 0 191.68 111.63"
 xmlns:xlink="http://www.w3.org/1999/xlink"
 xmlns:xodm="http://www.corel.com/coreldraw/odm/2003">
 <defs>
  <style type="text/css">
   <![CDATA[
    .fil0 {fill:black}
    .fil1 {fill:red}
   ]]>
  </style>
 </defs>
 <g id="Слой_x0020_1">
  <metadata id="CorelCorpID_0Corel-Layer"/>
  <g id="_1989423572016">
   <path class="fil0" d="M36.6 0l76.09 0c0.42,0 0.77,0.45 0.77,0.99l0 57.3 -77.63 0 0 -57.3c0,-0.55 0.35,-0.99 0.77,-0.99zm0.07 1.08l0 56.13 75.95 0 0 -56.13 -75.95 0zm78.42 35.88l8.3 0c0.2,0 0.36,0.16 0.36,0.35l0 20.97 -8.66 0 0 -21.33z"/>
   <path class="fil0" d="M25.71 36.96l8.26 0 0 21.33 -8.62 0 0 -20.97c0,-0.19 0.16,-0.35 0.36,-0.35z"/>
   <path class="fil1" d="M127.82 67.18c-0.66,0.2 -0.89,0.69 -0.89,1.36 0,0.65 -0.05,4.1 0.04,4.44 0.11,0.46 0.68,1.02 1.31,0.86 0.64,-0.16 0.9,-0.71 0.9,-1.35 -0,-0.67 0.05,-4.08 -0.03,-4.45 -0.11,-0.47 -0.69,-1.06 -1.33,-0.87zm2.48 1.56c-0.03,0.52 -0.01,1.91 -0.01,2.52 0,0.22 0.67,0.57 0.97,1.63 0.63,2.19 -0.93,4.33 -3.21,4.33 -1.54,0 -2.7,-1.01 -3.12,-2.1 -0.4,-1.02 -0.3,-2.21 0.32,-3.11 0.11,-0.16 0.17,-0.24 0.28,-0.38 0.09,-0.1 0.28,-0.22 0.28,-0.38 0,-0.72 0.02,-1.85 -0,-2.52 -0.47,0.1 -1.47,0.89 -1.8,1.24 -1.86,1.94 -2.12,5.04 -0.48,7.21 0.37,0.48 0.46,0.57 0.9,0.97 0.32,0.29 1.03,0.74 1.54,0.92 1.54,0.53 2.6,0.55 4.14,0.01 0.51,-0.18 1.23,-0.63 1.55,-0.92 0.96,-0.88 1.55,-1.73 1.87,-3.07 0.41,-1.71 -0.13,-3.59 -1.13,-4.77 -0.28,-0.33 -0.31,-0.35 -0.61,-0.63 -0.22,-0.21 -1.11,-0.87 -1.5,-0.96z"/>
   <path class="fil0" d="M46.09 7.38l57.56 0c0.3,0 0.55,0.24 0.55,0.55l0 0c0,0.3 -0.25,0.55 -0.55,0.55l-57.56 0c-0.3,0 -0.55,-0.25 -0.55,-0.55l0 0c0,-0.3 0.25,-0.55 0.55,-0.55zm-0.91 41.5l59.38 0c0.3,0 0.55,0.24 0.55,0.55l0 0c0,0.3 -0.25,0.55 -0.55,0.55l-59.38 0c-0.3,0 -0.55,-0.25 -0.55,-0.55l0 0c0,-0.3 0.24,-0.55 0.55,-0.55zm0.53 -6.92l58.32 0c0.3,0 0.55,0.25 0.55,0.55l0 0c0,0.3 -0.25,0.55 -0.55,0.55l-58.32 0c-0.3,0 -0.55,-0.25 -0.55,-0.55l0 0c0,-0.3 0.24,-0.55 0.55,-0.55zm0.38 -6.92l57.56 0c0.3,0 0.55,0.25 0.55,0.55l0 0c0,0.3 -0.25,0.55 -0.55,0.55l-57.56 0c-0.3,0 -0.55,-0.25 -0.55,-0.55l0 0c0,-0.3 0.25,-0.55 0.55,-0.55zm0 -6.92l57.56 0c0.3,0 0.55,0.25 0.55,0.55l0 0c0,0.3 -0.25,0.55 -0.55,0.55l-57.56 0c-0.3,0 -0.55,-0.25 -0.55,-0.55l0 0c0,-0.3 0.25,-0.55 0.55,-0.55zm0 -6.92l57.56 0c0.3,0 0.55,0.25 0.55,0.55l0 0c0,0.3 -0.25,0.55 -0.55,0.55l-57.56 0c-0.3,0 -0.55,-0.25 -0.55,-0.55l0 0c0,-0.3 0.25,-0.55 0.55,-0.55zm0 -6.92l57.56 0c0.3,0 0.55,0.25 0.55,0.55l0 0c0,0.3 -0.25,0.55 -0.55,0.55l-57.56 0c-0.3,0 -0.55,-0.25 -0.55,-0.55l0 0c0,-0.3 0.25,-0.55 0.55,-0.55z"/>
   <path class="fil0" d="M126.89 111.63l-6.64 0 -0.81 0 -6.64 0 -0.89 0 -74.56 0 -0.35 0 -0.35 0 -6.64 0 -0.93 0 -1.11 0 -5.53 0 -3.5 0 -16.33 0c-1.44,0 -2.62,-1.18 -2.62,-2.62l0 -46.68c0,-1.44 1.18,-2.63 2.62,-2.63l144.08 0c1.44,0 2.62,1.18 2.62,2.63l0 46.68c0,1.44 -1.18,2.62 -2.62,2.62l-18.96 0 -0.86 0zm-4.51 -45.68l11.59 0c1.12,0 2.03,0.92 2.03,2.03l0 11.59c0,1.12 -0.92,2.03 -2.03,2.03l-11.59 0c-1.12,0 -2.03,-0.92 -2.03,-2.03l0 -11.59c0,-1.12 0.92,-2.03 2.03,-2.03z"/>
   <path class="fil0" d="M150.25 99.42c2.78,0.6 5.12,1.64 7.02,3.11l0 3.14c-1.59,-1.79 -3.74,-2.97 -7.02,-3.55l0 -2.7z"/>
   <rect class="fil0" x="158.11" y="81.3" width="7.63" height="30.31" rx="0.6" ry="0.6"/>
   <path class="fil0" d="M160.09 79.76l1.02 0c-0.03,-0.06 -0.05,-0.12 -0.05,-0.19l0 -0.3c0,-0.21 0.17,-0.38 0.38,-0.38l0.97 0c0.21,0 0.38,0.17 0.38,0.38l0 0.3c0,0.07 -0.02,0.13 -0.05,0.19l1.02 0c0.14,0 0.25,0.11 0.25,0.25l0 0.2c0,0.14 -0.11,0.25 -0.25,0.25l-3.66 0c-0.14,0 -0.25,-0.11 -0.25,-0.25l0 -0.2c0,-0.14 0.11,-0.25 0.25,-0.25z"/>
   <rect class="fil0" x="166.76" y="81.3" width="7.63" height="30.31" rx="0.6" ry="0.6"/>
   <path class="fil0" d="M168.74 79.76l1.02 0c-0.03,-0.06 -0.05,-0.12 -0.05,-0.19l0 -0.3c0,-0.21 0.17,-0.38 0.38,-0.38l0.97 0c0.21,0 0.38,0.17 0.38,0.38l0 0.3c0,0.07 -0.02,0.13 -0.05,0.19l1.02 0c0.14,0 0.25,0.11 0.25,0.25l0 0.2c0,0.14 -0.11,0.25 -0.25,0.25l-3.66 0c-0.14,0 -0.25,-0.11 -0.25,-0.25l0 -0.2c0,-0.14 0.11,-0.25 0.25,-0.25z"/>
   <rect class="fil0" x="175.41" y="81.3" width="7.63" height="30.31" rx="0.6" ry="0.6"/>
   <path class="fil0" d="M177.39 79.76l1.02 0c-0.03,-0.06 -0.05,-0.12 -0.05,-0.19l0 -0.3c0,-0.21 0.17,-0.38 0.38,-0.38l0.96 0c0.21,0 0.38,0.17 0.38,0.38l0 0.3c0,0.07 -0.02,0.13 -0.05,0.19l1.02 0c0.14,0 0.25,0.11 0.25,0.25l0 0.2c0,0.14 -0.11,0.25 -0.25,0.25l-3.66 0c-0.14,0 -0.25,-0.11 -0.25,-0.25l0 -0.2c0,-0.14 0.11,-0.25 0.25,-0.25z"/>
   <rect class="fil0" x="184.05" y="81.3" width="7.63" height="30.31" rx="0.6" ry="0.6"/>
   <path class="fil0" d="M186.04 79.76l1.02 0c-0.03,-0.06 -0.05,-0.12 -0.05,-0.19l0 -0.3c0,-0.21 0.17,-0.38 0.38,-0.38l0.97 0c0.21,0 0.38,0.17 0.38,0.38l0 0.3c0,0.07 -0.02,0.13 -0.05,0.19l1.02 0c0.14,0 0.25,0.11 0.25,0.25l0 0.2c0,0.14 -0.11,0.25 -0.25,0.25l-3.66 0c-0.14,0 -0.25,-0.11 -0.25,-0.25l0 -0.2c0,-0.14 0.11,-0.25 0.25,-0.25z"/>
  </g>
 </g>
</svg>
