<?xml version="1.0" encoding="UTF-8"?>
<!DOCTYPE svg PUBLIC "-//W3C//DTD SVG 1.1//EN" "http://www.w3.org/Graphics/SVG/1.1/DTD/svg11.dtd">
<!-- Creator: CorelDRAW 2019 (64-Bit) -->
<svg xmlns="http://www.w3.org/2000/svg" xml:space="preserve" width="5.7771mm" height="5.3908mm" version="1.1" style="shape-rendering:geometricPrecision; text-rendering:geometricPrecision; image-rendering:optimizeQuality; fill-rule:evenodd; clip-rule:evenodd"
viewBox="0 0 32.15 30"
 xmlns:xlink="http://www.w3.org/1999/xlink"
 xmlns:xodm="http://www.corel.com/coreldraw/odm/2003">
 <defs>
  <style type="text/css">
   <![CDATA[
    .fil0 {fill:black}
    .fil1 {fill:red}
   ]]>
  </style>
 </defs>
 <g id="Слой_x0020_1">
  <metadata id="CorelCorpID_0Corel-Layer"/>
  <g id="_1989454221456">
   <path class="fil0" d="M10.38 29.3c-0.03,0.39 -0.36,0.71 -0.76,0.71 -0.4,0 -0.73,-0.31 -0.76,-0.71l0 0 0 -0c-0,-0.02 -0,-0.04 -0,-0.05 0,-0.02 0,-0.04 0,-0.05l0 -1.35 23.3 0 0 1.41 0 0.06 -0 0c-0.03,0.39 -0.36,0.71 -0.76,0.71 -0.4,0 -0.73,-0.31 -0.76,-0.71l-20.26 0zm-1.52 -1.87l0 -5.67 0 -2.61 0 -2.17 0 -4.58 0 -1.73 23.3 0 0 16.76 -23.3 0zm-0.41 -8.48l-7.16 -3.53 0.15 -0.9 -1.43 -0.79 0.98 -0.13 7.46 3.2 0 2.15zm0.41 -8.68l0 -3.98 0 -0.03 -0 -0.03 0 -4.45c0,-0.4 0.33,-0.73 0.73,-0.73l6.7 0 0 0.84 0 2.2 0 0.75 0 0.21 0 0.06 2.01 0 1.59 0 12.27 0 0 5.16 -23.3 0zm7.7 -6.27l12.63 -3.97c0.16,-0.05 0.34,0.06 0.39,0.23l0.31 1.02c0.05,0.16 -0.05,0.32 -0.21,0.37l-10.49 3.19 -2.63 0 0 -0.84zm11.94 3.13c0.47,0 0.85,0.38 0.85,0.85 0,0.47 -0.38,0.85 -0.85,0.85 -0.47,0 -0.85,-0.38 -0.85,-0.85 0,-0.47 0.38,-0.85 0.85,-0.85zm-2.02 0c0.47,0 0.85,0.38 0.85,0.85 0,0.47 -0.38,0.85 -0.85,0.85 -0.47,0 -0.85,-0.38 -0.85,-0.85 0,-0.47 0.38,-0.85 0.85,-0.85zm-2.01 0c0.47,0 0.85,0.38 0.85,0.85 0,0.47 -0.38,0.85 -0.85,0.85 -0.47,0 -0.85,-0.38 -0.85,-0.85 0,-0.47 0.38,-0.85 0.85,-0.85zm-9.17 9.94l10.42 0c0.47,0 0.85,0.38 0.85,0.85l0 2.92c0,0.47 -0.38,0.85 -0.85,0.85l-0.81 0 0 2.31c0,0.17 -0.14,0.31 -0.31,0.31l-8.3 0c-0.17,0 -0.31,-0.14 -0.31,-0.31l0 -2.31 -0.68 0c-0.47,0 -0.85,-0.38 -0.85,-0.85l0 -2.92c0,-0.47 0.38,-0.85 0.85,-0.85z"/>
   <circle class="fil1" cx="28.5" cy="7.97" r="0.58"/>
   <circle class="fil1" cx="26.48" cy="7.97" r="0.58"/>
   <circle class="fil1" cx="24.46" cy="7.97" r="0.58"/>
   <rect class="fil0" x="14.71" y="17.32" width="11.59" height="4.09" rx="0.6" ry="0.58"/>
   <path class="fil0" d="M24.63 21.68l0 2.31c0,0.02 -0.02,0.04 -0.04,0.04l-8.3 0c-0.02,0 -0.04,-0.02 -0.04,-0.04l0 -2.31 8.39 0zm-0.2 0.2l-7.98 0 0 1.95 7.98 0 0 -1.95z"/>
   <path class="fil0" d="M17.66 22.22l5.79 0c0.03,0 0.06,0.02 0.06,0.05 0,0.03 -0.02,0.05 -0.06,0.05l-5.79 0c-0.03,0 -0.06,-0.02 -0.06,-0.05 0,-0.03 0.02,-0.05 0.06,-0.05zm0 1.19l5.79 0c0.03,0 0.06,0.02 0.06,0.05 0,0.03 -0.02,0.05 -0.06,0.05l-5.79 0c-0.03,0 -0.06,-0.02 -0.06,-0.05 0,-0.03 0.02,-0.05 0.06,-0.05zm0 -0.59l5.79 0c0.03,0 0.06,0.02 0.06,0.05 0,0.03 -0.02,0.05 -0.06,0.05l-5.79 0c-0.03,0 -0.06,-0.02 -0.06,-0.05 0,-0.03 0.02,-0.05 0.06,-0.05z"/>
  </g>
 </g>
</svg>
