<?xml version="1.0" encoding="UTF-8"?>
<!DOCTYPE svg PUBLIC "-//W3C//DTD SVG 1.1//EN" "http://www.w3.org/Graphics/SVG/1.1/DTD/svg11.dtd">
<!-- Creator: CorelDRAW 2019 (64-Bit) -->
<svg xmlns="http://www.w3.org/2000/svg" xml:space="preserve" width="6.6313mm" height="5.3751mm" version="1.1" style="shape-rendering:geometricPrecision; text-rendering:geometricPrecision; image-rendering:optimizeQuality; fill-rule:evenodd; clip-rule:evenodd"
viewBox="0 0 24.66 19.99"
 xmlns:xlink="http://www.w3.org/1999/xlink"
 xmlns:xodm="http://www.corel.com/coreldraw/odm/2003">
 <defs>
  <style type="text/css">
   <![CDATA[
    .fil0 {fill:black}
    .fil1 {fill:red}
   ]]>
  </style>
 </defs>
 <g id="Слой_x0020_1">
  <metadata id="CorelCorpID_0Corel-Layer"/>
  <g id="_1989457589920">
   <path class="fil0" d="M0.52 0l4.85 0c0.28,0 0.52,0.23 0.52,0.52l0 18.96c0,0.28 -0.23,0.52 -0.52,0.52l-4.85 0c-0.28,0 -0.52,-0.23 -0.52,-0.52l0 -18.96c0,-0.28 0.23,-0.52 0.52,-0.52z"/>
   <g>
    <path class="fil0" d="M8.93 7.02l2.71 0c0.37,0 0.67,0.3 0.67,0.67l0 1.28c0,0.37 -0.3,0.67 -0.67,0.67l-2.71 0c-0.37,0 -0.67,-0.3 -0.67,-0.67l0 -1.28c0,-0.37 0.3,-0.67 0.67,-0.67zm5.37 0l2.71 0c0.37,0 0.67,0.3 0.67,0.67l0 1.28c0,0.37 -0.3,0.67 -0.67,0.67l-2.71 0c-0.37,0 -0.67,-0.3 -0.67,-0.67l0 -1.28c0,-0.37 0.3,-0.67 0.67,-0.67zm5.37 0l2.71 0c0.37,0 0.67,0.3 0.67,0.67l0 1.28c0,0.37 -0.3,0.67 -0.67,0.67l-2.71 0c-0.37,0 -0.67,-0.3 -0.67,-0.67l0 -1.28c0,-0.37 0.3,-0.67 0.67,-0.67zm0 3.37l2.71 0c0.37,0 0.67,0.3 0.67,0.67l0 1.28c0,0.37 -0.3,0.67 -0.67,0.67l-2.71 0c-0.37,0 -0.67,-0.3 -0.67,-0.67l0 -1.28c0,-0.37 0.3,-0.67 0.67,-0.67zm-5.37 0l2.71 0c0.37,0 0.67,0.3 0.67,0.67l0 1.28c0,0.37 -0.3,0.67 -0.67,0.67l-2.71 0c-0.37,0 -0.67,-0.3 -0.67,-0.67l0 -1.28c0,-0.37 0.3,-0.67 0.67,-0.67zm-5.37 0l2.71 0c0.37,0 0.67,0.3 0.67,0.67l0 1.28c0,0.37 -0.3,0.67 -0.67,0.67l-2.71 0c-0.37,0 -0.67,-0.3 -0.67,-0.67l0 -1.28c0,-0.37 0.3,-0.67 0.67,-0.67zm0 3.37l2.71 0c0.37,0 0.67,0.3 0.67,0.67l0 1.28c0,0.37 -0.3,0.67 -0.67,0.67l-2.71 0c-0.37,0 -0.67,-0.3 -0.67,-0.67l0 -1.28c0,-0.37 0.3,-0.67 0.67,-0.67zm5.37 0l2.71 0c0.37,0 0.67,0.3 0.67,0.67l0 1.28c0,0.37 -0.3,0.67 -0.67,0.67l-2.71 0c-0.37,0 -0.67,-0.3 -0.67,-0.67l0 -1.28c0,-0.37 0.3,-0.67 0.67,-0.67zm5.37 0l2.71 0c0.37,0 0.67,0.3 0.67,0.67l0 1.28c0,0.37 -0.3,0.67 -0.67,0.67l-2.71 0c-0.37,0 -0.67,-0.3 -0.67,-0.67l0 -1.28c0,-0.37 0.3,-0.67 0.67,-0.67zm-10.65 -10.71l13.27 0c0.22,0 0.4,0.18 0.4,0.4l0 1.49c0,0.22 -0.18,0.4 -0.4,0.4l-13.27 0c-0.22,0 -0.4,-0.18 -0.4,-0.4l0 -1.49c0,-0.22 0.18,-0.4 0.4,-0.4zm-2.37 -2.25l17.28 0c0.4,0 0.73,0.33 0.73,0.73l0 16.94c0,0.4 -0.33,0.73 -0.73,0.73l-17.28 0 0 -18.4z"/>
    <rect class="fil1" x="8.59" y="7.36" width="3.39" height="1.96" rx="0.38" ry="0.34"/>
    <rect class="fil1" x="13.96" y="7.36" width="3.39" height="1.96" rx="0.38" ry="0.34"/>
    <rect class="fil1" x="19.33" y="7.36" width="3.39" height="1.96" rx="0.38" ry="0.34"/>
    <rect class="fil1" x="8.59" y="10.72" width="3.39" height="1.96" rx="0.38" ry="0.34"/>
    <rect class="fil1" x="13.96" y="10.72" width="3.39" height="1.96" rx="0.38" ry="0.34"/>
    <rect class="fil1" x="19.33" y="10.72" width="3.39" height="1.96" rx="0.38" ry="0.34"/>
    <rect class="fil1" x="8.59" y="14.09" width="3.39" height="1.96" rx="0.38" ry="0.34"/>
    <rect class="fil1" x="13.96" y="14.09" width="3.39" height="1.96" rx="0.38" ry="0.34"/>
    <rect class="fil1" x="19.33" y="14.09" width="3.39" height="1.96" rx="0.38" ry="0.34"/>
   </g>
  </g>
 </g>
</svg>
