<?xml version="1.0" encoding="UTF-8"?>
<!DOCTYPE svg PUBLIC "-//W3C//DTD SVG 1.1//EN" "http://www.w3.org/Graphics/SVG/1.1/DTD/svg11.dtd">
<!-- Creator: CorelDRAW 2019 (64-Bit) -->
<svg xmlns="http://www.w3.org/2000/svg" xml:space="preserve" width="10.4356mm" height="5.3751mm" version="1.1" style="shape-rendering:geometricPrecision; text-rendering:geometricPrecision; image-rendering:optimizeQuality; fill-rule:evenodd; clip-rule:evenodd"
viewBox="0 0 54.23 27.93"
 xmlns:xlink="http://www.w3.org/1999/xlink"
 xmlns:xodm="http://www.corel.com/coreldraw/odm/2003">
 <defs>
  <style type="text/css">
   <![CDATA[
    .fil0 {fill:black}
    .fil1 {fill:red}
   ]]>
  </style>
 </defs>
 <g id="Слой_x0020_1">
  <metadata id="CorelCorpID_0Corel-Layer"/>
  <g id="_1989423538544">
   <path class="fil0" d="M0.83 6.77l5.7 0c1.96,-4.01 6.07,-6.77 10.83,-6.77 4.76,0 8.87,2.76 10.83,6.77l25.21 0c0.46,0 0.83,0.38 0.83,0.84l0 18.02c0,0.46 -0.38,0.84 -0.83,0.84l-2.95 0 0 0.01 0 0c0,0.81 -0.66,1.47 -1.47,1.47l-2.64 0c-0.81,0 -1.47,-0.66 -1.47,-1.47l0 0 0 -0.01 -35.58 0 0 0.01 0 0c0,0.81 -0.66,1.47 -1.47,1.47l-2.64 0c-0.81,0 -1.47,-0.66 -1.47,-1.47l0 0 0 -0.01 -2.88 0c-0.46,0 -0.83,-0.38 -0.83,-0.84l0 -18.02c0,-0.46 0.38,-0.84 0.83,-0.84zm16.52 -3.87c5.05,0 9.14,4.09 9.14,9.14 0,5.05 -4.09,9.14 -9.14,9.14 -5.05,0 -9.14,-4.09 -9.14,-9.14 0,-5.05 4.09,-9.14 9.14,-9.14zm0 2.95c3.42,0 6.19,2.77 6.19,6.19 0,3.42 -2.77,6.19 -6.19,6.19 -3.42,0 -6.19,-2.77 -6.19,-6.19 0,-3.42 2.77,-6.19 6.19,-6.19zm0 -1.46c4.22,0 7.65,3.42 7.65,7.65 0,4.22 -3.42,7.65 -7.65,7.65 -4.22,0 -7.65,-3.42 -7.65,-7.65 0,-4.22 3.42,-7.65 7.65,-7.65zm18.49 15.63l12.81 0c0.11,0 0.21,0.09 0.21,0.21l0 1.34c0,0.11 -0.09,0.21 -0.21,0.21l-12.81 0c-0.11,0 -0.21,-0.09 -0.21,-0.21l0 -1.34c0,-0.11 0.09,-0.21 0.21,-0.21zm0 -4.72l12.81 0c0.11,0 0.21,0.09 0.21,0.21l0 1.34c0,0.11 -0.09,0.21 -0.21,0.21l-12.81 0c-0.11,0 -0.21,-0.09 -0.21,-0.21l0 -1.34c0,-0.12 0.09,-0.21 0.21,-0.21zm0 -4.72l12.81 0c0.11,0 0.21,0.09 0.21,0.21l0 1.34c0,0.11 -0.09,0.21 -0.21,0.21l-12.81 0c-0.11,0 -0.21,-0.09 -0.21,-0.21l0 -1.34c0,-0.11 0.09,-0.21 0.21,-0.21z"/>
   <path class="fil1" d="M17.4 7.02c2.47,0 4.53,1.76 5,4.09 -0.84,-1.65 -2.56,-2.79 -4.54,-2.79 -2.82,0 -5.1,2.28 -5.1,5.1 0,0.35 0.03,0.68 0.1,1.01 -0.35,-0.69 -0.55,-1.48 -0.55,-2.31 0,-2.82 2.28,-5.1 5.1,-5.1z"/>
  </g>
 </g>
</svg>
