<?xml version="1.0" encoding="UTF-8"?>
<!DOCTYPE svg PUBLIC "-//W3C//DTD SVG 1.1//EN" "http://www.w3.org/Graphics/SVG/1.1/DTD/svg11.dtd">
<!-- Creator: CorelDRAW 2019 (64-Bit) -->
<svg xmlns="http://www.w3.org/2000/svg" xml:space="preserve" width="5.2183mm" height="5.3751mm" version="1.1" style="shape-rendering:geometricPrecision; text-rendering:geometricPrecision; image-rendering:optimizeQuality; fill-rule:evenodd; clip-rule:evenodd"
viewBox="0 0 23.33 24.03"
 xmlns:xlink="http://www.w3.org/1999/xlink"
 xmlns:xodm="http://www.corel.com/coreldraw/odm/2003">
 <defs>
  <style type="text/css">
   <![CDATA[
    .fil0 {fill:black}
    .fil1 {fill:red}
   ]]>
  </style>
 </defs>
 <g id="Слой_x0020_1">
  <metadata id="CorelCorpID_0Corel-Layer"/>
  <g id="_1989452992688">
   <path class="fil0" d="M7.02 19.45l-0.15 0 0 -1.97 0.15 0 0 1.97zm1.18 0l-0.14 0 0 -1.97 0.14 0 0 1.97zm1.19 0l-0.16 0 0 -1.97 0.16 0 0 1.97zm1.18 0l-0.14 0 0 -1.97 0.14 0 0 1.97zm1.18 0l-0.14 0 0 -1.97 0.14 0 0 1.97zm1.16 0l-0.13 0 0 -1.97 0.13 0 0 1.97zm1.18 0l-0.14 0 0 -1.97 0.14 0 0 1.97zm1.19 0l-0.15 0 0 -1.97 0.15 0 0 1.97zm1.16 0l-0.13 0 0 -1.97 0.13 0 0 1.97zm-10.35 -2.41l0.52 0 0 6.59 -0.52 0 0 -6.59zm1.19 0l0.52 0 0 5.59 -0.52 0 0 -5.59zm1.18 0l0.52 0 0 4.54 -0.52 0 0 -4.54zm1.19 0l0.52 0 0 5.6 -0.52 0 0 -5.6zm1.18 0l0.52 0 0 6.9 -0.52 0 0 -6.9zm5.87 0l0.52 0 0 5.61 -0.52 0 0 -5.61zm-0.09 -0.09l0.7 0 0 5.79 -0.7 0 0 -5.79zm-1.07 0.09l0.52 0 0 4.89 -0.52 0 0 -4.89zm-0.09 -0.09l0.7 0 0 5.07 -0.7 0 0 -5.07zm-1.1 0.09l0.52 0 0 6.65 -0.52 0 0 -6.65zm-0.09 -0.09l0.7 0 0 6.83 -0.7 0 0 -6.83zm-1.09 0.09l0.52 0 0 6.27 -0.52 0 0 -6.27zm-0.09 -0.09l0.7 0 0 6.45 -0.7 0 0 -6.45zm-1.07 0.09l0.52 0 0 4.89 -0.52 0 0 -4.89zm-0.09 -0.09l0.7 0 0 5.07 -0.7 0 0 -5.07zm-1.18 0l0.7 0 0 7.08 -0.7 0 0 -7.08zm-1.18 0l0.7 0 0 5.78 -0.7 0 0 -5.78zm-1.19 0l0.7 0 0 4.72 -0.7 0 0 -4.72zm-1.18 0l0.7 0 0 5.77 -0.7 0 0 -5.77zm-1.19 0l0.7 0 0 6.76 -0.7 0 0 -6.76z"/>
   <path class="fil0" d="M5.72 0l11.89 0c0.07,0 0.12,0.07 0.12,0.15l0 10.97 -12.13 0 0 -10.97c0,-0.08 0.05,-0.15 0.12,-0.15zm0.01 0.17l0 10.78 11.86 0 0 -10.78 -11.86 0zm12.25 7.62l1.3 0c0.03,0 0.06,0.03 0.06,0.06l0 3.28 -1.35 0 0 -3.33z"/>
   <path class="fil0" d="M4.02 7.79l1.29 0 0 3.33 -1.35 0 0 -3.28c0,-0.03 0.03,-0.06 0.06,-0.06z"/>
   <path class="fil0" d="M5.53 17.49c-0.01,0 -0.02,-0.01 -0.02,-0.02 0,-0.22 0,-0.44 0,-0.66 0,-0.01 0.01,-0.02 0.02,-0.02 1.24,0 0.1,0 1.34,0l0.15 0 1.04 0 1.34 0 1.04 0 0.14 0 1.04 0 0.14 0 1.04 0 0.13 0 1.04 0 0.14 0 1.04 0 0.15 0 1.04 0 0.13 0c1.3,0 0.16,0 1.47,0 0.01,0 0.02,0.01 0.02,0.02l0 0.24c0,0.01 -0.01,0.02 -0.02,0.02l-0.16 0 0 0.4c0,0.01 -0.01,0.02 -0.02,0.02 -0.12,0 -0.2,0 -0.25,0l0 1.97 0.14 0 1.04 0 0.13 0 1.04 0 0.13 0 2.96 0c0.23,0 0.41,-0.18 0.41,-0.41l0 -7.29c0,-0.23 -0.18,-0.41 -0.41,-0.41l-22.51 0c-0.23,0 -0.41,0.18 -0.41,0.41l0 7.29c0,0.23 0.18,0.41 0.41,0.41l2.55 0 0.55 0 1.04 0 0.14 0 1.04 0 0.05 0 0.05 0 0 -1.97c-0.2,0 -0.05,0 -0.31,0zm13.59 -5.17l1.81 0c0.17,0 0.32,0.14 0.32,0.32l0 1.81c0,0.17 -0.14,0.32 -0.32,0.32l-1.81 0c-0.17,0 -0.32,-0.14 -0.32,-0.32l0 -1.81c0,-0.17 0.14,-0.32 0.32,-0.32z"/>
   <path class="fil1" d="M19.97 12.51c-0.1,0.03 -0.14,0.11 -0.14,0.21 0,0.1 -0.01,0.64 0.01,0.69 0.02,0.07 0.11,0.16 0.21,0.13 0.1,-0.03 0.14,-0.11 0.14,-0.21 -0,-0.1 0.01,-0.64 -0,-0.69 -0.02,-0.07 -0.11,-0.17 -0.21,-0.14zm0.39 0.24c-0,0.08 -0,0.3 -0,0.39 0,0.03 0.1,0.09 0.15,0.25 0.1,0.34 -0.15,0.68 -0.5,0.68 -0.24,0 -0.42,-0.16 -0.49,-0.33 -0.06,-0.16 -0.05,-0.34 0.05,-0.49 0.02,-0.02 0.03,-0.04 0.04,-0.06 0.01,-0.02 0.04,-0.03 0.04,-0.06 0,-0.11 0,-0.29 -0,-0.39 -0.07,0.02 -0.23,0.14 -0.28,0.19 -0.29,0.3 -0.33,0.79 -0.07,1.13 0.06,0.08 0.07,0.09 0.14,0.15 0.05,0.04 0.16,0.12 0.24,0.14 0.24,0.08 0.41,0.09 0.65,0 0.08,-0.03 0.19,-0.1 0.24,-0.14 0.15,-0.14 0.24,-0.27 0.29,-0.48 0.06,-0.27 -0.02,-0.56 -0.18,-0.75 -0.04,-0.05 -0.05,-0.05 -0.09,-0.1 -0.04,-0.03 -0.17,-0.14 -0.23,-0.15z"/>
   <path class="fil0" d="M7.2 1.15l8.99 0c0.05,0 0.09,0.04 0.09,0.09l0 0c0,0.05 -0.04,0.08 -0.09,0.08l-8.99 0c-0.05,0 -0.09,-0.04 -0.09,-0.08l0 0c0,-0.05 0.04,-0.09 0.09,-0.09zm-0.41 8.64l9.82 0c0.05,0 0.09,0.04 0.09,0.09l0 0c0,0.05 -0.04,0.09 -0.09,0.09l-9.82 0c-0.05,0 -0.08,-0.04 -0.08,-0.09l0 0c0,-0.05 0.04,-0.09 0.08,-0.09zm0.13 -1.08l9.56 0c0.05,0 0.09,0.04 0.09,0.09l0 0c0,0.05 -0.04,0.09 -0.09,0.09l-9.56 0c-0.05,0 -0.08,-0.04 -0.08,-0.09l0 0c0,-0.05 0.04,-0.09 0.08,-0.09zm0.14 -1.08l9.28 0c0.05,0 0.09,0.04 0.09,0.09l0 0c0,0.05 -0.04,0.09 -0.09,0.09l-9.28 0c-0.05,0 -0.08,-0.04 -0.08,-0.09l0 0c0,-0.05 0.04,-0.09 0.08,-0.09zm0.08 -1.08l9.11 0c0.05,0 0.09,0.04 0.09,0.09l0 0c0,0.05 -0.04,0.09 -0.09,0.09l-9.11 0c-0.05,0 -0.09,-0.04 -0.09,-0.09l0 0c0,-0.05 0.04,-0.09 0.09,-0.09zm0.06 -1.08l8.99 0c0.05,0 0.09,0.04 0.09,0.09l0 0c0,0.05 -0.04,0.08 -0.09,0.08l-8.99 0c-0.05,0 -0.09,-0.04 -0.09,-0.08l0 0c0,-0.05 0.04,-0.09 0.09,-0.09zm0 -1.08l8.99 0c0.05,0 0.09,0.04 0.09,0.09l0 0c0,0.05 -0.04,0.08 -0.09,0.08l-8.99 0c-0.05,0 -0.09,-0.04 -0.09,-0.08l0 0c0,-0.05 0.04,-0.09 0.09,-0.09zm0 -1.08l8.99 0c0.05,0 0.09,0.04 0.09,0.08l0 0c0,0.05 -0.04,0.08 -0.09,0.08l-8.99 0c-0.05,0 -0.09,-0.04 -0.09,-0.08l0 -0c0,-0.05 0.04,-0.08 0.09,-0.08zm0 -1.08l8.99 0c0.05,0 0.09,0.04 0.09,0.08l0 0c0,0.05 -0.04,0.09 -0.09,0.09l-8.99 0c-0.05,0 -0.09,-0.04 -0.09,-0.09l0 0c0,-0.05 0.04,-0.08 0.09,-0.08z"/>
  </g>
 </g>
</svg>
