<?xml version="1.0" encoding="UTF-8"?>
<!DOCTYPE svg PUBLIC "-//W3C//DTD SVG 1.1//EN" "http://www.w3.org/Graphics/SVG/1.1/DTD/svg11.dtd">
<!-- Creator: CorelDRAW 2020 (64-Bit) -->
<svg xmlns="http://www.w3.org/2000/svg" xml:space="preserve" width="7.7446mm" height="6.4166mm" version="1.1" style="shape-rendering:geometricPrecision; text-rendering:geometricPrecision; image-rendering:optimizeQuality; fill-rule:evenodd; clip-rule:evenodd"
viewBox="0 0 42.71 35.39"
 xmlns:xlink="http://www.w3.org/1999/xlink"
 xmlns:xodm="http://www.corel.com/coreldraw/odm/2003">
 <defs>
  <style type="text/css">
   <![CDATA[
    .fil0 {fill:black}
    .fil2 {fill:#FDFDFD}
    .fil1 {fill:red}
   ]]>
  </style>
 </defs>
 <g id="Слой_x0020_1">
  <metadata id="CorelCorpID_0Corel-Layer"/>
  <path class="fil0" d="M4.43 15.31c-8.52,5.9 -3.04,15.33 4.74,15.3 1.16,0 2.32,0.01 3.47,-0 1.08,-0.01 6.18,-0.05 6.86,0.02 0.01,0.57 -0.03,1.18 -0.03,1.78 0,1.88 0.32,2.27 1.88,2.32 5.67,0.19 11.66,0.01 17.36,0.01 1.33,0 2.11,-0.13 2.1,-1.7 -0.07,-8.57 -1.03,-12.75 -7.39,-18.67 6.05,-3.94 2.5,-14.34 -5.06,-14.35 -6.06,-0 -12.29,0.06 -18.34,0 -1.59,-0.01 -2.7,-0.11 -4.21,0.31 -6.71,1.86 -8.19,10.51 -1.38,14.98zm2.83 1.97c-2.66,0.45 -4.95,2.9 -4.45,6.08 0.41,2.62 2.91,4.92 6.05,4.45 2.65,-0.39 4.97,-2.9 4.48,-6.06 -0.41,-2.63 -2.92,-5 -6.08,-4.46zm0.09 -14.46c-2.69,0.4 -5,2.82 -4.56,6.01 0.37,2.67 2.87,4.99 6.03,4.54 2.63,-0.38 4.98,-2.88 4.51,-6.04 -0.39,-2.63 -2.85,-4.97 -5.99,-4.51zm14.91 29.18l15.81 0c0.08,-4.68 -0.99,-9.64 -3.95,-13.18 -1.11,-1.32 -2.39,-2.48 -4.13,-3.27 -0.73,-0.32 -1.21,-0.25 -2.21,-0.24l-12.36 0c4.91,3.87 6.75,10.7 6.84,16.68z"/>
  <path class="fil1" d="M7.75 5.37c-3.74,0.52 -2.82,5.9 0.69,5.43 1.38,-0.19 2.56,-1.46 2.34,-3.09 -0.19,-1.38 -1.48,-2.56 -3.03,-2.34z"/>
  <path class="fil1" d="M7.66 19.83c-3.58,0.6 -2.76,5.95 0.86,5.4 1.34,-0.2 2.5,-1.51 2.26,-3.12 -0.21,-1.36 -1.5,-2.56 -3.12,-2.29z"/>
  <path class="fil2" d="M40.44 26.36c-0.05,0.37 0.2,1.58 0.25,2.08 0.18,1.78 0.11,2.85 0.13,4.59 0.01,1.32 -0.35,1.11 -0.68,1.57l-0.05 0.79 1.31 0 0.01 -1.3 1.3 -0.01 0 -1.31 -1.3 -0.01 0 -1.29 1.3 -0.01 0 -1.31 -1.3 -0.01 0.03 -1.29 -0 -1.33 -0.04 -1.3 -0.79 -0.01 -0.13 0.01 -0.05 0.14z"/>
 </g>
</svg>
