<?xml version="1.0" encoding="UTF-8"?>
<!DOCTYPE svg PUBLIC "-//W3C//DTD SVG 1.1//EN" "http://www.w3.org/Graphics/SVG/1.1/DTD/svg11.dtd">
<!-- Creator: CorelDRAW 2019 (64-Bit) -->
<svg xmlns="http://www.w3.org/2000/svg" xml:space="preserve" width="2.9552mm" height="5.3753mm" version="1.1" style="shape-rendering:geometricPrecision; text-rendering:geometricPrecision; image-rendering:optimizeQuality; fill-rule:evenodd; clip-rule:evenodd"
viewBox="0 0 5.38 9.78"
 xmlns:xlink="http://www.w3.org/1999/xlink"
 xmlns:xodm="http://www.corel.com/coreldraw/odm/2003">
 <defs>
  <style type="text/css">
   <![CDATA[
    .fil0 {fill:black}
    .fil1 {fill:red}
   ]]>
  </style>
 </defs>
 <g id="Слой_x0020_1">
  <metadata id="CorelCorpID_0Corel-Layer"/>
  <g id="_1989457589696">
   <path class="fil0" d="M0.05 4.73c0.61,0.14 0.95,0.25 2.35,0.25 1.4,0 2.02,-0.14 2.35,-0.25 0.05,-0.01 0.04,0.02 0.04,0.04l0 3.95c0,0.58 -0.47,1.06 -1.06,1.06l-2.66 0c-0.58,0 -1.06,-0.47 -1.06,-1.06l0 -3.95c0,-0.02 0.02,-0.05 0.04,-0.04z"/>
   <path class="fil0" d="M0.65 4.28c0.02,0.33 0.03,0.5 0.03,0.5 -0.9,-0.17 -0.91,-0.34 -0.03,-0.5z"/>
   <path class="fil0" d="M0.49 1.92c0.22,1.91 0.34,2.87 0.34,2.87 0.33,0.02 0.62,0.03 0.92,0.05 -0.24,-2.01 -0.36,-3.04 -0.36,-3.04 -0.59,0.08 -0.89,0.12 -0.89,0.12z"/>
   <path class="fil0" d="M1.3 1.23c0.03,0.3 0.05,0.45 0.05,0.45 -0.59,0.08 -0.88,0.12 -0.88,0.12 -0.03,-0.3 -0.05,-0.45 -0.05,-0.45 0.58,-0.08 0.87,-0.12 0.87,-0.12z"/>
   <path class="fil0" d="M1.28 1.07c-0.25,-0.58 -0.36,-0.89 -0.56,-0.88 -0.2,0.01 -0.23,0.35 -0.32,0.98 0.58,-0.07 0.88,-0.1 0.88,-0.1z"/>
   <path class="fil0" d="M2.73 4.84c0.5,-0.01 0.53,-0.02 1.26,-0.09 0.91,-2.82 1.37,-4.23 1.37,-4.23 0.04,-0.14 -0.02,-0.23 -0.19,-0.26 -0.49,-0.16 -0.73,-0.25 -0.73,-0.25 -0.11,-0.04 -0.18,0.01 -0.22,0.13 -0.99,3.13 -1.49,4.7 -1.49,4.7zm1.82 -4.42l0.56 0.17c0.02,0.01 0.03,0.03 0.03,0.05l-0.03 0.09c-0.01,0.02 -0.03,0.03 -0.05,0.03l-0.56 -0.17c-0.02,-0.01 -0.03,-0.03 -0.03,-0.05l0.03 -0.09c0.01,-0.02 0.03,-0.03 0.05,-0.03zm-0.28 0.91l0.56 0.17c0.02,0.01 0.03,0.03 0.03,0.05l-0.03 0.09c-0.01,0.02 -0.03,0.03 -0.05,0.03l-0.56 -0.17c-0.02,-0.01 -0.03,-0.03 -0.03,-0.05l0.03 -0.09c0.01,-0.02 0.03,-0.03 0.05,-0.03zm-0.28 0.91l0.56 0.17c0.02,0.01 0.03,0.03 0.03,0.05l-0.03 0.09c-0.01,0.02 -0.03,0.03 -0.05,0.03l-0.56 -0.17c-0.02,-0.01 -0.03,-0.03 -0.03,-0.05l0.03 -0.09c0.01,-0.02 0.03,-0.03 0.05,-0.03zm-0.28 0.91l0.56 0.17c0.02,0.01 0.03,0.03 0.03,0.05l-0.03 0.09c-0.01,0.02 -0.03,0.03 -0.05,0.03l-0.56 -0.17c-0.02,-0.01 -0.03,-0.03 -0.03,-0.05l0.03 -0.09c0.01,-0.02 0.03,-0.03 0.05,-0.03zm-0.28 0.91l0.56 0.17c0.02,0.01 0.03,0.03 0.03,0.05l-0.03 0.09c-0.01,0.02 -0.03,0.03 -0.05,0.03l-0.56 -0.17c-0.02,-0.01 -0.03,-0.03 -0.03,-0.05l0.03 -0.09c0.01,-0.02 0.03,-0.03 0.05,-0.03z"/>
   <path class="fil1" d="M2.61 4.84c-0.37,0.01 -0.56,0.01 -0.73,0 0.06,-0.89 0.08,-1.36 0.08,-1.36 0.63,0.04 0.94,0.06 0.94,0.06 -0.01,0.19 -0.03,0.36 -0.04,0.51l-0.23 0.74 -0.02 0.05z"/>
   <path class="fil1" d="M2.03 2.18c-0.06,0.79 -0.09,1.18 -0.09,1.18 0.7,0.05 1.05,0.08 1.05,0.08 0.09,-1.12 0.13,-1.68 0.13,-1.68 0.01,-0.32 -0.15,-0.51 -0.49,-0.57 -0.21,-0.02 -0.4,0.08 -0.51,0.31 -0.04,0.08 -0.09,0.11 -0.21,0.09 -0.02,-0 -0.03,-0 -0.03,0.02l-0.16 2 0.05 0.38 0.02 0c0.05,-0.72 0.1,-1.34 0.15,-1.84 0.01,-0.08 0.09,-0.08 0.09,0.01z"/>
   <path class="fil0" d="M4.28 4.29c0.73,0.17 0.68,0.32 -0.15,0.44 0.1,-0.3 0.15,-0.44 0.15,-0.44z"/>
  </g>
 </g>
</svg>
