<?xml version="1.0" encoding="UTF-8"?>
<!DOCTYPE svg PUBLIC "-//W3C//DTD SVG 1.1//EN" "http://www.w3.org/Graphics/SVG/1.1/DTD/svg11.dtd">
<!-- Creator: CorelDRAW 2019 (64-Bit) -->
<svg xmlns="http://www.w3.org/2000/svg" xml:space="preserve" width="8.256mm" height="2.2081mm" version="1.1" style="shape-rendering:geometricPrecision; text-rendering:geometricPrecision; image-rendering:optimizeQuality; fill-rule:evenodd; clip-rule:evenodd"
viewBox="0 0 43.5 11.63"
 xmlns:xlink="http://www.w3.org/1999/xlink"
 xmlns:xodm="http://www.corel.com/coreldraw/odm/2003">
 <defs>
  <style type="text/css">
   <![CDATA[
    .fil0 {fill:black}
    .fil1 {fill:red}
   ]]>
  </style>
 </defs>
 <g id="Слой_x0020_1">
  <metadata id="CorelCorpID_0Corel-Layer"/>
  <g id="_1989452966672">
   <path class="fil0" d="M0.22 5.25l0.21 0 0 -2.91c0,-0.01 0.01,-0.02 0.02,-0.02l2.29 0c0.03,0 0.05,0.02 0.05,0.05l0 1.75 1.15 0c0.03,0 0.05,0.02 0.05,0.05l0 1.08 1.35 0c0.15,0 0.28,0.12 0.28,0.28l0 1.75 32.29 0 0 -4.15 -33.46 0c-0,0 -0.01,-0 -0.01,-0l0 -0.5c0,-0 0,-0 0.01,-0l1.25 0 0 -0.64 0 -0.12 0 -0 0 -1.01c0,-0 0,-0 0,-0l0.38 0c0,0 0.01,0 0.01,0.01l0 0.99 3.94 0 0 -1c0,-0 0,-0 0,-0l0.38 0c0,0 0.01,0 0.01,0.01l0 1.01 0 0 0 0.11 0 0.64 23.95 0 0 -0.48c0,-0 0,-0.01 0.01,-0.01l4.2 0c0.01,0 0.01,0.01 0.01,0.01l0 0.48 0 0.16 0 0.25 1.89 0 0 -1.84c0,-0.01 0.01,-0.01 0.01,-0.01l0.45 0 0 -1.17c0,-0.01 0.01,-0.01 0.01,-0.01l1.39 0c0.02,0 0.03,0.01 0.03,0.03l0 7.51 0.94 0c0.1,0 0.19,0.08 0.19,0.19l0 2.3c0,0.31 -0.25,0.55 -0.55,0.55l-0.23 0 0 -0.37c0,-0.03 -0.02,-0.06 -0.06,-0.06l-0.29 0 0 0.85c0,0.03 -0.02,0.05 -0.05,0.05l-2.13 0 -1.38 0 0 0.32c0,0.02 -0.02,0.04 -0.04,0.04l0 0c-0.02,0 -0.04,-0.02 -0.04,-0.04l0 -0.32 -0.78 0 -0.13 0 0 0.32c0,0.02 -0.02,0.04 -0.04,0.04l0 0c-0.02,0 -0.04,-0.02 -0.04,-0.04l0 -0.32 -0.9 0 0 0.32c0,0.02 -0.02,0.04 -0.04,0.04l0 0c-0.02,0 -0.04,-0.02 -0.04,-0.04l0 -0.32 -0.9 0 0 0.32c0,0.02 -0.02,0.04 -0.04,0.04l0 0c-0.02,0 -0.04,-0.02 -0.04,-0.04l0 -0.32 -0.91 0 0 0.32c0,0.02 -0.02,0.04 -0.04,0.04l-0 0c-0.02,0 -0.04,-0.02 -0.04,-0.04l0 -0.32 -0.91 0 0 0.32c0,0.02 -0.02,0.04 -0.04,0.04l0 0c-0.02,0 -0.04,-0.02 -0.04,-0.04l0 -0.32 -0.9 0 0 0.32c0,0.02 -0.02,0.04 -0.04,0.04l0 0c-0.02,0 -0.04,-0.02 -0.04,-0.04l0 -0.32 -0.91 0 0 0.32c0,0.02 -0.02,0.04 -0.04,0.04l0 0c-0.02,0 -0.04,-0.02 -0.04,-0.04l0 -0.32 -0.91 0 0 0.32c0,0.02 -0.02,0.04 -0.04,0.04l0 0c-0.02,0 -0.04,-0.02 -0.04,-0.04l0 -0.32 -0.91 0 0 0.32c0,0.02 -0.02,0.04 -0.04,0.04l0 0c-0.02,0 -0.04,-0.02 -0.04,-0.04l0 -0.32 -0.94 0 0 -0.51c0,-0.17 -0.14,-0.31 -0.31,-0.31l-1.74 0c-0.17,0 -0.31,0.14 -0.31,0.31l0 0.51 -0.71 0 0 0.32c0,0.02 -0.02,0.04 -0.04,0.04l0 0c-0.02,0 -0.04,-0.02 -0.04,-0.04l0 -0.32 -0.92 0 0 0.32c0,0.02 -0.02,0.04 -0.04,0.04l0 0c-0.02,0 -0.04,-0.02 -0.04,-0.04l0 -0.32 -0.92 0 0 0.32c0,0.02 -0.02,0.04 -0.04,0.04l0 0c-0.02,0 -0.04,-0.02 -0.04,-0.04l0 -0.32 -0.65 0 0 -0.51c0,-0.17 -0.14,-0.31 -0.31,-0.31l-1.74 0c-0.17,0 -0.31,0.14 -0.31,0.31l0 0.51 -0.73 0 0 0.32c0,0.02 -0.02,0.04 -0.04,0.04l0 0c-0.02,0 -0.04,-0.02 -0.04,-0.04l0 -0.32 -0.89 0 0 0.32c0,0.02 -0.02,0.04 -0.04,0.04l0 0c-0.02,0 -0.04,-0.02 -0.04,-0.04l0 -0.32 -0.89 0 0 0.32c0,0.02 -0.02,0.04 -0.04,0.04l0 0c-0.02,0 -0.04,-0.02 -0.04,-0.04l0 -0.32 -0.69 0 0 -0.51c0,-0.17 -0.14,-0.31 -0.31,-0.31l-1.74 0c-0.17,0 -0.31,0.14 -0.31,0.31l0 0.51 -0.83 0 0 0.32c0,0.02 -0.02,0.04 -0.04,0.04l0 0c-0.02,0 -0.04,-0.02 -0.04,-0.04l0 -0.32 -0.91 0 0 0.32c0,0.02 -0.02,0.04 -0.04,0.04l0 0c-0.02,0 -0.04,-0.02 -0.04,-0.04l0 -0.32 -0.91 0 0 0.32c0,0.02 -0.02,0.04 -0.04,0.04l0 0c-0.02,0 -0.04,-0.02 -0.04,-0.04l0 -0.32 -0.91 0 0 0.32c0,0.02 -0.02,0.04 -0.04,0.04l0 0c-0.02,0 -0.04,-0.02 -0.04,-0.04l0 -0.32 -0.91 0 0 0.32c0,0.02 -0.02,0.04 -0.04,0.04l0 0c-0.02,0 -0.04,-0.02 -0.04,-0.04l0 -0.32 -0.91 0 0 0.32c0,0.02 -0.02,0.04 -0.04,0.04l0 0c-0.02,0 -0.04,-0.02 -0.04,-0.04l0 -0.32 -0.91 0 0 0.32c0,0.02 -0.02,0.04 -0.04,0.04l0 0c-0.02,0 -0.04,-0.02 -0.04,-0.04l0 -0.32 -0.91 0 0 0.32c0,0.02 -0.02,0.04 -0.04,0.04l0 0c-0.02,0 -0.04,-0.02 -0.04,-0.04l0 -0.32 -0.91 0 0 0.32c0,0.02 -0.02,0.04 -0.04,0.04l0 0c-0.02,0 -0.04,-0.02 -0.04,-0.04l0 -0.32 -0.91 0 0 0.32c0,0.02 -0.02,0.04 -0.04,0.04l0 0c-0.02,0 -0.04,-0.02 -0.04,-0.04l0 -0.32 -1.45 0c-0.09,0 -0.16,-0.07 -0.16,-0.16l0 -0.6 -3.47 0c-0.12,0 -0.22,-0.1 -0.22,-0.22l0 -4.6c0,-0.12 0.1,-0.22 0.22,-0.22z"/>
   <path class="fil1" d="M4.64 3.58l32.49 0c0.21,0 0.39,0.17 0.39,0.39l0 2.54c0,0.18 -0.15,0.33 -0.33,0.33l-31.29 0 0 -1.32c0,-0.3 -0.25,-0.55 -0.55,-0.55l-1.04 0 0 -1.06c0,-0.18 0.15,-0.33 0.33,-0.33z"/>
   <rect class="fil0" x="15.27" y="10.46" width="1.92" height="1.17" rx="0.08" ry="0.09"/>
   <rect class="fil0" x="21.07" y="10.46" width="1.92" height="1.17" rx="0.08" ry="0.09"/>
   <rect class="fil0" x="26.85" y="10.46" width="1.92" height="1.17" rx="0.08" ry="0.09"/>
  </g>
 </g>
</svg>
