<?xml version="1.0" encoding="UTF-8"?>
<!DOCTYPE svg PUBLIC "-//W3C//DTD SVG 1.1//EN" "http://www.w3.org/Graphics/SVG/1.1/DTD/svg11.dtd">
<!-- Creator: CorelDRAW 2020 (64-Bit) -->
<svg xmlns="http://www.w3.org/2000/svg" xml:space="preserve" width="4.2562mm" height="5.3755mm" version="1.1" style="shape-rendering:geometricPrecision; text-rendering:geometricPrecision; image-rendering:optimizeQuality; fill-rule:evenodd; clip-rule:evenodd"
viewBox="0 0 119.15 150.48"
 xmlns:xlink="http://www.w3.org/1999/xlink"
 xmlns:xodm="http://www.corel.com/coreldraw/odm/2003">
 <defs>
  <style type="text/css">
   <![CDATA[
    .fil0 {fill:black}
    .fil1 {fill:red}
   ]]>
  </style>
 </defs>
 <g id="Слой_x0020_1">
  <metadata id="CorelCorpID_0Corel-Layer"/>
  <g id="_2089183988832">
   <path class="fil0" d="M37.36 42.24l-25.36 27.52 7.19 8.26 18.17 -21.47 0 -14.31zm-8.78 74.98l8.6 -9.09 -15.75 -13.54 -7.13 7.7 14.28 14.93zm19.78 -57.73l-21.38 24.12 17.77 17.36c0,0 9.11,8.39 -4.93,24.38l3.19 9.44 20.51 -0.14 1.6 -6.24 13.06 0 0.99 6.12 8.38 0 2.25 15.95 -89.3 -0.61 3.49 -14.8 18.22 -0.13 0.86 -9.57 -22.33 -21.71 -0.75 -35.36 38.28 -41.48 8.49 8.93 1.6 23.74z"/>
   <path class="fil1" d="M69.31 74.48c-9.89,-15.32 -12.97,-29.35 -10.8,-39.99l-14.93 -16.3 18.09 -18.18 16.85 14.48c10.59,-2.15 24.61,0.7 40.63,10.46l-49.83 49.53z"/>
  </g>
 </g>
</svg>
