<?xml version="1.0" encoding="UTF-8"?>
<!DOCTYPE svg PUBLIC "-//W3C//DTD SVG 1.1//EN" "http://www.w3.org/Graphics/SVG/1.1/DTD/svg11.dtd">
<!-- Creator: CorelDRAW 2019 (64-Bit) -->
<svg xmlns="http://www.w3.org/2000/svg" xml:space="preserve" width="19.716mm" height="5.3753mm" version="1.1" style="shape-rendering:geometricPrecision; text-rendering:geometricPrecision; image-rendering:optimizeQuality; fill-rule:evenodd; clip-rule:evenodd"
viewBox="0 0 315.48 86.01"
 xmlns:xlink="http://www.w3.org/1999/xlink"
 xmlns:xodm="http://www.corel.com/coreldraw/odm/2003">
 <defs>
  <style type="text/css">
   <![CDATA[
    .fil0 {fill:black}
    .fil1 {fill:red}
   ]]>
  </style>
 </defs>
 <g id="Слой_x0020_1">
  <metadata id="CorelCorpID_0Corel-Layer"/>
  <g id="_1989450543200">
   <path class="fil0" d="M5.46 0l74.26 0c12.72,10.02 20.89,25.56 20.89,43.01 0,17.45 -8.17,32.98 -20.89,43l-74.26 0c-3,0 -5.46,-2.45 -5.46,-5.46l0 -75.1c0,-3 2.45,-5.46 5.46,-5.46zm40.43 8.83c18.87,0 34.18,15.3 34.18,34.18 0,18.87 -15.3,34.18 -34.18,34.18 -18.87,0 -34.18,-15.3 -34.18,-34.18 0,-18.88 15.3,-34.18 34.18,-34.18z"/>
   <path class="fil1" d="M45.89 23.43c10.81,0 19.58,8.77 19.58,19.58 0,10.81 -8.77,19.58 -19.58,19.58 -10.81,0 -19.58,-8.77 -19.58,-19.58 0,-10.81 8.76,-19.58 19.58,-19.58zm0 -4.59c13.35,0 24.17,10.82 24.17,24.17 0,13.34 -10.82,24.17 -24.17,24.17 -13.35,0 -24.17,-10.82 -24.17,-24.17 0,-13.35 10.82,-24.17 24.17,-24.17z"/>
   <path class="fil0" d="M91.13 0l218.9 0c3,0 5.46,2.45 5.46,5.46l0 75.1c0,3 -2.45,5.46 -5.46,5.46l-218.9 0c5.12,-5.39 9.29,-11.69 12.24,-18.63 0.11,0.01 0.23,0.02 0.34,0.02l153.77 0c1.71,0 3.11,-1.4 3.11,-3.11l0 -41.34c0,-1.71 -1.4,-3.11 -3.11,-3.11l-153.61 0c-2.97,-7.42 -7.32,-14.15 -12.74,-19.84zm200.1 13.08c7.36,0 13.32,5.96 13.32,13.32 0,7.36 -5.96,13.32 -13.32,13.32 -7.36,0 -13.32,-5.96 -13.32,-13.32 0,-7.36 5.96,-13.32 13.32,-13.32zm0 37.07c7.36,0 13.32,5.96 13.32,13.32 0,7.36 -5.96,13.32 -13.32,13.32 -7.36,0 -13.32,-5.96 -13.32,-13.32 0,-7.36 5.96,-13.32 13.32,-13.32z"/>
  </g>
 </g>
</svg>
