<?xml version="1.0" encoding="UTF-8"?>
<!DOCTYPE svg PUBLIC "-//W3C//DTD SVG 1.1//EN" "http://www.w3.org/Graphics/SVG/1.1/DTD/svg11.dtd">
<!-- Creator: CorelDRAW 2020 (64-Bit) -->
<svg xmlns="http://www.w3.org/2000/svg" xml:space="preserve" width="6.1377mm" height="5.3755mm" version="1.1" style="shape-rendering:geometricPrecision; text-rendering:geometricPrecision; image-rendering:optimizeQuality; fill-rule:evenodd; clip-rule:evenodd"
viewBox="0 0 76.17 66.71"
 xmlns:xlink="http://www.w3.org/1999/xlink"
 xmlns:xodm="http://www.corel.com/coreldraw/odm/2003">
 <defs>
  <style type="text/css">
   <![CDATA[
    .fil2 {fill:#282829}
    .fil0 {fill:black}
    .fil1 {fill:red}
   ]]>
  </style>
 </defs>
 <g id="Слой_x0020_1">
  <metadata id="CorelCorpID_0Corel-Layer"/>
  <path class="fil0" d="M42.8 45.27c0.94,-3.32 1.81,-9.15 -4.47,-15.37 -5,-4.95 -11.13,-7.81 -13.72,-10.67 -5.31,-5.86 -2.26,-13.99 4.08,-14.96 6.65,-1.02 11.29,6.5 12.88,11.32l3.97 -1.23c-0.38,-1.57 -1.4,-3.4 -2.1,-4.68 -1.58,-2.93 -3.56,-5.43 -6.27,-7.29 -8.66,-5.95 -19.2,-0.07 -19.44,9.77 -0.05,2.13 0.34,3.98 1.06,5.75 2.97,7.22 12.67,9.86 17.72,16.2 1.94,2.44 2.87,4.71 2.57,8 1.4,1.17 2.71,2.13 3.72,3.16zm-6.09 -2.23c-2.14,-1.7 -3.54,-2.68 -6.08,-3.89 -3.58,-1.71 -6.7,-2.16 -10.09,-2.25 -3.76,-0.1 -9.94,-0.33 -13.53,0.1 -3.56,0.42 -4.37,2.34 -3.97,10.36 0.85,-0.46 1.55,-1.14 3.67,-1.73 1.61,-0.45 3.4,-0.58 5.12,-0.28 12.4,2.16 12.4,15.9 5.91,20.1 8.9,0.02 13.66,0.03 20.36,0.01 4.74,-0.01 6.14,0.38 8.34,-1.88 3.16,-3.25 1.07,-8.66 -1.74,-12.63 -2.14,-2.99 -5.15,-5.58 -7.99,-7.91z"/>
  <path class="fil1" d="M56.06 58.44c-0.38,0.23 -0.77,0.28 -1.22,0.92 -0.53,0.74 -0.33,3.2 -0.33,4.21 0,1.34 0.66,1.55 1.91,1.55l18.44 0c1.34,0 1.55,-0.47 1.07,-1.66 -0.73,-1.8 -1.18,-2.29 -2.56,-2.82 -3.08,-1.18 -7.41,-2.85 -10.58,-3.68 -1.06,-0.28 -1.55,-0.1 -2.28,0.06 -2.16,0.61 -3.64,1.08 -4.45,1.43z"/>
  <path class="fil0" d="M42.42 17.85l12.79 38.03c1.33,-0.45 2.68,-0.87 4.02,-1.24 -3.48,-10.75 -9.43,-28.25 -12.93,-38.02l-3.89 1.23z"/>
  <path class="fil2" d="M8.86 34.58l11.64 0.05c0.18,-3.77 -0.07,-4.21 -3.52,-4.22l-1 0 -4.86 -0.01c-0.24,0.01 -0.48,0.01 -0.72,0.06 -1.83,0.41 -1.48,2.69 -1.54,4.12z"/>
  <path class="fil0" d="M9.9 46.92c5.47,0 9.9,4.43 9.9,9.9 0,5.47 -4.43,9.9 -9.9,9.9 -5.47,0 -9.9,-4.43 -9.9,-9.9 0,-5.47 4.43,-9.9 9.9,-9.9zm0 5.41c2.48,0 4.48,2.01 4.48,4.48 0,2.48 -2.01,4.48 -4.48,4.48 -2.48,0 -4.48,-2.01 -4.48,-4.48 0,-2.48 2.01,-4.48 4.48,-4.48z"/>
 </g>
</svg>
