<?xml version="1.0" encoding="UTF-8"?>
<!DOCTYPE svg PUBLIC "-//W3C//DTD SVG 1.1//EN" "http://www.w3.org/Graphics/SVG/1.1/DTD/svg11.dtd">
<!-- Creator: CorelDRAW 2020 (64-Bit) -->
<svg xmlns="http://www.w3.org/2000/svg" xml:space="preserve" width="7.3268mm" height="5.3753mm" version="1.1" style="shape-rendering:geometricPrecision; text-rendering:geometricPrecision; image-rendering:optimizeQuality; fill-rule:evenodd; clip-rule:evenodd"
viewBox="0 0 85.57 62.78"
 xmlns:xlink="http://www.w3.org/1999/xlink"
 xmlns:xodm="http://www.corel.com/coreldraw/odm/2003">
 <defs>
  <style type="text/css">
   <![CDATA[
    .fil2 {fill:black}
    .fil0 {fill:black}
    .fil1 {fill:red}
    .fil3 {fill:red}
   ]]>
  </style>
 </defs>
 <g id="Слой_x0020_1">
  <metadata id="CorelCorpID_0Corel-Layer"/>
  <g id="_2782686323344">
   <path class="fil0" d="M0.52 50.4l84.52 0c0.29,0 0.52,0.23 0.52,0.52l0 11.33c0,0.29 -0.23,0.52 -0.52,0.52l-84.52 0c-0.29,0 -0.52,-0.23 -0.52,-0.52l0 -11.33c0,-0.29 0.24,-0.52 0.52,-0.52zm19.73 5.89l20.01 0c0.15,-1.26 1.22,-2.24 2.52,-2.24 1.3,0 2.38,0.98 2.52,2.24l20.01 0c0.01,0 0.02,0.01 0.02,0.03l0 0.55c0,0.01 -0.01,0.03 -0.02,0.03l-20.01 0c-0.15,1.26 -1.22,2.24 -2.52,2.24 -1.3,0 -2.37,-0.98 -2.52,-2.24l-20.01 0c-0.01,0 -0.03,-0.01 -0.03,-0.03l0 -0.55c0,-0.01 0.01,-0.03 0.03,-0.03z"/>
   <rect class="fil1" x="42.31" y="54.92" width="0.95" height="3.33"/>
   <path class="fil0" d="M24.84 45.39c-0.97,0.11 -1.58,0.35 -2.15,0.87 -0.44,0.41 -0.97,1.35 -0.9,2.14l15.34 0c-0.09,-1.26 -0.78,-2.27 -1.85,-2.74 -1.55,-0.68 -1.23,0.83 -1.24,-3.33l-9.15 -0.02 -0.04 3.08zm-22.61 -45.39l54.45 0c1.16,0 2.1,0.95 2.1,2.1l0 31.12 -58.65 0 0 -31.12c0,-1.16 0.95,-2.1 2.1,-2.1zm56.55 34.13l0 4.08c0,1.16 -0.95,2.1 -2.1,2.1l-54.45 0c-1.16,0 -2.1,-0.95 -2.1,-2.1l0 -4.08 58.65 0zm-56.43 -31.96l54.21 0c0.1,0 0.17,0.08 0.17,0.18l0 28.5c0,0.1 -0.08,0.18 -0.17,0.18l-54.21 0c-0.1,0 -0.17,-0.08 -0.17,-0.18l0 -28.5c0,-0.1 0.08,-0.18 0.17,-0.18zm27.1 32.75c1.28,0 2.33,1.04 2.33,2.33 0,1.28 -1.04,2.32 -2.33,2.32 -1.28,0 -2.32,-1.04 -2.32,-2.32 0,-1.28 1.04,-2.33 2.32,-2.33z"/>
   <path class="fil2" d="M64.79 25.95l3.31 0 0 -7.13 12.84 0 0 7.13 3.31 0c0.71,0 1.29,0.58 1.29,1.29l0 18.69c0,0.71 -0.58,1.29 -1.29,1.29l-19.46 0c-0.71,0 -1.29,-0.58 -1.29,-1.29l0 -18.69c0,-0.71 0.58,-1.29 1.29,-1.29zm4.19 -6.28l11.09 0 0 11.52 -11.09 0 0 -11.52z"/>
   <path class="fil3" d="M29.39 35.37c-0.19,0.06 -0.26,0.2 -0.25,0.39 0,0.19 -0.01,1.17 0.01,1.27 0.03,0.13 0.19,0.29 0.38,0.25 0.18,-0.05 0.26,-0.2 0.26,-0.39 0,-0.19 0.01,-1.17 -0.01,-1.27 -0.03,-0.14 -0.2,-0.3 -0.38,-0.25zm0.71 0.45c-0.01,0.15 -0,0.55 -0,0.72 0,0.06 0.19,0.16 0.28,0.47 0.18,0.63 -0.27,1.24 -0.92,1.24 -0.44,0 -0.77,-0.29 -0.89,-0.6 -0.11,-0.29 -0.08,-0.63 0.09,-0.89 0.03,-0.05 0.05,-0.07 0.08,-0.11 0.02,-0.03 0.08,-0.06 0.08,-0.11 0,-0.21 0.01,-0.53 -0,-0.72 -0.13,0.03 -0.42,0.26 -0.51,0.35 -0.53,0.55 -0.61,1.44 -0.14,2.06 0.11,0.14 0.13,0.16 0.26,0.28 0.09,0.08 0.29,0.21 0.44,0.26 0.44,0.15 0.74,0.16 1.18,0 0.15,-0.05 0.35,-0.18 0.44,-0.26 0.27,-0.25 0.44,-0.5 0.53,-0.88 0.12,-0.49 -0.04,-1.03 -0.32,-1.36 -0.08,-0.1 -0.09,-0.1 -0.17,-0.18 -0.06,-0.06 -0.32,-0.25 -0.43,-0.27z"/>
  </g>
 </g>
</svg>
