<?xml version="1.0" encoding="UTF-8"?>
<!DOCTYPE svg PUBLIC "-//W3C//DTD SVG 1.1//EN" "http://www.w3.org/Graphics/SVG/1.1/DTD/svg11.dtd">
<!-- Creator: CorelDRAW 2019 (64-Bit) -->
<svg xmlns="http://www.w3.org/2000/svg" xml:space="preserve" width="4.6298mm" height="5.3751mm" version="1.1" style="shape-rendering:geometricPrecision; text-rendering:geometricPrecision; image-rendering:optimizeQuality; fill-rule:evenodd; clip-rule:evenodd"
viewBox="0 0 90.85 105.48"
 xmlns:xlink="http://www.w3.org/1999/xlink"
 xmlns:xodm="http://www.corel.com/coreldraw/odm/2003">
 <defs>
  <style type="text/css">
   <![CDATA[
    .fil0 {fill:black}
    .fil1 {fill:red}
   ]]>
  </style>
 </defs>
 <g id="Слой_x0020_1">
  <metadata id="CorelCorpID_0Corel-Layer"/>
  <g id="_1989458691536">
   <path class="fil0" d="M14.28 41.04l62.39 0 0 64.44 -62.4 0 0 -64.44 0.01 0zm-1.83 64.27l-11.74 -1.79c-0.38,-0.06 -0.71,-0.22 -0.71,-0.49l0 -56.82c0,-0.18 0.04,-0.19 0.17,-0.24l12.28 -4.51 0 63.85zm66.03 -64.12l12.18 2.09c0.08,0.02 0.09,0.02 0.09,0.11 0.21,18.42 0.01,37.98 0.01,56.9 0,0.27 -0.36,0.36 -0.71,0.49l-11.57 4.39 0 -63.98zm-47.11 39.4l-8.11 -22.16c-0.11,0.22 -0.17,0.45 -0.17,0.69l0 29.93c0,0.19 0.04,0.37 0.11,0.55l8.18 -9.01zm0.97 0.13l-8.68 -23.71c-0.89,0.47 -1.47,1.25 -1.47,2.13l0 29.93c0,0.69 0.37,1.33 0.96,1.79l9.2 -10.13zm25.69 0l9.14 10.21c0.66,-0.47 1.07,-1.14 1.07,-1.88l0 -29.93c0,-0.93 -0.66,-1.75 -1.64,-2.21l-8.57 23.8zm0.97 -0.12l8.18 9.14c0.11,-0.21 0.17,-0.44 0.17,-0.68l0 -29.93c0,-0.32 -0.1,-0.62 -0.29,-0.89l-8.05 22.35zm-25.99 -0.56l24.33 0 8.19 -22.73c-0.22,-0.05 -0.45,-0.07 -0.68,-0.07l-39.29 0c-0.29,0 -0.58,0.04 -0.86,0.12l8.31 22.69zm-0.68 0.68l25.69 0 8.57 -23.8c-0.51,-0.24 -1.11,-0.37 -1.75,-0.37l-39.29 0c-0.71,0 -1.37,0.17 -1.91,0.45l8.68 23.71zm25.69 0l-25.69 0 -9.2 10.13c0.62,0.48 1.48,0.79 2.43,0.79l39.29 0c0.89,0 1.71,-0.27 2.32,-0.7l-9.14 -10.21zm-0.47 0.68l-24.75 0 -8.45 9.31c0.37,0.16 0.78,0.24 1.21,0.24l39.29 0c0.38,0 0.75,-0.07 1.08,-0.19l-8.38 -9.36zm8.01 -37.71l7.87 0c0.74,0 1.35,0.61 1.35,1.35l0 7.87c0,0.74 -0.61,1.35 -1.35,1.35l-7.87 0c-0.74,0 -1.35,-0.61 -1.35,-1.35l0 -7.87c0,-0.74 0.61,-1.35 1.35,-1.35z"/>
   <path class="fil0" d="M27.81 0l35.6 0 0 39.38 -35.6 0 0 -39.38zm0.89 0.89l33.81 0 0 37.59 -33.81 0 0 -37.59z"/>
   <path class="fil0" d="M32.22 4.64l26.79 0c0.14,0 0.25,0.11 0.25,0.26l0 0c0,0.14 -0.11,0.25 -0.25,0.25l-26.79 0c-0.14,0 -0.26,-0.11 -0.26,-0.25l0 0c0,-0.14 0.12,-0.26 0.26,-0.26zm0 22.33l26.79 0c0.14,0 0.25,0.11 0.25,0.25l0 0c0,0.14 -0.11,0.25 -0.25,0.25l-26.79 0c-0.14,0 -0.26,-0.11 -0.26,-0.25l0 0c0,-0.14 0.12,-0.25 0.26,-0.25zm0 6.44l26.79 0c0.14,0 0.25,0.11 0.25,0.25l0 0c0,0.14 -0.11,0.26 -0.25,0.26l-26.79 0c-0.14,0 -0.26,-0.11 -0.26,-0.26l0 0c0,-0.14 0.12,-0.25 0.26,-0.25zm0 -3.22l26.79 0c0.14,0 0.25,0.12 0.25,0.26l0 0c0,0.14 -0.11,0.25 -0.25,0.25l-26.79 0c-0.14,0 -0.26,-0.11 -0.26,-0.25l0 0c0,-0.14 0.12,-0.26 0.26,-0.26zm-0.42 -6.23l27.64 0c0.14,0 0.26,0.11 0.26,0.26l0 0c0,0.14 -0.12,0.25 -0.26,0.25l-27.64 0c-0.14,0 -0.26,-0.11 -0.26,-0.25l0 0c0,-0.14 0.11,-0.26 0.26,-0.26zm0.25 -3.22l27.14 0c0.14,0 0.25,0.12 0.25,0.26l0 0c0,0.14 -0.12,0.26 -0.25,0.26l-27.14 0c-0.14,0 -0.25,-0.12 -0.25,-0.26l0 0c0,-0.14 0.11,-0.26 0.25,-0.26zm0.18 -3.22l26.79 0c0.14,0 0.25,0.12 0.25,0.26l0 0c0,0.14 -0.11,0.25 -0.25,0.25l-26.79 0c-0.14,0 -0.26,-0.11 -0.26,-0.25l0 0c0,-0.14 0.12,-0.26 0.26,-0.26zm0 -3.22l26.79 0c0.14,0 0.25,0.12 0.25,0.26l0 0c0,0.14 -0.11,0.26 -0.25,0.26l-26.79 0c-0.14,0 -0.26,-0.12 -0.26,-0.26l0 0c0,-0.14 0.12,-0.26 0.26,-0.26zm0 -3.22l26.79 0c0.14,0 0.25,0.12 0.25,0.26l0 0c0,0.14 -0.11,0.26 -0.25,0.26l-26.79 0c-0.14,0 -0.26,-0.12 -0.26,-0.26l0 0c0,-0.14 0.12,-0.26 0.26,-0.26zm0 -3.22l26.79 0c0.14,0 0.25,0.11 0.25,0.25l0 0c0,0.14 -0.11,0.26 -0.25,0.26l-26.79 0c-0.14,0 -0.26,-0.12 -0.26,-0.26l0 0c0,-0.14 0.12,-0.25 0.26,-0.25z"/>
   <path class="fil1" d="M69.34 44.29c-0.46,0.14 -0.61,0.47 -0.61,0.93 0,0.44 -0.03,2.82 0.03,3.05 0.08,0.32 0.47,0.7 0.9,0.59 0.44,-0.11 0.62,-0.49 0.61,-0.92 -0,-0.46 0.03,-2.8 -0.02,-3.05 -0.07,-0.32 -0.47,-0.73 -0.91,-0.6zm1.7 1.07c-0.02,0.36 -0.01,1.31 -0,1.73 0,0.15 0.46,0.39 0.67,1.12 0.43,1.5 -0.64,2.97 -2.2,2.97 -1.06,0 -1.85,-0.69 -2.14,-1.44 -0.27,-0.7 -0.2,-1.51 0.22,-2.14 0.07,-0.11 0.12,-0.16 0.19,-0.26 0.06,-0.07 0.19,-0.15 0.19,-0.26 0,-0.49 0.02,-1.27 -0,-1.73 -0.32,0.07 -1.01,0.61 -1.23,0.85 -1.28,1.33 -1.45,3.45 -0.33,4.94 0.25,0.33 0.31,0.39 0.61,0.67 0.22,0.2 0.71,0.51 1.06,0.63 1.05,0.37 1.78,0.37 2.84,0 0.35,-0.12 0.85,-0.43 1.06,-0.63 0.66,-0.6 1.06,-1.19 1.28,-2.1 0.28,-1.17 -0.09,-2.46 -0.78,-3.28 -0.19,-0.23 -0.21,-0.24 -0.41,-0.43 -0.16,-0.15 -0.76,-0.6 -1.03,-0.66z"/>
  </g>
 </g>
</svg>
