<?xml version="1.0" encoding="UTF-8"?>
<!DOCTYPE svg PUBLIC "-//W3C//DTD SVG 1.1//EN" "http://www.w3.org/Graphics/SVG/1.1/DTD/svg11.dtd">
<!-- Creator: CorelDRAW 2019 (64-Bit) -->
<svg xmlns="http://www.w3.org/2000/svg" xml:space="preserve" width="5.7536mm" height="5.384mm" version="1.1" style="shape-rendering:geometricPrecision; text-rendering:geometricPrecision; image-rendering:optimizeQuality; fill-rule:evenodd; clip-rule:evenodd"
viewBox="0 0 56.98 53.32"
 xmlns:xlink="http://www.w3.org/1999/xlink"
 xmlns:xodm="http://www.corel.com/coreldraw/odm/2003">
 <defs>
  <style type="text/css">
   <![CDATA[
    .fil0 {fill:black}
    .fil1 {fill:black}
    .fil2 {fill:red}
   ]]>
  </style>
 </defs>
 <g id="Слой_x0020_1">
  <metadata id="CorelCorpID_0Corel-Layer"/>
  <g id="_1989423588816">
   <path class="fil0" d="M4.62 4.31l-0.04 7.22 -4.57 0.08c0.02,-3.09 0.04,-5.26 0.07,-5.85 0.25,-4.04 1.95,-5.9 5.45,-5.76 0.67,0.03 3.44,0.03 7.31,0.01l-0.05 4.31 -8.16 -0.02z"/>
   <path class="fil0" d="M52.36 4.31l0.04 7.22 4.57 0.08c-0.02,-3.09 -0.04,-5.26 -0.07,-5.85 -0.25,-4.04 -1.95,-5.9 -5.45,-5.76 -0.67,0.03 -3.44,0.03 -7.31,0.01l0.05 4.31 8.16 -0.02z"/>
   <path class="fil0" d="M4.62 49.01l-0.04 -7.22 -4.57 -0.08c0.02,3.09 0.04,5.26 0.07,5.85 0.25,4.04 1.95,5.9 5.45,5.76 0.67,-0.03 3.44,-0.03 7.31,-0.01l-0.05 -4.31 -8.16 0.02z"/>
   <path class="fil0" d="M52.36 49.01l0.04 -7.22 4.57 -0.08c-0.02,3.09 -0.04,5.26 -0.07,5.85 -0.25,4.04 -1.95,5.9 -5.45,5.76 -0.67,-0.03 -3.44,-0.03 -7.31,-0.01l0.05 -4.31 8.16 0.02z"/>
   <rect class="fil1" x="7.69" y="13.59" width="2.48" height="26.03"/>
   <rect class="fil1" x="11.96" y="13.59" width="2.48" height="26.03"/>
   <rect class="fil1" x="16.22" y="13.59" width="5.52" height="26.03"/>
   <rect class="fil1" x="23.53" y="13.59" width="2.48" height="30.83"/>
   <rect class="fil2" x="27.8" y="13.59" width="5.52" height="26.03"/>
   <rect class="fil1" x="35.11" y="13.59" width="2.48" height="26.03"/>
   <rect class="fil1" x="39.37" y="13.59" width="2.48" height="26.03"/>
   <rect class="fil1" x="43.64" y="13.59" width="5.52" height="26.03"/>
  </g>
 </g>
</svg>
