<?xml version="1.0" encoding="UTF-8"?>
<!DOCTYPE svg PUBLIC "-//W3C//DTD SVG 1.1//EN" "http://www.w3.org/Graphics/SVG/1.1/DTD/svg11.dtd">
<!-- Creator: CorelDRAW 2019 (64-Bit) -->
<svg xmlns="http://www.w3.org/2000/svg" xml:space="preserve" width="6.271mm" height="5.3751mm" version="1.1" style="shape-rendering:geometricPrecision; text-rendering:geometricPrecision; image-rendering:optimizeQuality; fill-rule:evenodd; clip-rule:evenodd"
viewBox="0 0 54.62 46.82"
 xmlns:xlink="http://www.w3.org/1999/xlink"
 xmlns:xodm="http://www.corel.com/coreldraw/odm/2003">
 <defs>
  <style type="text/css">
   <![CDATA[
    .fil0 {fill:black}
    .fil1 {fill:red}
   ]]>
  </style>
 </defs>
 <g id="Слой_x0020_1">
  <metadata id="CorelCorpID_0Corel-Layer"/>
  <g id="_1989454223376">
   <path class="fil0" d="M27.31 46.82c-7.45,-0.21 -14.2,-0.76 -20.27,-1.64 -1.6,-0.21 -2.55,-1.04 -2.88,-2.5 -0.62,-1.9 -0.93,-2.85 -0.93,-2.85 -0.22,-0.63 -0.2,-1.45 0.06,-2.45 0.21,-0.84 0.18,-1.91 -0.09,-3.21 -2.08,-12.37 -3.12,-18.55 -3.12,-18.55 -0.25,-0.86 0.07,-1.81 0.94,-2.86 8.93,-0.04 17.69,-0.04 26.29,0 8.6,-0.04 17.36,-0.04 26.29,0 0.88,1.05 1.19,2 0.94,2.86 0,0 -1.04,6.18 -3.12,18.55 -0.27,1.3 -0.3,2.37 -0.09,3.21 0.26,1.01 0.28,1.82 0.06,2.45 0,0 -0.31,0.95 -0.93,2.85 -0.32,1.46 -1.28,2.29 -2.88,2.5 -6.07,0.89 -12.83,1.43 -20.27,1.64zm0 -5.79c1.23,-0.01 1.51,0 4.92,0 0,0 -0.07,0.57 -0.21,1.72 -0.11,0.51 0.07,0.79 0.55,0.83 1.35,-0.02 2.93,-0.02 4.73,0 0.67,0.1 0.96,-0.14 0.87,-0.72 0,0 -0.04,-0.63 -0.13,-1.89 0,0 2.84,-0.01 8.51,-0.02 0.56,0.09 0.86,-0.19 0.9,-0.84 0,0 0.71,-7.8 2.13,-23.4 0.08,-0.79 -0.21,-0.93 -1.31,-0.94 -5.72,0 -12.71,0 -20.98,0 -8.26,0 -15.25,0 -20.98,0 -1.09,0.01 -1.39,0.15 -1.3,0.94 1.42,15.6 2.13,23.4 2.13,23.4 0.04,0.65 0.34,0.93 0.9,0.84 5.68,0.02 8.71,0.02 8.71,0.02 -0.09,1.26 -0.13,1.89 -0.13,1.89 -0.09,0.58 0.01,0.82 0.68,0.72 1.81,-0.02 3.38,-0.02 4.73,0 0.48,-0.04 0.57,-0.32 0.46,-0.83 -0.14,-1.15 -0.21,-1.72 -0.21,-1.72 3.42,0 3.79,-0.01 5.01,0z"/>
   <path class="fil0" d="M14.74 16.88l12.39 0 0.18 0 12.57 0c0.13,0 0.23,0.1 0.23,0.23l0 3.71c0,0.13 -0.1,0.23 -0.23,0.23l-12.57 0 -0.18 0 -12.39 0c-0.13,0 -0.23,-0.1 -0.23,-0.23l0 -3.71c0,-0.13 0.1,-0.23 0.23,-0.23z"/>
   <path class="fil0" d="M12.79 21.62l14.34 0 0.18 0 14.52 0c0.13,0 0.25,0.1 0.23,0.23l-0.71 4.69c-0.02,0.12 -0.1,0.23 -0.23,0.23l-13.81 0 -0.18 0 -13.64 0c-0.13,0 -0.21,-0.1 -0.23,-0.23l-0.7 -4.69c-0.02,-0.12 0.1,-0.23 0.23,-0.23z"/>
   <path class="fil0" d="M12.3 27.47l14.8 0 0.21 0 15.02 0c0.13,0 0.26,0.11 0.23,0.23l-1.52 5.7c-0.03,0.12 -0.1,0.23 -0.23,0.23l-13.33 0 -0.21 0 -13.12 0c-0.12,0 -0.19,-0.11 -0.23,-0.23l-1.86 -5.7c-0.04,-0.12 0.1,-0.23 0.23,-0.23z"/>
   <path class="fil0" d="M11.01 34.24l15.75 0 0.55 0 16.3 0c0.13,0 0.27,0.11 0.23,0.23l-1.77 5.63c-0.04,0.12 -0.1,0.23 -0.23,0.23l-3.79 0c-0.09,-0.59 -0.32,-1.75 -0.41,-2.34 -0.13,-0.72 -0.31,-0.92 -0.96,-0.93 -1.99,-0.02 -2.99,-0.03 -2.99,-0.03 -0.65,0 -1,0.23 -1.07,0.69l-0.31 2.61 -4.85 0 -0.55 0 -4.7 0.04 -0.38 -2.61c-0.07,-0.46 -0.26,-0.73 -0.91,-0.74 0,0 -0.99,0.01 -2.99,0.03 -0.65,0 -0.66,0.31 -0.74,0.93l-0.35 2.34 -3.78 0c-0.12,0 -0.18,-0.11 -0.23,-0.23l-2.07 -5.63c-0.04,-0.12 0.1,-0.23 0.23,-0.23z"/>
   <path class="fil1" d="M17.4 43.03l4.26 0c0.12,0 0.24,-0.1 0.22,-0.22l-0.68 -4.84c-0.02,-0.12 -0.1,-0.22 -0.22,-0.22l-3.01 0c-0.12,0 -0.2,0.1 -0.22,0.22l-0.58 4.84c-0.01,0.12 0.1,0.22 0.22,0.22z"/>
   <path class="fil0" d="M27.31 11.98l-25.47 0 3.84 -5.17 8.99 0 0 3.23c0,0.66 0.54,1.2 1.2,1.2l22.93 0c0.66,0 1.2,-0.54 1.2,-1.2l0 -3.23 8.95 0 3.84 5.17 -25.47 0z"/>
   <path class="fil0" d="M15.86 0l22.93 0c0.16,0 0.28,0.13 0.28,0.28l0 9.76c0,0.16 -0.13,0.28 -0.28,0.28l-22.93 0c-0.16,0 -0.28,-0.13 -0.28,-0.28l0 -9.76c0,-0.16 0.13,-0.28 0.28,-0.28z"/>
   <path class="fil1" d="M37.22 43.03l-4.26 0c-0.12,0 -0.24,-0.1 -0.22,-0.22l0.68 -4.84c0.02,-0.12 0.1,-0.22 0.22,-0.22l3.01 0c0.12,0 0.2,0.1 0.22,0.22l0.58 4.84c0.01,0.12 -0.1,0.22 -0.22,0.22z"/>
  </g>
 </g>
</svg>
