<?xml version="1.0" encoding="UTF-8"?>
<!DOCTYPE svg PUBLIC "-//W3C//DTD SVG 1.1//EN" "http://www.w3.org/Graphics/SVG/1.1/DTD/svg11.dtd">
<!-- Creator: CorelDRAW 2019 (64-Bit) -->
<svg xmlns="http://www.w3.org/2000/svg" xml:space="preserve" width="4.3912mm" height="5.4572mm" version="1.1" style="shape-rendering:geometricPrecision; text-rendering:geometricPrecision; image-rendering:optimizeQuality; fill-rule:evenodd; clip-rule:evenodd"
viewBox="0 0 41.95 52.14"
 xmlns:xlink="http://www.w3.org/1999/xlink"
 xmlns:xodm="http://www.corel.com/coreldraw/odm/2003">
 <defs>
  <style type="text/css">
   <![CDATA[
    .fil0 {fill:black}
    .fil1 {fill:red}
   ]]>
  </style>
 </defs>
 <g id="Слой_x0020_1">
  <metadata id="CorelCorpID_0Corel-Layer"/>
  <g id="_1989423603408">
   <path class="fil0" d="M0.3 0l41.35 0c0.16,0 0.35,0.14 0.28,0.28l-3.85 7.71c-0.07,0.14 -0.13,0.28 -0.29,0.28l-33.54 0c-0.16,0 -0.21,-0.15 -0.28,-0.28l-3.97 -7.71c-0.07,-0.14 0.13,-0.28 0.28,-0.28z"/>
   <path class="fil0" d="M23.6 8.63l0 2.02c-0.83,-0.11 -1.68,-0.17 -2.55,-0.17 -0.85,0 -1.68,0.06 -2.5,0.16l0 -2.01 5.05 0z"/>
   <path class="fil0" d="M21.05 10.91c10.28,0 18.61,8.33 18.61,18.62 0,10.28 -8.33,18.61 -18.61,18.61 -10.28,0 -18.61,-8.33 -18.61,-18.61 0,-10.28 8.33,-18.62 18.61,-18.62zm0 1.97c9.19,0 16.65,7.45 16.65,16.65 0,9.19 -7.45,16.65 -16.65,16.65 -9.19,0 -16.65,-7.45 -16.65,-16.65 0,-9.19 7.45,-16.65 16.65,-16.65z"/>
   <path class="fil0" d="M7.05 52.14l28 0c0.08,0 0.17,-0.07 0.15,-0.15l-2.21 -7.62c-3.26,2.63 -7.41,4.2 -11.93,4.2 -4.48,0 -8.59,-1.54 -11.84,-4.13l-2.3 7.55c-0.02,0.08 0.06,0.15 0.14,0.15z"/>
   <path class="fil1" d="M21.05 30.3c-0.96,0 -1.01,-0.75 -0.95,-1.71l0.95 -14.9 0.95 14.9c0.06,0.96 0.01,1.71 -0.95,1.71z"/>
  </g>
 </g>
</svg>
