<?xml version="1.0" encoding="UTF-8"?>
<!DOCTYPE svg PUBLIC "-//W3C//DTD SVG 1.1//EN" "http://www.w3.org/Graphics/SVG/1.1/DTD/svg11.dtd">
<!-- Creator: CorelDRAW 2019 (64-Bit) -->
<svg xmlns="http://www.w3.org/2000/svg" xml:space="preserve" width="5.1976mm" height="5.3663mm" version="1.1" style="shape-rendering:geometricPrecision; text-rendering:geometricPrecision; image-rendering:optimizeQuality; fill-rule:evenodd; clip-rule:evenodd"
viewBox="0 0 78 80.53"
 xmlns:xlink="http://www.w3.org/1999/xlink"
 xmlns:xodm="http://www.corel.com/coreldraw/odm/2003">
 <defs>
  <style type="text/css">
   <![CDATA[
    .fil0 {fill:black}
    .fil1 {fill:red}
   ]]>
  </style>
 </defs>
 <g id="Слой_x0020_1">
  <metadata id="CorelCorpID_0Corel-Layer"/>
  <g id="_1989459072048">
   <path class="fil0" d="M14.78 20.13c0,-2.8 2.26,-5.08 4.14,-6.08 5.01,-2.66 12.07,-2.82 16.83,-0.42 2.86,1.44 4.51,3.04 4.51,6.5 0,4.91 -7.24,7.71 -12.11,7.71 -3.72,0 -6.35,-0.4 -9.18,-1.83 -1.94,-0.99 -4.19,-3.05 -4.19,-5.87zm56.62 -11.33c0.49,3.09 1.19,7.52 1.77,10.77 -0.68,3.53 -1.61,9.81 -2.11,12.51 0.93,3.96 1.85,8.22 2.15,9.69 -0.69,2.26 -1.98,6.76 -2.76,9.34 0.88,2.56 1.59,5.36 1.89,5.98l-17.3 0 0 -37.28c0,-6.3 -7.18,-11.4 -12.64,-13.31l-1.2 -0.53c10.38,-0.69 21.23,-1.42 31.61,-1.42 -0.26,0.68 -0.96,2.93 -1.42,4.25zm-71.41 12.11l0 41.37c0,1.73 0.14,3.57 0.53,4.97 0.71,2.49 2.38,5.02 4.41,6.6 7.28,5.69 14.96,6.67 24,6.67 10.45,0 26.11,-5.81 26.11,-17.46l0 -1.26 20.76 0c0.77,0 1.8,-0.84 1.98,-1.48 0.3,-1.03 0.09,-1.99 -0.23,-2.95 -0.28,-0.83 -2.41,-6.82 -2.29,-7.17 0.84,-2.43 2.07,-6.51 2.73,-9.04 -0.49,-3.42 -2.24,-7.69 -1.69,-10.79 0.28,-1.57 1.47,-10.22 1.63,-11.25 -0.73,-3.39 -1.45,-6.81 -2.13,-10.2 0.29,-0.91 0.72,-2.02 1.88,-5.02 0.63,-1.62 0.12,-3.91 -2.03,-3.91l-11.44 0.04c-7.14,0.28 -15.16,0.73 -21.59,1.06 -10.76,0.53 -23.14,2 -32.82,6.81 -5.15,2.56 -9.8,6.83 -9.8,13zm9.05 10.81l0 0c0.31,0 0.57,0.26 0.57,0.57l0 7.28c0,0.31 -0.26,0.57 -0.57,0.57l0 0c-0.31,0 -0.57,-0.26 -0.57,-0.57l0 -7.28c0,-0.31 0.26,-0.57 0.57,-0.57zm0 10.29l0 0c0.31,0 0.57,0.26 0.57,0.57l0 7.28c0,0.31 -0.26,0.57 -0.57,0.57l0 0c-0.31,0 -0.57,-0.26 -0.57,-0.57l0 -7.28c0,-0.31 0.26,-0.57 0.57,-0.57zm0 10.29l0 0c0.31,0 0.57,0.26 0.57,0.57l0 7.28c0,0.31 -0.26,0.57 -0.57,0.57l0 0c-0.31,0 -0.57,-0.26 -0.57,-0.57l0 -7.28c0,-0.31 0.26,-0.57 0.57,-0.57zm0 10.29l0 0c0.31,0 0.57,0.26 0.57,0.57l0 7.28c0,0.31 -0.26,0.57 -0.57,0.57l0 0c-0.31,0 -0.57,-0.26 -0.57,-0.57l0 -7.28c0,-0.31 0.26,-0.57 0.57,-0.57zm39.2 -33.03l0 0c0.31,0 0.57,0.26 0.57,0.57l0 7.28c0,0.31 -0.26,0.57 -0.57,0.57l0 0c-0.31,0 -0.57,-0.26 -0.57,-0.57l0 -7.28c0,-0.31 0.26,-0.57 0.57,-0.57zm0 10.29l0 0c0.31,0 0.57,0.26 0.57,0.57l0 7.28c0,0.31 -0.26,0.57 -0.57,0.57l0 0c-0.31,0 -0.57,-0.26 -0.57,-0.57l0 -7.28c0,-0.31 0.26,-0.57 0.57,-0.57zm0 10.29l0 0c0.31,0 0.57,0.26 0.57,0.57l0 7.28c0,0.31 -0.26,0.57 -0.57,0.57l0 0c-0.31,0 -0.57,-0.26 -0.57,-0.57l0 -7.28c0,-0.31 0.26,-0.57 0.57,-0.57zm0 10.29l0 0c0.31,0 0.57,0.26 0.57,0.57l0 7.28c0,0.31 -0.26,0.57 -0.57,0.57l0 0c-0.31,0 -0.57,-0.26 -0.57,-0.57l0 -7.28c0,-0.31 0.26,-0.57 0.57,-0.57z"/>
   <path class="fil1" d="M19.44 19.63c0,1.79 1.45,3.16 2.68,3.87 5.38,3.09 13.58,0.47 13.58,-3.87 0,-4.21 -7.95,-6.91 -13.42,-3.96 -1.22,0.66 -2.84,2.21 -2.84,3.96z"/>
  </g>
 </g>
</svg>
