<?xml version="1.0" encoding="UTF-8"?>
<!DOCTYPE svg PUBLIC "-//W3C//DTD SVG 1.1//EN" "http://www.w3.org/Graphics/SVG/1.1/DTD/svg11.dtd">
<!-- Creator: CorelDRAW 2019 (64-Bit) -->
<svg xmlns="http://www.w3.org/2000/svg" xml:space="preserve" width="2.187mm" height="5.3754mm" version="1.1" style="shape-rendering:geometricPrecision; text-rendering:geometricPrecision; image-rendering:optimizeQuality; fill-rule:evenodd; clip-rule:evenodd"
viewBox="0 0 3.09 7.6"
 xmlns:xlink="http://www.w3.org/1999/xlink"
 xmlns:xodm="http://www.corel.com/coreldraw/odm/2003">
 <defs>
  <style type="text/css">
   <![CDATA[
    .fil0 {fill:black}
    .fil1 {fill:red}
   ]]>
  </style>
 </defs>
 <g id="Слой_x0020_1">
  <metadata id="CorelCorpID_0Corel-Layer"/>
  <g id="_1989454923088">
   <path class="fil0" d="M2.18 0.58c0.11,0.17 -0.1,0.25 -0.63,0.27 -0.23,0.01 -0.39,0.01 -0.57,-0.08 -0.1,-0.05 -0.12,-0.12 -0.05,-0.2 -0.01,-0.12 -0.01,-0.24 0,-0.36 -0.05,-0.07 0.03,-0.14 0.11,-0.16 0.38,-0.09 0.74,-0.07 1.06,0.02 0.08,0.03 0.1,0.07 0.07,0.13 -0,0.12 0.02,0.26 0.01,0.37zm-0.94 0.42c0.19,0.02 0.33,0.01 0.49,0 0.32,-0.02 0.88,-0.15 0.91,-0.16 0.16,-0.05 0.19,-0.1 0.1,-0.12 -0.12,-0.05 -0.22,-0.09 -0.38,-0.11l0 -0.31c0.26,0.04 0.45,0.11 0.62,0.24 0.12,0.09 0.15,0.21 0.1,0.35 -0,0 -0,0.13 -0,0.13l0 3.58c-1.08,0.37 -2.09,0.37 -3.04,0l0 -3.58c0,0 -0,-0.06 -0,-0.14 -0.1,-0.24 0.2,-0.48 0.75,-0.58 -0,0.2 -0,0.3 -0,0.3 -0.37,0.1 -0.54,0.16 -0.41,0.22 0.11,0.05 0.31,0.14 0.88,0.2zm-0.15 -0.81c-0.07,-0.01 -0.07,-0.03 -0.01,-0.03 0.36,-0.05 0.66,-0.05 0.91,0 0.07,0.01 0.05,0.03 -0.05,0.04 -0.32,0.03 -0.6,0.03 -0.85,-0.01z"/>
   <path class="fil1" d="M3.07 4.87l0 2.12c0.01,0.02 0.02,0.04 0.02,0.06 0.01,0.12 -0.07,0.23 -0.22,0.31 -0.24,0.12 -0.53,0.18 -0.88,0.22 -0.34,0.03 -0.7,0.03 -1.1,-0.02 -0.33,-0.05 -0.6,-0.13 -0.79,-0.28 -0.1,-0.08 -0.13,-0.18 -0.08,-0.29l0 -2.1c1.15,0.39 2.07,0.35 3.04,0z"/>
  </g>
 </g>
</svg>
