<?xml version="1.0" encoding="UTF-8"?>
<!DOCTYPE svg PUBLIC "-//W3C//DTD SVG 1.1//EN" "http://www.w3.org/Graphics/SVG/1.1/DTD/svg11.dtd">
<!-- Creator: CorelDRAW 2019 (64-Bit) -->
<svg xmlns="http://www.w3.org/2000/svg" xml:space="preserve" width="2.4969mm" height="5.3897mm" version="1.1" style="shape-rendering:geometricPrecision; text-rendering:geometricPrecision; image-rendering:optimizeQuality; fill-rule:evenodd; clip-rule:evenodd"
viewBox="0 0 2.75 5.95"
 xmlns:xlink="http://www.w3.org/1999/xlink"
 xmlns:xodm="http://www.corel.com/coreldraw/odm/2003">
 <defs>
  <style type="text/css">
   <![CDATA[
    .fil0 {fill:black}
    .fil1 {fill:red}
   ]]>
  </style>
 </defs>
 <g id="Слой_x0020_1">
  <metadata id="CorelCorpID_0Corel-Layer"/>
  <g id="_1989454940592">
   <path class="fil0" d="M0.12 2.8l0.54 0c0.01,0 0.02,0.01 0.02,0.02l0 0.45c0,0.01 -0.01,0.02 -0.02,0.02l-0.54 0c-0.01,0 -0.02,-0.01 -0.02,-0.02l0 -0.45c0,-0.01 0.01,-0.02 0.02,-0.02zm0.05 0.19l0.14 0c0.01,0 0.01,0 0.01,0.01l0 0.09c0,0.01 -0,0.01 -0.01,0.01l-0.14 0c-0.01,0 -0.01,-0 -0.01,-0.01l0 -0.09c0,-0.01 0,-0.01 0.01,-0.01zm0.3 0l0.14 0c0.01,0 0.01,0 0.01,0.01l0 0.09c0,0.01 -0,0.01 -0.01,0.01l-0.14 0c-0.01,0 -0.01,-0 -0.01,-0.01l0 -0.09c0,-0.01 0,-0.01 0.01,-0.01z"/>
   <path class="fil1" d="M0 3.35l0.77 0c0,0 0,0 0,0l0 1.6c0,0 -0,0 -0,0l-0.77 0c-0,0 -0,-0 -0,-0l0 -1.6c0,-0 0,-0 0,-0zm0.3 1.11c0,-0.04 0.03,-0.07 0.06,-0.08l0 -0.07c-0.01,-0.01 -0.04,-0.03 -0.11,-0.05 -0.03,-0.01 -0.06,-0.04 -0.06,-0.07 -0,-0.02 -0,-0.03 -0,-0.04 -0.02,-0.01 -0.03,-0.03 -0.03,-0.05 0,-0.03 0.02,-0.05 0.05,-0.05 0.03,0 0.05,0.02 0.05,0.05 0,0.02 -0.01,0.04 -0.03,0.05 -0,0.03 -0,0.05 0,0.06 0.01,0.02 0.03,0.03 0.07,0.05 0.02,0.01 0.04,0.01 0.05,0.02l0 -0.41 -0.04 0 0.03 -0.05 0.03 -0.05 0.03 0.05 0.03 0.05 -0.04 0 0 0.33c0.01,-0.01 0.03,-0.02 0.05,-0.02 0.04,-0.01 0.07,-0.02 0.08,-0.04 0,-0.01 0.01,-0.03 0,-0.06l-0.03 0 0 -0.1 0.1 0 0 0.1 -0.03 0c0,0.02 0,0.04 -0,0.06 -0,0.03 -0.02,0.05 -0.05,0.06 -0.06,0.02 -0.1,0.03 -0.11,0.04l0 0.15c0.04,0.01 0.06,0.04 0.06,0.08 0,0.04 -0.04,0.08 -0.08,0.08 -0.05,0 -0.08,-0.04 -0.08,-0.08z"/>
   <rect class="fil0" x="0.22" y="5.02" width="0.34" height="0.23" rx="0" ry="0"/>
   <path class="fil0" d="M0.47 5.31c0,0.14 0.05,0.25 0.13,0.33 0.1,0.1 0.22,0.14 0.35,0.13 0.15,-0.01 0.26,-0.07 0.35,-0.18 0.07,-0.09 0.09,-0.2 0.09,-0.35l-0 -4.58c0,-0.22 0.07,-0.4 0.24,-0.53 0.14,-0.11 0.31,-0.16 0.5,-0.12 0.22,0.04 0.37,0.18 0.46,0.39 0.04,0.1 0.04,0.2 0.04,0.29l0 0.67 -0.17 0 0 -0.71c0,-0.12 -0.03,-0.22 -0.09,-0.3 -0.09,-0.12 -0.21,-0.18 -0.37,-0.18 -0.14,-0 -0.24,0.05 -0.33,0.15 -0.07,0.08 -0.12,0.19 -0.12,0.32l0.01 4.68c0,0.14 -0.04,0.27 -0.13,0.38 -0.12,0.16 -0.28,0.25 -0.46,0.25 -0.2,0 -0.36,-0.07 -0.48,-0.2 -0.12,-0.13 -0.18,-0.27 -0.18,-0.44l0.17 0z"/>
   <rect class="fil0" x="2.37" y="1.43" width="0.34" height="0.23" rx="0" ry="0"/>
   <rect class="fil0" x="2.33" y="1.72" width="0.42" height="1.04" rx="0.01" ry="0.01"/>
   <rect class="fil0" x="2.4" y="2.82" width="0.29" height="0.37" rx="0.01" ry="0"/>
  </g>
 </g>
</svg>
