<?xml version="1.0" encoding="UTF-8"?>
<!DOCTYPE svg PUBLIC "-//W3C//DTD SVG 1.1//EN" "http://www.w3.org/Graphics/SVG/1.1/DTD/svg11.dtd">
<!-- Creator: CorelDRAW 2020 (64-Bit) -->
<svg xmlns="http://www.w3.org/2000/svg" xml:space="preserve" width="4.7495mm" height="5.3751mm" version="1.1" style="shape-rendering:geometricPrecision; text-rendering:geometricPrecision; image-rendering:optimizeQuality; fill-rule:evenodd; clip-rule:evenodd"
viewBox="0 0 22.91 25.93"
 xmlns:xlink="http://www.w3.org/1999/xlink"
 xmlns:xodm="http://www.corel.com/coreldraw/odm/2003">
 <defs>
  <style type="text/css">
   <![CDATA[
    .fil0 {fill:black}
    .fil1 {fill:red}
   ]]>
  </style>
 </defs>
 <g id="Слой_x0020_1">
  <metadata id="CorelCorpID_0Corel-Layer"/>
  <g id="_2196505634064">
   <path class="fil0" d="M22.31 25.93l-2.64 -0.01c-0.05,-0 -0.1,-0.04 -0.1,-0.1l0.01 -2.19c0,-0.05 0.04,-0.1 0.1,-0.1l2.64 0.01c0.05,0 0.1,0.04 0.1,0.1l-0.01 2.19c0,0.05 -0.04,0.1 -0.1,0.1zm-0.24 -0.94l-0.7 -0c-0.03,-0 -0.05,-0.02 -0.05,-0.05l0 -0.42c0,-0.03 0.02,-0.05 0.05,-0.05l0.7 0c0.03,0 0.05,0.02 0.05,0.05l-0 0.42c0,0.03 -0.02,0.05 -0.05,0.05zm-1.49 -0l-0.7 -0c-0.03,0 -0.05,-0.02 -0.05,-0.05l0 -0.42c0,-0.03 0.02,-0.05 0.05,-0.05l0.7 0c0.03,0 0.05,0.02 0.05,0.05l-0 0.42c0,0.03 -0.02,0.05 -0.05,0.05z"/>
   <path class="fil1" d="M22.88 23.23l-3.79 -0.01c-0.01,0 -0.02,-0.01 -0.02,-0.02l0.02 -7.84c0,-0.01 0.01,-0.02 0.02,-0.02l3.79 0.01c0.01,0 0.02,0.01 0.02,0.02l-0.02 7.84c0,0.01 -0.01,0.02 -0.02,0.02zm-1.48 -5.43c-0,0.19 -0.14,0.35 -0.32,0.39l-0 0.34c0.05,0.07 0.22,0.13 0.52,0.22 0.17,0.05 0.27,0.21 0.28,0.37 0,0.09 0.01,0.14 0.01,0.22 0.1,0.03 0.16,0.12 0.16,0.23 0,0.13 -0.11,0.24 -0.24,0.24 -0.13,0 -0.24,-0.11 -0.24,-0.24 0,-0.11 0.07,-0.2 0.16,-0.23 0.02,-0.16 0.01,-0.25 -0.01,-0.29 -0.04,-0.08 -0.16,-0.16 -0.36,-0.22 -0.12,-0.03 -0.21,-0.07 -0.27,-0.12l-0 2.02 0.19 0 -0.14 0.23 -0.14 0.23 -0.14 -0.23 -0.14 -0.23 0.18 0 0 -1.61c-0.06,0.05 -0.15,0.08 -0.26,0.11 -0.21,0.05 -0.33,0.12 -0.37,0.2 -0.02,0.04 -0.03,0.15 -0.01,0.31l0.15 0 -0 0.5 -0.48 -0 0 -0.5 0.16 0c-0,-0.09 -0,-0.19 0,-0.28 0.01,-0.15 0.11,-0.25 0.26,-0.29 0.29,-0.08 0.47,-0.15 0.54,-0.22l0 -0.75c-0.17,-0.04 -0.3,-0.2 -0.3,-0.39 0,-0.22 0.18,-0.4 0.4,-0.4 0.22,0 0.4,0.18 0.4,0.4z"/>
   <rect class="fil0" x="20.04" y="13.73" width="1.9" height="1.28" rx="0.01" ry="0"/>
   <rect class="fil0" x="4.32" y="10.09" width="1.9" height="1.28" rx="0.01" ry="0"/>
   <path class="fil0" d="M4.71 11.71l1.13 0 0 8.14c0,0.84 -0.07,1.44 0.27,2.24 0.55,1.29 1.79,2.1 3.1,2.14 1.31,-0.03 2.55,-0.84 3.1,-2.14 0.34,-0.8 0.27,-1.4 0.27,-2.24 0,-4.54 0,-9.09 0,-13.63 0,-0.93 -0.06,-1.63 0.26,-2.53 0.6,-1.68 2.13,-2.95 4.23,-3.03 2.1,0.09 3.64,1.36 4.23,3.03 0.32,0.9 0.26,1.6 0.26,2.53l0 7.1 -1.13 0 0 -7.17c0,-0.84 0.07,-1.44 -0.27,-2.24 -0.55,-1.3 -1.79,-2.1 -3.1,-2.14 -1.31,0.03 -2.55,0.84 -3.1,2.14 -0.34,0.8 -0.27,1.4 -0.27,2.24 0,4.54 0,9.09 0,13.63 0,0.93 0.06,1.63 -0.26,2.53 -0.6,1.68 -2.13,2.95 -4.23,3.03 -2.1,-0.09 -3.64,-1.36 -4.23,-3.03 -0.32,-0.9 -0.26,-1.6 -0.26,-2.53l0 -8.07z"/>
   <path class="fil1" d="M8.92 4.43l0.65 0 0 4.99c0,0.18 -0.15,0.33 -0.33,0.33l-0 0c-0.18,0 -0.33,-0.15 -0.33,-0.33l0 -4.99z"/>
   <path class="fil0" d="M5.28 9.73l-1.42 0 -1.77 -1.24 0 -4.07 3.19 0 3.19 0 0 4.07 -1.77 1.24 -1.42 0zm0 -3.99l-1.75 0 0 0.67 1.75 0 1.75 0 0 -0.67 -1.75 0zm0 1.35l-1.76 0 0 0.7 1.76 0 1.76 0 0 -0.7 -1.76 0z"/>
   <polygon class="fil0" points="5.28,3.07 -0,3.07 -0,4.01 5.28,4.01 10.55,4.01 10.55,3.07 "/>
   <path class="fil1" d="M1.64 4.43l-0.65 0 0 4.99c0,0.18 0.15,0.33 0.33,0.33l0 0c0.18,0 0.33,-0.15 0.33,-0.33l0 -4.99z"/>
   <path class="fil0" d="M5.28 2.6l-2.56 0 0 -2.6 2.56 0 2.56 0 0 2.6 -2.56 0zm0 -1.94l-0.33 0 0 1.33 0.33 0 0.34 0 0 -1.33 -0.34 0zm1.71 0l-0.67 0 0 1.33 0.67 0 0 -1.33zm-3.41 0l0.67 0 0 1.33 -0.67 0 0 -1.33z"/>
  </g>
 </g>
</svg>
