<?xml version="1.0" encoding="UTF-8"?>
<!DOCTYPE svg PUBLIC "-//W3C//DTD SVG 1.1//EN" "http://www.w3.org/Graphics/SVG/1.1/DTD/svg11.dtd">
<!-- Creator: CorelDRAW 2019 (64-Bit) -->
<svg xmlns="http://www.w3.org/2000/svg" xml:space="preserve" width="2.2089mm" height="5.3751mm" version="1.1" style="shape-rendering:geometricPrecision; text-rendering:geometricPrecision; image-rendering:optimizeQuality; fill-rule:evenodd; clip-rule:evenodd"
viewBox="0 0 2.05 4.99"
 xmlns:xlink="http://www.w3.org/1999/xlink"
 xmlns:xodm="http://www.corel.com/coreldraw/odm/2003">
 <defs>
  <style type="text/css">
   <![CDATA[
    .fil0 {fill:black}
    .fil1 {fill:red}
   ]]>
  </style>
 </defs>
 <g id="Слой_x0020_1">
  <metadata id="CorelCorpID_0Corel-Layer"/>
  <g id="_1989451766992">
   <path class="fil0" d="M1.11 0l0 0 0.1 0 0.76 0c0.04,0 0.08,0.04 0.08,0.08l0 0.09 0 4.74c0,0.04 -0.04,0.08 -0.08,0.08l-0.76 0 -0.1 0 -0 0 -0.16 0 -0 0 -0.06 0 -0.8 0c-0.04,0 -0.08,-0.04 -0.08,-0.08l0 -4.74 0 -0.09c0,-0.04 0.04,-0.08 0.08,-0.08l0.8 0 0.06 0 0 0 0.16 0zm0.81 0.14l-1.77 -0 -0 4.71 1.77 0 0 -4.71zm0.06 -0.06l-1.89 -0 -0 4.83 1.89 0 0 -4.83zm-1.12 4.6l0 -0.36 0.36 0 0 0.36 -0.36 0zm0.06 -0.18c0,-0.07 0.05,-0.12 0.12,-0.12 0.07,0 0.12,0.05 0.12,0.12 0,0.07 -0.05,0.12 -0.12,0.12 -0.07,0 -0.12,-0.05 -0.12,-0.12zm-0.49 -4.16l0.61 0 0.61 0c0.03,0 0.06,0.02 0.06,0.05l0 0.16c0,0.03 -0.03,0.05 -0.06,0.05 -0.04,0.01 -0.07,0.03 -0.09,0.05 -0.02,0.03 -0.05,0.09 -0.08,0.09l-0.45 0 -0.45 0c-0.03,0 -0.06,-0.06 -0.08,-0.09 -0.02,-0.02 -0.05,-0.04 -0.09,-0.05 -0.03,-0.01 -0.06,-0.02 -0.06,-0.05l0 -0.16c0,-0.03 0.03,-0.05 0.06,-0.05zm0 0.84l0.61 0 0.61 0c0.03,0 0.06,0.02 0.06,0.05l0 0.16c0,0.03 -0.03,0.05 -0.06,0.05 -0.04,0.01 -0.07,0.03 -0.09,0.05 -0.02,0.03 -0.05,0.09 -0.08,0.09l-0.45 0 -0.45 0c-0.03,0 -0.06,-0.06 -0.08,-0.09 -0.02,-0.02 -0.05,-0.04 -0.09,-0.05 -0.03,-0.01 -0.06,-0.02 -0.06,-0.05l0 -0.16c0,-0.03 0.03,-0.05 0.06,-0.05zm0 0.84l0.61 0 0.61 0c0.03,0 0.06,0.02 0.06,0.05l0 0.16c0,0.03 -0.03,0.05 -0.06,0.05 -0.04,0.01 -0.07,0.03 -0.09,0.05 -0.02,0.03 -0.05,0.09 -0.08,0.09l-0.45 0 -0.45 0c-0.03,0 -0.06,-0.06 -0.08,-0.09 -0.02,-0.02 -0.05,-0.04 -0.09,-0.05 -0.03,-0.01 -0.06,-0.02 -0.06,-0.05l0 -0.16c0,-0.03 0.03,-0.05 0.06,-0.05zm0 0.84l0.61 0 0.61 0c0.03,0 0.06,0.02 0.06,0.05l0 0.16c0,0.03 -0.03,0.05 -0.06,0.05 -0.04,0.01 -0.07,0.03 -0.09,0.05 -0.02,0.03 -0.05,0.09 -0.08,0.09l-0.45 0 -0.45 0c-0.03,0 -0.06,-0.06 -0.08,-0.09 -0.02,-0.02 -0.05,-0.04 -0.09,-0.05 -0.03,-0.01 -0.06,-0.02 -0.06,-0.05l0 -0.16c0,-0.03 0.03,-0.05 0.06,-0.05zm0 0.84l0.61 0 0.61 0c0.03,0 0.06,0.02 0.06,0.05l0 0.16c0,0.03 -0.03,0.05 -0.06,0.05 -0.04,0.01 -0.07,0.03 -0.09,0.05 -0.02,0.03 -0.05,0.09 -0.08,0.09l-0.45 0 -0.45 0c-0.03,0 -0.06,-0.06 -0.08,-0.09 -0.02,-0.02 -0.05,-0.04 -0.09,-0.05 -0.03,-0.01 -0.06,-0.02 -0.06,-0.05l0 -0.16c0,-0.03 0.03,-0.05 0.06,-0.05z"/>
   <rect class="fil1" x="0.48" y="0.42" width="1.09" height="0.1" rx="0.02" ry="0.03"/>
   <rect class="fil1" x="0.48" y="1.26" width="1.09" height="0.1" rx="0.02" ry="0.03"/>
   <rect class="fil1" x="0.48" y="2.1" width="1.09" height="0.1" rx="0.02" ry="0.03"/>
   <rect class="fil1" x="0.48" y="2.94" width="1.09" height="0.1" rx="0.02" ry="0.03"/>
   <rect class="fil1" x="0.48" y="3.78" width="1.09" height="0.1" rx="0.02" ry="0.03"/>
  </g>
 </g>
</svg>
