<?xml version="1.0" encoding="UTF-8"?>
<!DOCTYPE svg PUBLIC "-//W3C//DTD SVG 1.1//EN" "http://www.w3.org/Graphics/SVG/1.1/DTD/svg11.dtd">
<!-- Creator: CorelDRAW 2020 (64-Bit) -->
<svg xmlns="http://www.w3.org/2000/svg" xml:space="preserve" width="5.3821mm" height="5.3753mm" version="1.1" style="shape-rendering:geometricPrecision; text-rendering:geometricPrecision; image-rendering:optimizeQuality; fill-rule:evenodd; clip-rule:evenodd"
viewBox="0 0 8.9 8.88"
 xmlns:xlink="http://www.w3.org/1999/xlink"
 xmlns:xodm="http://www.corel.com/coreldraw/odm/2003">
 <defs>
  <style type="text/css">
   <![CDATA[
    .fil1 {fill:black}
    .fil0 {fill:red}
   ]]>
  </style>
 </defs>
 <g id="Слой_x0020_1">
  <metadata id="CorelCorpID_0Corel-Layer"/>
  <g id="_2166751182800">
   <path class="fil0" d="M0.22 5.59l0.51 0.07c0.32,-0.63 0.67,-1.06 1.1,-1.42 0.28,-0.23 0.78,-0.56 1.13,-0.73 0.44,-0.21 0.39,-0.04 0.35,-0.67 -0.53,-0.11 -3.1,1.85 -3.1,2.75z"/>
   <path class="fil1" d="M4.99 7.43c0.56,-0.63 0.92,-1.34 1.26,-2.08 0.1,-0.24 0.2,-0.5 0.28,-0.74 0.28,0.07 0.54,0.08 0.61,-0.2 0.07,-0.31 -0.15,-0.45 -0.29,-0.58l-1.79 -1.79c-0.12,-0.12 -0.28,-0.37 -0.58,-0.28 -0.24,0.07 -0.3,0.35 -0.18,0.58 -0.22,0.13 -0.64,0.2 -0.82,0.37l0.01 0.72c-0.68,0.33 -1.03,0.5 -1.57,0.94 -0.24,0.2 -0.44,0.4 -0.63,0.64 -0.21,0.27 -0.31,0.53 -0.49,0.78 -0.24,0.05 -0.44,-0.06 -0.7,-0.03 -0.46,0.68 0.71,1.35 1.06,0.51 0.29,-0.68 0.58,-1.03 1.04,-1.43 0.45,-0.39 0.91,-0.67 1.51,-0.95 0.47,-0.23 0.85,-0.36 1.35,-0.52 0.25,-0.08 0.24,-0.04 0.39,0.11 0.2,0.2 0.11,0.28 -0.1,0.86 -0.29,0.82 -0.77,1.78 -1.32,2.37 -0.47,0.51 -0.7,0.69 -1.43,1.03 -0.66,0.3 -0.35,1.25 0.33,1.13 0.07,-0.02 0.2,-0.06 0.22,-0.07 0.85,-0.34 1.18,-0.62 1.85,-1.37zm1.65 -5.14c-0.08,-0.24 0.1,-0.1 0.14,-0.42 0.02,-0.21 0.06,-0.32 0.22,-0.38 0.44,-0.13 0.08,0.2 0.76,-0.47 0.12,-0.12 0.55,-0.46 0.52,-0.69 -0.02,-0.12 -0.17,-0.29 -0.28,-0.32 -0.21,-0.07 -0.33,0.06 -0.46,0.15 -0.25,0.17 -1.71,1.01 -1.78,1.24 -0.03,0.1 -0.07,0.44 -0.08,0.55 -0.03,0.32 0.16,0.41 0.49,0.73 0.59,0.59 0.45,0.6 1.2,0.48 0.24,-0.04 0.26,-0.1 0.37,-0.26 0.14,-0.2 1.17,-1.7 1.16,-1.91 -0,-0.15 -0.17,-0.31 -0.27,-0.35 -0.29,-0.11 -0.72,0.46 -1.03,0.77 -0.35,0.35 0.03,0.65 -0.54,0.71 -0.33,0.03 -0.21,0.17 -0.42,0.17z"/>
  </g>
 </g>
</svg>
