<?xml version="1.0" encoding="UTF-8"?>
<!DOCTYPE svg PUBLIC "-//W3C//DTD SVG 1.1//EN" "http://www.w3.org/Graphics/SVG/1.1/DTD/svg11.dtd">
<!-- Creator: CorelDRAW 2019 (64-Bit) -->
<svg xmlns="http://www.w3.org/2000/svg" xml:space="preserve" width="5.3591mm" height="5.3751mm" version="1.1" style="shape-rendering:geometricPrecision; text-rendering:geometricPrecision; image-rendering:optimizeQuality; fill-rule:evenodd; clip-rule:evenodd"
viewBox="0 0 11.41 11.45"
 xmlns:xlink="http://www.w3.org/1999/xlink"
 xmlns:xodm="http://www.corel.com/coreldraw/odm/2003">
 <defs>
  <style type="text/css">
   <![CDATA[
    .fil1 {fill:black}
    .fil2 {fill:#004560}
    .fil0 {fill:red}
   ]]>
  </style>
 </defs>
 <g id="Слой_x0020_1">
  <metadata id="CorelCorpID_0Corel-Layer"/>
  <g id="_1989457545440">
   <path class="fil0" d="M11.41 5.43l0 -5.43c-1.31,0.19 -4.67,0.66 -6.18,0.9 -0,0.74 0.01,3.9 -0,4.57l6.19 -0.05z"/>
   <path class="fil1" d="M11.41 11.45l0 -5.4 -6.2 -0.01c0,0.49 0,3.95 0.01,4.54 0.94,0.14 5.11,0.73 6.19,0.87z"/>
   <path class="fil1" d="M0 9.86c0.93,0.13 3.92,0.55 4.66,0.65l-0 -4.5 -4.66 -0.03 0 3.89z"/>
   <path class="fil1" d="M-0 1.62c0,1.3 0.01,2.59 0.01,3.89l4.66 -0.02 0 -4.5c-1.54,0.21 -3.11,0.44 -4.66,0.63z"/>
   <path class="fil2" d="M-0 5.51c0.04,0.02 0.15,0.01 0.19,0.01 0.06,-0 0.13,-0 0.19,-0 0.35,-0.01 0.71,-0 1.07,-0.01l0.1 -0.01 -1.55 0.01c0,-0.33 -0,-0.66 -0,-1 -0,-0.12 0.01,-0.95 -0.01,-0.99l0 1.98z"/>
  </g>
 </g>
</svg>
