<?xml version="1.0" encoding="UTF-8"?>
<!DOCTYPE svg PUBLIC "-//W3C//DTD SVG 1.1//EN" "http://www.w3.org/Graphics/SVG/1.1/DTD/svg11.dtd">
<!-- Creator: CorelDRAW 2020 (64-Bit) -->
<svg xmlns="http://www.w3.org/2000/svg" xml:space="preserve" width="5.084mm" height="5.3753mm" version="1.1" style="shape-rendering:geometricPrecision; text-rendering:geometricPrecision; image-rendering:optimizeQuality; fill-rule:evenodd; clip-rule:evenodd"
viewBox="0 0 18.73 19.8"
 xmlns:xlink="http://www.w3.org/1999/xlink"
 xmlns:xodm="http://www.corel.com/coreldraw/odm/2003">
 <defs>
  <style type="text/css">
   <![CDATA[
    .fil0 {fill:black}
    .fil1 {fill:red}
   ]]>
  </style>
 </defs>
 <g id="Слой_x0020_1">
  <metadata id="CorelCorpID_0Corel-Layer"/>
  <g id="_2781941365216">
   <path class="fil0" d="M-0 7.05l0 2.88 4.11 2.37c-0,-1.85 -0,-3.55 -0,-3.74 -0.31,-0.19 -2.18,-1.39 -2.49,-1.58 -0.35,-0.22 -1.14,-0.88 -1.51,-0.33 -0.07,0.11 -0.11,0.22 -0.11,0.39zm0 3.99l0 2.79c0,0.44 0.32,0.95 0.59,1.26 0.37,0.41 2.72,1.76 3.52,2.2 0,-0.21 -0,-1.99 -0,-3.88l-4.11 -2.38z"/>
   <path class="fil0" d="M14.76 8.4l0 3.98 3.97 -2.29 0 -3.05c0,-0.34 -0.15,-0.6 -0.5,-0.6 -0.5,0 -2.68,1.54 -3.46,1.96zm0 5.09l0 3.7 2.33 -1.39c0.74,-0.44 1.64,-0.97 1.64,-2.07l0 -2.53 -3.97 2.29z"/>
   <path class="fil0" d="M9.79 12.77l0 2.48 3.97 -2.29 0 -3.91c-1,0.59 -1.99,1.19 -2.98,1.79 -0.61,0.37 -0.99,1.1 -0.99,1.92zm0 3.59l0 2.74c0,0.32 0.17,0.7 0.5,0.7 0.47,0 2.85,-1.63 3.46,-1.96l0 -3.77 -3.97 2.29z"/>
   <path class="fil0" d="M5.07 17.89c0.59,0.31 2.93,1.91 3.31,1.91 0.42,0 0.55,-0.38 0.55,-0.8l0 -2.8 -3.87 -2.23 0 3.93zm3.87 -2.8l0 -2.42c0,-1.12 -0.69,-1.69 -1.51,-2.16 -0.39,-0.22 -1.65,-0.95 -2.36,-1.36l0 3.7 3.87 2.23z"/>
   <path class="fil0" d="M1.05 5.09c0,0.51 0.63,0.76 1.16,1.1 0.8,0.5 1.57,0.98 2.35,1.47 2,-1.25 2.71,-1.67 4.07,-2.5 -0.15,-0.09 -3.65,-2.26 -4.07,-2.53 -0.92,0.57 -1.84,1.14 -2.75,1.72 -0.25,0.16 -0.76,0.39 -0.76,0.74z"/>
   <path class="fil0" d="M5.49 2.05c1.18,0.76 2.7,1.7 4.05,2.54 1.3,-0.78 2.66,-1.6 3.94,-2.4 -0.77,-0.47 -1.53,-0.96 -2.32,-1.43 -0.95,-0.57 -1.64,-1.17 -2.96,-0.36 -0.9,0.56 -1.81,1.11 -2.72,1.66z"/>
   <path class="fil1" d="M5.62 8.25l2.59 1.62c1.41,0.84 2.02,0.18 3.31,-0.59l1.88 -1.23c-0.26,-0.17 -3.55,-2.14 -3.78,-2.28 -0.22,0.13 -3.59,2.23 -4,2.48z"/>
   <path class="fil0" d="M10.61 5.17c0.51,0.32 2.79,1.76 3.75,2.38 0.88,-0.56 1.79,-1.11 2.67,-1.65 1.46,-0.88 0.38,-1.33 -0.9,-2.08 -0.55,-0.33 -1.1,-0.68 -1.64,-1.01 -0.72,0.44 -3.48,2.12 -3.88,2.37z"/>
  </g>
 </g>
</svg>
