<?xml version="1.0" encoding="UTF-8"?>
<!DOCTYPE svg PUBLIC "-//W3C//DTD SVG 1.1//EN" "http://www.w3.org/Graphics/SVG/1.1/DTD/svg11.dtd">
<!-- Creator: CorelDRAW 2019 (64-Bit) -->
<svg xmlns="http://www.w3.org/2000/svg" xml:space="preserve" width="3.5002mm" height="5.3751mm" version="1.1" style="shape-rendering:geometricPrecision; text-rendering:geometricPrecision; image-rendering:optimizeQuality; fill-rule:evenodd; clip-rule:evenodd"
viewBox="0 0 8.45 12.98"
 xmlns:xlink="http://www.w3.org/1999/xlink"
 xmlns:xodm="http://www.corel.com/coreldraw/odm/2003">
 <defs>
  <style type="text/css">
   <![CDATA[
    .fil0 {fill:black}
    .fil1 {fill:red}
   ]]>
  </style>
 </defs>
 <g id="Слой_x0020_1">
  <metadata id="CorelCorpID_0Corel-Layer"/>
  <g id="_1989458716592">
   <path class="fil0" d="M0.15 0l8.15 0c0.08,0 0.15,0.07 0.15,0.15l0 12.68c0,0.08 -0.07,0.15 -0.15,0.15l-8.15 0c-0.08,0 -0.15,-0.07 -0.15,-0.15l0 -12.68c0,-0.08 0.07,-0.15 0.15,-0.15zm3.85 2.02l0.44 0c0.03,0 0.05,0.02 0.05,0.05l0 0.41c0,0.03 -0.02,0.05 -0.05,0.05l-0.44 0c-0.03,0 -0.05,-0.02 -0.05,-0.05l0 -0.41c0,-0.03 0.02,-0.05 0.05,-0.05zm-0.51 0.74l1.46 0c0.03,0 0.05,0.02 0.05,0.05l0 0.41c0,0.03 -0.02,0.05 -0.05,0.05l-1.46 0c-0.03,0 -0.05,-0.02 -0.05,-0.05l0 -0.41c0,-0.03 0.02,-0.05 0.05,-0.05zm-0.27 0.74l1.99 0c0.03,0 0.05,0.02 0.05,0.05l0 0.41c0,0.03 -0.02,0.05 -0.05,0.05l-1.99 0c-0.03,0 -0.05,-0.02 -0.05,-0.05l0 -0.41c0,-0.03 0.02,-0.05 0.05,-0.05zm-0.19 0.74l2.38 0c0.03,0 0.05,0.02 0.05,0.05l0 0.41c0,0.03 -0.02,0.05 -0.05,0.05l-2.38 0c-0.03,0 -0.05,-0.02 -0.05,-0.05l0 -0.41c0,-0.03 0.02,-0.05 0.05,-0.05zm-0.11 0.74l2.59 0c0.03,0 0.05,0.02 0.05,0.05l0 0.41c0,0.03 -0.02,0.05 -0.05,0.05l-2.59 0c-0.03,0 -0.05,-0.02 -0.05,-0.05l0 -0.41c0,-0.03 0.02,-0.05 0.05,-0.05zm-0.12 0.74l2.83 0c0.03,0 0.05,0.02 0.05,0.05l0 0.41c0,0.03 -0.02,0.05 -0.05,0.05l-2.83 0c-0.03,0 -0.05,-0.02 -0.05,-0.05l0 -0.41c0,-0.03 0.02,-0.05 0.05,-0.05zm-0.06 0.74l2.96 0c0.03,0 0.05,0.02 0.05,0.05l0 0.41c0,0.03 -0.02,0.05 -0.05,0.05l-2.96 0c-0.03,0 -0.05,-0.02 -0.05,-0.05l0 -0.41c0,-0.03 0.02,-0.05 0.05,-0.05zm-0.07 0.74l3.09 0c0.03,0 0.05,0.02 0.05,0.05l0 0.41c0,0.03 -0.02,0.05 -0.05,0.05l-3.09 0c-0.03,0 -0.05,-0.02 -0.05,-0.05l0 -0.41c0,-0.03 0.02,-0.05 0.05,-0.05zm-0.49 -5.59l4.07 0c0.03,0 0.05,0.02 0.05,0.05l0 6.38c0,0.03 -0.02,0.05 -0.05,0.05l-4.07 0c-0.03,0 -0.05,-0.02 -0.05,-0.05l0 -6.38c0,-0.03 0.02,-0.05 0.05,-0.05zm2.04 0.26c1.31,0 1.82,4.2 1.82,6.01 0,0.03 -0.02,0.05 -0.05,0.05l-3.55 0c-0.03,0 -0.05,-0.02 -0.05,-0.05 0,-1.81 0.52,-6.01 1.82,-6.01zm-1.2 7.56l2.39 0c0.04,0 0.08,0.03 0.08,0.08l0 2.39c0,0.04 -0.03,0.08 -0.08,0.08l-2.39 0c-0.04,0 -0.08,-0.03 -0.08,-0.08l0 -2.39c0,-0.04 0.03,-0.08 0.08,-0.08zm-2.78 -9.17l0 12.47 7.94 0 0 -12.47 -7.94 0zm2.78 8.91l2.39 0c0.18,0 0.33,0.15 0.33,0.33l0 2.39c0,0.18 -0.15,0.33 -0.33,0.33l-2.39 0c-0.18,0 -0.33,-0.15 -0.33,-0.33l0 -2.39c0,-0.18 0.15,-0.33 0.33,-0.33zm-2.84 -8.97l0 12.59 8.06 0 0 -12.59 -8.06 0zm2.84 9.03l2.39 0c0.15,0 0.27,0.12 0.27,0.27l0 2.39c0,0.15 -0.12,0.27 -0.27,0.27l-2.39 0c-0.15,0 -0.27,-0.12 -0.27,-0.27l0 -2.39c0,-0.15 0.12,-0.27 0.27,-0.27zm-0.84 -7.7l4.07 0c0.07,0 0.12,0.05 0.12,0.12l0 6.38c0,0.07 -0.06,0.12 -0.12,0.12l-4.07 0c-0.07,0 -0.12,-0.06 -0.12,-0.12l0 -6.38c0,-0.07 0.05,-0.12 0.12,-0.12z"/>
   <path class="fil1" d="M4.18 9.47c-0.12,0.04 -0.16,0.12 -0.16,0.24 0,0.12 -0.01,0.74 0.01,0.8 0.02,0.08 0.12,0.18 0.24,0.15 0.11,-0.03 0.16,-0.13 0.16,-0.24 -0,-0.12 0.01,-0.73 -0.01,-0.8 -0.02,-0.08 -0.12,-0.19 -0.24,-0.16zm0.44 0.28c-0.01,0.09 -0,0.34 -0,0.45 0,0.04 0.12,0.1 0.17,0.29 0.11,0.39 -0.17,0.78 -0.58,0.78 -0.28,0 -0.48,-0.18 -0.56,-0.38 -0.07,-0.18 -0.05,-0.4 0.06,-0.56 0.02,-0.03 0.03,-0.04 0.05,-0.07 0.02,-0.02 0.05,-0.04 0.05,-0.07 0,-0.13 0,-0.33 -0,-0.45 -0.08,0.02 -0.26,0.16 -0.32,0.22 -0.33,0.35 -0.38,0.9 -0.09,1.29 0.07,0.09 0.08,0.1 0.16,0.17 0.06,0.05 0.18,0.13 0.28,0.17 0.28,0.1 0.47,0.1 0.74,0 0.09,-0.03 0.22,-0.11 0.28,-0.16 0.17,-0.16 0.28,-0.31 0.34,-0.55 0.07,-0.31 -0.02,-0.64 -0.2,-0.86 -0.05,-0.06 -0.06,-0.06 -0.11,-0.11 -0.04,-0.04 -0.2,-0.16 -0.27,-0.17z"/>
  </g>
 </g>
</svg>
