<?xml version="1.0" encoding="UTF-8"?>
<!DOCTYPE svg PUBLIC "-//W3C//DTD SVG 1.1//EN" "http://www.w3.org/Graphics/SVG/1.1/DTD/svg11.dtd">
<!-- Creator: CorelDRAW 2019 (64-Bit) -->
<svg xmlns="http://www.w3.org/2000/svg" xml:space="preserve" width="3.5002mm" height="5.3751mm" version="1.1" style="shape-rendering:geometricPrecision; text-rendering:geometricPrecision; image-rendering:optimizeQuality; fill-rule:evenodd; clip-rule:evenodd"
viewBox="0 0 9.06 13.92"
 xmlns:xlink="http://www.w3.org/1999/xlink"
 xmlns:xodm="http://www.corel.com/coreldraw/odm/2003">
 <defs>
  <style type="text/css">
   <![CDATA[
    .fil2 {fill:black}
    .fil1 {fill:red}
    .fil0 {fill:black;fill-rule:nonzero}
   ]]>
  </style>
 </defs>
 <g id="Слой_x0020_1">
  <metadata id="CorelCorpID_0Corel-Layer"/>
  <g id="_1989464951392">
   <path class="fil0" d="M3.76 3.83l-0.92 0 0 -0.11 0.71 -1.48 0 -0.55 -0.47 0 0 0.52 -0.21 0 0 -0.53c0,-0.05 0.02,-0.09 0.05,-0.12 0.03,-0.03 0.07,-0.05 0.12,-0.05l0.54 0c0.05,0 0.09,0.02 0.12,0.05 0.03,0.03 0.05,0.07 0.05,0.12l0 0.48c0,0.06 -0.02,0.13 -0.05,0.2l-0.61 1.28 0.67 0 0 0.18zm1.19 0l-0.92 0 0 -0.11 0.71 -1.48 0 -0.55 -0.47 0 0 0.52 -0.21 0 0 -0.53c0,-0.05 0.02,-0.09 0.05,-0.12 0.03,-0.03 0.07,-0.05 0.12,-0.05l0.54 0c0.05,0 0.09,0.02 0.12,0.05 0.03,0.03 0.05,0.07 0.05,0.12l0 0.48c0,0.06 -0.02,0.13 -0.05,0.2l-0.61 1.28 0.67 0 0 0.18zm1.27 -0.17c0,0.05 -0.02,0.09 -0.05,0.12 -0.03,0.03 -0.07,0.05 -0.12,0.05l-0.6 0c-0.05,0 -0.09,-0.02 -0.12,-0.05 -0.03,-0.03 -0.05,-0.07 -0.05,-0.12l0 -1.98c0,-0.05 0.02,-0.09 0.05,-0.12 0.03,-0.03 0.07,-0.05 0.12,-0.05l0.6 0c0.05,0 0.09,0.02 0.12,0.05 0.03,0.03 0.05,0.07 0.05,0.12l0 1.98zm-0.21 -0.01l0 -1.96 -0.53 0 0 1.96 0.53 0z"/>
   <path class="fil1" d="M4.49 10.15c-0.13,0.04 -0.17,0.13 -0.17,0.26 0,0.12 -0.01,0.79 0.01,0.85 0.02,0.09 0.13,0.2 0.25,0.17 0.12,-0.03 0.17,-0.14 0.17,-0.26 -0,-0.13 0.01,-0.79 -0.01,-0.86 -0.02,-0.09 -0.13,-0.2 -0.26,-0.17zm0.48 0.3c-0.01,0.1 -0,0.37 -0,0.48 0,0.04 0.13,0.11 0.19,0.31 0.12,0.42 -0.18,0.83 -0.62,0.83 -0.3,0 -0.52,-0.19 -0.6,-0.4 -0.08,-0.2 -0.06,-0.42 0.06,-0.6 0.02,-0.03 0.03,-0.05 0.05,-0.07 0.02,-0.02 0.05,-0.04 0.05,-0.07 0,-0.14 0,-0.35 -0,-0.48 -0.09,0.02 -0.28,0.17 -0.35,0.24 -0.36,0.37 -0.41,0.97 -0.09,1.39 0.07,0.09 0.09,0.11 0.17,0.19 0.06,0.06 0.2,0.14 0.3,0.18 0.3,0.1 0.5,0.11 0.8,0 0.1,-0.03 0.24,-0.12 0.3,-0.18 0.18,-0.17 0.3,-0.33 0.36,-0.59 0.08,-0.33 -0.02,-0.69 -0.22,-0.92 -0.05,-0.06 -0.06,-0.07 -0.12,-0.12 -0.04,-0.04 -0.21,-0.17 -0.29,-0.18z"/>
   <path class="fil2" d="M0.16 0l8.74 0c0.09,0 0.16,0.07 0.16,0.16l0 13.59c0,0.09 -0.07,0.16 -0.16,0.16l-8.74 0c-0.09,0 -0.16,-0.07 -0.16,-0.16l0 -13.59c0,-0.09 0.07,-0.16 0.16,-0.16zm3.09 10.1l2.57 0c0.05,0 0.08,0.04 0.08,0.08l0 2.57c0,0.05 -0.04,0.08 -0.08,0.08l-2.57 0c-0.05,0 -0.08,-0.04 -0.08,-0.08l0 -2.57c0,-0.05 0.04,-0.08 0.08,-0.08zm-2.98 -9.83l0 13.37 8.52 0 0 -13.37 -8.52 0zm2.98 9.56l2.57 0c0.2,0 0.36,0.16 0.36,0.35l0 2.57c0,0.2 -0.16,0.35 -0.36,0.35l-2.57 0c-0.2,0 -0.36,-0.16 -0.36,-0.35l0 -2.57c0,-0.2 0.16,-0.35 0.36,-0.35zm-3.04 -9.62l0 13.5 8.65 0 0 -13.5 -8.65 0zm3.04 9.69l2.57 0c0.16,0 0.29,0.13 0.29,0.29l0 2.57c0,0.16 -0.13,0.29 -0.29,0.29l-2.57 0c-0.16,0 -0.29,-0.13 -0.29,-0.29l0 -2.57c0,-0.16 0.13,-0.29 0.29,-0.29zm-1.3 -8.76l5.16 0c0.01,0 0.02,0.01 0.02,0.02l0 3.02c0,0.01 -0.01,0.02 -0.02,0.02l-5.16 0c-0.01,0 -0.02,-0.01 -0.02,-0.02l0 -3.02c0,-0.01 0.01,-0.02 0.02,-0.02zm2.58 3.86c0.08,0 0.14,0.06 0.14,0.14 0,0.08 -0.06,0.14 -0.14,0.14 -0.08,0 -0.14,-0.06 -0.14,-0.14 0,-0.08 0.06,-0.14 0.14,-0.14zm-0.6 1.55l1.2 0c0.09,0 0.16,0.07 0.16,0.16l0 0c0,0.09 -0.07,0.16 -0.16,0.16l-1.2 0c-0.09,0 -0.16,-0.07 -0.16,-0.16l0 0c0,-0.09 0.07,-0.16 0.16,-0.16zm0 -0.13l1.2 0c0.16,0 0.29,0.13 0.29,0.29l0 0c0,0.16 -0.13,0.29 -0.29,0.29l-1.2 0c-0.16,0 -0.29,-0.13 -0.29,-0.29l0 0c0,-0.16 0.13,-0.29 0.29,-0.29zm-0.16 1.85l1.51 0 0 0.56 -1.51 0 0 -0.56zm-0.03 -0.13l1.57 0c0.06,0 0.1,0.05 0.1,0.1l0 0.62c0,0.06 -0.05,0.1 -0.1,0.1l-1.57 0c-0.06,0 -0.1,-0.05 -0.1,-0.1l0 -0.62c0,-0.06 0.05,-0.1 0.1,-0.1z"/>
  </g>
 </g>
</svg>
