<?xml version="1.0" encoding="UTF-8"?>
<!DOCTYPE svg PUBLIC "-//W3C//DTD SVG 1.1//EN" "http://www.w3.org/Graphics/SVG/1.1/DTD/svg11.dtd">
<!-- Creator: CorelDRAW 2019 (64-Bit) -->
<svg xmlns="http://www.w3.org/2000/svg" xml:space="preserve" width="7.6173mm" height="5.3751mm" version="1.1" style="shape-rendering:geometricPrecision; text-rendering:geometricPrecision; image-rendering:optimizeQuality; fill-rule:evenodd; clip-rule:evenodd"
viewBox="0 0 49.93 35.23"
 xmlns:xlink="http://www.w3.org/1999/xlink"
 xmlns:xodm="http://www.corel.com/coreldraw/odm/2003">
 <defs>
  <style type="text/css">
   <![CDATA[
    .fil0 {fill:black}
    .fil1 {fill:red}
   ]]>
  </style>
 </defs>
 <g id="Слой_x0020_1">
  <metadata id="CorelCorpID_0Corel-Layer"/>
  <g id="_1989459072240">
   <path class="fil0" d="M49.6 8.63l0 26.27 -49.26 0 0 -26.27 49.26 0zm-17.13 9.23l10.7 0c0.09,0 0.16,0.07 0.16,0.16l0 3.31c0,0.09 -0.07,0.16 -0.16,0.16l-10.7 0c-0.09,0 -0.16,-0.07 -0.16,-0.16l0 -3.31c0,-0.09 0.07,-0.16 0.16,-0.16zm-25.7 -0l3.53 0 0 -3.53c0,-0.09 0.07,-0.16 0.16,-0.16l3.31 0c0.09,0 0.16,0.07 0.16,0.16l0 3.53 3.53 0c0.09,0 0.16,0.07 0.16,0.16l0 3.31c0,0.09 -0.07,0.16 -0.16,0.16l-3.53 0 0 3.53c0,0.09 -0.07,0.16 -0.16,0.16l-3.31 0c-0.09,0 -0.16,-0.07 -0.16,-0.16l0 -3.53 -3.53 0c-0.09,0 -0.16,-0.07 -0.16,-0.16l0 -3.31c0,-0.09 0.07,-0.16 0.16,-0.16z"/>
   <polygon class="fil1" points="0.33,4.67 49.6,4.67 49.6,8.3 0.33,8.3 "/>
   <path class="fil0" d="M49.93 34.95c0,0.16 -0.13,0.28 -0.28,0.28l-49.37 0c-0.16,0 -0.28,-0.13 -0.28,-0.28 0,-10.11 0,-20.22 0,-30.34 0,-0.16 0.13,-0.28 0.28,-0.28l49.37 0c0.15,0 0.28,0.13 0.28,0.28 0,10.11 0,20.22 0,30.34zm-0.17 -30.34c0,-0.06 -0.05,-0.11 -0.11,-0.11l-49.37 0c-0.06,0 -0.11,0.05 -0.11,0.11 0,10.11 0,20.22 0,30.34 0,0.06 0.05,0.11 0.11,0.11l49.37 0c0.06,0 0.11,-0.05 0.11,-0.11 0,-10.11 0,-20.22 0,-30.34z"/>
   <rect class="fil0" x="7.18" y="-0" width="9.87" height="3.63" rx="0.13" ry="0.13"/>
   <rect class="fil0" x="32.88" y="-0" width="9.87" height="3.63" rx="0.13" ry="0.13"/>
  </g>
 </g>
</svg>
