<?xml version="1.0" encoding="UTF-8"?>
<!DOCTYPE svg PUBLIC "-//W3C//DTD SVG 1.1//EN" "http://www.w3.org/Graphics/SVG/1.1/DTD/svg11.dtd">
<!-- Creator: CorelDRAW 2019 (64-Bit) -->
<svg xmlns="http://www.w3.org/2000/svg" xml:space="preserve" width="3.5002mm" height="5.3751mm" version="1.1" style="shape-rendering:geometricPrecision; text-rendering:geometricPrecision; image-rendering:optimizeQuality; fill-rule:evenodd; clip-rule:evenodd"
viewBox="0 0 8 12.28"
 xmlns:xlink="http://www.w3.org/1999/xlink"
 xmlns:xodm="http://www.corel.com/coreldraw/odm/2003">
 <defs>
  <style type="text/css">
   <![CDATA[
    .fil0 {fill:black}
    .fil1 {fill:red}
   ]]>
  </style>
 </defs>
 <g id="Слой_x0020_1">
  <metadata id="CorelCorpID_0Corel-Layer"/>
  <g id="_1989451799472">
   <path class="fil0" d="M0.14 0l7.71 0c0.08,0 0.14,0.06 0.14,0.14l0 11.99c0,0.08 -0.06,0.14 -0.14,0.14l-7.71 0c-0.08,0 -0.14,-0.06 -0.14,-0.14l0 -11.99c0,-0.08 0.06,-0.14 0.14,-0.14zm1.58 10.59c-0.23,0 -0.41,0.18 -0.41,0.41 0,0.23 0.18,0.41 0.41,0.41 0.23,0 0.41,-0.18 0.41,-0.41 0,-0.23 -0.18,-0.41 -0.41,-0.41zm-0.54 0.53c-0.03,-0.01 -0.08,-0.02 -0.11,-0.03l0 -0.19c0.03,-0.01 0.08,-0.01 0.11,-0.02l0.02 -0.1c-0.03,-0.02 -0.04,-0.04 -0.07,-0.06 0.02,-0.04 0.07,-0.12 0.09,-0.16 0.04,0.01 0.06,0.02 0.09,0.03 0.02,-0.01 0.04,-0.03 0.08,-0.07 -0.01,-0.04 -0.01,-0.05 -0.02,-0.1 0.05,-0.02 0.13,-0.06 0.17,-0.07l0.06 0.08 0.1 -0.01 0.03 -0.1c0.06,0.01 0.12,0.02 0.19,0.03l0 0.1c0.03,0.02 0.06,0.03 0.09,0.04 0.03,-0.02 0.06,-0.04 0.08,-0.06 0.04,0.03 0.11,0.09 0.14,0.12 -0.02,0.03 -0.03,0.06 -0.05,0.09 0.02,0.03 0.03,0.05 0.05,0.08 0.04,-0 0.07,-0 0.1,-0.01 0.01,0.05 0.04,0.12 0.05,0.18 -0.03,0.02 -0.06,0.03 -0.09,0.04l-0 0.1 0.09 0.04c-0.01,0.06 -0.04,0.15 -0.05,0.18l-0.1 -0.01c-0.02,0.02 -0.04,0.07 -0.05,0.09 0.01,0.02 0.03,0.05 0.05,0.08 -0.01,0.01 -0.11,0.11 -0.14,0.12 -0.03,-0.02 -0.06,-0.05 -0.08,-0.06 -0.03,0.01 -0.06,0.03 -0.09,0.04l-0 0.1c-0.04,0.01 -0.15,0.02 -0.19,0.02l-0.03 -0.09 -0.1 -0.02c-0.02,0.03 -0.03,0.06 -0.05,0.08 -0.03,-0 -0.15,-0.06 -0.17,-0.07 0.01,-0.05 0.01,-0.06 0.02,-0.1 -0.02,-0.02 -0.05,-0.04 -0.07,-0.06 -0.04,0.01 -0.06,0.02 -0.1,0.03 -0.02,-0.04 -0.08,-0.13 -0.09,-0.16 0.03,-0.03 0.05,-0.04 0.07,-0.07 -0.01,-0.03 -0.01,-0.05 -0.02,-0.08zm5.09 -0.53c0.23,0 0.41,0.18 0.41,0.41 0,0.23 -0.18,0.41 -0.41,0.41 -0.23,0 -0.41,-0.18 -0.41,-0.41 0,-0.23 0.18,-0.41 0.41,-0.41zm0.54 0.53c0.03,-0.01 0.08,-0.02 0.11,-0.03l-0 -0.19c-0.03,-0.01 -0.08,-0.01 -0.11,-0.02l-0.02 -0.1c0.03,-0.02 0.04,-0.04 0.07,-0.06 -0.02,-0.04 -0.07,-0.12 -0.09,-0.16 -0.04,0.01 -0.06,0.02 -0.1,0.03 -0.02,-0.01 -0.04,-0.03 -0.08,-0.07 0.01,-0.04 0.01,-0.05 0.02,-0.1 -0.05,-0.02 -0.13,-0.06 -0.17,-0.07l-0.06 0.08 -0.1 -0.01 -0.03 -0.1c-0.06,0.01 -0.12,0.02 -0.19,0.03l-0 0.1c-0.03,0.02 -0.06,0.03 -0.09,0.04 -0.03,-0.02 -0.06,-0.04 -0.08,-0.06 -0.04,0.03 -0.11,0.09 -0.14,0.12 0.02,0.03 0.03,0.06 0.05,0.09 -0.02,0.03 -0.03,0.05 -0.05,0.08 -0.04,-0 -0.07,-0 -0.1,-0.01 -0.01,0.05 -0.04,0.12 -0.05,0.18 0.03,0.01 0.06,0.03 0.09,0.04l0 0.1 -0.09 0.04c0.01,0.06 0.04,0.15 0.05,0.18l0.1 -0.01c0.02,0.02 0.04,0.07 0.05,0.09 -0.01,0.02 -0.03,0.05 -0.05,0.08 0.01,0.01 0.11,0.11 0.14,0.12 0.03,-0.02 0.06,-0.05 0.08,-0.06 0.03,0.01 0.06,0.03 0.09,0.04l0 0.1c0.04,0.01 0.15,0.02 0.19,0.02l0.03 -0.09 0.1 -0.02c0.02,0.03 0.03,0.06 0.05,0.08 0.03,-0 0.15,-0.06 0.17,-0.07 -0.01,-0.05 -0.01,-0.06 -0.02,-0.1 0.02,-0.02 0.05,-0.04 0.07,-0.06 0.04,0.01 0.06,0.02 0.1,0.03 0.02,-0.04 0.08,-0.13 0.09,-0.16 -0.03,-0.03 -0.05,-0.04 -0.07,-0.07 0.01,-0.03 0.01,-0.05 0.02,-0.08zm-3.02 -9.2l0.42 0c0.03,0 0.05,0.02 0.05,0.05l0 0.39c0,0.03 -0.02,0.05 -0.05,0.05l-0.42 0c-0.03,0 -0.05,-0.02 -0.05,-0.05l0 -0.39c0,-0.03 0.02,-0.05 0.05,-0.05zm-0.48 0.7l1.38 0c0.03,0 0.05,0.02 0.05,0.05l0 0.39c0,0.03 -0.02,0.05 -0.05,0.05l-1.38 0c-0.03,0 -0.05,-0.02 -0.05,-0.05l0 -0.39c0,-0.03 0.02,-0.05 0.05,-0.05zm-0.25 0.7l1.89 0c0.03,0 0.05,0.02 0.05,0.05l0 0.39c0,0.03 -0.02,0.05 -0.05,0.05l-1.89 0c-0.03,0 -0.05,-0.02 -0.05,-0.05l0 -0.39c0,-0.03 0.02,-0.05 0.05,-0.05zm-0.18 0.7l2.25 0c0.03,0 0.05,0.02 0.05,0.05l0 0.39c0,0.03 -0.02,0.05 -0.05,0.05l-2.25 0c-0.03,0 -0.05,-0.02 -0.05,-0.05l0 -0.39c0,-0.03 0.02,-0.05 0.05,-0.05zm-0.1 0.7l2.45 0c0.03,0 0.05,0.02 0.05,0.05l0 0.39c0,0.03 -0.02,0.05 -0.05,0.05l-2.45 0c-0.03,0 -0.05,-0.02 -0.05,-0.05l0 -0.39c0,-0.03 0.02,-0.05 0.05,-0.05zm-0.11 0.7l2.68 0c0.03,0 0.05,0.02 0.05,0.05l0 0.39c0,0.03 -0.02,0.05 -0.05,0.05l-2.68 0c-0.03,0 -0.05,-0.02 -0.05,-0.05l0 -0.39c0,-0.03 0.02,-0.05 0.05,-0.05zm-0.06 0.7l2.8 0c0.03,0 0.05,0.02 0.05,0.05l0 0.39c0,0.03 -0.02,0.05 -0.05,0.05l-2.8 0c-0.03,0 -0.05,-0.02 -0.05,-0.05l0 -0.39c0,-0.03 0.02,-0.05 0.05,-0.05zm-0.06 0.7l2.92 0c0.03,0 0.05,0.02 0.05,0.05l0 0.39c0,0.03 -0.02,0.05 -0.05,0.05l-2.92 0c-0.03,0 -0.05,-0.02 -0.05,-0.05l0 -0.39c0,-0.03 0.02,-0.05 0.05,-0.05zm-0.46 -5.29l3.85 0c0.03,0 0.05,0.02 0.05,0.05l0 6.04c0,0.03 -0.02,0.05 -0.05,0.05l-3.85 0c-0.03,0 -0.05,-0.02 -0.05,-0.05l0 -6.04c0,-0.03 0.02,-0.05 0.05,-0.05zm1.93 0.24c1.24,0 1.73,3.97 1.73,5.68 0,0.03 -0.02,0.05 -0.05,0.05l-3.36 0c-0.03,0 -0.05,-0.02 -0.05,-0.05 0,-1.71 0.49,-5.68 1.73,-5.68zm-1.14 7.15l2.26 0c0.04,0 0.07,0.03 0.07,0.07l0 2.26c0,0.04 -0.03,0.07 -0.07,0.07l-2.26 0c-0.04,0 -0.07,-0.03 -0.07,-0.07l0 -2.26c0,-0.04 0.03,-0.07 0.07,-0.07zm-2.63 -8.67l0 10.89 0 -0.09 0.06 -0.01c0.01,-0.06 0.02,-0.09 0.03,-0.12 0.01,-0.03 0.02,-0.04 0.05,-0.04 0.06,-0 0.17,0.01 0.23,0.02 0.03,0 0.04,0.02 0.04,0.04 0,0.03 0,0.07 0,0.13 0.06,0.01 0.1,0.03 0.14,0.05 0.01,-0.01 0.07,-0.07 0.1,-0.09 0.01,-0.01 0.01,-0.01 0.03,-0 0.05,0.03 0.2,0.14 0.21,0.16 0.01,0.01 0.01,0.02 0,0.03 -0.02,0.03 -0.04,0.08 -0.07,0.13 0.03,0.03 0.06,0.07 0.08,0.11 0.06,-0.01 0.11,-0.01 0.15,-0.02 0.01,-0 0.01,0 0.01,0.01 0.02,0.04 0.08,0.21 0.09,0.27 0,0.01 -0,0.01 -0.01,0.02 -0.04,0.02 -0.08,0.04 -0.12,0.06 0.01,0.05 0.01,0.1 0,0.16 0.03,0.01 0.05,0.02 0.08,0.03 0.04,0.01 0.07,0.02 0.06,0.06l5.17 0c-0,-0.04 0.03,-0.05 0.06,-0.06 0.03,-0.01 0.05,-0.02 0.08,-0.03 -0.01,-0.05 -0,-0.11 0,-0.16 -0.04,-0.02 -0.08,-0.04 -0.12,-0.06 -0.01,-0.01 -0.01,-0.01 -0.01,-0.02 0.01,-0.06 0.06,-0.23 0.08,-0.27 0,-0 0.01,-0.01 0.01,-0.01 0.05,0.01 0.1,0.01 0.15,0.02 0.02,-0.04 0.05,-0.08 0.08,-0.11 -0.03,-0.05 -0.05,-0.09 -0.07,-0.13 -0.01,-0.01 -0.01,-0.02 0,-0.03 0.02,-0.02 0.16,-0.13 0.21,-0.16 0.02,-0.01 0.02,-0.01 0.03,0 0.03,0.02 0.09,0.08 0.1,0.09 0.04,-0.02 0.09,-0.04 0.14,-0.05 0,-0.06 -0,-0.1 0,-0.13 0,-0.02 0.01,-0.04 0.04,-0.04 0.06,-0.01 0.18,-0.02 0.23,-0.02 0.03,0 0.04,0.01 0.05,0.04 0,0.02 0.01,0.06 0.03,0.12l0.06 0.01 0 0.13 0 -10.92 -7.51 0zm0 11.02l0 0.78 0.76 0c0.01,-0.05 0.02,-0.11 0.02,-0.16 0,-0.34 -0.28,-0.62 -0.62,-0.62 -0.06,0 -0.12,0.01 -0.17,0.02l-0 -0.03zm6.75 0.78l0.76 0 0 -0.75c-0.05,-0.02 -0.11,-0.02 -0.17,-0.02 -0.34,0 -0.62,0.28 -0.62,0.62 0,0.06 0.01,0.11 0.02,0.16zm-4.13 -3.37l2.26 0c0.17,0 0.31,0.14 0.31,0.31l0 2.26c0,0.17 -0.14,0.31 -0.31,0.31l-2.26 0c-0.17,0 -0.31,-0.14 -0.31,-0.31l0 -2.26c0,-0.17 0.14,-0.31 0.31,-0.31zm-2.68 -8.49l0 11.91 7.63 0 0 -11.91 -7.63 0zm2.68 8.55l2.26 0c0.14,0 0.26,0.11 0.26,0.25l0 2.26c0,0.14 -0.11,0.25 -0.26,0.25l-2.26 0c-0.14,0 -0.26,-0.11 -0.26,-0.25l0 -2.26c0,-0.14 0.11,-0.25 0.26,-0.25zm-0.79 -7.28l3.85 0c0.06,0 0.12,0.05 0.12,0.12l0 6.04c0,0.06 -0.05,0.12 -0.12,0.12l-3.85 0c-0.06,0 -0.12,-0.05 -0.12,-0.12l0 -6.04c0,-0.06 0.05,-0.12 0.12,-0.12z"/>
   <path class="fil1" d="M3.96 8.96c-0.11,0.03 -0.15,0.12 -0.15,0.23 0,0.11 -0.01,0.7 0.01,0.75 0.02,0.08 0.11,0.17 0.22,0.15 0.11,-0.03 0.15,-0.12 0.15,-0.23 -0,-0.11 0.01,-0.69 -0.01,-0.75 -0.02,-0.08 -0.12,-0.18 -0.23,-0.15zm0.42 0.26c-0.01,0.09 -0,0.32 -0,0.43 0,0.04 0.11,0.1 0.16,0.28 0.11,0.37 -0.16,0.74 -0.54,0.74 -0.26,0 -0.46,-0.17 -0.53,-0.36 -0.07,-0.17 -0.05,-0.37 0.05,-0.53 0.02,-0.03 0.03,-0.04 0.05,-0.06 0.01,-0.02 0.05,-0.04 0.05,-0.06 0,-0.12 0,-0.31 -0,-0.43 -0.08,0.02 -0.25,0.15 -0.3,0.21 -0.32,0.33 -0.36,0.85 -0.08,1.22 0.06,0.08 0.08,0.1 0.15,0.16 0.05,0.05 0.17,0.13 0.26,0.16 0.26,0.09 0.44,0.09 0.7,0 0.09,-0.03 0.21,-0.11 0.26,-0.16 0.16,-0.15 0.26,-0.29 0.32,-0.52 0.07,-0.29 -0.02,-0.61 -0.19,-0.81 -0.05,-0.06 -0.05,-0.06 -0.1,-0.11 -0.04,-0.04 -0.19,-0.15 -0.25,-0.16z"/>
  </g>
 </g>
</svg>
