<?xml version="1.0" encoding="UTF-8"?>
<!DOCTYPE svg PUBLIC "-//W3C//DTD SVG 1.1//EN" "http://www.w3.org/Graphics/SVG/1.1/DTD/svg11.dtd">
<!-- Creator: CorelDRAW 2019 (64-Bit) -->
<svg xmlns="http://www.w3.org/2000/svg" xml:space="preserve" width="6.5318mm" height="5.3909mm" version="1.1" style="shape-rendering:geometricPrecision; text-rendering:geometricPrecision; image-rendering:optimizeQuality; fill-rule:evenodd; clip-rule:evenodd"
viewBox="0 0 27.86 22.99"
 xmlns:xlink="http://www.w3.org/1999/xlink"
 xmlns:xodm="http://www.corel.com/coreldraw/odm/2003">
 <defs>
  <style type="text/css">
   <![CDATA[
    .fil0 {fill:black}
    .fil1 {fill:red}
   ]]>
  </style>
 </defs>
 <g id="Слой_x0020_1">
  <metadata id="CorelCorpID_0Corel-Layer"/>
  <g id="_1989253637984">
   <path class="fil0" d="M11.74 21.56c-0.46,0.05 -0.75,0.17 -1.02,0.41 -0.21,0.19 -0.46,0.64 -0.43,1.02l7.28 0c-0.04,-0.6 -0.37,-1.08 -0.88,-1.3 -0.73,-0.32 -0.59,0.39 -0.59,-1.58l-4.35 -0.01 -0.02 1.46zm-10.74 -21.56l25.86 0c0.55,0 1,0.45 1,1l0 14.78 -27.86 0 0 -14.78c0,-0.55 0.45,-1 1,-1zm26.86 16.21l0 1.94c0,0.55 -0.45,1 -1,1l-25.86 0c-0.55,0 -1,-0.45 -1,-1l0 -1.94 27.86 0zm-26.8 -15.18l25.74 0c0.05,0 0.08,0.04 0.08,0.08l0 13.54c0,0.05 -0.04,0.08 -0.08,0.08l-25.74 0c-0.05,0 -0.08,-0.04 -0.08,-0.08l0 -13.54c0,-0.05 0.04,-0.08 0.08,-0.08zm12.87 15.55c0.61,0 1.1,0.49 1.1,1.1 0,0.61 -0.49,1.1 -1.1,1.1 -0.61,0 -1.1,-0.49 -1.1,-1.1 0,-0.61 0.49,-1.1 1.1,-1.1z"/>
   <path class="fil1" d="M13.9 16.88c-0.08,0.02 -0.11,0.08 -0.11,0.17 0,0.08 -0.01,0.5 0,0.54 0.01,0.06 0.08,0.12 0.16,0.11 0.08,-0.02 0.11,-0.09 0.11,-0.17 -0,-0.08 0.01,-0.5 -0,-0.54 -0.01,-0.06 -0.08,-0.13 -0.16,-0.11zm0.3 0.19c-0,0.06 -0,0.23 -0,0.31 0,0.03 0.08,0.07 0.12,0.2 0.08,0.27 -0.11,0.53 -0.39,0.53 -0.19,0 -0.33,-0.12 -0.38,-0.26 -0.05,-0.13 -0.04,-0.27 0.04,-0.38 0.01,-0.02 0.02,-0.03 0.03,-0.05 0.01,-0.01 0.03,-0.03 0.03,-0.05 0,-0.09 0,-0.23 -0,-0.31 -0.06,0.01 -0.18,0.11 -0.22,0.15 -0.23,0.24 -0.26,0.62 -0.06,0.88 0.05,0.06 0.06,0.07 0.11,0.12 0.04,0.03 0.13,0.09 0.19,0.11 0.19,0.07 0.32,0.07 0.51,0 0.06,-0.02 0.15,-0.08 0.19,-0.11 0.12,-0.11 0.19,-0.21 0.23,-0.38 0.05,-0.21 -0.02,-0.44 -0.14,-0.59 -0.03,-0.04 -0.04,-0.04 -0.07,-0.08 -0.03,-0.03 -0.14,-0.11 -0.18,-0.12z"/>
  </g>
 </g>
</svg>
