<?xml version="1.0" encoding="UTF-8"?>
<!DOCTYPE svg PUBLIC "-//W3C//DTD SVG 1.1//EN" "http://www.w3.org/Graphics/SVG/1.1/DTD/svg11.dtd">
<!-- Creator: CorelDRAW 2020 (64-Bit) -->
<svg xmlns="http://www.w3.org/2000/svg" xml:space="preserve" width="5.0642mm" height="5.3751mm" version="1.1" style="shape-rendering:geometricPrecision; text-rendering:geometricPrecision; image-rendering:optimizeQuality; fill-rule:evenodd; clip-rule:evenodd"
viewBox="0 0 31.38 33.31"
 xmlns:xlink="http://www.w3.org/1999/xlink"
 xmlns:xodm="http://www.corel.com/coreldraw/odm/2003">
 <defs>
  <style type="text/css">
   <![CDATA[
    .fil0 {fill:black}
    .fil1 {fill:red}
   ]]>
  </style>
 </defs>
 <g id="Слой_x0020_1">
  <metadata id="CorelCorpID_0Corel-Layer"/>
  <path class="fil0" d="M1.21 30.89l11.41 0c0.48,-1.22 1.68,-2.09 3.07,-2.09 1.39,0 2.59,0.87 3.07,2.09l11.41 0c0.66,0 1.21,0.54 1.21,1.21l0 0c0,0.66 -0.54,1.21 -1.21,1.21l-5.3 0c-8.13,0 -11.27,0 -19.58,0l-4.08 0c-0.66,0 -1.21,-0.54 -1.21,-1.21l0 0c0,-0.66 0.54,-1.21 1.21,-1.21z"/>
  <g id="_1886552906864">
   <path class="fil0" d="M3.61 0l24.17 0c1.98,0 3.61,1.62 3.61,3.61l0 0.72c0,1.98 -1.62,3.61 -3.61,3.61l-24.17 0c-1.98,0 -3.61,-1.62 -3.61,-3.61l0 -0.72c0,-1.98 1.62,-3.61 3.61,-3.61zm0.33 1.73c1.24,0 2.24,1 2.24,2.24 0,1.24 -1,2.24 -2.24,2.24 -1.24,0 -2.24,-1 -2.24,-2.24 0,-1.24 1,-2.24 2.24,-2.24zm20.71 1.12c0.62,0 1.12,0.5 1.12,1.12 0,0.62 -0.5,1.12 -1.12,1.12 -0.62,0 -1.12,-0.5 -1.12,-1.12 0,-0.62 0.5,-1.12 1.12,-1.12zm2.87 0c0.62,0 1.12,0.5 1.12,1.12 0,0.62 -0.5,1.12 -1.12,1.12 -0.62,0 -1.12,-0.5 -1.12,-1.12 0,-0.62 0.5,-1.12 1.12,-1.12zm-5.75 0c0.62,0 1.12,0.5 1.12,1.12 0,0.62 -0.5,1.12 -1.12,1.12 -0.62,0 -1.12,-0.5 -1.12,-1.12 0,-0.62 0.5,-1.12 1.12,-1.12z"/>
   <circle class="fil1" cx="3.94" cy="3.96" r="1.62"/>
  </g>
  <g id="_1886552907776">
   <path class="fil0" d="M3.61 9.39l24.17 0c1.98,0 3.61,1.62 3.61,3.61l0 0.72c0,1.98 -1.62,3.61 -3.61,3.61l-24.17 0c-1.98,0 -3.61,-1.62 -3.61,-3.61l0 -0.72c0,-1.98 1.62,-3.61 3.61,-3.61zm0.33 1.73c1.24,0 2.24,1 2.24,2.24 0,1.24 -1,2.24 -2.24,2.24 -1.24,0 -2.24,-1 -2.24,-2.24 0,-1.24 1,-2.24 2.24,-2.24zm20.71 1.12c0.62,0 1.12,0.5 1.12,1.12 0,0.62 -0.5,1.12 -1.12,1.12 -0.62,0 -1.12,-0.5 -1.12,-1.12 0,-0.62 0.5,-1.12 1.12,-1.12zm2.87 0c0.62,0 1.12,0.5 1.12,1.12 0,0.62 -0.5,1.12 -1.12,1.12 -0.62,0 -1.12,-0.5 -1.12,-1.12 0,-0.62 0.5,-1.12 1.12,-1.12zm-5.75 0c0.62,0 1.12,0.5 1.12,1.12 0,0.62 -0.5,1.12 -1.12,1.12 -0.62,0 -1.12,-0.5 -1.12,-1.12 0,-0.62 0.5,-1.12 1.12,-1.12z"/>
   <circle class="fil1" cx="3.94" cy="13.36" r="1.62"/>
  </g>
  <g id="_1886552907824">
   <path class="fil0" d="M3.61 18.79l24.17 0c1.98,0 3.61,1.62 3.61,3.61l0 0.72c0,1.98 -1.62,3.61 -3.61,3.61l-24.17 0c-1.98,0 -3.61,-1.62 -3.61,-3.61l0 -0.72c0,-1.98 1.62,-3.61 3.61,-3.61zm0.33 1.73c1.24,0 2.24,1 2.24,2.24 0,1.24 -1,2.24 -2.24,2.24 -1.24,0 -2.24,-1 -2.24,-2.24 0,-1.24 1,-2.24 2.24,-2.24zm20.71 1.12c0.62,0 1.12,0.5 1.12,1.12 0,0.62 -0.5,1.12 -1.12,1.12 -0.62,0 -1.12,-0.5 -1.12,-1.12 0,-0.62 0.5,-1.12 1.12,-1.12zm2.87 0c0.62,0 1.12,0.5 1.12,1.12 0,0.62 -0.5,1.12 -1.12,1.12 -0.62,0 -1.12,-0.5 -1.12,-1.12 0,-0.62 0.5,-1.12 1.12,-1.12zm-16.6 0c0.01,0 9.68,0 9.69,0 0.6,0.02 1.09,0.51 1.09,1.12 0,0.61 -0.49,1.1 -1.09,1.12 -0.01,0 -9.67,0 -9.68,0 -0.62,0 -1.12,-0.5 -1.12,-1.12 0,-0.62 0.5,-1.12 1.12,-1.12z"/>
   <circle class="fil0" cx="3.94" cy="22.75" r="1.62"/>
  </g>
  <rect class="fil0" x="14.97" y="26.25" width="1.43" height="4.37"/>
 </g>
</svg>
