<?xml version="1.0" encoding="UTF-8"?>
<!DOCTYPE svg PUBLIC "-//W3C//DTD SVG 1.1//EN" "http://www.w3.org/Graphics/SVG/1.1/DTD/svg11.dtd">
<!-- Creator: CorelDRAW 2020 (64-Bit) -->
<svg xmlns="http://www.w3.org/2000/svg" xml:space="preserve" width="5.3755mm" height="3.4394mm" version="1.1" style="shape-rendering:geometricPrecision; text-rendering:geometricPrecision; image-rendering:optimizeQuality; fill-rule:evenodd; clip-rule:evenodd"
viewBox="0 0 22.19 14.2"
 xmlns:xlink="http://www.w3.org/1999/xlink"
 xmlns:xodm="http://www.corel.com/coreldraw/odm/2003">
 <defs>
  <style type="text/css">
   <![CDATA[
    .fil1 {fill:none}
    .fil0 {fill:black}
    .fil2 {fill:red}
   ]]>
  </style>
 </defs>
 <g id="Слой_x0020_1">
  <metadata id="CorelCorpID_0Corel-Layer"/>
  <g id="_2390257304416">
   <path class="fil0" d="M22.19 13.4l0 0.54c0,0.14 -0.12,0.26 -0.26,0.26l-21.67 0c-0.14,0 -0.26,-0.12 -0.26,-0.26l0 -0.54 9.11 0c0.04,0.15 0.18,0.26 0.35,0.26l3.27 0c0.16,0 0.3,-0.11 0.35,-0.26l9.11 0z"/>
   <path class="fil0" d="M2.12 12.88l17.95 0c0.37,0 0.67,-0.3 0.67,-0.67l0 -11.54c0,-0.37 -0.3,-0.67 -0.67,-0.67l-17.95 0c-0.37,0 -0.67,0.3 -0.67,0.67l0 11.54c0,0.37 0.3,0.67 0.67,0.67zm0.11 -12.08c0,-0.05 0.04,-0.09 0.09,-0.09l17.54 0c0.05,0 0.09,0.04 0.09,0.09l0 11.27c0,0.05 -0.04,0.09 -0.09,0.09l-17.54 0c-0.05,0 -0.09,-0.04 -0.09,-0.09l0 -11.27zm8.86 -0.7c0.14,0 0.25,0.11 0.25,0.25 0,0.14 -0.11,0.25 -0.25,0.25 -0.14,0 -0.25,-0.11 -0.25,-0.25 0,-0.14 0.11,-0.25 0.25,-0.25z"/>
   <line class="fil1" x1="8.6" y1="13.4" x2="13.93" y2= "13.4" />
   <path class="fil2" d="M11.09 13.56c-0.6,0 -1.14,0 -1.63,0 -0.09,-0.04 -0.17,-0.09 -0.2,-0.16l1.83 0 1.83 0c-0.03,0.07 -0.11,0.12 -0.2,0.16 -0.49,0 -1.03,0 -1.63,0z"/>
  </g>
 </g>
</svg>
