<?xml version="1.0" encoding="UTF-8"?>
<!DOCTYPE svg PUBLIC "-//W3C//DTD SVG 1.1//EN" "http://www.w3.org/Graphics/SVG/1.1/DTD/svg11.dtd">
<!-- Creator: CorelDRAW 2019 (64-Bit) -->
<svg xmlns="http://www.w3.org/2000/svg" xml:space="preserve" width="5.391mm" height="3.0156mm" version="1.1" style="shape-rendering:geometricPrecision; text-rendering:geometricPrecision; image-rendering:optimizeQuality; fill-rule:evenodd; clip-rule:evenodd"
viewBox="0 0 15.02 8.4"
 xmlns:xlink="http://www.w3.org/1999/xlink"
 xmlns:xodm="http://www.corel.com/coreldraw/odm/2003">
 <defs>
  <style type="text/css">
   <![CDATA[
    .fil0 {fill:black}
    .fil1 {fill:red}
   ]]>
  </style>
 </defs>
 <g id="Слой_x0020_1">
  <metadata id="CorelCorpID_0Corel-Layer"/>
  <g id="_1989457593280">
   <path class="fil0" d="M1.04 0l12.95 0c0.57,0 1.04,0.47 1.04,1.04l0 6.33c0,0.57 -0.47,1.04 -1.04,1.04l-12.95 0c-0.57,0 -1.04,-0.47 -1.04,-1.04l0 -6.33c0,-0.57 0.47,-1.04 1.04,-1.04zm11.65 1.15l1.22 0c0.05,0 0.08,0.04 0.08,0.08l0 0.94c0,0.05 -0.04,0.08 -0.08,0.08l-1.22 0c-0.05,0 -0.08,-0.04 -0.08,-0.08l0 -0.94c0,-0.05 0.04,-0.08 0.08,-0.08zm-1.93 0l1.22 0c0.05,0 0.08,0.04 0.08,0.08l0 0.94c0,0.05 -0.04,0.08 -0.08,0.08l-1.22 0c-0.05,0 -0.08,-0.04 -0.08,-0.08l0 -0.94c0,-0.05 0.04,-0.08 0.08,-0.08zm-1.93 0l1.22 0c0.05,0 0.08,0.04 0.08,0.08l0 0.94c0,0.05 -0.04,0.08 -0.08,0.08l-1.22 0c-0.05,0 -0.08,-0.04 -0.08,-0.08l0 -0.94c0,-0.05 0.04,-0.08 0.08,-0.08zm-1.93 0l1.22 0c0.05,0 0.08,0.04 0.08,0.08l0 0.94c0,0.05 -0.04,0.08 -0.08,0.08l-1.22 0c-0.05,0 -0.08,-0.04 -0.08,-0.08l0 -0.94c0,-0.05 0.04,-0.08 0.08,-0.08zm-1.93 0l1.22 0c0.05,0 0.08,0.04 0.08,0.08l0 0.94c0,0.05 -0.04,0.08 -0.08,0.08l-1.22 0c-0.05,0 -0.08,-0.04 -0.08,-0.08l0 -0.94c0,-0.05 0.04,-0.08 0.08,-0.08zm-1.93 0l1.22 0c0.05,0 0.08,0.04 0.08,0.08l0 0.94c0,0.05 -0.04,0.08 -0.08,0.08l-1.22 0c-0.05,0 -0.08,-0.04 -0.08,-0.08l0 -0.94c0,-0.05 0.04,-0.08 0.08,-0.08zm-1.93 0l1.22 0c0.05,0 0.08,0.04 0.08,0.08l0 0.94c0,0.05 -0.04,0.08 -0.08,0.08l-1.22 0c-0.05,0 -0.08,-0.04 -0.08,-0.08l0 -0.94c0,-0.05 0.04,-0.08 0.08,-0.08zm11.59 1.68l1.22 0c0.05,0 0.08,0.04 0.08,0.08l0 0.94c0,0.05 -0.04,0.08 -0.08,0.08l-1.22 0c-0.05,0 -0.08,-0.04 -0.08,-0.08l0 -0.94c0,-0.05 0.04,-0.08 0.08,-0.08zm-1.93 0l1.22 0c0.05,0 0.08,0.04 0.08,0.08l0 0.94c0,0.05 -0.04,0.08 -0.08,0.08l-1.22 0c-0.05,0 -0.08,-0.04 -0.08,-0.08l0 -0.94c0,-0.05 0.04,-0.08 0.08,-0.08zm-1.93 0l1.22 0c0.05,0 0.08,0.04 0.08,0.08l0 0.94c0,0.05 -0.04,0.08 -0.08,0.08l-1.22 0c-0.05,0 -0.08,-0.04 -0.08,-0.08l0 -0.94c0,-0.05 0.04,-0.08 0.08,-0.08zm-1.93 0l1.22 0c0.05,0 0.08,0.04 0.08,0.08l0 0.94c0,0.05 -0.04,0.08 -0.08,0.08l-1.22 0c-0.05,0 -0.08,-0.04 -0.08,-0.08l0 -0.94c0,-0.05 0.04,-0.08 0.08,-0.08zm-1.93 0l1.22 0c0.05,0 0.08,0.04 0.08,0.08l0 0.94c0,0.05 -0.04,0.08 -0.08,0.08l-1.22 0c-0.05,0 -0.08,-0.04 -0.08,-0.08l0 -0.94c0,-0.05 0.04,-0.08 0.08,-0.08zm-1.93 0l1.22 0c0.05,0 0.08,0.04 0.08,0.08l0 0.94c0,0.05 -0.04,0.08 -0.08,0.08l-1.22 0c-0.05,0 -0.08,-0.04 -0.08,-0.08l0 -0.94c0,-0.05 0.04,-0.08 0.08,-0.08zm-1.93 0l1.22 0c0.05,0 0.08,0.04 0.08,0.08l0 0.94c0,0.05 -0.04,0.08 -0.08,0.08l-1.22 0c-0.05,0 -0.08,-0.04 -0.08,-0.08l0 -0.94c0,-0.05 0.04,-0.08 0.08,-0.08zm11.59 1.64l1.22 0c0.05,0 0.08,0.04 0.08,0.08l0 0.94c0,0.05 -0.04,0.08 -0.08,0.08l-1.22 0c-0.05,0 -0.08,-0.04 -0.08,-0.08l0 -0.94c0,-0.05 0.04,-0.08 0.08,-0.08zm-1.93 0l1.22 0c0.05,0 0.08,0.04 0.08,0.08l0 0.94c0,0.05 -0.04,0.08 -0.08,0.08l-1.22 0c-0.05,0 -0.08,-0.04 -0.08,-0.08l0 -0.94c0,-0.05 0.04,-0.08 0.08,-0.08zm-1.93 0l1.22 0c0.05,0 0.08,0.04 0.08,0.08l0 0.94c0,0.05 -0.04,0.08 -0.08,0.08l-1.22 0c-0.05,0 -0.08,-0.04 -0.08,-0.08l0 -0.94c0,-0.05 0.04,-0.08 0.08,-0.08zm-1.93 0l1.22 0c0.05,0 0.08,0.04 0.08,0.08l0 0.94c0,0.05 -0.04,0.08 -0.08,0.08l-1.22 0c-0.05,0 -0.08,-0.04 -0.08,-0.08l0 -0.94c0,-0.05 0.04,-0.08 0.08,-0.08zm-1.93 0l1.22 0c0.05,0 0.08,0.04 0.08,0.08l0 0.94c0,0.05 -0.04,0.08 -0.08,0.08l-1.22 0c-0.05,0 -0.08,-0.04 -0.08,-0.08l0 -0.94c0,-0.05 0.04,-0.08 0.08,-0.08zm-1.93 0l1.22 0c0.05,0 0.08,0.04 0.08,0.08l0 0.94c0,0.05 -0.04,0.08 -0.08,0.08l-1.22 0c-0.05,0 -0.08,-0.04 -0.08,-0.08l0 -0.94c0,-0.05 0.04,-0.08 0.08,-0.08zm-1.93 0l1.22 0c0.05,0 0.08,0.04 0.08,0.08l0 0.94c0,0.05 -0.04,0.08 -0.08,0.08l-1.22 0c-0.05,0 -0.08,-0.04 -0.08,-0.08l0 -0.94c0,-0.05 0.04,-0.08 0.08,-0.08zm11.59 1.75l1.22 0c0.05,0 0.08,0.04 0.08,0.08l0 0.94c0,0.05 -0.04,0.08 -0.08,0.08l-1.22 0c-0.05,0 -0.08,-0.04 -0.08,-0.08l0 -0.94c0,-0.05 0.04,-0.08 0.08,-0.08zm-1.93 0l1.22 0c0.05,0 0.08,0.04 0.08,0.08l0 0.94c0,0.05 -0.04,0.08 -0.08,0.08l-1.22 0c-0.05,0 -0.08,-0.04 -0.08,-0.08l0 -0.94c0,-0.05 0.04,-0.08 0.08,-0.08zm-1.93 0l1.22 0c0.05,0 0.08,0.04 0.08,0.08l0 0.94c0,0.05 -0.04,0.08 -0.08,0.08l-1.22 0c-0.05,0 -0.08,-0.04 -0.08,-0.08l0 -0.94c0,-0.05 0.04,-0.08 0.08,-0.08zm-5.79 0l5 0c0.04,0 0.08,0.04 0.08,0.08l0 0.94c0,0.05 -0.04,0.08 -0.08,0.08l-5 0c-0.05,0 -0.08,-0.04 -0.08,-0.08l0 -0.94c0,-0.05 0.04,-0.08 0.08,-0.08zm-1.93 0l1.22 0c0.05,0 0.08,0.04 0.08,0.08l0 0.94c0,0.05 -0.04,0.08 -0.08,0.08l-1.22 0c-0.05,0 -0.08,-0.04 -0.08,-0.08l0 -0.94c0,-0.05 0.04,-0.08 0.08,-0.08z"/>
   <rect class="fil0" x="1.27" y="1.4" width="0.89" height="0.61"/>
   <rect class="fil1" x="3.2" y="6.47" width="4.67" height="0.61"/>
   <rect class="fil0" x="3.2" y="1.4" width="0.89" height="0.61"/>
   <rect class="fil0" x="5.13" y="1.4" width="0.89" height="0.61"/>
   <rect class="fil0" x="7.06" y="1.4" width="0.89" height="0.61"/>
   <rect class="fil0" x="8.99" y="1.4" width="0.89" height="0.61"/>
   <rect class="fil0" x="10.92" y="1.4" width="0.89" height="0.61"/>
   <rect class="fil0" x="12.85" y="1.4" width="0.89" height="0.61"/>
   <rect class="fil0" x="1.27" y="3.08" width="0.89" height="0.61"/>
   <rect class="fil0" x="3.2" y="3.08" width="0.89" height="0.61"/>
   <rect class="fil0" x="5.13" y="3.08" width="0.89" height="0.61"/>
   <rect class="fil0" x="7.06" y="3.08" width="0.89" height="0.61"/>
   <rect class="fil0" x="8.99" y="3.08" width="0.89" height="0.61"/>
   <rect class="fil0" x="10.92" y="3.08" width="0.89" height="0.61"/>
   <rect class="fil0" x="12.85" y="3.08" width="0.89" height="0.61"/>
   <rect class="fil0" x="1.27" y="4.72" width="0.89" height="0.61"/>
   <rect class="fil0" x="3.2" y="4.72" width="0.89" height="0.61"/>
   <rect class="fil0" x="5.13" y="4.72" width="0.89" height="0.61"/>
   <rect class="fil0" x="7.06" y="4.72" width="0.89" height="0.61"/>
   <rect class="fil0" x="8.99" y="4.72" width="0.89" height="0.61"/>
   <rect class="fil0" x="10.92" y="4.72" width="0.89" height="0.61"/>
   <rect class="fil0" x="12.85" y="4.72" width="0.89" height="0.61"/>
   <rect class="fil1" x="1.27" y="6.47" width="0.89" height="0.61"/>
   <rect class="fil1" x="8.99" y="6.47" width="0.89" height="0.61"/>
   <rect class="fil1" x="10.92" y="6.47" width="0.89" height="0.61"/>
   <rect class="fil1" x="12.85" y="6.47" width="0.89" height="0.61"/>
  </g>
 </g>
</svg>
