<?xml version="1.0" encoding="UTF-8"?>
<!DOCTYPE svg PUBLIC "-//W3C//DTD SVG 1.1//EN" "http://www.w3.org/Graphics/SVG/1.1/DTD/svg11.dtd">
<!-- Creator: CorelDRAW 2019 (64-Bit) -->
<svg xmlns="http://www.w3.org/2000/svg" xml:space="preserve" width="6.624mm" height="5.3832mm" version="1.1" style="shape-rendering:geometricPrecision; text-rendering:geometricPrecision; image-rendering:optimizeQuality; fill-rule:evenodd; clip-rule:evenodd"
viewBox="0 0 46.77 38.01"
 xmlns:xlink="http://www.w3.org/1999/xlink"
 xmlns:xodm="http://www.corel.com/coreldraw/odm/2003">
 <defs>
  <style type="text/css">
   <![CDATA[
    .fil0 {fill:black}
    .fil1 {fill:red}
   ]]>
  </style>
 </defs>
 <g id="Слой_x0020_1">
  <metadata id="CorelCorpID_0Corel-Layer"/>
  <g id="_1989454932400">
   <path class="fil0" d="M2.74 7.8l11.55 0 0 2.59c0,0.94 0.77,1.71 1.71,1.71l1.08 0c0.94,0 1.71,-0.77 1.71,-1.71l0 -2.59 8.98 0 0 2.59c0,0.94 0.77,1.71 1.71,1.71l1.08 0c0.94,0 1.71,-0.77 1.71,-1.71l0 -2.59 11.78 0c1.51,0 2.74,1.23 2.74,2.74l0 24.73c0,1.51 -1.23,2.74 -2.74,2.74l-41.29 0c-1.51,0 -2.74,-1.23 -2.74,-2.74l0 -24.73c0,-1.51 1.23,-2.74 2.74,-2.74z"/>
   <path class="fil1" d="M23.27 2.45c-2.96,0.01 -4.44,0.02 -4.44,0.02 -0.61,0.05 -0.97,0.42 -1.06,1.1 0.27,4.24 0.41,6.36 0.41,6.36 -0,0.68 -0.34,1.11 -1.02,1.3 -0.8,-0.01 -1.21,-0.02 -1.21,-0.02 -0.62,-0.15 -0.93,-0.65 -0.93,-1.49 0.27,-4.44 0.4,-6.65 0.4,-6.65 0.36,-1.77 1.45,-2.78 3.27,-3.04 1.53,-0.03 3.05,-0.03 4.58,0 1.53,-0.03 3.05,-0.03 4.58,0 1.82,0.26 2.91,1.28 3.27,3.04 0,0 0.13,2.22 0.4,6.65 0.01,0.84 -0.3,1.34 -0.93,1.49 0,0 -0.4,0.01 -1.21,0.02 -0.68,-0.19 -1.02,-0.62 -1.02,-1.3 0,0 0.14,-2.12 0.41,-6.36 -0.09,-0.68 -0.45,-1.05 -1.06,-1.1 0,0 -1.48,-0.01 -4.44,-0.02zm-6.72 6.7c0.33,0 0.59,0.27 0.59,0.59 0,0.33 -0.27,0.59 -0.59,0.59 -0.33,0 -0.59,-0.27 -0.59,-0.59 0,-0.33 0.27,-0.59 0.59,-0.59zm13.49 0c0.33,0 0.59,0.27 0.59,0.59 0,0.33 -0.27,0.59 -0.59,0.59 -0.33,0 -0.59,-0.27 -0.59,-0.59 0,-0.33 0.27,-0.59 0.59,-0.59z"/>
  </g>
 </g>
</svg>
