<?xml version="1.0" encoding="UTF-8"?>
<!DOCTYPE svg PUBLIC "-//W3C//DTD SVG 1.1//EN" "http://www.w3.org/Graphics/SVG/1.1/DTD/svg11.dtd">
<!-- Creator: CorelDRAW 2019 (64-Bit) -->
<svg xmlns="http://www.w3.org/2000/svg" xml:space="preserve" width="7.425mm" height="5.3823mm" version="1.1" style="shape-rendering:geometricPrecision; text-rendering:geometricPrecision; image-rendering:optimizeQuality; fill-rule:evenodd; clip-rule:evenodd"
viewBox="0 0 48.89 35.44"
 xmlns:xlink="http://www.w3.org/1999/xlink"
 xmlns:xodm="http://www.corel.com/coreldraw/odm/2003">
 <defs>
  <style type="text/css">
   <![CDATA[
    .fil0 {fill:black}
    .fil1 {fill:red}
   ]]>
  </style>
 </defs>
 <g id="Слой_x0020_1">
  <metadata id="CorelCorpID_0Corel-Layer"/>
  <g id="_1989423575344">
   <path class="fil0" d="M0.49 17.1c11.62,-10.85 17.22,-16.18 17.22,-16.18 0.89,-0.88 1.85,-1.13 2.88,-0.75 17.73,4.55 26.6,6.82 26.6,6.82 1.15,0.45 0.99,1.4 -0.5,2.87 -11.54,14.64 -17.31,21.96 -17.31,21.96 -1.36,1.85 -1.66,2.94 -0.97,3.62 -18.78,-11.1 -27.99,-16.55 -28.07,-16.61 -0.55,-0.4 -0.36,-1.25 0.16,-1.73zm21.21 -10.31c1.03,0.38 1.7,1.14 1.95,2.09 0.27,1.04 0.07,2.4 -0.79,3.87 -0.99,1.7 -2.65,3.22 -4.57,4.22 -2.13,1.1 -4.4,1.47 -6.06,0.73 -1.63,-0.73 -2.13,-2.3 -1.69,-4.07 0.4,-1.57 1.52,-3.21 3.13,-4.56 1.4,-1.17 2.97,-1.95 4.39,-2.31 1.32,-0.34 2.6,-0.35 3.63,0.03zm11.42 4.38c1.11,0.41 1.82,1.22 2.09,2.25 0.29,1.12 0.07,2.58 -0.85,4.16 -1.06,1.83 -2.84,3.47 -4.91,4.54 -2.29,1.19 -4.73,1.58 -6.51,0.78 -1.75,-0.79 -2.29,-2.47 -1.81,-4.37 0.43,-1.69 1.63,-3.45 3.37,-4.9 1.51,-1.26 3.19,-2.09 4.72,-2.49 1.42,-0.37 2.8,-0.38 3.91,0.03z"/>
   <path class="fil0" d="M30.93 31.83c2.83,-3.92 3.53,-4.92 6.16,-8.57l5.65 -3.7c0.15,0.41 0.29,0.83 0.44,1.24l0.03 0.09 0.07 0.07c0.56,0.55 1.89,0.3 2,-0.53l0.01 -0.1 -0.03 -0.09c-0.37,-1.16 -0.76,-2.33 -1.18,-3.49l4.23 1.74c0.69,0.41 0.76,0.9 0.21,1.49 0,0 -5.86,3.95 -17.59,11.86z"/>
   <ellipse class="fil0" transform="matrix(0.159132 0.0664065 -0.0769559 0.145568 29.3081 33.8172)" rx="4.22" ry="8.54"/>
   <path class="fil0" d="M43.13 15.39c-0.65,0.82 -0.97,1.32 -0.97,1.32 0.94,2.63 1.41,3.94 1.41,3.94 0.35,0.34 1.23,0.16 1.29,-0.29 -0.68,-2.1 -1.29,-3.88 -1.73,-4.97z"/>
   <path class="fil1" d="M22.26 11.72c-0.74,0.02 -1.48,0.04 -2.22,0.06 0.35,-0.32 2.07,-1.05 2.66,-1.54 0.02,-0.41 -0.01,-0.85 -0.17,-1.26 -0.15,-0.4 -0.43,-0.76 -0.92,-1.02 -0.35,0.34 -1.41,1.34 -1.8,1.56 0.03,-0.37 0.59,-1.4 0.63,-1.95 -0.62,-0.18 -1.85,-0.02 -2.64,0.2 -0.18,0.05 -0.76,0.27 -0.91,0.36 0.1,0.24 0.22,1.1 0.09,1.45 -0.57,-0.23 -1.13,-0.46 -1.68,-0.68 -0.61,0.37 -1.19,0.82 -1.71,1.31 -0.53,0.5 -0.99,1.05 -1.36,1.59 0.71,-0.02 1.42,-0.03 2.14,-0.05 -0.88,0.52 -1.93,0.96 -2.85,1.53 -0.14,0.39 -0.23,0.94 -0.18,1.47 0.05,0.54 0.26,1.06 0.71,1.36 0.54,-0.47 1.8,-1.68 2.27,-1.95 -0.35,0.82 -0.7,1.67 -1.07,2.54 0.46,0.25 1.31,0.21 2.15,0.06 0.83,-0.15 1.65,-0.43 2.04,-0.65 0.05,-0.51 -0.25,-1.37 -0.13,-1.95 0.65,0.3 1.32,0.6 1.99,0.9 0.54,-0.28 1.23,-0.92 1.81,-1.59 0.56,-0.65 1.02,-1.33 1.15,-1.76zm-4.03 -1.08c0.52,0.2 0.52,0.84 -0.04,1.45 -0.56,0.61 -1.48,0.95 -2.01,0.72 -0.53,-0.22 -0.47,-0.89 0.1,-1.48 0.57,-0.59 1.43,-0.89 1.95,-0.69z"/>
   <path class="fil1" d="M33.72 16.47c-0.8,0.02 -1.59,0.05 -2.38,0.07 0.37,-0.35 2.22,-1.13 2.86,-1.65 0.02,-0.44 -0.01,-0.91 -0.18,-1.35 -0.17,-0.43 -0.47,-0.82 -0.99,-1.1 -0.37,0.36 -1.52,1.44 -1.94,1.67 0.03,-0.4 0.63,-1.51 0.68,-2.1 -0.67,-0.19 -1.99,-0.02 -2.84,0.21 -0.19,0.05 -0.82,0.29 -0.98,0.38 0.11,0.25 0.24,1.18 0.1,1.56 -0.61,-0.25 -1.22,-0.49 -1.81,-0.73 -0.66,0.4 -1.28,0.88 -1.84,1.41 -0.56,0.54 -1.06,1.12 -1.46,1.71 0.76,-0.02 1.53,-0.03 2.3,-0.05 -0.95,0.56 -2.07,1.04 -3.06,1.65 -0.15,0.42 -0.25,1.02 -0.19,1.58 0.06,0.58 0.28,1.14 0.77,1.46 0.58,-0.5 1.93,-1.8 2.44,-2.09 -0.37,0.88 -0.76,1.79 -1.15,2.73 0.5,0.27 1.41,0.23 2.31,0.06 0.9,-0.17 1.77,-0.46 2.19,-0.69 0.05,-0.55 -0.27,-1.48 -0.14,-2.1 0.7,0.32 1.42,0.64 2.14,0.97 0.58,-0.3 1.32,-0.99 1.94,-1.71 0.61,-0.7 1.1,-1.43 1.23,-1.89zm-4.33 -1.16c0.56,0.21 0.56,0.9 -0.04,1.56 -0.61,0.66 -1.59,1.02 -2.16,0.78 -0.57,-0.24 -0.5,-0.96 0.11,-1.59 0.61,-0.63 1.53,-0.96 2.1,-0.74z"/>
  </g>
 </g>
</svg>
