<?xml version="1.0" encoding="UTF-8"?>
<!DOCTYPE svg PUBLIC "-//W3C//DTD SVG 1.1//EN" "http://www.w3.org/Graphics/SVG/1.1/DTD/svg11.dtd">
<!-- Creator: CorelDRAW 2019 (64-Bit) -->
<svg xmlns="http://www.w3.org/2000/svg" xml:space="preserve" width="2.1871mm" height="5.3754mm" version="1.1" style="shape-rendering:geometricPrecision; text-rendering:geometricPrecision; image-rendering:optimizeQuality; fill-rule:evenodd; clip-rule:evenodd"
viewBox="0 0 1.77 4.35"
 xmlns:xlink="http://www.w3.org/1999/xlink"
 xmlns:xodm="http://www.corel.com/coreldraw/odm/2003">
 <defs>
  <style type="text/css">
   <![CDATA[
    .fil1 {fill:black}
    .fil0 {fill:red}
   ]]>
  </style>
 </defs>
 <g id="Слой_x0020_1">
  <metadata id="CorelCorpID_0Corel-Layer"/>
  <g id="_1989423566832">
   <path class="fil0" d="M1.25 0.33c0.06,0.1 -0.06,0.14 -0.36,0.15 -0.13,0 -0.22,0 -0.33,-0.04 -0.06,-0.03 -0.07,-0.07 -0.03,-0.11 -0,-0.07 -0,-0.14 0,-0.21 -0.03,-0.04 0.02,-0.08 0.07,-0.09 0.22,-0.05 0.42,-0.04 0.61,0.01 0.04,0.02 0.06,0.04 0.04,0.08 -0,0.07 0.01,0.15 0.01,0.21zm-0.62 -0.22c-0.04,-0.01 -0.04,-0.01 -0,-0.02 0.21,-0.03 0.38,-0.03 0.52,0 0.04,0.01 0.03,0.02 -0.03,0.02 -0.18,0.02 -0.34,0.02 -0.49,-0.01z"/>
   <path class="fil1" d="M0.71 0.57c0.11,0.01 0.19,0.01 0.28,0 0.18,-0.01 0.5,-0.09 0.52,-0.09 0.09,-0.03 0.11,-0.06 0.05,-0.07 -0.07,-0.03 -0.13,-0.05 -0.22,-0.07l0 -0.18c0.15,0.02 0.25,0.06 0.35,0.14 0.07,0.05 0.09,0.12 0.06,0.2 -0,0 -0,0.07 -0,0.07l0 1.71c-0.62,0.21 -1.2,0.21 -1.74,0l0 -1.71c0,0 -0,-0.03 -0,-0.08 -0.06,-0.14 0.11,-0.28 0.43,-0.33 -0,0.12 -0,0.17 -0,0.17 -0.21,0.06 -0.31,0.09 -0.23,0.12 0.06,0.03 0.18,0.08 0.5,0.11zm1.05 1.85l0 0.22c-0.62,0.21 -1.2,0.21 -1.74,0l0 -0.22c0.66,0.22 1.19,0.2 1.74,0zm0 0.36l0 1.21c0.01,0.01 0.01,0.02 0.01,0.03 0,0.07 -0.04,0.13 -0.12,0.18 -0.14,0.07 -0.3,0.1 -0.5,0.12 -0.19,0.02 -0.4,0.02 -0.63,-0.01 -0.19,-0.03 -0.34,-0.08 -0.45,-0.16 -0.06,-0.05 -0.07,-0.1 -0.05,-0.17l0 -1.2c0.66,0.22 1.19,0.2 1.74,0z"/>
  </g>
 </g>
</svg>
