<?xml version="1.0" encoding="UTF-8"?>
<!DOCTYPE svg PUBLIC "-//W3C//DTD SVG 1.1//EN" "http://www.w3.org/Graphics/SVG/1.1/DTD/svg11.dtd">
<!-- Creator: CorelDRAW 2019 (64-Bit) -->
<svg xmlns="http://www.w3.org/2000/svg" xml:space="preserve" width="2.883mm" height="5.391mm" version="1.1" style="shape-rendering:geometricPrecision; text-rendering:geometricPrecision; image-rendering:optimizeQuality; fill-rule:evenodd; clip-rule:evenodd"
viewBox="0 0 2.97 5.56"
 xmlns:xlink="http://www.w3.org/1999/xlink"
 xmlns:xodm="http://www.corel.com/coreldraw/odm/2003">
 <defs>
  <style type="text/css">
   <![CDATA[
    .fil0 {fill:black}
    .fil1 {fill:red}
   ]]>
  </style>
 </defs>
 <g id="Слой_x0020_1">
  <metadata id="CorelCorpID_0Corel-Layer"/>
  <g id="_1989099804736">
   <rect class="fil0" x="0" y="0.97" width="1.52" height="3.28" rx="0.17" ry="0.31"/>
   <rect class="fil0" x="0.63" y="0.61" width="0.26" height="0.31"/>
   <rect class="fil0" x="0.63" y="4.29" width="0.26" height="0.31"/>
   <path class="fil0" d="M0.96 0.09c-0.18,0.12 -0.27,0.27 -0.27,0.46 0.05,0 0.1,0 0.14,0 0.02,-0.17 0.1,-0.29 0.24,-0.36 0.16,-0.08 0.33,-0.05 0.48,0.08 0.08,0.07 0.13,0.17 0.13,0.29l0 2.71c0,0.21 0.08,0.37 0.22,0.47 0.17,0.13 0.35,0.14 0.52,0.09 0.23,-0.08 0.36,-0.24 0.39,-0.46l0 -0.44 -0.13 0 0 0.37c-0.01,0.15 -0.07,0.27 -0.19,0.34 -0.16,0.1 -0.31,0.1 -0.45,0.02 -0.13,-0.08 -0.19,-0.19 -0.21,-0.33l0 -2.76c-0.01,-0.22 -0.11,-0.39 -0.32,-0.5 -0.2,-0.1 -0.39,-0.07 -0.54,0.03z"/>
   <rect class="fil0" x="2.62" y="2.58" width="0.26" height="0.31"/>
   <path class="fil1" d="M2.53 1.57l0.43 0c0.01,0 0.01,0.01 0.01,0.01l0 0.88c0,0.04 -0.04,0.08 -0.08,0.08l-0.3 0c-0.04,0 -0.08,-0.04 -0.08,-0.08l0 -0.88c0,-0.01 0.01,-0.01 0.01,-0.01z"/>
   <path class="fil0" d="M2.61 0.91l0.27 0c0.01,0 0.01,0.01 0.01,0.01l0 0.59c0,0.01 -0.01,0.01 -0.01,0.01l-0.19 0 0 -0.55c0,-0.01 -0.01,-0.01 -0.01,-0.01l-0.02 0c-0.01,0 -0.01,0.01 -0.01,0.01l0 0.55 -0.03 0c-0.01,0 -0.01,-0.01 -0.01,-0.01l0 -0.59c0,-0.01 0.01,-0.01 0.01,-0.01z"/>
   <path class="fil0" d="M0.93 4.91c-0.06,-0.06 -0.09,-0.15 -0.1,-0.27l-0.14 0c0,0.14 0.05,0.26 0.13,0.36 0.11,0.13 0.25,0.2 0.42,0.2l0.12 0 0 -0.15 -0.14 0c-0.12,-0.01 -0.21,-0.06 -0.29,-0.14z"/>
   <rect class="fil0" transform="matrix(-6.81348E-16 0.0257263 0.0257263 6.81348E-16 1.39972 4.98717)" width="9.99" height="12.06"/>
   <rect class="fil0" x="2.4" y="4.67" width="0.19" height="0.89"/>
   <path class="fil0" d="M1.75 5.12c0,0.04 0,0.09 0,0.13 0.03,0.08 0.07,0.14 0.13,0.19 0.07,0.06 0.16,0.09 0.26,0.09l0.22 0 0 -0.41 0 -0.41 -0.22 0c-0.1,-0 -0.18,0.03 -0.26,0.09 -0.06,0.05 -0.11,0.11 -0.13,0.19 0,0.05 0,0.09 0,0.13z"/>
   <path class="fil0" d="M2.62 4.83l0.29 0c0.03,0 0.06,0.03 0.06,0.06l0 0.01c0,0.03 -0.03,0.06 -0.06,0.06l-0.29 0 0 -0.13z"/>
   <path class="fil0" d="M2.62 5.26l0.29 0c0.03,0 0.06,0.03 0.06,0.06l0 0.01c0,0.03 -0.03,0.06 -0.06,0.06l-0.29 0 0 -0.13z"/>
  </g>
 </g>
</svg>
