<?xml version="1.0" encoding="UTF-8"?>
<!DOCTYPE svg PUBLIC "-//W3C//DTD SVG 1.1//EN" "http://www.w3.org/Graphics/SVG/1.1/DTD/svg11.dtd">
<!-- Creator: CorelDRAW 2019 (64-Bit) -->
<svg xmlns="http://www.w3.org/2000/svg" xml:space="preserve" width="4.4115mm" height="5.3909mm" version="1.1" style="shape-rendering:geometricPrecision; text-rendering:geometricPrecision; image-rendering:optimizeQuality; fill-rule:evenodd; clip-rule:evenodd"
viewBox="0 0 9.12 11.15"
 xmlns:xlink="http://www.w3.org/1999/xlink"
 xmlns:xodm="http://www.corel.com/coreldraw/odm/2003">
 <defs>
  <style type="text/css">
   <![CDATA[
    .fil0 {fill:black}
    .fil1 {fill:red}
   ]]>
  </style>
 </defs>
 <g id="Слой_x0020_1">
  <metadata id="CorelCorpID_0Corel-Layer"/>
  <g id="_1989423574864">
   <path class="fil0" d="M4.56 3.7c0.55,0 1,0.45 1,1 0,0.55 -0.45,1 -1,1 -0.55,0 -1,-0.45 -1,-1 0,-0.55 0.45,-1 1,-1z"/>
   <path class="fil0" d="M1.12 0l6.88 0c0.62,0 1.12,0.5 1.12,1.12l0 8.9c0,0.62 -0.5,1.12 -1.12,1.12l-6.88 0c-0.62,0 -1.12,-0.5 -1.12,-1.12l0 -8.9c0,-0.62 0.5,-1.12 1.12,-1.12zm3.44 0.99c2.05,0 3.72,1.67 3.72,3.72 0,2.05 -1.67,3.72 -3.72,3.72 -0.15,0 -0.3,-0.01 -0.45,-0.03 -0.35,0.5 -0.79,1.1 -1.37,1.82 -0.51,0.63 -1.45,0.68 -1.97,0.17 -0.51,-0.51 -0.55,-1.57 0.05,-2.07 0.43,-0.36 0.82,-0.66 1.17,-0.92 -0.71,-0.68 -1.15,-1.63 -1.15,-2.69 0,-2.05 1.67,-3.72 3.72,-3.72zm3.47 8.56c0.28,0 0.51,0.23 0.51,0.51 0,0.28 -0.23,0.51 -0.51,0.51 -0.28,0 -0.51,-0.23 -0.51,-0.51 0,-0.28 0.23,-0.51 0.51,-0.51zm0 -8.94c0.28,0 0.51,0.23 0.51,0.51 0,0.28 -0.23,0.51 -0.51,0.51 -0.28,0 -0.51,-0.23 -0.51,-0.51 0,-0.28 0.23,-0.51 0.51,-0.51zm-6.92 0c0.28,0 0.51,0.23 0.51,0.51 0,0.28 -0.23,0.51 -0.51,0.51 -0.28,0 -0.51,-0.23 -0.51,-0.51 0,-0.28 0.23,-0.51 0.51,-0.51z"/>
   <path class="fil1" d="M4.38 6.66c-0.08,-0.07 -0.22,-0.01 -0.37,0.07 -0.04,0.02 -0.9,0.47 -2.64,1.91 -0.41,0.34 -0.62,0.85 -0.21,1.25 0.41,0.41 0.85,0.33 1.19,-0.11 1.39,-1.78 1.92,-2.72 1.95,-2.77 0.08,-0.14 0.15,-0.29 0.07,-0.37z"/>
  </g>
 </g>
</svg>
