<?xml version="1.0" encoding="UTF-8"?>
<!DOCTYPE svg PUBLIC "-//W3C//DTD SVG 1.1//EN" "http://www.w3.org/Graphics/SVG/1.1/DTD/svg11.dtd">
<!-- Creator: CorelDRAW 2019 (64-Bit) -->
<svg xmlns="http://www.w3.org/2000/svg" xml:space="preserve" width="3.7301mm" height="5.3751mm" version="1.1" style="shape-rendering:geometricPrecision; text-rendering:geometricPrecision; image-rendering:optimizeQuality; fill-rule:evenodd; clip-rule:evenodd"
viewBox="0 0 6.87 9.9"
 xmlns:xlink="http://www.w3.org/1999/xlink"
 xmlns:xodm="http://www.corel.com/coreldraw/odm/2003">
 <defs>
  <style type="text/css">
   <![CDATA[
    .fil0 {fill:black}
    .fil1 {fill:red}
   ]]>
  </style>
 </defs>
 <g id="Слой_x0020_1">
  <metadata id="CorelCorpID_0Corel-Layer"/>
  <g id="_1989417369856">
   <polygon class="fil0" points="-0,0 5.38,0 5.38,0.38 6.87,2.11 6.87,6.87 -0,6.87 "/>
   <path class="fil0" d="M0.2 7.07l0.18 0c0.37,1.37 1.6,2.37 3.06,2.37 1.46,0 2.68,-1 3.06,-2.37l0.18 0 0 2.41 -6.47 0 0 -2.41z"/>
   <path class="fil1" d="M6.27 7.07c-0.36,1.25 -1.5,2.15 -2.83,2.15 -1.34,0 -2.47,-0.91 -2.83,-2.15l2.16 0c0.19,0.15 0.42,0.23 0.68,0.23 0.26,0 0.49,-0.09 0.68,-0.23l2.16 0z"/>
   <rect class="fil0" x="-0" y="9.61" width="6.87" height="0.29"/>
  </g>
 </g>
</svg>
