<?xml version="1.0" encoding="UTF-8"?>
<!DOCTYPE svg PUBLIC "-//W3C//DTD SVG 1.1//EN" "http://www.w3.org/Graphics/SVG/1.1/DTD/svg11.dtd">
<!-- Creator: CorelDRAW 2019 (64-Bit) -->
<svg xmlns="http://www.w3.org/2000/svg" xml:space="preserve" width="4.8146mm" height="5.3909mm" version="1.1" style="shape-rendering:geometricPrecision; text-rendering:geometricPrecision; image-rendering:optimizeQuality; fill-rule:evenodd; clip-rule:evenodd"
viewBox="0 0 7.94 8.89"
 xmlns:xlink="http://www.w3.org/1999/xlink"
 xmlns:xodm="http://www.corel.com/coreldraw/odm/2003">
 <defs>
  <style type="text/css">
   <![CDATA[
    .fil0 {fill:black}
    .fil1 {fill:red}
   ]]>
  </style>
 </defs>
 <g id="Слой_x0020_1">
  <metadata id="CorelCorpID_0Corel-Layer"/>
  <g id="_1989454950608">
   <g>
    <path class="fil0" d="M3.82 0.12l0 8.66c0,0.06 -0.05,0.12 -0.12,0.12l-0.9 0c0,-0.15 -0.12,-0.26 -0.26,-0.26 -0.14,0 -0.26,0.12 -0.26,0.26l-2.16 0c-0.06,0 -0.12,-0.05 -0.12,-0.12l0 -5.41 0.38 0c0.05,0 0.09,-0.04 0.09,-0.09l0 0c0,-0.05 -0.04,-0.09 -0.09,-0.09l-0.38 0 0 -3.06c0,-0.06 0.05,-0.12 0.12,-0.12l2.16 0c0,0.14 0.12,0.26 0.26,0.26 0.15,0 0.26,-0.12 0.26,-0.26l0.9 0c0.06,0 0.12,0.05 0.12,0.12zm-3.5 3.36l0 5.21c0,0.01 -0.01,0.02 -0.02,0.02l-0.2 0c-0.01,0 -0.02,-0.01 -0.02,-0.02l0 -5.21c0,-0.01 0.01,-0.02 0.02,-0.02l0.2 0c0.01,0 0.02,0.01 0.02,0.02zm0 -3.27l0 2.85c0,0.01 -0.01,0.02 -0.02,0.02l-0.2 0c-0.01,0 -0.02,-0.01 -0.02,-0.02l0 -2.85c0,-0.01 0.01,-0.02 0.02,-0.02l0.2 0c0.01,0 0.02,0.01 0.02,0.02zm2.56 6.73l0 1.17c0,0.05 -0.04,0.09 -0.09,0.09l-1.27 0c-0.05,0 -0.09,-0.04 -0.09,-0.09l0 -1.17c0,-0.05 0.04,-0.09 0.09,-0.09l1.27 0c0.05,0 0.09,0.04 0.09,0.09zm0 -1.85l0 1.17c0,0.05 -0.04,0.09 -0.09,0.09l-1.27 0c-0.05,0 -0.09,-0.04 -0.09,-0.09l0 -1.17c0,-0.05 0.04,-0.09 0.09,-0.09l1.27 0c0.05,0 0.09,0.04 0.09,0.09zm0 -2.45l0 1.17c0,0.05 -0.04,0.09 -0.09,0.09l-1.27 0c-0.05,0 -0.09,-0.04 -0.09,-0.09l0 -1.17c0,-0.05 0.04,-0.09 0.09,-0.09l1.27 0c0.05,0 0.09,0.04 0.09,0.09zm0 -1.85l0 1.17c0,0.05 -0.04,0.09 -0.09,0.09l-1.27 0c-0.05,0 -0.09,-0.04 -0.09,-0.09l0 -1.17c0,-0.05 0.04,-0.09 0.09,-0.09l1.27 0c0.05,0 0.09,0.04 0.09,0.09z"/>
    <rect class="fil1" transform="matrix(9.50038E-15 0.358714 -0.358714 9.50038E-15 2.69859 0.874048)" width="2.76" height="3.05"/>
    <rect class="fil1" transform="matrix(9.50038E-15 0.358714 -0.358714 9.50038E-15 2.69859 2.72149)" width="2.76" height="3.05"/>
    <rect class="fil1" transform="matrix(9.50038E-15 0.358714 -0.358714 9.50038E-15 2.69859 5.17162)" width="2.76" height="3.05"/>
    <rect class="fil1" transform="matrix(9.50038E-15 0.358714 -0.358714 9.50038E-15 2.69859 7.01907)" width="2.76" height="3.05"/>
   </g>
   <g>
    <path class="fil0" d="M4.12 0.12l0 8.66c0,0.06 0.05,0.12 0.12,0.12l0.9 0c0,-0.15 0.12,-0.26 0.26,-0.26 0.14,0 0.26,0.12 0.26,0.26l2.16 0c0.06,0 0.12,-0.05 0.12,-0.12l0 -5.41 -0.38 0c-0.05,0 -0.09,-0.04 -0.09,-0.09l0 0c0,-0.05 0.04,-0.09 0.09,-0.09l0.38 0 0 -3.06c0,-0.06 -0.05,-0.12 -0.12,-0.12l-2.16 0c0,0.14 -0.12,0.26 -0.26,0.26 -0.15,0 -0.26,-0.12 -0.26,-0.26l-0.9 0c-0.06,0 -0.12,0.05 -0.12,0.12zm3.5 3.36l0 5.21c0,0.01 0.01,0.02 0.02,0.02l0.2 0c0.01,0 0.02,-0.01 0.02,-0.02l0 -5.21c0,-0.01 -0.01,-0.02 -0.02,-0.02l-0.2 0c-0.01,0 -0.02,0.01 -0.02,0.02zm0 -3.27l0 2.85c0,0.01 0.01,0.02 0.02,0.02l0.2 0c0.01,0 0.02,-0.01 0.02,-0.02l0 -2.85c0,-0.01 -0.01,-0.02 -0.02,-0.02l-0.2 0c-0.01,0 -0.02,0.01 -0.02,0.02zm-2.56 6.73l0 1.17c0,0.05 0.04,0.09 0.09,0.09l1.27 0c0.05,0 0.09,-0.04 0.09,-0.09l0 -1.17c0,-0.05 -0.04,-0.09 -0.09,-0.09l-1.27 0c-0.05,0 -0.09,0.04 -0.09,0.09zm0 -1.85l0 1.17c0,0.05 0.04,0.09 0.09,0.09l1.27 0c0.05,0 0.09,-0.04 0.09,-0.09l0 -1.17c0,-0.05 -0.04,-0.09 -0.09,-0.09l-1.27 0c-0.05,0 -0.09,0.04 -0.09,0.09zm0 -2.45l0 1.17c0,0.05 0.04,0.09 0.09,0.09l1.27 0c0.05,0 0.09,-0.04 0.09,-0.09l0 -1.17c0,-0.05 -0.04,-0.09 -0.09,-0.09l-1.27 0c-0.05,0 -0.09,0.04 -0.09,0.09zm0 -1.85l0 1.17c0,0.05 0.04,0.09 0.09,0.09l1.27 0c0.05,0 0.09,-0.04 0.09,-0.09l0 -1.17c0,-0.05 -0.04,-0.09 -0.09,-0.09l-1.27 0c-0.05,0 -0.09,0.04 -0.09,0.09z"/>
    <rect class="fil1" transform="matrix(-9.50038E-15 0.358714 0.358714 9.50038E-15 5.24354 0.874048)" width="2.76" height="3.05"/>
    <rect class="fil1" transform="matrix(-9.50038E-15 0.358714 0.358714 9.50038E-15 5.24354 2.72149)" width="2.76" height="3.05"/>
    <rect class="fil1" transform="matrix(-9.50038E-15 0.358714 0.358714 9.50038E-15 5.24354 5.17162)" width="2.76" height="3.05"/>
    <rect class="fil1" transform="matrix(-9.50038E-15 0.358714 0.358714 9.50038E-15 5.24354 7.01907)" width="2.76" height="3.05"/>
   </g>
  </g>
 </g>
</svg>
