<?xml version="1.0" encoding="UTF-8"?>
<!DOCTYPE svg PUBLIC "-//W3C//DTD SVG 1.1//EN" "http://www.w3.org/Graphics/SVG/1.1/DTD/svg11.dtd">
<!-- Creator: CorelDRAW 2019 (64-Bit) -->
<svg xmlns="http://www.w3.org/2000/svg" xml:space="preserve" width="8.3366mm" height="5.3751mm" version="1.1" style="shape-rendering:geometricPrecision; text-rendering:geometricPrecision; image-rendering:optimizeQuality; fill-rule:evenodd; clip-rule:evenodd"
viewBox="0 0 26.46 17.06"
 xmlns:xlink="http://www.w3.org/1999/xlink"
 xmlns:xodm="http://www.corel.com/coreldraw/odm/2003">
 <defs>
  <style type="text/css">
   <![CDATA[
    .fil0 {fill:black}
    .fil1 {fill:red}
   ]]>
  </style>
 </defs>
 <g id="Слой_x0020_1">
  <metadata id="CorelCorpID_0Corel-Layer"/>
  <g id="_1989452947216">
   <path class="fil0" d="M1.05 0l24.36 0c0.58,0 1.05,0.47 1.05,1.05l0 14.96c0,0.58 -0.47,1.05 -1.05,1.05l-24.36 0c-0.58,0 -1.05,-0.47 -1.05,-1.05l0 -14.96c0,-0.58 0.47,-1.05 1.05,-1.05zm0.74 0.84l22.87 0c0.52,0 0.95,0.43 0.95,0.95l0 13.48c0,0.52 -0.43,0.95 -0.95,0.95l-22.87 0c-0.52,0 -0.95,-0.43 -0.95,-0.95l0 -13.48c0,-0.52 0.43,-0.95 0.95,-0.95z"/>
   <path class="fil1" d="M16.47 15.48c0.03,-3.96 10.1,-8.24 6.86,-5.46 -1.47,1.26 -3.68,2.4 -3.83,4.41 0.95,-0.59 3.12,-1.92 3.81,-2.65 -1.28,0.7 -0.66,0.35 -2.11,1.19 1.21,-0.78 1.91,-1.19 2.23,-1.33 0.03,-0.01 0.06,-0.02 0.09,-0.04 1.03,-0.36 -4.12,3.64 -4.38,3.3 -0.99,-1.34 2.08,-3.9 3.6,-5.1 -2.17,0.85 -6.14,3.48 -6.26,5.67z"/>
  </g>
 </g>
</svg>
