<?xml version="1.0" encoding="UTF-8"?>
<!DOCTYPE svg PUBLIC "-//W3C//DTD SVG 1.1//EN" "http://www.w3.org/Graphics/SVG/1.1/DTD/svg11.dtd">
<!-- Creator: CorelDRAW 2019 (64-Bit) -->
<svg xmlns="http://www.w3.org/2000/svg" xml:space="preserve" width="2.9188mm" height="5.3751mm" version="1.1" style="shape-rendering:geometricPrecision; text-rendering:geometricPrecision; image-rendering:optimizeQuality; fill-rule:evenodd; clip-rule:evenodd"
viewBox="0 0 4.82 8.88"
 xmlns:xlink="http://www.w3.org/1999/xlink"
 xmlns:xodm="http://www.corel.com/coreldraw/odm/2003">
 <defs>
  <style type="text/css">
   <![CDATA[
    .fil0 {fill:black}
    .fil1 {fill:red}
   ]]>
  </style>
 </defs>
 <g id="Слой_x0020_1">
  <metadata id="CorelCorpID_0Corel-Layer"/>
  <g id="_1989457542176">
   <path class="fil0" d="M0.13 0l4.57 0c0.07,0 0.13,0.06 0.13,0.13l0 8.63c0,0.07 -0.06,0.13 -0.13,0.13l-4.57 0c-0.07,0 -0.13,-0.06 -0.13,-0.13l0 -8.63c0,-0.07 0.06,-0.13 0.13,-0.13zm0.39 0.86l3.8 0c0.06,0 0.1,0.05 0.1,0.1l0 6.37c0,0.06 -0.05,0.1 -0.1,0.1l-3.8 0c-0.06,0 -0.1,-0.05 -0.1,-0.1l0 -6.37c0,-0.06 0.05,-0.1 0.1,-0.1zm1.66 6.92l0.47 0c0.09,0 0.16,0.07 0.16,0.16l0 0.47c0,0.09 -0.07,0.16 -0.16,0.16l-0.47 0c-0.09,0 -0.16,-0.07 -0.16,-0.16l0 -0.47c0,-0.09 0.07,-0.16 0.16,-0.16z"/>
   <rect class="fil1" x="2.16" y="7.93" width="0.5" height="0.5" rx="0.01" ry="0.01"/>
  </g>
 </g>
</svg>
