<?xml version="1.0" encoding="UTF-8"?>
<!DOCTYPE svg PUBLIC "-//W3C//DTD SVG 1.1//EN" "http://www.w3.org/Graphics/SVG/1.1/DTD/svg11.dtd">
<!-- Creator: CorelDRAW 2020 (64-Bit) -->
<svg xmlns="http://www.w3.org/2000/svg" xml:space="preserve" width="4.1205mm" height="5.3751mm" version="1.1" style="shape-rendering:geometricPrecision; text-rendering:geometricPrecision; image-rendering:optimizeQuality; fill-rule:evenodd; clip-rule:evenodd"
viewBox="0 0 5.8 7.57"
 xmlns:xlink="http://www.w3.org/1999/xlink"
 xmlns:xodm="http://www.corel.com/coreldraw/odm/2003">
 <defs>
  <style type="text/css">
   <![CDATA[
    .fil0 {fill:black}
    .fil1 {fill:red}
   ]]>
  </style>
 </defs>
 <g id="Слой_x0020_1">
  <metadata id="CorelCorpID_0Corel-Layer"/>
  <g id="_2842545214240">
   <path class="fil0" d="M0.11 0l5.59 0c0.06,0 0.11,0.05 0.11,0.11l0 7.35c0,0.06 -0.05,0.11 -0.11,0.11l-5.59 0c-0.06,0 -0.11,-0.05 -0.11,-0.11l0 -7.35c0,-0.06 0.05,-0.11 0.11,-0.11zm0.33 0.74l4.93 0c0.05,0 0.09,0.04 0.09,0.09l0 5.43c0,0.05 -0.04,0.09 -0.09,0.09l-4.93 0c-0.05,0 -0.09,-0.04 -0.09,-0.09l0 -5.43c0,-0.05 0.04,-0.09 0.09,-0.09zm2.26 5.89l0.4 0c0.08,0 0.14,0.06 0.14,0.14l0 0.4c0,0.08 -0.06,0.14 -0.14,0.14l-0.4 0c-0.08,0 -0.14,-0.06 -0.14,-0.14l0 -0.4c0,-0.08 0.06,-0.14 0.14,-0.14z"/>
   <rect class="fil1" x="2.69" y="6.76" width="0.43" height="0.43" rx="0.01" ry="0.01"/>
  </g>
 </g>
</svg>
