<?xml version="1.0" encoding="UTF-8"?>
<!DOCTYPE svg PUBLIC "-//W3C//DTD SVG 1.1//EN" "http://www.w3.org/Graphics/SVG/1.1/DTD/svg11.dtd">
<!-- Creator: CorelDRAW 2020 (64-Bit) -->
<svg xmlns="http://www.w3.org/2000/svg" xml:space="preserve" width="3.1842mm" height="5.4466mm" version="1.1" style="shape-rendering:geometricPrecision; text-rendering:geometricPrecision; image-rendering:optimizeQuality; fill-rule:evenodd; clip-rule:evenodd"
viewBox="0 0 3.3 5.65"
 xmlns:xlink="http://www.w3.org/1999/xlink"
 xmlns:xodm="http://www.corel.com/coreldraw/odm/2003">
 <defs>
  <style type="text/css">
   <![CDATA[
    .fil0 {fill:black}
    .fil1 {fill:red}
   ]]>
  </style>
 </defs>
 <g id="Слой_x0020_1">
  <metadata id="CorelCorpID_0Corel-Layer"/>
  <g id="_2842274017248">
   <path class="fil0" d="M0.8 5.65l1.42 0 0.2 -0.8 -1.82 -0c0.02,0.03 0.2,0.76 0.2,0.8zm-0.41 -4.43l2.25 0c0.1,0 0.18,0.08 0.18,0.18l0 2.86c0,0.1 -0.08,0.18 -0.18,0.18l-2.25 0c-0.1,0 -0.18,-0.08 -0.18,-0.18l0 -2.86c0,-0.1 0.08,-0.18 0.18,-0.18zm-0 3.43l2.25 0c0.22,0 0.39,-0.18 0.39,-0.39l0 -2.86c0,-0.22 -0.18,-0.39 -0.39,-0.39l-2.25 0c-0.22,0 -0.39,0.18 -0.39,0.39l0 2.86c0,0.22 0.18,0.39 0.39,0.39zm2.7 -2.21l0.21 0 0 -0.62 -0.21 0 0 0.62zm0 1.4l0.21 0 0 -1 -0.21 0 0 1zm-2.48 -3.02l1.82 0 -0.2 -0.8 -1.42 0c-0,0.05 -0.18,0.77 -0.2,0.8z"/>
   <path class="fil1" d="M1.8 4.43c-1.18,0 -1.56,-0.4 -1.58,-1.76l0 1.58c0,0.1 0.08,0.18 0.18,0.18l1.4 0z"/>
  </g>
 </g>
</svg>
