<?xml version="1.0" encoding="UTF-8"?>
<!DOCTYPE svg PUBLIC "-//W3C//DTD SVG 1.1//EN" "http://www.w3.org/Graphics/SVG/1.1/DTD/svg11.dtd">
<!-- Creator: CorelDRAW 2019 (64-Bit) -->
<svg xmlns="http://www.w3.org/2000/svg" xml:space="preserve" width="4.9724mm" height="5.3751mm" version="1.1" style="shape-rendering:geometricPrecision; text-rendering:geometricPrecision; image-rendering:optimizeQuality; fill-rule:evenodd; clip-rule:evenodd"
viewBox="0 0 14.7 15.89"
 xmlns:xlink="http://www.w3.org/1999/xlink"
 xmlns:xodm="http://www.corel.com/coreldraw/odm/2003">
 <defs>
  <style type="text/css">
   <![CDATA[
    .fil0 {fill:black}
    .fil1 {fill:red}
   ]]>
  </style>
 </defs>
 <g id="Слой_x0020_1">
  <metadata id="CorelCorpID_0Corel-Layer"/>
  <g id="_1989457554496">
   <rect class="fil0" x="3.48" y="-0" width="5.48" height="9.99" rx="0.6" ry="0.61"/>
   <path class="fil0" d="M9.26 0.9l1.96 0c0.31,0 0.57,0.26 0.57,0.57l0 4.02c0,0.31 -0.26,0.57 -0.57,0.57l-1.96 0 0 -5.16z"/>
   <path class="fil0" d="M12.06 1.97l2.25 0c0.21,0 0.38,0.17 0.38,0.38l0 0c0,0.21 -0.17,0.38 -0.38,0.38l-2.25 0 0 -0.76z"/>
   <path class="fil0" d="M12.06 4.17l2.25 0c0.21,0 0.38,0.17 0.38,0.38l0 0c0,0.21 -0.17,0.38 -0.38,0.38l-2.25 0 0 -0.76z"/>
   <rect class="fil0" x="5.4" y="10.2" width="1.64" height="1.98" rx="0.13" ry="0.13"/>
   <path class="fil0" d="M0.56 3.86l0 9.78c0.01,0.81 0.35,1.45 0.9,1.84 0.75,0.54 2.95,0.43 3.6,0.25 0.87,-0.32 1.34,-0.85 1.46,-1.71l0 -1.66 -0.51 0 0 1.4c-0.05,0.57 -0.27,1.03 -0.73,1.31 -0.59,0.37 -2.84,0.38 -3.36,0.06 -0.48,-0.3 -0.74,-0.74 -0.8,-1.27l0 -10 -0.56 0z"/>
   <path class="fil1" d="M0.14 1.18l1.39 0c0.08,0 0.14,0.06 0.14,0.14l0 1.78c0,0.32 -0.26,0.58 -0.58,0.58l-0.51 0c-0.32,0 -0.58,-0.26 -0.58,-0.58l0 -1.78c0,-0.08 0.06,-0.14 0.14,-0.14z"/>
   <rect class="fil0" x="0.35" y="0" width="0.97" height="0.98" rx="0.1" ry="0.07"/>
  </g>
 </g>
</svg>
