<?xml version="1.0" encoding="UTF-8"?>
<!DOCTYPE svg PUBLIC "-//W3C//DTD SVG 1.1//EN" "http://www.w3.org/Graphics/SVG/1.1/DTD/svg11.dtd">
<!-- Creator: CorelDRAW 2020 (64-Bit) -->
<svg xmlns="http://www.w3.org/2000/svg" xml:space="preserve" width="4.8679mm" height="5.3751mm" version="1.1" style="shape-rendering:geometricPrecision; text-rendering:geometricPrecision; image-rendering:optimizeQuality; fill-rule:evenodd; clip-rule:evenodd"
viewBox="0 0 10.89 12.03"
 xmlns:xlink="http://www.w3.org/1999/xlink"
 xmlns:xodm="http://www.corel.com/coreldraw/odm/2003">
 <defs>
  <style type="text/css">
   <![CDATA[
    .fil0 {fill:black}
    .fil1 {fill:red}
   ]]>
  </style>
 </defs>
 <g id="Слой_x0020_1">
  <metadata id="CorelCorpID_0Corel-Layer"/>
  <g id="_2166761996576">
   <path class="fil0" d="M0.32 0l1.41 0c0.03,0 0.05,0.02 0.05,0.05l0 1.17c0,0.03 -0.02,0.05 -0.05,0.05l-1.41 0c-0.03,0 -0.05,-0.02 -0.05,-0.05l0 -1.17c0,-0.03 0.02,-0.05 0.05,-0.05zm0.13 0.5l0.37 0c0.01,0 0.03,0.01 0.03,0.03l0 0.23c0,0.01 -0.01,0.03 -0.03,0.03l-0.37 0c-0.02,0 -0.03,-0.01 -0.03,-0.03l0 -0.23c0,-0.01 0.01,-0.03 0.03,-0.03zm0.79 0l0.38 0c0.01,0 0.03,0.01 0.03,0.03l0 0.23c0,0.01 -0.01,0.03 -0.03,0.03l-0.38 0c-0.01,0 -0.03,-0.01 -0.03,-0.03l0 -0.23c0,-0.01 0.01,-0.03 0.03,-0.03z"/>
   <path class="fil1" d="M0.01 1.45l2.03 0c0,0 0.01,0 0.01,0.01l0 4.2c0,0 -0,0.01 -0.01,0.01l-2.03 0c-0,0 -0.01,-0 -0.01,-0.01l0 -4.2c0,-0 0,-0.01 0.01,-0.01zm0.8 2.91c0,-0.1 0.07,-0.19 0.17,-0.21l0 -0.18c-0.03,-0.04 -0.12,-0.07 -0.28,-0.12 -0.09,-0.03 -0.15,-0.11 -0.15,-0.2 -0,-0.05 -0.01,-0.07 -0.01,-0.12 -0.05,-0.02 -0.09,-0.07 -0.09,-0.12 0,-0.07 0.06,-0.13 0.13,-0.13 0.07,0 0.13,0.06 0.13,0.13 0,0.06 -0.04,0.1 -0.09,0.12 -0.01,0.09 -0,0.13 0.01,0.15 0.02,0.04 0.09,0.09 0.2,0.12 0.06,0.02 0.11,0.04 0.14,0.06l0 -1.08 -0.1 0 0.07 -0.12 0.07 -0.12 0.07 0.12 0.07 0.12 -0.1 0 0 0.86c0.03,-0.03 0.08,-0.04 0.14,-0.06 0.11,-0.03 0.18,-0.06 0.2,-0.11 0.01,-0.02 0.01,-0.08 0,-0.17l-0.08 0 0 -0.27 0.26 0 0 0.27 -0.09 0c0,0.05 0,0.1 -0,0.15 -0,0.08 -0.06,0.14 -0.14,0.16 -0.15,0.04 -0.25,0.08 -0.29,0.12l0 0.4c0.09,0.02 0.16,0.11 0.16,0.21 0,0.12 -0.1,0.21 -0.21,0.21 -0.12,0 -0.21,-0.1 -0.21,-0.21z"/>
   <rect class="fil0" x="0.58" y="5.83" width="0.89" height="0.6" rx="0" ry="0"/>
   <rect class="fil0" x="9.89" y="4.04" width="0.89" height="0.6" rx="0" ry="0"/>
   <path class="fil0" d="M5.69 5.49c1.81,0 3.27,1.82 3.27,3.27 0,1.45 -0.54,2.07 -1.37,2.66l-0.95 0c1.09,-0.39 1.87,-1.27 1.87,-2.66 0,-1.39 -1.27,-2.83 -2.83,-2.83 -1.56,0 -2.83,1.27 -2.83,2.83 0,1.56 1.27,2.83 2.83,2.83 0.54,0 1.09,0 1.64,0l0.76 0 0.78 0c0.41,0 0.79,-0.14 1.04,-0.49 0.17,-0.23 0.23,-0.5 0.23,-0.78l0 -5.53 0.44 0 0 5.43c0,0.24 0.01,0.49 -0.1,0.75 -0.06,0.16 -0.15,0.3 -0.24,0.42 -0.17,0.23 -0.42,0.42 -0.72,0.54 -0.26,0.11 -0.51,0.1 -0.75,0.1 -1.24,0 -1.85,0 -3.08,0 -1.81,0 -3.27,-1.46 -3.27,-3.27 0,-1.81 1.46,-3.27 3.27,-3.27zm-2.02 6.1l-1.15 0c-0.41,0 -0.79,-0.14 -1.04,-0.49 -0.17,-0.23 -0.23,-0.5 -0.23,-0.78l0 -3.76 -0.44 0 0 3.66c0,0.24 -0.01,0.49 0.1,0.75 0.06,0.16 0.15,0.3 0.24,0.42 0.17,0.23 0.42,0.42 0.72,0.54 0.26,0.11 0.51,0.1 0.75,0.1l1.85 0c-0.28,-0.11 -0.55,-0.26 -0.79,-0.44z"/>
   <rect class="fil0" x="9.89" y="4.04" width="0.9" height="0.6" rx="0" ry="0"/>
   <rect class="fil0" x="9.79" y="1.15" width="1.1" height="2.73" rx="0.03" ry="0.03"/>
   <rect class="fil0" x="9.97" y="0" width="0.76" height="0.98" rx="0.02" ry="0.01"/>
  </g>
 </g>
</svg>
