<?xml version="1.0" encoding="UTF-8"?>
<!DOCTYPE svg PUBLIC "-//W3C//DTD SVG 1.1//EN" "http://www.w3.org/Graphics/SVG/1.1/DTD/svg11.dtd">
<!-- Creator: CorelDRAW 2019 (64-Bit) -->
<svg xmlns="http://www.w3.org/2000/svg" xml:space="preserve" width="3.4273mm" height="5.3753mm" version="1.1" style="shape-rendering:geometricPrecision; text-rendering:geometricPrecision; image-rendering:optimizeQuality; fill-rule:evenodd; clip-rule:evenodd"
viewBox="0 0 7.9 12.39"
 xmlns:xlink="http://www.w3.org/1999/xlink"
 xmlns:xodm="http://www.corel.com/coreldraw/odm/2003">
 <defs>
  <style type="text/css">
   <![CDATA[
    .fil0 {fill:black}
    .fil1 {fill:red}
   ]]>
  </style>
 </defs>
 <g id="Слой_x0020_1">
  <metadata id="CorelCorpID_0Corel-Layer"/>
  <g id="_1989258633904">
   <path class="fil0" d="M0.42 0l7.07 0c0.23,0 0.42,0.19 0.42,0.42l0 11.56c0,0.23 -0.19,0.42 -0.42,0.42l-7.07 0c-0.23,0 -0.42,-0.19 -0.42,-0.42l0 -11.56c0,-0.23 0.19,-0.42 0.42,-0.42zm4.96 7.08l0 0.26 0 1.73c0.01,0.02 0.02,0.04 0.02,0.06 0.01,0.12 -0.06,0.21 -0.2,0.29 -0.22,0.12 -0.5,0.17 -0.83,0.2 -0.32,0.03 -0.66,0.03 -1.03,-0.02 -0.31,-0.04 -0.56,-0.12 -0.74,-0.27 -0.1,-0.08 -0.12,-0.17 -0.08,-0.28l0 -1.71 0 -0.26 0 -3.63c0,0 -0,-0.05 -0,-0.13 -0.1,-0.23 0.19,-0.46 0.7,-0.55 -0,0.19 -0,0.29 -0,0.29 -0.35,0.1 -0.5,0.15 -0.39,0.2 0.1,0.04 0.29,0.13 0.83,0.18 0.18,0.02 0.31,0.01 0.46,0 0.3,-0.01 0.83,-0.14 0.85,-0.15 0.15,-0.05 0.18,-0.09 0.09,-0.12 -0.11,-0.05 -0.21,-0.08 -0.36,-0.11l0 -0.29c0.25,0.04 0.42,0.1 0.58,0.22 0.11,0.09 0.14,0.2 0.09,0.33 -0,0 -0,0.12 -0,0.12l0 3.63zm-0.27 -3.55c-0.01,0.01 -0.03,0.01 -0.05,0.02 -0.19,0.07 -0.73,0.16 -0.93,0.17 -0.17,0.01 -0.33,0.01 -0.5,-0.01 -0.29,-0.03 -0.58,-0.07 -0.85,-0.18l0 5.59 -0.01 0.02c0.16,0.12 0.4,0.17 0.6,0.2 0.32,0.04 0.65,0.05 0.97,0.02 0.24,-0.02 0.52,-0.06 0.73,-0.18 0.01,-0 0.03,-0.02 0.04,-0.03l-0 -0 0 -5.63zm-1.59 -0.85c-0.06,-0.01 -0.06,-0.02 -0.01,-0.03 0.34,-0.05 0.62,-0.05 0.85,0 0.06,0.01 0.05,0.03 -0.05,0.04 -0.3,0.03 -0.56,0.03 -0.8,-0.01zm1.02 0.37c0.11,0.16 -0.09,0.24 -0.59,0.25 -0.21,0.01 -0.36,0 -0.54,-0.07 -0.09,-0.05 -0.11,-0.11 -0.05,-0.18 -0,-0.11 -0.01,-0.22 0,-0.34 -0.04,-0.06 0.03,-0.13 0.11,-0.15 0.36,-0.08 0.7,-0.06 1,0.02 0.07,0.03 0.09,0.07 0.06,0.12 -0,0.12 0.02,0.25 0.01,0.35z"/>
   <rect class="fil1" x="2.9" y="8.59" width="2.1" height="0.52" rx="0.12" ry="0.12"/>
   <rect class="fil1" x="2.9" y="7.92" width="2.1" height="0.52" rx="0.12" ry="0.12"/>
   <rect class="fil1" x="2.9" y="7.26" width="2.1" height="0.52" rx="0.12" ry="0.12"/>
   <rect class="fil1" x="2.9" y="6.59" width="2.1" height="0.52" rx="0.12" ry="0.12"/>
   <rect class="fil1" x="2.9" y="5.92" width="2.1" height="0.52" rx="0.12" ry="0.12"/>
   <rect class="fil1" x="2.9" y="5.25" width="2.1" height="0.52" rx="0.12" ry="0.12"/>
  </g>
 </g>
</svg>
