<?xml version="1.0" encoding="UTF-8"?>
<!DOCTYPE svg PUBLIC "-//W3C//DTD SVG 1.1//EN" "http://www.w3.org/Graphics/SVG/1.1/DTD/svg11.dtd">
<!-- Creator: CorelDRAW 2020 (64-Bit) -->
<svg xmlns="http://www.w3.org/2000/svg" xml:space="preserve" width="7.7443mm" height="5.3751mm" version="1.1" style="shape-rendering:geometricPrecision; text-rendering:geometricPrecision; image-rendering:optimizeQuality; fill-rule:evenodd; clip-rule:evenodd"
viewBox="0 0 51.92 36.04"
 xmlns:xlink="http://www.w3.org/1999/xlink"
 xmlns:xodm="http://www.corel.com/coreldraw/odm/2003">
 <defs>
  <style type="text/css">
   <![CDATA[
    .fil0 {fill:black}
    .fil1 {fill:red}
   ]]>
  </style>
 </defs>
 <g id="Слой_x0020_1">
  <metadata id="CorelCorpID_0Corel-Layer"/>
  <polygon class="fil0" points="21.09,7.88 30.82,7.88 30.82,10.96 21.09,10.96 "/>
  <path class="fil0" d="M3.64 11.62l44.65 0c2,0 3.64,1.64 3.64,3.64l0 17.14c0,2 -1.64,3.64 -3.64,3.64l-44.65 0c-2,0 -3.64,-1.64 -3.64,-3.64l0 -17.14c0,-2 1.64,-3.64 3.64,-3.64zm38.36 9.8l4.02 0c0.46,0 0.84,0.38 0.84,0.84l0 0c0,0.46 -0.38,0.84 -0.84,0.84l-4.02 0c-0.46,0 -0.84,-0.38 -0.84,-0.84l0 0c0,-0.46 0.38,-0.84 0.84,-0.84zm0 3.13l4.02 0c0.46,0 0.84,0.38 0.84,0.84l0 0c0,0.46 -0.38,0.84 -0.84,0.84l-4.02 0c-0.46,0 -0.84,-0.38 -0.84,-0.84l0 0c0,-0.46 0.38,-0.84 0.84,-0.84zm0 3.13l4.02 0c0.46,0 0.84,0.38 0.84,0.84l0 0c0,0.46 -0.38,0.84 -0.84,0.84l-4.02 0c-0.46,0 -0.84,-0.38 -0.84,-0.84l0 0c0,-0.46 0.38,-0.84 0.84,-0.84zm0 -9.39l4.02 0c0.46,0 0.84,0.38 0.84,0.84l0 0c0,0.46 -0.38,0.84 -0.84,0.84l-4.02 0c-0.46,0 -0.84,-0.38 -0.84,-0.84l0 0c0,-0.46 0.38,-0.84 0.84,-0.84zm-16.04 -4.74c5.68,0 10.28,4.6 10.28,10.28 0,5.68 -4.6,10.28 -10.28,10.28 -5.68,0 -10.28,-4.6 -10.28,-10.28 0,-5.68 4.6,-10.28 10.28,-10.28z"/>
  <path class="fil0" d="M15.67 0l20.57 0c2,0 3.64,1.64 3.64,3.64l0 0c0,2 -1.64,3.64 -3.64,3.64l-20.57 0c-2,0 -3.64,-1.64 -3.64,-3.64l0 0c0,-2 1.64,-3.64 3.64,-3.64z"/>
  <path class="fil1" d="M25.96 17.1c3.72,0 6.73,3.01 6.73,6.73 0,3.72 -3.01,6.73 -6.73,6.73 -3.72,0 -6.73,-3.01 -6.73,-6.73 0,-3.72 3.01,-6.73 6.73,-6.73zm1.86 2.71c0.71,0 1.29,0.58 1.29,1.29 0,0.71 -0.58,1.29 -1.29,1.29 -0.71,0 -1.29,-0.58 -1.29,-1.29 0,-0.71 0.58,-1.29 1.29,-1.29z"/>
 </g>
</svg>
