<?xml version="1.0" encoding="UTF-8"?>
<!DOCTYPE svg PUBLIC "-//W3C//DTD SVG 1.1//EN" "http://www.w3.org/Graphics/SVG/1.1/DTD/svg11.dtd">
<!-- Creator: CorelDRAW 2020 (64-Bit) -->
<svg xmlns="http://www.w3.org/2000/svg" xml:space="preserve" width="2.9188mm" height="5.3751mm" version="1.1" style="shape-rendering:geometricPrecision; text-rendering:geometricPrecision; image-rendering:optimizeQuality; fill-rule:evenodd; clip-rule:evenodd"
viewBox="0 0 2.61 4.81"
 xmlns:xlink="http://www.w3.org/1999/xlink"
 xmlns:xodm="http://www.corel.com/coreldraw/odm/2003">
 <defs>
  <style type="text/css">
   <![CDATA[
    .fil0 {fill:black}
    .fil1 {fill:red}
   ]]>
  </style>
 </defs>
 <g id="Слой_x0020_1">
  <metadata id="CorelCorpID_0Corel-Layer"/>
  <g id="_2166754316912">
   <path class="fil0" d="M0.07 0l2.48 0c0.04,0 0.07,0.03 0.07,0.07l0 4.68c0,0.04 -0.03,0.07 -0.07,0.07l-2.48 0c-0.04,0 -0.07,-0.03 -0.07,-0.07l0 -4.68c0,-0.04 0.03,-0.07 0.07,-0.07zm0.21 0.47l2.06 0c0.03,0 0.06,0.03 0.06,0.06l0 3.45c0,0.03 -0.03,0.06 -0.06,0.06l-2.06 0c-0.03,0 -0.06,-0.03 -0.06,-0.06l0 -3.45c0,-0.03 0.03,-0.06 0.06,-0.06zm0.9 3.75l0.26 0c0.05,0 0.09,0.04 0.09,0.09l0 0.26c0,0.05 -0.04,0.09 -0.09,0.09l-0.26 0c-0.05,0 -0.09,-0.04 -0.09,-0.09l0 -0.26c0,-0.05 0.04,-0.09 0.09,-0.09z"/>
   <rect class="fil1" x="1.17" y="4.3" width="0.27" height="0.27" rx="0.01" ry="0"/>
  </g>
  <g id="_2166754317104">
   <path class="fil0" d="M0.52 2.17l0 0.24 0.35 0.2c-0,-0.16 -0,-0.3 -0,-0.31 -0.03,-0.02 -0.18,-0.12 -0.21,-0.13 -0.03,-0.02 -0.1,-0.07 -0.13,-0.03 -0.01,0.01 -0.01,0.02 -0.01,0.03zm0 0.33l0 0.23c0,0.04 0.03,0.08 0.05,0.11 0.03,0.03 0.23,0.15 0.3,0.18 0,-0.02 -0,-0.17 -0,-0.33l-0.35 -0.2z"/>
   <path class="fil0" d="M1.76 2.28l0 0.33 0.33 -0.19 0 -0.26c0,-0.03 -0.01,-0.05 -0.04,-0.05 -0.04,0 -0.23,0.13 -0.29,0.16zm0 0.43l0 0.31 0.2 -0.12c0.06,-0.04 0.14,-0.08 0.14,-0.17l0 -0.21 -0.33 0.19z"/>
   <path class="fil0" d="M1.34 2.65l0 0.21 0.33 -0.19 0 -0.33c-0.08,0.05 -0.17,0.1 -0.25,0.15 -0.05,0.03 -0.08,0.09 -0.08,0.16zm0 0.3l0 0.23c0,0.03 0.01,0.06 0.04,0.06 0.04,0 0.24,-0.14 0.29,-0.16l0 -0.32 -0.33 0.19z"/>
   <path class="fil0" d="M0.95 3.08c0.05,0.03 0.25,0.16 0.28,0.16 0.04,0 0.05,-0.03 0.05,-0.07l0 -0.24 -0.32 -0.19 0 0.33zm0.32 -0.24l0 -0.2c0,-0.09 -0.06,-0.14 -0.13,-0.18 -0.03,-0.02 -0.14,-0.08 -0.2,-0.11l0 0.31 0.32 0.19z"/>
   <path class="fil0" d="M0.61 2c0,0.04 0.05,0.06 0.1,0.09 0.07,0.04 0.13,0.08 0.2,0.12 0.17,-0.1 0.23,-0.14 0.34,-0.21 -0.01,-0.01 -0.31,-0.19 -0.34,-0.21 -0.08,0.05 -0.15,0.1 -0.23,0.14 -0.02,0.01 -0.06,0.03 -0.06,0.06z"/>
   <path class="fil0" d="M0.98 1.75c0.1,0.06 0.23,0.14 0.34,0.21 0.11,-0.07 0.22,-0.13 0.33,-0.2 -0.06,-0.04 -0.13,-0.08 -0.19,-0.12 -0.08,-0.05 -0.14,-0.1 -0.25,-0.03 -0.08,0.05 -0.15,0.09 -0.23,0.14z"/>
   <path class="fil1" d="M0.99 2.27l0.22 0.14c0.12,0.07 0.17,0.02 0.28,-0.05l0.16 -0.1c-0.02,-0.01 -0.3,-0.18 -0.32,-0.19 -0.02,0.01 -0.3,0.19 -0.34,0.21z"/>
   <path class="fil0" d="M1.41 2.01c0.04,0.03 0.23,0.15 0.31,0.2 0.07,-0.05 0.15,-0.09 0.22,-0.14 0.12,-0.07 0.03,-0.11 -0.08,-0.17 -0.05,-0.03 -0.09,-0.06 -0.14,-0.08 -0.06,0.04 -0.29,0.18 -0.33,0.2z"/>
  </g>
 </g>
</svg>
