<?xml version="1.0" encoding="UTF-8"?>
<!DOCTYPE svg PUBLIC "-//W3C//DTD SVG 1.1//EN" "http://www.w3.org/Graphics/SVG/1.1/DTD/svg11.dtd">
<!-- Creator: CorelDRAW 2020 (64-Bit) -->
<svg xmlns="http://www.w3.org/2000/svg" xml:space="preserve" width="4.4212mm" height="5.391mm" version="1.1" style="shape-rendering:geometricPrecision; text-rendering:geometricPrecision; image-rendering:optimizeQuality; fill-rule:evenodd; clip-rule:evenodd"
viewBox="0 0 7.1 8.66"
 xmlns:xlink="http://www.w3.org/1999/xlink"
 xmlns:xodm="http://www.corel.com/coreldraw/odm/2003">
 <defs>
  <style type="text/css">
   <![CDATA[
    .fil0 {fill:black}
    .fil1 {fill:red}
   ]]>
  </style>
 </defs>
 <g id="Слой_x0020_1">
  <metadata id="CorelCorpID_0Corel-Layer"/>
  <g id="_2782675645040">
   <path class="fil0" d="M0.95 0l5.2 0c0.52,0 0.95,0.43 0.95,0.95l0 6.92 -7.1 0 0 -6.92c0,-0.52 0.43,-0.95 0.95,-0.95zm2.09 5.5c0,-0.25 0.17,-0.45 0.4,-0.5l0 -0.43c-0.07,-0.09 -0.28,-0.17 -0.66,-0.28 -0.22,-0.06 -0.35,-0.27 -0.36,-0.47 -0,-0.12 -0.01,-0.18 -0.01,-0.28 -0.12,-0.04 -0.21,-0.16 -0.21,-0.29 0,-0.17 0.14,-0.31 0.31,-0.31 0.17,0 0.31,0.14 0.31,0.31 0,0.13 -0.09,0.25 -0.2,0.29 -0.02,0.21 -0.01,0.31 0.02,0.37 0.05,0.1 0.21,0.21 0.46,0.28 0.15,0.04 0.26,0.09 0.34,0.15l0 -2.58 -0.25 0 0.18 -0.29 0.18 -0.29 0.18 0.29 0.18 0.29 -0.23 0 0 2.06c0.08,-0.06 0.19,-0.1 0.33,-0.14 0.27,-0.06 0.43,-0.15 0.47,-0.25 0.03,-0.06 0.03,-0.19 0.01,-0.4l-0.19 0 0 -0.64 0.61 0 0 0.64 -0.21 0c0,0.12 0,0.24 -0,0.36 -0.01,0.2 -0.15,0.32 -0.34,0.37 -0.37,0.1 -0.6,0.19 -0.68,0.28l0 0.96c0.22,0.06 0.39,0.26 0.39,0.49 0,0.28 -0.23,0.51 -0.51,0.51 -0.28,0 -0.51,-0.23 -0.51,-0.51z"/>
   <rect class="fil1" y="8.08" width="7.1" height="0.58"/>
  </g>
 </g>
</svg>
