<?xml version="1.0" encoding="UTF-8"?>
<!DOCTYPE svg PUBLIC "-//W3C//DTD SVG 1.1//EN" "http://www.w3.org/Graphics/SVG/1.1/DTD/svg11.dtd">
<!-- Creator: CorelDRAW 2020 (64-Bit) -->
<svg xmlns="http://www.w3.org/2000/svg" xml:space="preserve" width="4.4212mm" height="5.391mm" version="1.1" style="shape-rendering:geometricPrecision; text-rendering:geometricPrecision; image-rendering:optimizeQuality; fill-rule:evenodd; clip-rule:evenodd"
viewBox="0 0 7.38 9"
 xmlns:xlink="http://www.w3.org/1999/xlink"
 xmlns:xodm="http://www.corel.com/coreldraw/odm/2003">
 <defs>
  <style type="text/css">
   <![CDATA[
    .fil1 {fill:black}
    .fil0 {fill:black}
    .fil2 {fill:red}
   ]]>
  </style>
 </defs>
 <g id="Слой_x0020_1">
  <metadata id="CorelCorpID_0Corel-Layer"/>
  <path class="fil0" d="M3.16 6.07c0,-0.26 0.18,-0.47 0.42,-0.52l0 -0.45c-0.07,-0.1 -0.29,-0.18 -0.69,-0.3 -0.22,-0.07 -0.36,-0.28 -0.37,-0.48 -0,-0.12 -0.01,-0.18 -0.01,-0.29 -0.13,-0.04 -0.22,-0.16 -0.22,-0.31 0,-0.18 0.14,-0.32 0.32,-0.32 0.18,0 0.32,0.14 0.32,0.32 0,0.14 -0.09,0.26 -0.21,0.3 -0.02,0.22 -0.01,0.33 0.02,0.38 0.05,0.1 0.22,0.22 0.48,0.29 0.15,0.04 0.27,0.09 0.35,0.16l0 -2.68 -0.26 0 0.18 -0.3 0.18 -0.3 0.18 0.3 0.18 0.3 -0.24 0 0 2.14c0.08,-0.06 0.19,-0.11 0.34,-0.14 0.28,-0.06 0.44,-0.16 0.49,-0.26 0.03,-0.06 0.03,-0.19 0.01,-0.41l-0.2 0 0 -0.66 0.63 0 0 0.66 -0.21 0c0,0.12 0,0.25 -0,0.37 -0.01,0.2 -0.15,0.33 -0.35,0.39 -0.38,0.1 -0.62,0.2 -0.71,0.29l0 1c0.23,0.06 0.4,0.27 0.4,0.51 0,0.29 -0.24,0.53 -0.53,0.53 -0.29,0 -0.53,-0.24 -0.53,-0.53z"/>
  <path class="fil1" d="M0.57 7.62l6.25 0 0 -6.63c0,-0.23 -0.19,-0.42 -0.42,-0.42l-5.4 0c-0.23,0 -0.42,0.19 -0.42,0.42l0 6.63zm0.42 -7.62l5.4 0c0.54,0 0.99,0.45 0.99,0.99l0 7.2 -7.38 0 0 -7.2c0,-0.54 0.45,-0.99 0.99,-0.99z"/>
  <rect class="fil2" y="8.4" width="7.38" height="0.61"/>
 </g>
</svg>
