<?xml version="1.0" encoding="UTF-8"?>
<!DOCTYPE svg PUBLIC "-//W3C//DTD SVG 1.1//EN" "http://www.w3.org/Graphics/SVG/1.1/DTD/svg11.dtd">
<!-- Creator: CorelDRAW 2019 (64-Bit) -->
<svg xmlns="http://www.w3.org/2000/svg" xml:space="preserve" width="1.7377mm" height="5.3751mm" version="1.1" style="shape-rendering:geometricPrecision; text-rendering:geometricPrecision; image-rendering:optimizeQuality; fill-rule:evenodd; clip-rule:evenodd"
viewBox="0 0 1.3 4.04"
 xmlns:xlink="http://www.w3.org/1999/xlink"
 xmlns:xodm="http://www.corel.com/coreldraw/odm/2003">
 <defs>
  <style type="text/css">
   <![CDATA[
    .fil0 {fill:black}
    .fil1 {fill:red}
   ]]>
  </style>
 </defs>
 <g id="Слой_x0020_1">
  <metadata id="CorelCorpID_0Corel-Layer"/>
  <g id="_1989450550144">
   <path class="fil0" d="M0.06 0.93l0.05 0 0 0 1.08 0 0 0 0.05 0c0.03,0 0.06,0.03 0.06,0.06l0 0.06 0 2.36 -1.3 0 0 -2.36 0 -0.06c0,-0.03 0.03,-0.06 0.06,-0.06zm1.25 2.56l0 0.08 -1.3 0 0 -0.08 1.3 0zm0 0.17l0 0.27c0,0.06 -0.05,0.11 -0.11,0.11l-0.45 0 -0.17 0 -0.45 0c-0.06,0 -0.11,-0.05 -0.11,-0.11l0 -0.27 1.3 0z"/>
   <path class="fil1" d="M0.2 0l0.9 0c0.02,0 0.03,0.01 0.03,0.03l0 0.75c0,0.02 -0.01,0.03 -0.03,0.03l-0.9 0c-0.02,0 -0.03,-0.01 -0.03,-0.03l0 -0.75c0,-0.02 0.01,-0.03 0.03,-0.03zm0.08 0.32l0.24 0c0.01,0 0.02,0.01 0.02,0.02l0 0.14c0,0.01 -0.01,0.02 -0.02,0.02l-0.24 0c-0.01,0 -0.02,-0.01 -0.02,-0.02l0 -0.14c0,-0.01 0.01,-0.02 0.02,-0.02zm0.51 0l0.24 0c0.01,0 0.02,0.01 0.02,0.02l0 0.14c0,0.01 -0.01,0.02 -0.02,0.02l-0.24 0c-0.01,0 -0.02,-0.01 -0.02,-0.02l0 -0.14c0,-0.01 0.01,-0.02 0.02,-0.02z"/>
  </g>
 </g>
</svg>
