<?xml version="1.0" encoding="UTF-8"?>
<!DOCTYPE svg PUBLIC "-//W3C//DTD SVG 1.1//EN" "http://www.w3.org/Graphics/SVG/1.1/DTD/svg11.dtd">
<!-- Creator: CorelDRAW 2019 (64-Bit) -->
<svg xmlns="http://www.w3.org/2000/svg" xml:space="preserve" width="3.8409mm" height="5.3751mm" version="1.1" style="shape-rendering:geometricPrecision; text-rendering:geometricPrecision; image-rendering:optimizeQuality; fill-rule:evenodd; clip-rule:evenodd"
viewBox="0 0 5.33 7.46"
 xmlns:xlink="http://www.w3.org/1999/xlink"
 xmlns:xodm="http://www.corel.com/coreldraw/odm/2003">
 <defs>
  <style type="text/css">
   <![CDATA[
    .fil0 {fill:black}
    .fil1 {fill:red}
   ]]>
  </style>
 </defs>
 <g id="Слой_x0020_1">
  <metadata id="CorelCorpID_0Corel-Layer"/>
  <g id="_1989423593680">
   <path class="fil0" d="M0.96 0l4.14 0c0.13,0 0.24,0.11 0.24,0.24l0 5.82 -5.33 0 0 -1 0.72 -0.73 0 -0.45 -0.72 0 0 -1.02 0.72 -0.72 0 -0.32 0 -1.58c0,-0.13 0.11,-0.24 0.24,-0.24zm3.91 1.41l-3.67 0c-0.12,0 -0.21,-0.09 -0.21,-0.21l0 -0.76c0,-0.12 0.09,-0.21 0.21,-0.21l3.67 0c0.12,0 0.21,0.09 0.21,0.21l0 0.76c0,0.12 -0.09,0.21 -0.21,0.21z"/>
   <path class="fil0" d="M5.33 6.24l0 0.99c0,0.13 -0.11,0.24 -0.24,0.24l-1 0 -3.14 0 -0.73 0c-0.12,0 -0.22,-0.1 -0.22,-0.22l0 -1 5.33 0z"/>
   <rect class="fil1" x="4.57" y="0.33" width="0.34" height="0.96" rx="0.1" ry="0.1"/>
   <rect class="fil1" x="4.08" y="0.33" width="0.34" height="0.96" rx="0.1" ry="0.1"/>
   <rect class="fil1" x="3.59" y="0.33" width="0.34" height="0.96" rx="0.1" ry="0.1"/>
   <rect class="fil1" x="3.09" y="0.33" width="0.34" height="0.96" rx="0.1" ry="0.1"/>
   <rect class="fil1" x="2.6" y="0.33" width="0.34" height="0.96" rx="0.1" ry="0.1"/>
   <rect class="fil1" x="2.11" y="0.33" width="0.34" height="0.96" rx="0.1" ry="0.1"/>
   <rect class="fil1" x="1.62" y="0.33" width="0.34" height="0.96" rx="0.1" ry="0.1"/>
   <rect class="fil1" x="1.12" y="0.33" width="0.34" height="0.96" rx="0.1" ry="0.1"/>
  </g>
 </g>
</svg>
