<?xml version="1.0" encoding="UTF-8"?>
<!DOCTYPE svg PUBLIC "-//W3C//DTD SVG 1.1//EN" "http://www.w3.org/Graphics/SVG/1.1/DTD/svg11.dtd">
<!-- Creator: CorelDRAW 2020 (64-Bit) -->
<svg xmlns="http://www.w3.org/2000/svg" xml:space="preserve" width="3.9417mm" height="5.375mm" version="1.1" style="shape-rendering:geometricPrecision; text-rendering:geometricPrecision; image-rendering:optimizeQuality; fill-rule:evenodd; clip-rule:evenodd"
viewBox="0 0 35.63 48.58"
 xmlns:xlink="http://www.w3.org/1999/xlink"
 xmlns:xodm="http://www.corel.com/coreldraw/odm/2003">
 <defs>
  <style type="text/css">
   <![CDATA[
    .fil0 {fill:black}
    .fil1 {fill:red}
   ]]>
  </style>
 </defs>
 <g id="Слой_x0020_1">
  <metadata id="CorelCorpID_0Corel-Layer"/>
  <g id="_2782683454800">
   <circle class="fil0" cx="17.81" cy="17.2" r="2.93"/>
   <path class="fil0" d="M17.81 0c3.36,0 6.5,0.97 9.15,2.64 0.08,1.22 -0.22,2.09 -1.01,2.36 -0.68,0.23 -1.49,-0.07 -2.31,-0.52 -1.65,-0.91 -3.61,-1.26 -5.88,-1.26 -2.28,0 -4.23,0.35 -5.88,1.26 -0.83,0.46 -1.64,0.75 -2.31,0.52 -0.78,-0.26 -1.08,-1.11 -1.01,-2.29 2.67,-1.71 5.85,-2.7 9.26,-2.7zm9.86 3.11c2.78,1.95 4.96,4.7 6.2,7.92 -1.18,0.42 -1.82,1.05 -2.02,1.85 -0.16,0.68 -0.26,1.97 -0.16,3.91 0.18,3.27 -0.71,6.24 -2.7,8.9 -2.25,3 -5.98,4.94 -11.24,4.94 -5.26,0 -8.99,-1.93 -11.24,-4.94 -1.99,-2.66 -2.88,-5.62 -2.7,-8.9 0.1,-1.94 0,-3.23 -0.16,-3.91 -0.19,-0.78 -0.8,-1.39 -1.92,-1.81 1.22,-3.2 3.37,-5.93 6.11,-7.89 0.06,1.09 0.4,1.86 1.05,2.24 0.81,0.47 1.87,0.3 3.16,-0.36 1.68,-0.86 3.59,-1.22 5.7,-1.22 2.11,0 4.02,0.36 5.7,1.22 1.28,0.66 2.35,0.83 3.16,0.36 0.67,-0.39 1.01,-1.18 1.06,-2.31zm6.42 8.52c0.6,1.75 0.92,3.62 0.92,5.57 0,9.5 -7.7,17.2 -17.2,17.2 -9.5,0 -17.21,-7.7 -17.21,-17.2 0,-1.94 0.32,-3.8 0.91,-5.53 0.91,0.41 1.43,0.98 1.59,1.68 0.16,0.68 0.15,1.91 0.04,3.84 -0.18,3.27 0.83,6.3 2.82,8.96 2.44,3.28 6.53,5.1 11.79,5.1 5.26,0 9.35,-1.82 11.79,-5.1 1.98,-2.66 3,-5.69 2.82,-8.96 -0.11,-1.94 -0.12,-3.17 0.04,-3.84 0.17,-0.72 0.71,-1.3 1.68,-1.72zm-16.28 -6.17c6.48,0 11.74,5.26 11.74,11.74 0,6.49 -5.26,11.74 -11.74,11.74 -6.49,0 -11.74,-5.26 -11.74,-11.74 0,-6.49 5.26,-11.74 11.74,-11.74zm-2.86 -4.35c1.86,1.94 3.74,1.94 5.62,0 -1.85,-0.35 -3.72,-0.35 -5.62,0z"/>
   <path class="fil1" d="M17.81 9.04c4.51,0 8.17,3.66 8.17,8.17 0,4.51 -3.66,8.17 -8.17,8.17 -4.51,0 -8.17,-3.66 -8.17,-8.17 0,-4.51 3.66,-8.17 8.17,-8.17zm0 2.64c3.05,0 5.53,2.48 5.53,5.53 0,3.05 -2.48,5.53 -5.53,5.53 -3.05,0 -5.53,-2.48 -5.53,-5.53 0,-3.05 2.48,-5.53 5.53,-5.53z"/>
   <path class="fil0" d="M20.38 35.34c8.54,0.33 15.09,2.26 15.09,4.6 0,2.57 -7.91,4.65 -17.66,4.65 -9.76,0 -17.66,-2.08 -17.66,-4.65 0,-2.34 6.56,-4.27 15.09,-4.6l0 -0.41 5.14 0 0 0.41zm0 1.67l0 1.02c0,1.41 -1.16,2.57 -2.57,2.57l0 0c-1.41,0 -2.57,-1.16 -2.57,-2.57l0 -1.02c-3.88,0.29 -6.72,1.23 -6.72,2.35 0,1.35 4.16,2.44 9.29,2.44 5.13,0 9.29,-1.09 9.29,-2.44 0,-1.11 -2.84,-2.06 -6.72,-2.35z"/>
   <path class="fil0" d="M17.81 45.22c-8.97,0 -14.89,-1.32 -17.77,-3.68l-0.04 2.88c2.65,2.74 8.43,4.16 17.81,4.16 9.39,0 15.17,-1.42 17.81,-4.16l-0.04 -2.88c-2.88,2.35 -8.81,3.68 -17.77,3.68z"/>
  </g>
 </g>
</svg>
