<?xml version="1.0" encoding="UTF-8"?>
<!DOCTYPE svg PUBLIC "-//W3C//DTD SVG 1.1//EN" "http://www.w3.org/Graphics/SVG/1.1/DTD/svg11.dtd">
<!-- Creator: CorelDRAW 2020 (64-Bit) -->
<svg xmlns="http://www.w3.org/2000/svg" xml:space="preserve" width="3.2202mm" height="5.3751mm" version="1.1" style="shape-rendering:geometricPrecision; text-rendering:geometricPrecision; image-rendering:optimizeQuality; fill-rule:evenodd; clip-rule:evenodd"
viewBox="0 0 39.57 66.05"
 xmlns:xlink="http://www.w3.org/1999/xlink"
 xmlns:xodm="http://www.corel.com/coreldraw/odm/2003">
 <defs>
  <style type="text/css">
   <![CDATA[
    .fil0 {fill:black}
    .fil2 {fill:black}
    .fil1 {fill:red}
   ]]>
  </style>
 </defs>
 <g id="Слой_x0020_1">
  <metadata id="CorelCorpID_0Corel-Layer"/>
  <path class="fil0" d="M19.79 66.05l-13.02 0c0,-4.85 4.83,-7.52 10.33,-8.13 0,-1.29 0,-2.58 0,-3.67 -8.96,-1.11 -17.04,-8.02 -17.04,-20.79 0,-3.13 -0.06,-6.23 -0.06,-6.23l4.6 0c0.07,2.82 0.13,3.94 0.15,6.07 0.07,10.68 7.47,16.01 15.04,16.04 7.57,-0.03 14.97,-5.36 15.04,-16.04 0.02,-2.13 0.08,-3.25 0.15,-6.07l4.6 0c0,0 -0.06,3.1 -0.06,6.23 0,12.77 -8.08,19.68 -17.04,20.79 0,1.1 0,2.39 0,3.67 5.51,0.61 10.33,3.28 10.33,8.13l-13.02 0z"/>
  <path class="fil1" d="M19.06 0l1.46 0c5.93,0 10.78,4.85 10.78,10.78l0 3.85 -23.04 0 0 -3.85c0,-5.93 4.85,-10.78 10.79,-10.78z"/>
  <path class="fil2" d="M31.31 17.28l0 17.3c0,5.93 -4.85,10.78 -10.78,10.78l-1.46 0c-5.93,0 -10.79,-4.85 -10.79,-10.78l0 -17.3 23.04 0z"/>
 </g>
</svg>
