<?xml version="1.0" encoding="UTF-8"?>
<!DOCTYPE svg PUBLIC "-//W3C//DTD SVG 1.1//EN" "http://www.w3.org/Graphics/SVG/1.1/DTD/svg11.dtd">
<!-- Creator: CorelDRAW 2019 (64-Bit) -->
<svg xmlns="http://www.w3.org/2000/svg" xml:space="preserve" width="6.5573mm" height="5.3751mm" version="1.1" style="shape-rendering:geometricPrecision; text-rendering:geometricPrecision; image-rendering:optimizeQuality; fill-rule:evenodd; clip-rule:evenodd"
viewBox="0 0 14.69 12.04"
 xmlns:xlink="http://www.w3.org/1999/xlink"
 xmlns:xodm="http://www.corel.com/coreldraw/odm/2003">
 <defs>
  <style type="text/css">
   <![CDATA[
    .fil0 {fill:black}
    .fil1 {fill:red}
   ]]>
  </style>
 </defs>
 <g id="Слой_x0020_1">
  <metadata id="CorelCorpID_0Corel-Layer"/>
  <g id="_1989459072848">
   <path class="fil0" d="M7.35 8.49c-0.22,0 -0.47,-0 -0.75,0 0.03,1.15 -1,1.64 -1.86,1.1 0,0 -0.27,0.4 -0.81,1.19 -0.32,0.62 -0.79,1.01 -1.4,1.18 -0.68,0.19 -1.32,0.03 -1.9,-0.48 -0.5,-0.5 -0.69,-1.13 -0.58,-1.87 0,0 0.17,-1.22 0.5,-3.66 0.11,-1.32 0.75,-2.25 1.93,-2.72 0.96,-0.39 2.1,-0.24 3.12,0.58 0.51,-0.01 1.1,-0.01 1.76,-0.01 0.66,-0 1.25,-0 1.76,0.01 1.03,-0.82 2.17,-0.97 3.12,-0.58 1.19,0.48 1.82,1.41 1.93,2.72 0.33,2.44 0.5,3.66 0.5,3.66 0.12,0.75 -0.07,1.37 -0.58,1.87 -0.59,0.51 -1.22,0.67 -1.9,0.48 -0.62,-0.17 -1.08,-0.56 -1.4,-1.18 -0.54,-0.79 -0.81,-1.19 -0.81,-1.19 -0.86,0.53 -1.9,0.05 -1.86,-1.1 -0.28,-0 -0.53,0 -0.75,0zm-1.92 -0.53c0.37,0 0.67,0.3 0.67,0.67 0,0.37 -0.3,0.67 -0.67,0.67 -0.37,0 -0.67,-0.3 -0.67,-0.67 0,-0.37 0.3,-0.67 0.67,-0.67zm1.27 -1.62c0.25,0 0.45,0.2 0.45,0.45 0,0.25 -0.2,0.45 -0.45,0.45 -0.25,0 -0.45,-0.2 -0.45,-0.45 0,-0.25 0.2,-0.45 0.45,-0.45zm0 -1.31c0.25,0 0.45,0.2 0.45,0.45 0,0.25 -0.2,0.45 -0.45,0.45 -0.25,0 -0.45,-0.2 -0.45,-0.45 0,-0.25 0.2,-0.45 0.45,-0.45zm-3.17 -1.12c1.16,0 2.1,0.94 2.1,2.1 0,1.16 -0.94,2.1 -2.1,2.1 -1.16,0 -2.1,-0.94 -2.1,-2.1 0,-1.16 0.94,-2.1 2.1,-2.1zm-0.54 0.71l1.07 0c0,0 0.01,0 0.01,0.01l0 0.84 0.85 0c0,0 0.01,0 0.01,0.01l0 1.07c0,0 -0,0.01 -0.01,0.01l-0.85 0 0 0.84c0,0 -0,0.01 -0.01,0.01l-1.07 0c-0,0 -0.01,-0 -0.01,-0.01l0 -0.84 -0.85 0c-0,0 -0.01,-0 -0.01,-0.01l0 -1.07c0,-0 0,-0.01 0.01,-0.01l0.85 0 0 -0.84c0,-0 0,-0.01 0.01,-0.01zm6.28 3.34c-0.37,0 -0.67,0.3 -0.67,0.67 0,0.37 0.3,0.67 0.67,0.67 0.37,0 0.67,-0.3 0.67,-0.67 0,-0.37 -0.3,-0.67 -0.67,-0.67zm-1.27 -1.62c-0.25,0 -0.45,0.2 -0.45,0.45 0,0.25 0.2,0.45 0.45,0.45 0.25,0 0.45,-0.2 0.45,-0.45 0,-0.25 -0.2,-0.45 -0.45,-0.45zm1.95 -0.87c-0.3,0 -0.54,0.24 -0.54,0.54 0,0.3 0.24,0.54 0.54,0.54 0.3,0 0.54,-0.24 0.54,-0.54 0,-0.3 -0.24,-0.54 -0.54,-0.54zm1.21 -1.55c-1.16,0 -2.1,0.94 -2.1,2.1 0,1.16 0.94,2.1 2.1,2.1 1.16,0 2.1,-0.94 2.1,-2.1 0,-1.16 -0.94,-2.1 -2.1,-2.1zm1.22 1.55c-0.3,0 -0.54,0.24 -0.54,0.54 0,0.3 0.24,0.54 0.54,0.54 0.3,0 0.54,-0.24 0.54,-0.54 0,-0.3 -0.24,-0.54 -0.54,-0.54zm-1.77 -0.68c0,0.3 0.24,0.54 0.54,0.54 0.3,0 0.54,-0.24 0.54,-0.54 0,-0.3 -0.24,-0.54 -0.54,-0.54 -0.3,0 -0.54,0.24 -0.54,0.54zm1.08 2.45c0,-0.3 -0.24,-0.54 -0.54,-0.54 -0.3,0 -0.54,0.24 -0.54,0.54 0,0.3 0.24,0.54 0.54,0.54 0.3,0 0.54,-0.24 0.54,-0.54zm-3.71 -2.2c0.25,0 0.45,0.2 0.45,0.45 0,0.25 -0.2,0.45 -0.45,0.45 -0.25,0 -0.45,-0.2 -0.45,-0.45 0,-0.25 0.2,-0.45 0.45,-0.45z"/>
   <path class="fil1" d="M7.1 1.06c-0.56,0.05 -0.97,0.23 -1.38,0.51 -0.09,0.06 -0.35,0.27 -0.39,0.37 -0.08,0.21 0.12,0.43 0.33,0.38 0.12,-0.03 0.15,-0.1 0.22,-0.16 0.07,-0.05 0.13,-0.11 0.21,-0.16 0.44,-0.28 0.91,-0.44 1.5,-0.38 0.44,0.05 0.8,0.22 1.08,0.42 0.21,0.15 0.28,0.31 0.48,0.27 0.19,-0.04 0.31,-0.3 0.16,-0.46 -0.22,-0.24 -0.59,-0.47 -0.91,-0.6 -0.38,-0.16 -0.84,-0.24 -1.3,-0.19zm0.12 -1.06c-0.91,0.05 -1.55,0.3 -2.23,0.8 -0.08,0.06 -0.35,0.27 -0.38,0.37 -0.09,0.26 0.24,0.54 0.49,0.28 0.2,-0.2 0.48,-0.39 0.73,-0.53 0.99,-0.54 2.25,-0.47 3.2,0.1 0.22,0.13 0.41,0.28 0.57,0.44 0.05,0.04 0.07,0.07 0.16,0.09 0.22,0.03 0.39,-0.21 0.3,-0.39 -0.05,-0.12 -0.4,-0.38 -0.53,-0.47 -0.19,-0.14 -0.41,-0.25 -0.65,-0.36 -0.44,-0.2 -1.11,-0.36 -1.67,-0.32zm-1.2 2.74c0,0.19 0.21,0.37 0.42,0.26 0.12,-0.06 0.34,-0.4 0.92,-0.4 0.3,0 0.56,0.13 0.73,0.27 0.09,0.07 0.16,0.2 0.34,0.16 0.12,-0.03 0.23,-0.14 0.23,-0.3 0,-0.13 -0.13,-0.24 -0.2,-0.29 -0.59,-0.46 -1.29,-0.54 -1.95,-0.2 -0.11,0.06 -0.21,0.13 -0.29,0.2 -0.07,0.06 -0.2,0.14 -0.2,0.3z"/>
  </g>
 </g>
</svg>
