<?xml version="1.0" encoding="UTF-8"?>
<!DOCTYPE svg PUBLIC "-//W3C//DTD SVG 1.1//EN" "http://www.w3.org/Graphics/SVG/1.1/DTD/svg11.dtd">
<!-- Creator: CorelDRAW 2020 (64-Bit) -->
<svg xmlns="http://www.w3.org/2000/svg" xml:space="preserve" width="3.5981mm" height="5.3752mm" version="1.1" style="shape-rendering:geometricPrecision; text-rendering:geometricPrecision; image-rendering:optimizeQuality; fill-rule:evenodd; clip-rule:evenodd"
viewBox="0 0 4.3 6.43"
 xmlns:xlink="http://www.w3.org/1999/xlink"
 xmlns:xodm="http://www.corel.com/coreldraw/odm/2003">
 <defs>
  <style type="text/css">
   <![CDATA[
    .fil0 {fill:black}
    .fil1 {fill:red}
   ]]>
  </style>
 </defs>
 <g id="Слой_x0020_1">
  <metadata id="CorelCorpID_0Corel-Layer"/>
  <g id="_2064731072512">
   <path class="fil0" d="M2.27 0.11l0 5.16c0,0.06 -0.05,0.11 -0.11,0.11l-0.9 0 0 0.69c0.04,0.07 0.1,0.11 0.18,0.12l2.15 0c0.07,-0.03 0.11,-0.08 0.14,-0.16l0 -3.07 0.23 0 0 3.07c-0.03,0.22 -0.15,0.35 -0.37,0.39l-2.15 0c-0.22,0 -0.36,-0.12 -0.41,-0.35l0 -0.69 -0.91 0c-0.06,0 -0.11,-0.05 -0.11,-0.11l0 -5.16c0,-0.06 0.05,-0.11 0.11,-0.11l2.05 0c0.06,0 0.11,0.05 0.11,0.11zm-0.64 0.55l0 0.5c0,0.02 -0.01,0.03 -0.03,0.03l-0.94 0c-0.02,0 -0.03,-0.01 -0.03,-0.03l0 -0.5c0,-0.02 0.01,-0.03 0.03,-0.03l0.94 0c0.02,0 0.03,0.01 0.03,0.03zm-0.15 0.14l0 0.22c0,0.01 -0.01,0.02 -0.02,0.02l-0.66 0c-0.01,0 -0.02,-0.01 -0.02,-0.02l0 -0.22c0,-0.01 0.01,-0.02 0.02,-0.02l0.66 0c0.01,0 0.02,0.01 0.02,0.02zm0.15 0.76l0 0.5c0,0.01 -0.01,0.03 -0.03,0.03l-0.94 0c-0.02,0 -0.03,-0.01 -0.03,-0.03l0 -0.5c0,-0.01 0.01,-0.03 0.03,-0.03l0.94 0c0.02,0 0.03,0.01 0.03,0.03zm-0.15 0.14l0 0.22c0,0.01 -0.01,0.02 -0.02,0.02l-0.66 0c-0.01,0 -0.02,-0.01 -0.02,-0.02l0 -0.22c0,-0.01 0.01,-0.02 0.02,-0.02l0.66 0c0.01,0 0.02,0.01 0.02,0.02zm0.15 0.76l0 0.5c0,0.02 -0.01,0.03 -0.03,0.03l-0.94 0c-0.02,0 -0.03,-0.01 -0.03,-0.03l0 -0.5c0,-0.02 0.01,-0.03 0.03,-0.03l0.94 0c0.02,0 0.03,0.01 0.03,0.03zm-0.15 0.14l0 0.22c0,0.01 -0.01,0.02 -0.02,0.02l-0.66 0c-0.01,0 -0.02,-0.01 -0.02,-0.02l0 -0.22c0,-0.01 0.01,-0.02 0.02,-0.02l0.66 0c0.01,0 0.02,0.01 0.02,0.02zm0.15 0.76l0 0.5c0,0.01 -0.01,0.03 -0.03,0.03l-0.94 0c-0.02,0 -0.03,-0.01 -0.03,-0.03l0 -0.5c0,-0.01 0.01,-0.03 0.03,-0.03l0.94 0c0.02,0 0.03,0.01 0.03,0.03zm-0.15 0.14l0 0.22c0,0.01 -0.01,0.02 -0.02,0.02l-0.66 0c-0.01,0 -0.02,-0.01 -0.02,-0.02l0 -0.22c0,-0.01 0.01,-0.02 0.02,-0.02l0.66 0c0.01,0 0.02,0.01 0.02,0.02zm0.15 0.76l0 0.5c0,0.02 -0.01,0.03 -0.03,0.03l-0.94 0c-0.02,0 -0.03,-0.01 -0.03,-0.03l0 -0.5c0,-0.02 0.01,-0.03 0.03,-0.03l0.94 0c0.02,0 0.03,0.01 0.03,0.03zm-0.15 0.14l0 0.22c0,0.01 -0.01,0.02 -0.02,0.02l-0.66 0c-0.01,0 -0.02,-0.01 -0.02,-0.02l0 -0.22c0,-0.01 0.01,-0.02 0.02,-0.02l0.66 0c0.01,0 0.02,0.01 0.02,0.02z"/>
   <path class="fil0" d="M3.52 0l0.64 0c0.01,0 0.02,0.01 0.02,0.02l0 0.53c0,0.01 -0.01,0.02 -0.02,0.02l-0.64 0c-0.01,0 -0.02,-0.01 -0.02,-0.02l0 -0.53c0,-0.01 0.01,-0.02 0.02,-0.02zm0.06 0.23l0.17 0c0.01,0 0.01,0.01 0.01,0.01l0 0.1c0,0.01 -0.01,0.01 -0.01,0.01l-0.17 0c-0.01,0 -0.01,-0.01 -0.01,-0.01l0 -0.1c0,-0.01 0.01,-0.01 0.01,-0.01zm0.36 0l0.17 0c0.01,0 0.01,0.01 0.01,0.01l0 0.1c0,0.01 -0.01,0.01 -0.01,0.01l-0.17 0c-0.01,0 -0.01,-0.01 -0.01,-0.01l0 -0.1c0,-0.01 0.01,-0.01 0.01,-0.01z"/>
   <path class="fil1" d="M3.38 0.65l0.91 0c0,0 0,0 0,0l0 1.89c0,0 -0,0 -0,0l-0.91 0c-0,0 -0,-0 -0,-0l0 -1.89c0,-0 0,-0 0,-0zm0.36 1.31c0,-0.05 0.03,-0.09 0.08,-0.09l0 -0.08c-0.01,-0.02 -0.05,-0.03 -0.13,-0.05 -0.04,-0.01 -0.07,-0.05 -0.07,-0.09 -0,-0.02 -0,-0.03 -0,-0.05 -0.02,-0.01 -0.04,-0.03 -0.04,-0.06 0,-0.03 0.03,-0.06 0.06,-0.06 0.03,0 0.06,0.03 0.06,0.06 0,0.03 -0.02,0.05 -0.04,0.06 -0,0.04 -0,0.06 0,0.07 0.01,0.02 0.04,0.04 0.09,0.05 0.03,0.01 0.05,0.02 0.06,0.03l0 -0.49 -0.05 0 0.03 -0.05 0.03 -0.05 0.03 0.05 0.03 0.05 -0.04 0 0 0.39c0.01,-0.01 0.04,-0.02 0.06,-0.03 0.05,-0.01 0.08,-0.03 0.09,-0.05 0,-0.01 0.01,-0.04 0,-0.07l-0.04 0 0 -0.12 0.12 0 0 0.12 -0.04 0c0,0.02 0,0.05 -0,0.07 -0,0.04 -0.03,0.06 -0.06,0.07 -0.07,0.02 -0.11,0.04 -0.13,0.05l0 0.18c0.04,0.01 0.07,0.05 0.07,0.09 0,0.05 -0.04,0.1 -0.1,0.1 -0.05,0 -0.1,-0.04 -0.1,-0.1z"/>
   <rect class="fil0" x="3.64" y="2.62" width="0.4" height="0.27" rx="0" ry="0"/>
  </g>
 </g>
</svg>
