<?xml version="1.0" encoding="UTF-8"?>
<!DOCTYPE svg PUBLIC "-//W3C//DTD SVG 1.1//EN" "http://www.w3.org/Graphics/SVG/1.1/DTD/svg11.dtd">
<!-- Creator: CorelDRAW 2020 (64-Bit) -->
<svg xmlns="http://www.w3.org/2000/svg" xml:space="preserve" width="2.5389mm" height="5.375mm" version="1.1" style="shape-rendering:geometricPrecision; text-rendering:geometricPrecision; image-rendering:optimizeQuality; fill-rule:evenodd; clip-rule:evenodd"
viewBox="0 0 19.65 41.6"
 xmlns:xlink="http://www.w3.org/1999/xlink"
 xmlns:xodm="http://www.corel.com/coreldraw/odm/2003">
 <defs>
  <style type="text/css">
   <![CDATA[
    .fil0 {fill:black}
    .fil1 {fill:red}
   ]]>
  </style>
 </defs>
 <g id="Слой_x0020_1">
  <metadata id="CorelCorpID_0Corel-Layer"/>
  <g id="_2782673777696">
   <path class="fil0" d="M3.86 0l12.1 0 2.93 0c0.42,0 0.76,0.34 0.76,0.76l0 36.65 0 3.43c0,0.42 -0.34,0.76 -0.76,0.76l-2.93 0 -12.1 0 -3.1 0c-0.42,0 -0.76,-0.34 -0.76,-0.76l0 -40.08c0,-0.42 0.34,-0.76 0.76,-0.76l3.1 0zm-0.61 9.34l13.32 0c0.17,0 0.32,0.14 0.32,0.32l0 3.05c0,0.17 -0.14,0.32 -0.32,0.32l-13.32 0c-0.18,0 -0.32,-0.14 -0.32,-0.32l0 -3.05c0,-0.18 0.14,-0.32 0.32,-0.32zm0 -5.42l13.32 0c0.17,0 0.32,0.14 0.32,0.32l0 3.05c0,0.18 -0.14,0.32 -0.32,0.32l-13.32 0c-0.18,0 -0.32,-0.14 -0.32,-0.32l0 -3.05c0,-0.17 0.14,-0.32 0.32,-0.32zm5.58 33.66c-0.24,0.09 -0.47,0.16 -0.6,0.16l-0.29 0 -0.17 -0.23c-0.08,-0.11 -0.15,-0.22 -0.22,-0.33l-0.05 0.01 -0.23 0.81 -0.46 -0.04c-0.5,-0.04 -1.04,-0.11 -1.53,-0.19l-0.47 -0.07 -0.02 -0.9c-0.02,-0.01 -0.03,-0.01 -0.05,-0.02 -0.13,0.1 -0.26,0.2 -0.4,0.29l-0.28 0.18 -0.3 -0.15c-0.2,-0.11 -0.48,-0.36 -0.66,-0.51 -0.18,-0.15 -0.44,-0.37 -0.59,-0.55l-0.25 -0.3 0.19 -0.34c0.07,-0.12 0.14,-0.24 0.21,-0.37 -0.02,-0.03 -0.04,-0.06 -0.06,-0.09l-0.89 0.09 -0.13 -0.46c-0.13,-0.48 -0.29,-0.95 -0.41,-1.43l-0.11 -0.45 0.78 -0.37 0 -0.05c-0.14,-0.07 -0.28,-0.13 -0.42,-0.21l-0.4 -0.22 0.12 -0.43c0.13,-0.47 0.27,-0.93 0.41,-1.4l0.13 -0.44 0.46 0.03c0.15,0.01 0.3,0.02 0.45,0.04 0.01,-0.02 0.02,-0.04 0.03,-0.05 -0.08,-0.15 -0.16,-0.29 -0.24,-0.43l-0.23 -0.41 0.36 -0.31c0.36,-0.31 0.73,-0.62 1.1,-0.92l0.35 -0.28 0.35 0.27c0.12,0.09 0.24,0.18 0.36,0.27 0.02,-0.01 0.04,-0.02 0.06,-0.03l0.02 -0.92 0.48 -0.07c0.49,-0.07 0.97,-0.14 1.46,-0.21l0.47 -0.07 0.28 0.84 0.08 0.01 0.52 -0.75 0.41 0.15c0.45,0.16 0.89,0.38 1.34,0.56l0.45 0.19 -0.12 0.48c-0.04,0.15 -0.08,0.3 -0.11,0.45 0.03,0.02 0.05,0.05 0.08,0.07 0.15,-0.06 0.31,-0.11 0.47,-0.16l0.43 -0.13 0.23 0.38c0.25,0.41 0.49,0.84 0.72,1.26l0.22 0.4 -0.34 0.3c-0.1,0.08 -0.19,0.17 -0.28,0.26l0.01 0.05c0.16,0.03 0.31,0.06 0.47,0.09l0.46 0.09 0.01 1.13c0.14,-0.1 0.26,-0.17 0.35,-0.22 0.33,-0.18 0.57,-0.17 0.87,0.06 0.18,0.14 0.35,0.3 0.52,0.46 0.15,-0.06 0.3,-0.12 0.45,-0.17 -0.01,-0.23 -0.01,-0.47 0.03,-0.66 0.07,-0.43 0.35,-0.7 0.77,-0.78 0.3,-0.05 0.61,-0.09 0.91,-0.13 0.32,-0.04 0.67,-0.07 1,-0.07 0.49,0.01 0.82,0.26 0.91,0.75 0.03,0.17 0.07,0.34 0.11,0.51l0.57 0.1 0 0.47c0,0.65 0,1.31 0,1.96l-0 0.75 -0.72 -0.21c-0.38,-0.11 -0.77,-0.16 -1.16,-0.16 -2.34,0 -4.23,1.89 -4.23,4.23 0,0.37 0.05,0.75 0.15,1.11l0.19 0.72 -4.42 0 -0.05 -0.51c-0.03,-0.25 0.03,-0.49 0.19,-0.68 0.18,-0.22 0.4,-0.28 0.65,-0.37 0.08,-0.03 0.16,-0.06 0.24,-0.1 -0,-0.17 0,-0.34 0.02,-0.51 -0.2,-0.1 -0.41,-0.19 -0.61,-0.3 -0.28,-0.15 -0.42,-0.4 -0.38,-0.72 0.01,-0.05 0.02,-0.11 0.03,-0.16zm-2.03 -7.96c-1.46,0 -2.65,1.19 -2.65,2.65 0,1.46 1.19,2.65 2.65,2.65 1.46,0 2.65,-1.19 2.65,-2.65 0,-1.46 -1.19,-2.65 -2.65,-2.65z"/>
   <path class="fil1" d="M6.79 29.05c1.78,0 3.22,1.44 3.22,3.22 0,1.78 -1.44,3.22 -3.22,3.22 -1.78,0 -3.22,-1.44 -3.22,-3.22 0,-1.78 1.44,-3.22 3.22,-3.22zm11.57 5.44c0,-0.65 -0,-1.31 -0,-1.96l-0.46 -0.08c-0.11,-0.44 -0.17,-0.72 -0.21,-0.91 -0.04,-0.21 -0.13,-0.28 -0.36,-0.29 -0.43,-0.01 -1.35,0.11 -1.8,0.19 -0.2,0.04 -0.28,0.13 -0.31,0.31 -0.03,0.21 -0,0.53 -0.01,1 -0.43,0.09 -0.81,0.24 -1.12,0.42 -0.06,-0.05 -0.54,-0.51 -0.77,-0.69 -0.11,-0.09 -0.11,-0.09 -0.24,-0.02 -0.4,0.22 -1.52,1.09 -1.64,1.27 -0.05,0.08 -0.05,0.15 -0,0.24 0.14,0.27 0.31,0.61 0.52,0.99 -0.25,0.24 -0.48,0.56 -0.63,0.87 -0.46,-0.06 -0.83,-0.11 -1.2,-0.15 -0.05,-0 -0.08,0.01 -0.09,0.04 -0.17,0.33 -0.59,1.64 -0.66,2.1 -0.01,0.06 0,0.09 0.08,0.13 0.32,0.17 0.63,0.31 0.95,0.46 -0.05,0.38 -0.08,0.82 -0.03,1.23 -0.21,0.07 -0.41,0.17 -0.63,0.26 -0.28,0.11 -0.51,0.14 -0.48,0.47l3.17 0c-0.11,-0.4 -0.17,-0.82 -0.17,-1.26 0,-2.65 2.15,-4.8 4.8,-4.8 0.46,0 0.9,0.06 1.32,0.18zm-7.33 -1.32c0.21,-0.06 0.59,-0.13 0.86,-0.2l-0.01 -1.44c-0.26,-0.05 -0.59,-0.11 -0.83,-0.15l-0.18 -0.75c0.22,-0.19 0.33,-0.3 0.54,-0.48 -0.19,-0.35 -0.53,-0.94 -0.71,-1.24 -0.34,0.1 -0.5,0.16 -0.74,0.27 -0.12,-0.1 -0.28,-0.23 -0.6,-0.53 0.06,-0.28 0.1,-0.43 0.19,-0.79 -0.36,-0.15 -0.99,-0.44 -1.31,-0.56l-0.46 0.66 -0.79 -0.06 -0.25 -0.75c-0.49,0.07 -0.97,0.14 -1.46,0.21l-0.01 0.77c-0.24,0.13 -0.49,0.25 -0.68,0.33 -0.25,-0.18 -0.45,-0.33 -0.64,-0.47 -0.3,0.24 -0.89,0.74 -1.09,0.9 0.14,0.24 0.25,0.46 0.4,0.72 -0.12,0.22 -0.23,0.39 -0.37,0.63 -0.29,-0.01 -0.53,-0.04 -0.81,-0.06 -0.11,0.36 -0.29,0.94 -0.41,1.39 0.21,0.12 0.46,0.22 0.72,0.34l0 0.77 -0.68 0.32c0.11,0.43 0.34,1.18 0.4,1.41l0.77 -0.08c0.12,0.18 0.32,0.53 0.41,0.69 -0.1,0.19 -0.2,0.36 -0.36,0.64 0.09,0.11 0.89,0.82 1.07,0.91 0.2,-0.13 0.47,-0.35 0.64,-0.47 0.21,0.09 0.47,0.21 0.68,0.3l0.01 0.78c0.3,0.05 1.18,0.16 1.49,0.19l0.2 -0.71 0.78 -0.13c0.15,0.27 0.26,0.44 0.39,0.62 0.22,-0 1.16,-0.44 1.34,-0.58 -0.09,-0.42 -0.11,-0.5 -0.16,-0.81 0.16,-0.15 0.37,-0.33 0.53,-0.46 0.29,0.1 0.46,0.15 0.81,0.26 0.18,-0.3 0.6,-1.04 0.72,-1.23 -0.22,-0.2 -0.36,-0.33 -0.56,-0.54 0.04,-0.23 0.08,-0.41 0.14,-0.65z"/>
  </g>
 </g>
</svg>
