<?xml version="1.0" encoding="UTF-8"?>
<!DOCTYPE svg PUBLIC "-//W3C//DTD SVG 1.1//EN" "http://www.w3.org/Graphics/SVG/1.1/DTD/svg11.dtd">
<!-- Creator: CorelDRAW 2019 (64-Bit) -->
<svg xmlns="http://www.w3.org/2000/svg" xml:space="preserve" width="3.4257mm" height="5.391mm" version="1.1" style="shape-rendering:geometricPrecision; text-rendering:geometricPrecision; image-rendering:optimizeQuality; fill-rule:evenodd; clip-rule:evenodd"
viewBox="0 0 4.78 7.52"
 xmlns:xlink="http://www.w3.org/1999/xlink"
 xmlns:xodm="http://www.corel.com/coreldraw/odm/2003">
 <defs>
  <style type="text/css">
   <![CDATA[
    .fil0 {fill:black}
    .fil1 {fill:red}
   ]]>
  </style>
 </defs>
 <g id="Слой_x0020_1">
  <metadata id="CorelCorpID_0Corel-Layer"/>
  <g id="_1989162167504">
   <path class="fil0" d="M2.39 7.52c-1.81,0 -2.39,-0.69 -2.39,-3.76 0,-2.96 0.57,-3.71 2.2,-3.76l0.01 1c-0.25,0.05 -0.34,0.26 -0.34,0.81 0,0.57 0.09,0.77 0.36,0.82l0.01 0.91 0.34 0 0.03 -0.92c0.23,-0.06 0.31,-0.27 0.31,-0.81 0,-0.5 -0.07,-0.71 -0.26,-0.79l0.03 -1.02c1.55,0.08 2.1,0.84 2.1,3.75 -0,3.09 -0.58,3.76 -2.39,3.76zm-0.06 -3.04c-0.46,0.03 -0.79,0.15 -1.13,0.41 -0.04,0.03 -0.18,0.14 -0.19,0.19 -0.05,0.13 0.12,0.27 0.25,0.14 0.1,-0.1 0.24,-0.2 0.37,-0.27 0.5,-0.28 1.14,-0.24 1.63,0.05 0.11,0.07 0.21,0.14 0.29,0.22 0.02,0.02 0.04,0.04 0.08,0.04 0.11,0.02 0.2,-0.11 0.15,-0.2 -0.03,-0.06 -0.2,-0.19 -0.27,-0.24 -0.1,-0.07 -0.21,-0.13 -0.33,-0.18 -0.23,-0.1 -0.57,-0.18 -0.85,-0.16zm0.02 1.56c-0.15,0.02 -0.28,0.16 -0.26,0.35 0.02,0.16 0.17,0.29 0.36,0.26 0.15,-0.02 0.28,-0.17 0.25,-0.35 -0.02,-0.15 -0.17,-0.29 -0.35,-0.26zm-0.63 -0.14c0,0.1 0.11,0.19 0.22,0.13 0.06,-0.03 0.17,-0.2 0.47,-0.2 0.15,0 0.29,0.07 0.37,0.14 0.04,0.04 0.08,0.1 0.17,0.08 0.06,-0.01 0.11,-0.07 0.11,-0.15 0,-0.07 -0.07,-0.12 -0.1,-0.15 -0.3,-0.24 -0.66,-0.28 -0.99,-0.1 -0.05,0.03 -0.11,0.07 -0.15,0.1 -0.04,0.03 -0.1,0.07 -0.1,0.15zm0.55 -0.89c-0.29,0.03 -0.49,0.12 -0.71,0.26 -0.05,0.03 -0.18,0.14 -0.2,0.19 -0.04,0.11 0.06,0.22 0.17,0.2 0.06,-0.01 0.08,-0.05 0.11,-0.08 0.04,-0.03 0.07,-0.06 0.11,-0.08 0.23,-0.14 0.46,-0.22 0.76,-0.19 0.22,0.02 0.41,0.11 0.55,0.22 0.11,0.08 0.14,0.16 0.25,0.14 0.1,-0.02 0.16,-0.15 0.08,-0.24 -0.11,-0.12 -0.3,-0.24 -0.46,-0.31 -0.2,-0.08 -0.43,-0.12 -0.66,-0.1z"/>
   <rect class="fil1" x="2.09" y="1.22" width="0.6" height="1.21" rx="0.3" ry="0.3"/>
  </g>
 </g>
</svg>
