<?xml version="1.0" encoding="UTF-8"?>
<!DOCTYPE svg PUBLIC "-//W3C//DTD SVG 1.1//EN" "http://www.w3.org/Graphics/SVG/1.1/DTD/svg11.dtd">
<!-- Creator: CorelDRAW 2019 (64-Bit) -->
<svg xmlns="http://www.w3.org/2000/svg" xml:space="preserve" width="3.7594mm" height="5.391mm" version="1.1" style="shape-rendering:geometricPrecision; text-rendering:geometricPrecision; image-rendering:optimizeQuality; fill-rule:evenodd; clip-rule:evenodd"
viewBox="0 0 5.21 7.47"
 xmlns:xlink="http://www.w3.org/1999/xlink"
 xmlns:xodm="http://www.corel.com/coreldraw/odm/2003">
 <defs>
  <style type="text/css">
   <![CDATA[
    .fil0 {fill:black}
    .fil2 {fill:black}
    .fil1 {fill:red}
   ]]>
  </style>
 </defs>
 <g id="Слой_x0020_1">
  <metadata id="CorelCorpID_0Corel-Layer"/>
  <g id="_1989262786032">
   <path class="fil0" d="M1.93 7.47c-1.46,0 -1.93,-0.56 -1.93,-3.04 0,-2.39 0.46,-2.99 1.78,-3.03l0.01 0.81c-0.2,0.04 -0.27,0.21 -0.27,0.66 0,0.46 0.07,0.62 0.29,0.66l0.01 0.74 0.27 0 0.02 -0.74c0.18,-0.05 0.25,-0.22 0.25,-0.65 0,-0.4 -0.06,-0.57 -0.21,-0.64l0.03 -0.82c1.25,0.06 1.69,0.68 1.69,3.03 -0,2.49 -0.47,3.04 -1.93,3.04z"/>
   <rect class="fil1" x="1.69" y="2.38" width="0.48" height="0.98" rx="0.24" ry="0.24"/>
   <path class="fil2" d="M5 4.58l0 -3.73c-0.01,-0.31 -0.12,-0.57 -0.34,-0.7 -0.35,-0.21 -1.93,-0.16 -2.19,-0.07 -0.33,0.11 -0.54,0.31 -0.55,0.64l-0.02 0.63 0.19 0 0 -0.53c0.02,-0.32 0.11,-0.42 0.34,-0.52 0.32,-0.15 1.85,-0.1 2.06,-0 0.2,0.1 0.28,0.28 0.31,0.48l0 3.81 0.21 0z"/>
   <path class="fil2" d="M5.16 5.6l-0.53 0c-0.03,0 -0.05,-0.02 -0.05,-0.05l0 -0.68c0,-0.12 0.1,-0.22 0.22,-0.22l0.2 0c0.12,0 0.22,0.1 0.22,0.22l0 0.68c0,0.03 -0.02,0.05 -0.05,0.05z"/>
   <rect class="fil2" x="4.71" y="5.68" width="0.37" height="0.37" rx="0.04" ry="0.03"/>
  </g>
 </g>
</svg>
