<?xml version="1.0" encoding="UTF-8"?>
<!DOCTYPE svg PUBLIC "-//W3C//DTD SVG 1.1//EN" "http://www.w3.org/Graphics/SVG/1.1/DTD/svg11.dtd">
<!-- Creator: CorelDRAW 2019 (64-Bit) -->
<svg xmlns="http://www.w3.org/2000/svg" xml:space="preserve" width="5.391mm" height="3.0156mm" version="1.1" style="shape-rendering:geometricPrecision; text-rendering:geometricPrecision; image-rendering:optimizeQuality; fill-rule:evenodd; clip-rule:evenodd"
viewBox="0 0 14.18 7.93"
 xmlns:xlink="http://www.w3.org/1999/xlink"
 xmlns:xodm="http://www.corel.com/coreldraw/odm/2003">
 <defs>
  <style type="text/css">
   <![CDATA[
    .fil0 {fill:black}
    .fil1 {fill:red}
   ]]>
  </style>
 </defs>
 <g id="Слой_x0020_1">
  <metadata id="CorelCorpID_0Corel-Layer"/>
  <g id="_1989269090000">
   <path class="fil0" d="M0.98 0l12.22 0c0.54,0 0.98,0.44 0.98,0.98l0 5.97c0,0.54 -0.44,0.98 -0.98,0.98l-12.22 0c-0.54,0 -0.98,-0.44 -0.98,-0.98l0 -5.97c0,-0.54 0.44,-0.98 0.98,-0.98zm11 1.09l1.15 0c0.04,0 0.08,0.03 0.08,0.08l0 0.89c0,0.04 -0.03,0.08 -0.08,0.08l-1.15 0c-0.04,0 -0.08,-0.03 -0.08,-0.08l0 -0.89c0,-0.04 0.03,-0.08 0.08,-0.08zm-1.82 0l1.15 0c0.04,0 0.08,0.03 0.08,0.08l0 0.89c0,0.04 -0.03,0.08 -0.08,0.08l-1.15 0c-0.04,0 -0.08,-0.03 -0.08,-0.08l0 -0.89c0,-0.04 0.03,-0.08 0.08,-0.08zm-1.82 0l1.15 0c0.04,0 0.08,0.03 0.08,0.08l0 0.89c0,0.04 -0.03,0.08 -0.08,0.08l-1.15 0c-0.04,0 -0.08,-0.03 -0.08,-0.08l0 -0.89c0,-0.04 0.03,-0.08 0.08,-0.08zm-1.82 0l1.15 0c0.04,0 0.08,0.03 0.08,0.08l0 0.89c0,0.04 -0.03,0.08 -0.08,0.08l-1.15 0c-0.04,0 -0.08,-0.03 -0.08,-0.08l0 -0.89c0,-0.04 0.03,-0.08 0.08,-0.08zm-1.82 0l1.15 0c0.04,0 0.08,0.03 0.08,0.08l0 0.89c0,0.04 -0.03,0.08 -0.08,0.08l-1.15 0c-0.04,0 -0.08,-0.03 -0.08,-0.08l0 -0.89c0,-0.04 0.03,-0.08 0.08,-0.08zm-1.82 0l1.15 0c0.04,0 0.08,0.03 0.08,0.08l0 0.89c0,0.04 -0.03,0.08 -0.08,0.08l-1.15 0c-0.04,0 -0.08,-0.03 -0.08,-0.08l0 -0.89c0,-0.04 0.03,-0.08 0.08,-0.08zm-1.82 0l1.15 0c0.04,0 0.08,0.03 0.08,0.08l0 0.89c0,0.04 -0.03,0.08 -0.08,0.08l-1.15 0c-0.04,0 -0.08,-0.03 -0.08,-0.08l0 -0.89c0,-0.04 0.03,-0.08 0.08,-0.08zm10.94 1.59l1.15 0c0.04,0 0.08,0.03 0.08,0.08l0 0.89c0,0.04 -0.03,0.08 -0.08,0.08l-1.15 0c-0.04,0 -0.08,-0.03 -0.08,-0.08l0 -0.89c0,-0.04 0.03,-0.08 0.08,-0.08zm-1.82 0l1.15 0c0.04,0 0.08,0.03 0.08,0.08l0 0.89c0,0.04 -0.03,0.08 -0.08,0.08l-1.15 0c-0.04,0 -0.08,-0.03 -0.08,-0.08l0 -0.89c0,-0.04 0.03,-0.08 0.08,-0.08zm-1.82 0l1.15 0c0.04,0 0.08,0.03 0.08,0.08l0 0.89c0,0.04 -0.03,0.08 -0.08,0.08l-1.15 0c-0.04,0 -0.08,-0.03 -0.08,-0.08l0 -0.89c0,-0.04 0.03,-0.08 0.08,-0.08zm-1.82 0l1.15 0c0.04,0 0.08,0.03 0.08,0.08l0 0.89c0,0.04 -0.03,0.08 -0.08,0.08l-1.15 0c-0.04,0 -0.08,-0.03 -0.08,-0.08l0 -0.89c0,-0.04 0.03,-0.08 0.08,-0.08zm-1.82 0l1.15 0c0.04,0 0.08,0.03 0.08,0.08l0 0.89c0,0.04 -0.03,0.08 -0.08,0.08l-1.15 0c-0.04,0 -0.08,-0.03 -0.08,-0.08l0 -0.89c0,-0.04 0.03,-0.08 0.08,-0.08zm-1.82 0l1.15 0c0.04,0 0.08,0.03 0.08,0.08l0 0.89c0,0.04 -0.03,0.08 -0.08,0.08l-1.15 0c-0.04,0 -0.08,-0.03 -0.08,-0.08l0 -0.89c0,-0.04 0.03,-0.08 0.08,-0.08zm-1.82 0l1.15 0c0.04,0 0.08,0.03 0.08,0.08l0 0.89c0,0.04 -0.03,0.08 -0.08,0.08l-1.15 0c-0.04,0 -0.08,-0.03 -0.08,-0.08l0 -0.89c0,-0.04 0.03,-0.08 0.08,-0.08zm10.94 1.55l1.15 0c0.04,0 0.08,0.03 0.08,0.08l0 0.89c0,0.04 -0.03,0.08 -0.08,0.08l-1.15 0c-0.04,0 -0.08,-0.03 -0.08,-0.08l0 -0.89c0,-0.04 0.03,-0.08 0.08,-0.08zm-1.82 0l1.15 0c0.04,0 0.08,0.03 0.08,0.08l0 0.89c0,0.04 -0.03,0.08 -0.08,0.08l-1.15 0c-0.04,0 -0.08,-0.03 -0.08,-0.08l0 -0.89c0,-0.04 0.03,-0.08 0.08,-0.08zm-1.82 0l1.15 0c0.04,0 0.08,0.03 0.08,0.08l0 0.89c0,0.04 -0.03,0.08 -0.08,0.08l-1.15 0c-0.04,0 -0.08,-0.03 -0.08,-0.08l0 -0.89c0,-0.04 0.03,-0.08 0.08,-0.08zm-1.82 0l1.15 0c0.04,0 0.08,0.03 0.08,0.08l0 0.89c0,0.04 -0.03,0.08 -0.08,0.08l-1.15 0c-0.04,0 -0.08,-0.03 -0.08,-0.08l0 -0.89c0,-0.04 0.03,-0.08 0.08,-0.08zm-1.82 0l1.15 0c0.04,0 0.08,0.03 0.08,0.08l0 0.89c0,0.04 -0.03,0.08 -0.08,0.08l-1.15 0c-0.04,0 -0.08,-0.03 -0.08,-0.08l0 -0.89c0,-0.04 0.03,-0.08 0.08,-0.08zm-1.82 0l1.15 0c0.04,0 0.08,0.03 0.08,0.08l0 0.89c0,0.04 -0.03,0.08 -0.08,0.08l-1.15 0c-0.04,0 -0.08,-0.03 -0.08,-0.08l0 -0.89c0,-0.04 0.03,-0.08 0.08,-0.08zm-1.82 0l1.15 0c0.04,0 0.08,0.03 0.08,0.08l0 0.89c0,0.04 -0.03,0.08 -0.08,0.08l-1.15 0c-0.04,0 -0.08,-0.03 -0.08,-0.08l0 -0.89c0,-0.04 0.03,-0.08 0.08,-0.08zm10.94 1.65l1.15 0c0.04,0 0.08,0.03 0.08,0.08l0 0.89c0,0.04 -0.03,0.08 -0.08,0.08l-1.15 0c-0.04,0 -0.08,-0.03 -0.08,-0.08l0 -0.89c0,-0.04 0.03,-0.08 0.08,-0.08zm-1.82 0l1.15 0c0.04,0 0.08,0.03 0.08,0.08l0 0.89c0,0.04 -0.03,0.08 -0.08,0.08l-1.15 0c-0.04,0 -0.08,-0.03 -0.08,-0.08l0 -0.89c0,-0.04 0.03,-0.08 0.08,-0.08zm-1.82 0l1.15 0c0.04,0 0.08,0.03 0.08,0.08l0 0.89c0,0.04 -0.03,0.08 -0.08,0.08l-1.15 0c-0.04,0 -0.08,-0.03 -0.08,-0.08l0 -0.89c0,-0.04 0.03,-0.08 0.08,-0.08zm-5.47 0l4.72 0c0.04,0 0.08,0.03 0.08,0.08l0 0.89c0,0.04 -0.03,0.08 -0.08,0.08l-4.72 0c-0.04,0 -0.08,-0.03 -0.08,-0.08l0 -0.89c0,-0.04 0.03,-0.08 0.08,-0.08zm-1.82 0l1.15 0c0.04,0 0.08,0.03 0.08,0.08l0 0.89c0,0.04 -0.03,0.08 -0.08,0.08l-1.15 0c-0.04,0 -0.08,-0.03 -0.08,-0.08l0 -0.89c0,-0.04 0.03,-0.08 0.08,-0.08z"/>
   <rect class="fil0" x="1.2" y="1.32" width="0.84" height="0.58"/>
   <rect class="fil1" x="3.02" y="6.11" width="4.41" height="0.58"/>
   <rect class="fil0" x="3.02" y="1.32" width="0.84" height="0.58"/>
   <rect class="fil0" x="4.84" y="1.32" width="0.84" height="0.58"/>
   <rect class="fil0" x="6.67" y="1.32" width="0.84" height="0.58"/>
   <rect class="fil0" x="8.49" y="1.32" width="0.84" height="0.58"/>
   <rect class="fil0" x="10.31" y="1.32" width="0.84" height="0.58"/>
   <rect class="fil0" x="12.13" y="1.32" width="0.84" height="0.58"/>
   <rect class="fil0" x="1.2" y="2.91" width="0.84" height="0.58"/>
   <rect class="fil0" x="3.02" y="2.91" width="0.84" height="0.58"/>
   <rect class="fil0" x="4.84" y="2.91" width="0.84" height="0.58"/>
   <rect class="fil0" x="6.67" y="2.91" width="0.84" height="0.58"/>
   <rect class="fil0" x="8.49" y="2.91" width="0.84" height="0.58"/>
   <rect class="fil0" x="10.31" y="2.91" width="0.84" height="0.58"/>
   <rect class="fil0" x="12.13" y="2.91" width="0.84" height="0.58"/>
   <rect class="fil0" x="1.2" y="4.45" width="0.84" height="0.58"/>
   <rect class="fil0" x="3.02" y="4.45" width="0.84" height="0.58"/>
   <rect class="fil0" x="4.84" y="4.45" width="0.84" height="0.58"/>
   <rect class="fil0" x="6.67" y="4.45" width="0.84" height="0.58"/>
   <rect class="fil0" x="8.49" y="4.45" width="0.84" height="0.58"/>
   <rect class="fil0" x="10.31" y="4.45" width="0.84" height="0.58"/>
   <rect class="fil0" x="12.13" y="4.45" width="0.84" height="0.58"/>
   <rect class="fil1" x="1.2" y="6.11" width="0.84" height="0.58"/>
   <rect class="fil1" x="8.49" y="6.11" width="0.84" height="0.58"/>
   <rect class="fil1" x="10.31" y="6.11" width="0.84" height="0.58"/>
   <rect class="fil1" x="12.13" y="6.11" width="0.84" height="0.58"/>
  </g>
 </g>
</svg>
