<?xml version="1.0" encoding="UTF-8"?>
<!DOCTYPE svg PUBLIC "-//W3C//DTD SVG 1.1//EN" "http://www.w3.org/Graphics/SVG/1.1/DTD/svg11.dtd">
<!-- Creator: CorelDRAW 2019 (64-Bit) -->
<svg xmlns="http://www.w3.org/2000/svg" xml:space="preserve" width="5.3909mm" height="5.3909mm" version="1.1" style="shape-rendering:geometricPrecision; text-rendering:geometricPrecision; image-rendering:optimizeQuality; fill-rule:evenodd; clip-rule:evenodd"
viewBox="0 0 15.13 15.13"
 xmlns:xlink="http://www.w3.org/1999/xlink"
 xmlns:xodm="http://www.corel.com/coreldraw/odm/2003">
 <defs>
  <style type="text/css">
   <![CDATA[
    .fil0 {fill:black}
    .fil1 {fill:red}
   ]]>
  </style>
 </defs>
 <g id="Слой_x0020_1">
  <metadata id="CorelCorpID_0Corel-Layer"/>
  <g id="_1989267151424">
   <path class="fil0" d="M1.61 0l11.91 0c0.88,0 1.61,0.72 1.61,1.61l0 11.91c0,0.88 -0.72,1.61 -1.61,1.61l-8.32 0 -5.2 -5.2 0 -8.32c0,-0.88 0.72,-1.61 1.61,-1.61zm10.66 13.6c-1.31,0 -1.72,-0.5 -1.72,-2.71 0,-2.13 0.41,-2.67 1.59,-2.71l0.01 0.72c-0.18,0.04 -0.25,0.18 -0.25,0.59 0,0.41 0.06,0.56 0.26,0.59l0.01 0.66 0.24 0 0.02 -0.66c0.17,-0.04 0.22,-0.19 0.22,-0.58 0,-0.36 -0.05,-0.51 -0.19,-0.57l0.02 -0.74c1.12,0.06 1.51,0.61 1.51,2.71 0,2.23 -0.42,2.71 -1.72,2.71zm0 -4.55l0 0c0.12,0 0.22,0.1 0.22,0.22l0 0.44c0,0.12 -0.1,0.22 -0.22,0.22l-0 0c-0.12,0 -0.22,-0.1 -0.22,-0.22l0 -0.44c0,-0.12 0.1,-0.22 0.22,-0.22z"/>
   <path class="fil1" d="M4.41 15.13l-2.8 0c-0.88,0 -1.61,-0.72 -1.61,-1.61l0 -2.8 4.41 4.41z"/>
  </g>
 </g>
</svg>
