<?xml version="1.0" encoding="UTF-8"?>
<!DOCTYPE svg PUBLIC "-//W3C//DTD SVG 1.1//EN" "http://www.w3.org/Graphics/SVG/1.1/DTD/svg11.dtd">
<!-- Creator: CorelDRAW 2019 (64-Bit) -->
<svg xmlns="http://www.w3.org/2000/svg" xml:space="preserve" width="5.7124mm" height="5.3752mm" version="1.1" style="shape-rendering:geometricPrecision; text-rendering:geometricPrecision; image-rendering:optimizeQuality; fill-rule:evenodd; clip-rule:evenodd"
viewBox="0 0 12.25 11.53"
 xmlns:xlink="http://www.w3.org/1999/xlink"
 xmlns:xodm="http://www.corel.com/coreldraw/odm/2003">
 <defs>
  <style type="text/css">
   <![CDATA[
    .fil1 {fill:black}
    .fil0 {fill:red}
   ]]>
  </style>
 </defs>
 <g id="Слой_x0020_1">
  <metadata id="CorelCorpID_0Corel-Layer"/>
  <g id="_1989451803024">
   <path class="fil0" d="M5.51 11.53l-1.69 0c-0.01,-0 -0.01,0 -0.02,-0.02l-0.1 -0.78c-0.01,-0.05 -0.01,-0.04 0.04,-0.04l1.88 -0c0.02,0 0.01,-0 0.01,0.01l-0.12 0.81c-0,0.01 -0,0.01 -0.01,0.01z"/>
   <path class="fil1" d="M5.64 2.93l0 7.37c0,0.03 0.01,0.02 -0.02,0.02l-1.87 0c-0.06,0 -0.05,0.01 -0.05,-0.05l0 -4.58c0,-0.02 -0,-0.02 -0.01,-0.03l-0.82 -1.62c-0.02,-0.05 -0.01,-0.04 -0.06,-0.02l-0.22 0.1c-0.09,0.04 -0.08,0.02 -0.06,0.11l0.3 1.2c0.01,0.05 0.02,0.04 -0.04,0.04 -0.98,-0.02 -1.96,-0.46 -2.48,-1.27 -0.45,-0.89 -0.35,-1.94 -0.09,-2.6 1.16,-2.35 5.44,-2.21 5.43,1.12 -0,0.07 -0,0.14 -0.01,0.21z"/>
   <path class="fil0" d="M6.74 11.53l1.69 0c0.01,-0 0.01,0 0.02,-0.02l0.1 -0.78c0.01,-0.05 0.01,-0.04 -0.04,-0.04l-1.88 -0c-0.02,0 -0.01,-0 -0.01,0.01l0.12 0.81c0,0.01 0,0.01 0.01,0.01z"/>
   <path class="fil1" d="M6.61 2.93l0 7.37c0,0.03 -0.01,0.02 0.02,0.02l1.87 0c0.06,0 0.05,0.01 0.05,-0.05l0 -4.58c0,-0.02 0,-0.02 0.01,-0.03l0.82 -1.62c0.02,-0.05 0.01,-0.04 0.06,-0.02l0.22 0.1c0.09,0.04 0.08,0.02 0.06,0.11l-0.3 1.2c-0.01,0.05 -0.02,0.04 0.04,0.04 0.98,-0.02 1.96,-0.46 2.48,-1.27 0.45,-0.89 0.35,-1.94 0.09,-2.6 -1.16,-2.35 -5.44,-2.21 -5.43,1.12 0,0.07 0,0.14 0.01,0.21z"/>
  </g>
 </g>
</svg>
