<?xml version="1.0" encoding="UTF-8"?>
<!DOCTYPE svg PUBLIC "-//W3C//DTD SVG 1.1//EN" "http://www.w3.org/Graphics/SVG/1.1/DTD/svg11.dtd">
<!-- Creator: CorelDRAW 2019 (64-Bit) -->
<svg xmlns="http://www.w3.org/2000/svg" xml:space="preserve" width="3.1753mm" height="5.3753mm" version="1.1" style="shape-rendering:geometricPrecision; text-rendering:geometricPrecision; image-rendering:optimizeQuality; fill-rule:evenodd; clip-rule:evenodd"
viewBox="0 0 4.61 7.8"
 xmlns:xlink="http://www.w3.org/1999/xlink"
 xmlns:xodm="http://www.corel.com/coreldraw/odm/2003">
 <defs>
  <style type="text/css">
   <![CDATA[
    .fil0 {fill:black}
    .fil1 {fill:red}
   ]]>
  </style>
 </defs>
 <g id="Слой_x0020_1">
  <metadata id="CorelCorpID_0Corel-Layer"/>
  <g id="_1989452995472">
   <path class="fil0" d="M0.33 0l3.95 0c0.18,0 0.33,0.15 0.33,0.33l0 7.14c0,0.18 -0.15,0.33 -0.33,0.33l-3.95 0c-0.18,0 -0.33,-0.15 -0.33,-0.33l0 -7.14c0,-0.18 0.15,-0.33 0.33,-0.33zm1.98 1.3c-0.35,0 -0.63,0.28 -0.63,0.63 0,0.35 0.28,0.63 0.63,0.63 0.35,0 0.63,-0.28 0.63,-0.63 0,-0.35 -0.28,-0.63 -0.63,-0.63zm0 -0.3c-0.52,0 -0.94,0.42 -0.94,0.94 0,0.52 0.42,0.94 0.94,0.94 0.52,0 0.94,-0.42 0.94,-0.94 0,-0.52 -0.42,-0.94 -0.94,-0.94zm0 -0.31c-0.69,0 -1.25,0.56 -1.25,1.25 0,0.69 0.56,1.25 1.25,1.25 0.69,0 1.25,-0.56 1.25,-1.25 0,-0.69 -0.56,-1.25 -1.25,-1.25zm0 3.85c-0.46,0 -0.83,0.37 -0.83,0.83 0,0.46 0.37,0.83 0.83,0.83 0.46,0 0.83,-0.37 0.83,-0.83 0,-0.46 -0.37,-0.83 -0.83,-0.83zm0 -0.4c-0.68,0 -1.23,0.55 -1.23,1.23 0,0.68 0.55,1.23 1.23,1.23 0.68,0 1.23,-0.55 1.23,-1.23 0,-0.68 -0.55,-1.23 -1.23,-1.23zm0 -0.41c-0.91,0 -1.64,0.73 -1.64,1.64 0,0.91 0.73,1.64 1.64,1.64 0.91,0 1.64,-0.73 1.64,-1.64 0,-0.91 -0.73,-1.64 -1.64,-1.64zm-1.86 -3.5c0.12,0 0.22,0.1 0.22,0.22 0,0.12 -0.1,0.22 -0.22,0.22 -0.12,0 -0.22,-0.1 -0.22,-0.22 0,-0.12 0.1,-0.22 0.22,-0.22zm3.68 0c0.12,0 0.22,0.1 0.22,0.22 0,0.12 -0.1,0.22 -0.22,0.22 -0.12,0 -0.22,-0.1 -0.22,-0.22 0,-0.12 0.1,-0.22 0.22,-0.22zm-3.68 6.91c0.12,0 0.22,0.1 0.22,0.22 0,0.12 -0.1,0.22 -0.22,0.22 -0.12,0 -0.22,-0.1 -0.22,-0.22 0,-0.12 0.1,-0.22 0.22,-0.22zm3.68 0c0.12,0 0.22,0.1 0.22,0.22 0,0.12 -0.1,0.22 -0.22,0.22 -0.12,0 -0.22,-0.1 -0.22,-0.22 0,-0.12 0.1,-0.22 0.22,-0.22z"/>
   <path class="fil1" d="M2.62 1.94c0,-0.18 -0.14,-0.32 -0.32,-0.32 -0.18,0 -0.32,0.14 -0.32,0.32 0,0.18 0.14,0.32 0.32,0.32 0.18,0 0.32,-0.14 0.32,-0.32z"/>
   <path class="fil1" d="M2.73 5.37c0,-0.23 -0.19,-0.42 -0.42,-0.42 -0.23,0 -0.42,0.19 -0.42,0.42 0,0.23 0.19,0.42 0.42,0.42 0.23,0 0.42,-0.19 0.42,-0.42z"/>
  </g>
 </g>
</svg>
