<?xml version="1.0" encoding="UTF-8"?>
<!DOCTYPE svg PUBLIC "-//W3C//DTD SVG 1.1//EN" "http://www.w3.org/Graphics/SVG/1.1/DTD/svg11.dtd">
<!-- Creator: CorelDRAW 2020 (64-Bit) -->
<svg xmlns="http://www.w3.org/2000/svg" xml:space="preserve" width="3.0388mm" height="5.3751mm" version="1.1" style="shape-rendering:geometricPrecision; text-rendering:geometricPrecision; image-rendering:optimizeQuality; fill-rule:evenodd; clip-rule:evenodd"
viewBox="0 0 24.25 42.89"
 xmlns:xlink="http://www.w3.org/1999/xlink"
 xmlns:xodm="http://www.corel.com/coreldraw/odm/2003">
 <defs>
  <style type="text/css">
   <![CDATA[
    .fil0 {fill:black}
    .fil1 {fill:red}
   ]]>
  </style>
 </defs>
 <g id="Слой_x0020_1">
  <metadata id="CorelCorpID_0Corel-Layer"/>
  <path class="fil0" d="M24.25 2.04l0 38.81c0,1.12 -1.28,2.04 -2.83,2.04l-18.58 0c-1.56,0 -2.83,-0.92 -2.83,-2.04l0 -38.81c0,-1.12 1.28,-2.04 2.83,-2.04l18.58 0c1.56,0 2.83,0.92 2.83,2.04zm-3.78 9.73c0,4.61 -3.74,8.34 -8.34,8.34 -4.61,0 -8.34,-3.73 -8.34,-8.34 0,-4.61 3.73,-8.34 8.34,-8.34 4.61,0 8.34,3.73 8.34,8.34zm-7.69 22.94l0 -2.72c0.08,0.02 0.63,0.61 0.7,0.68 0.1,0.1 0.63,0.62 0.68,0.68 -0.05,0.07 -0.58,0.59 -0.68,0.69l-0.51 0.51c-0.05,0.06 -0.1,0.13 -0.18,0.16zm0 -5.6l0 -2.72c0.07,0.02 0.14,0.11 0.19,0.16 0.17,0.17 1.14,1.12 1.19,1.19 -0.05,0.07 -0.58,0.59 -0.68,0.69 -0.07,0.07 -0.61,0.65 -0.69,0.67zm-1.17 -5.58l-0 5.59 -2.35 -2.34 -0.83 0.84 2.93 2.94 -2.94 2.93 0.85 0.84 2.34 -2.34 0 5.59 4.22 -4.23 -2.8 -2.81 2.81 -2.8 -4.23 -4.22z"/>
  <path class="fil1" d="M17.52 11.76c0,2.98 -2.42,5.39 -5.39,5.39 -2.98,0 -5.39,-2.42 -5.39,-5.39 0,-2.98 2.41,-5.39 5.39,-5.39 2.98,0 5.39,2.42 5.39,5.39z"/>
 </g>
</svg>
