<?xml version="1.0" encoding="UTF-8"?>
<!DOCTYPE svg PUBLIC "-//W3C//DTD SVG 1.1//EN" "http://www.w3.org/Graphics/SVG/1.1/DTD/svg11.dtd">
<!-- Creator: CorelDRAW 2019 (64-Bit) -->
<svg xmlns="http://www.w3.org/2000/svg" xml:space="preserve" width="7.0687mm" height="5.3909mm" version="1.1" style="shape-rendering:geometricPrecision; text-rendering:geometricPrecision; image-rendering:optimizeQuality; fill-rule:evenodd; clip-rule:evenodd"
viewBox="0 0 14.99 11.43"
 xmlns:xlink="http://www.w3.org/1999/xlink"
 xmlns:xodm="http://www.corel.com/coreldraw/odm/2003">
 <defs>
  <style type="text/css">
   <![CDATA[
    .fil0 {fill:black}
    .fil1 {fill:red}
   ]]>
  </style>
 </defs>
 <g id="Слой_x0020_1">
  <metadata id="CorelCorpID_0Corel-Layer"/>
  <g id="_1933392120656">
   <path class="fil0" d="M14.27 9.32c0.54,-0.05 0.72,-0.42 0.72,-0.67l0 -7.98c-0.02,-0.43 -0.31,-0.66 -0.97,-0.67l-0.03 0 -12.99 0 -0.03 0c-0.65,0.01 -0.95,0.23 -0.97,0.67l0 7.98c-0,0.25 0.18,0.62 0.72,0.67 4.51,0.01 9.03,0.01 13.54,0zm-0.13 -8.49l0.01 6.81 -13.3 0 0.01 -6.81 13.28 0zm-6.64 7.02c0.35,0 0.64,0.29 0.64,0.64 0,0.35 -0.29,0.64 -0.64,0.64 -0.35,0 -0.64,-0.29 -0.64,-0.64 0,-0.35 0.29,-0.64 0.64,-0.64z"/>
   <path class="fil0" d="M6.23 10.6c-0.27,0.03 -0.43,0.1 -0.59,0.24 -0.12,0.11 -0.27,0.37 -0.25,0.59l4.22 0c-0.02,-0.35 -0.21,-0.63 -0.51,-0.75 -0.43,-0.19 -0.34,0.23 -0.34,-0.92l-2.52 -0.01 -0.01 0.85z"/>
   <path class="fil1" d="M7.48 8.03c-0.05,0.01 -0.06,0.05 -0.06,0.1 0,0.05 -0,0.29 0,0.32 0.01,0.03 0.05,0.07 0.09,0.06 0.05,-0.01 0.06,-0.05 0.06,-0.1 0,-0.05 0,-0.29 -0,-0.32 -0.01,-0.03 -0.05,-0.08 -0.09,-0.06zm0.18 0.11c-0,0.04 -0,0.14 -0,0.18 0,0.02 0.05,0.04 0.07,0.12 0.04,0.16 -0.07,0.31 -0.23,0.31 -0.11,0 -0.19,-0.07 -0.22,-0.15 -0.03,-0.07 -0.02,-0.16 0.02,-0.22 0.01,-0.01 0.01,-0.02 0.02,-0.03 0.01,-0.01 0.02,-0.02 0.02,-0.03 0,-0.05 0,-0.13 -0,-0.18 -0.03,0.01 -0.1,0.06 -0.13,0.09 -0.13,0.14 -0.15,0.36 -0.03,0.51 0.03,0.03 0.03,0.04 0.06,0.07 0.02,0.02 0.07,0.05 0.11,0.07 0.11,0.04 0.18,0.04 0.29,0 0.04,-0.01 0.09,-0.04 0.11,-0.07 0.07,-0.06 0.11,-0.12 0.13,-0.22 0.03,-0.12 -0.01,-0.25 -0.08,-0.34 -0.02,-0.02 -0.02,-0.02 -0.04,-0.04 -0.02,-0.02 -0.08,-0.06 -0.11,-0.07z"/>
  </g>
 </g>
</svg>
