<?xml version="1.0" encoding="UTF-8"?>
<!DOCTYPE svg PUBLIC "-//W3C//DTD SVG 1.1//EN" "http://www.w3.org/Graphics/SVG/1.1/DTD/svg11.dtd">
<!-- Creator: CorelDRAW 2019 (64-Bit) -->
<svg xmlns="http://www.w3.org/2000/svg" xml:space="preserve" width="6.5928mm" height="5.3752mm" version="1.1" style="shape-rendering:geometricPrecision; text-rendering:geometricPrecision; image-rendering:optimizeQuality; fill-rule:evenodd; clip-rule:evenodd"
viewBox="0 0 192.71 157.12"
 xmlns:xlink="http://www.w3.org/1999/xlink"
 xmlns:xodm="http://www.corel.com/coreldraw/odm/2003">
 <defs>
  <style type="text/css">
   <![CDATA[
    .fil0 {fill:black}
    .fil1 {fill:red}
   ]]>
  </style>
 </defs>
 <g id="Слой_x0020_1">
  <metadata id="CorelCorpID_0Corel-Layer"/>
  <g id="_1989459107312">
   <path class="fil0" d="M97.16 102.06c8.71,0 15.77,7.07 15.77,15.78 0,8.71 -7.06,15.78 -15.77,15.78 -8.72,0 -15.78,-7.06 -15.78,-15.78 0,-8.71 7.06,-15.78 15.78,-15.78zm-31.26 -102.06l62.51 0c5.81,0 10.56,4.75 10.56,10.56l0 136c0,5.81 -4.75,10.56 -10.56,10.56l-62.51 0c-5.81,0 -10.56,-4.75 -10.56,-10.56l0 -136c0,-5.81 4.75,-10.56 10.56,-10.56zm31.26 95.45c12.36,0 22.38,10.02 22.38,22.38 0,12.36 -10.02,22.38 -22.38,22.38 -12.36,0 -22.39,-10.02 -22.39,-22.38 0,-12.36 10.02,-22.38 22.39,-22.38z"/>
   <path class="fil1" d="M192.64 116.06c-0.78,-12.93 -4.26,-22.16 -11.45,-31.82 -0.89,-1.2 -3.9,-4.94 -5.34,-5.46 -3.71,-1.33 -7.69,3.47 -4.06,7.01 2.92,2.85 5.51,6.8 7.52,10.47 7.74,14.09 6.7,32.11 -1.39,45.68 -1.91,3.19 -4.02,5.85 -6.22,8.19 -0.62,0.65 -1.07,1.05 -1.25,2.33 -0.46,3.19 3,5.54 5.64,4.34 1.7,-0.77 5.45,-5.72 6.79,-7.61 1.95,-2.75 3.6,-5.84 5.16,-9.24 2.89,-6.35 5.09,-15.9 4.61,-23.89zm-39.17 -17.12c-2.78,0 -5.33,2.97 -3.67,6.04 0.9,1.66 5.71,4.79 5.71,13.19 0,4.25 -1.89,8.05 -3.87,10.45 -1.01,1.22 -2.79,2.24 -2.23,4.9 0.37,1.77 1.98,3.22 4.22,3.22 1.83,0 3.37,-1.91 4.11,-2.85 6.6,-8.37 7.75,-18.41 2.84,-27.89 -0.8,-1.54 -1.84,-3.01 -2.86,-4.18 -0.93,-1.06 -2.01,-2.87 -4.25,-2.87zm24.07 15.42c-0.78,-8.03 -3.24,-13.82 -7.33,-19.79 -0.88,-1.3 -3.84,-5.03 -5.25,-5.56 -2.98,-1.11 -6.1,1.68 -5.47,4.65 0.37,1.75 1.39,2.1 2.23,3.18 0.78,0.99 1.61,1.87 2.36,3.05 4.02,6.33 6.31,12.97 5.4,21.4 -0.68,6.29 -3.08,11.38 -6.07,15.49 -2.14,2.96 -4.44,4.04 -3.87,6.91 0.53,2.71 4.3,4.41 6.64,2.24 3.43,-3.16 6.74,-8.47 8.59,-13.01 2.22,-5.48 3.41,-11.98 2.78,-18.56z"/>
   <path class="fil1" d="M0.07 116.06c0.78,-12.93 4.26,-22.16 11.45,-31.82 0.89,-1.2 3.9,-4.94 5.34,-5.46 3.71,-1.33 7.7,3.47 4.06,7.01 -2.92,2.85 -5.51,6.8 -7.52,10.47 -7.74,14.09 -6.7,32.11 1.39,45.68 1.91,3.19 4.02,5.85 6.22,8.19 0.62,0.65 1.07,1.05 1.25,2.33 0.46,3.19 -3,5.54 -5.64,4.34 -1.7,-0.77 -5.45,-5.72 -6.79,-7.61 -1.95,-2.75 -3.6,-5.84 -5.16,-9.24 -2.89,-6.35 -5.09,-15.9 -4.61,-23.89zm39.17 -17.12c2.78,0 5.33,2.97 3.67,6.04 -0.9,1.66 -5.71,4.79 -5.71,13.19 0,4.25 1.89,8.05 3.87,10.45 1.01,1.22 2.79,2.24 2.23,4.9 -0.37,1.77 -1.98,3.22 -4.22,3.22 -1.83,0 -3.37,-1.91 -4.11,-2.85 -6.6,-8.37 -7.75,-18.41 -2.84,-27.89 0.8,-1.54 1.84,-3.01 2.86,-4.18 0.93,-1.06 2.01,-2.87 4.25,-2.87zm-24.07 15.42c0.77,-8.03 3.24,-13.82 7.33,-19.79 0.88,-1.3 3.84,-5.03 5.25,-5.56 2.98,-1.11 6.1,1.68 5.47,4.65 -0.37,1.75 -1.39,2.1 -2.23,3.18 -0.78,0.99 -1.61,1.87 -2.36,3.05 -4.02,6.33 -6.31,12.97 -5.4,21.4 0.68,6.29 3.08,11.38 6.07,15.49 2.14,2.96 4.44,4.04 3.87,6.91 -0.53,2.71 -4.3,4.41 -6.64,2.24 -3.43,-3.16 -6.74,-8.47 -8.59,-13.01 -2.22,-5.48 -3.41,-11.98 -2.78,-18.56z"/>
  </g>
 </g>
</svg>
