<?xml version="1.0" encoding="UTF-8"?>
<!DOCTYPE svg PUBLIC "-//W3C//DTD SVG 1.1//EN" "http://www.w3.org/Graphics/SVG/1.1/DTD/svg11.dtd">
<!-- Creator: CorelDRAW 2019 (64-Bit) -->
<svg xmlns="http://www.w3.org/2000/svg" xml:space="preserve" width="5.3552mm" height="5.3752mm" version="1.1" style="shape-rendering:geometricPrecision; text-rendering:geometricPrecision; image-rendering:optimizeQuality; fill-rule:evenodd; clip-rule:evenodd"
viewBox="0 0 33.35 33.47"
 xmlns:xlink="http://www.w3.org/1999/xlink"
 xmlns:xodm="http://www.corel.com/coreldraw/odm/2003">
 <defs>
  <style type="text/css">
   <![CDATA[
    .fil0 {fill:black}
    .fil1 {fill:red}
   ]]>
  </style>
 </defs>
 <g id="Слой_x0020_1">
  <metadata id="CorelCorpID_0Corel-Layer"/>
  <g id="_1989459093360">
   <path class="fil0" d="M3.53 16.12c-1.8,0 -1.89,2.72 0.03,2.72 1.75,-0 1.76,-2.72 -0.03,-2.72zm2.69 -0.58c3,2.95 7.58,7.03 10.16,10.17 0.18,0.21 0.04,0.17 0.31,0.1 1.41,-0.35 2.47,-0.62 2.91,-0.73 0.24,-0.06 0.3,-0.03 0.46,0.14l7.6 8.11c0.15,0.16 0.12,0.14 -0.03,0.14l-23.36 0c-0.04,0 -0.05,0 -0.05,-0.06 -0.05,-0.53 -0.23,-4.49 4.07,-5.52 0.18,-0.04 0.37,-0.09 0.56,-0.14 0.14,-0.03 0.11,-0.02 0,-0.13 -2.87,-2.83 -6.92,-6.83 -7.64,-7.53 -3.46,-3.41 1.3,-8.21 5.02,-4.55z"/>
   <polygon class="fil1" points="24.61,13.59 26.99,11.2 27.82,12.86 31.39,12.84 31.83,15.09 26.75,15.56 "/>
   <path class="fil0" d="M11.88 2.44c-3.39,0 -4.12,3.22 -4.86,6.88 -0,0.02 -0.01,0.03 0.01,0.01 0.55,-0.58 1.11,-1.12 1.6,-1.6 0.03,-0.03 0.03,-0.04 0.04,0.02 0.11,2.26 1.66,4.42 4.74,4.56 0.11,0 0.08,0.02 0,0.1 -1.18,1.25 -2.72,2.71 -4.03,4.09 -0.01,0.01 -0.03,0.01 -0.04,0 -0.62,-0.62 -1.42,-1.39 -2.4,-2.37 -0.98,-0.98 -2.07,-1.43 -3.13,-1.49 -0.07,-0 -0.05,0.01 -0.04,-0.07 0.01,-0.02 0.01,-0.05 0.01,-0.05 1.1,-4.2 0.91,-12.51 8.26,-12.51 2.54,0 4.67,0.95 6.71,2.83l-3.82 0.26c-1.02,-0.45 -2.05,-0.65 -3.07,-0.65z"/>
   <path class="fil0" d="M13.48 6.18c-1.8,0 -1.89,2.72 0.03,2.72 1.75,-0 1.76,-2.72 -0.03,-2.72zm18.94 0.45l-3.4 -0.92c-0.07,-0.02 -0.08,-0.03 -0.15,0.04l-2.99 2.98c-0.04,0.04 -0.04,0.05 -0.04,0.09 0.05,1.73 -1.39,3.38 -3.81,3.1 -1.36,-0.16 -7.23,-0.8 -8.71,-0.97 -4.83,-0.56 -4.03,-7.27 1.15,-6.67 1.25,0.14 6.35,0.75 9.42,1.15 0.09,0.01 0.12,0 0.2,-0.05l4.43 -2.85c0.04,-0.03 0.06,-0.03 0.1,-0.01l4.71 2.18c0.02,0.01 0.03,0.02 0.01,0.04l-0.86 1.84c-0.02,0.04 -0.02,0.04 -0.06,0.03z"/>
  </g>
 </g>
</svg>
