<?xml version="1.0" encoding="UTF-8"?>
<!DOCTYPE svg PUBLIC "-//W3C//DTD SVG 1.1//EN" "http://www.w3.org/Graphics/SVG/1.1/DTD/svg11.dtd">
<!-- Creator: CorelDRAW 2020 (64-Bit) -->
<svg xmlns="http://www.w3.org/2000/svg" xml:space="preserve" width="4.2455mm" height="5.3706mm" version="1.1" style="shape-rendering:geometricPrecision; text-rendering:geometricPrecision; image-rendering:optimizeQuality; fill-rule:evenodd; clip-rule:evenodd"
viewBox="0 0 17.72 22.42"
 xmlns:xlink="http://www.w3.org/1999/xlink"
 xmlns:xodm="http://www.corel.com/coreldraw/odm/2003">
 <defs>
  <style type="text/css">
   <![CDATA[
    .fil0 {fill:black}
    .fil1 {fill:red}
   ]]>
  </style>
 </defs>
 <g id="Слой_x0020_1">
  <metadata id="CorelCorpID_0Corel-Layer"/>
  <g id="_2781823206080">
   <path class="fil0" d="M5.57 0.02c-0.75,0.08 -1.23,0.53 -1.47,1.06 -0.25,0.55 -0.16,1.73 -0.16,2.39 0,1.69 -0,3.39 -0,5.08 0,0.69 0.27,1.33 0.88,1.67 0.65,0.36 1.48,0.25 2.28,0.25l5.06 -0.01c0.69,-0.07 1.23,-0.55 1.45,-1.06 0.24,-0.58 0.15,-1.71 0.15,-2.4 0,-1.69 0,-3.39 0,-5.08 -0,-0.88 -0.38,-1.35 -0.89,-1.66 -0.57,-0.36 -1.54,-0.25 -2.28,-0.25 -0.42,0 -4.74,-0.02 -5.04,0.01z"/>
   <path class="fil1" d="M4.81 10.82c-0.88,0.08 -1.16,1.17 -0.5,1.71 0.3,0.25 0.81,0.2 1.25,0.2l5.88 0c0.45,0 1.05,0.03 1.48,-0.01 0.89,-0.08 1.13,-1.28 0.48,-1.7 -0.39,-0.26 -0.73,-0.2 -1.25,-0.2l-5.88 0c-0.44,0 -1.05,-0.04 -1.46,0z"/>
   <path class="fil0" d="M3.17 20.8l0.39 -0 -0 -0.79 4.92 -1.46 0 2.24 0.76 0.01 0 -2.24 4.93 1.45 -0 0.79 0.39 0c-0.04,-1.48 0.35,-1.07 -1.41,-1.99 -0.54,-0.28 -1.81,-0.96 -2.26,-1.14 -0.72,-0.29 -1.18,-0.29 -2.01,-0.29 -0.86,0 -1.23,-0.01 -1.99,0.27 -0.59,0.22 -2.33,1.19 -3.02,1.53 -0.91,0.45 -0.66,0.34 -0.7,1.62z"/>
   <path class="fil0" d="M2.57 9.21c-0.02,0.53 -0.04,2.73 0.05,3.13 0.17,0.83 0.85,1.39 1.83,1.39l8.95 0c0.95,0 1.64,-0.53 1.83,-1.33 0.1,-0.41 0.09,-2.63 0.06,-3.13 -0.09,-0.06 -0.22,-0.08 -0.33,-0.14 -0.12,-0.06 -0.18,-0.12 -0.31,-0.19 0.01,0.9 0,1.81 0,2.72 0,0.84 -0.28,1.44 -1.22,1.44l-8.98 0c-0.97,0 -1.25,-0.57 -1.25,-1.5 0,-0.89 0.05,-1.92 -0.01,-2.79 -0.2,0.15 -0.3,0.28 -0.62,0.41z"/>
   <path class="fil0" d="M15.37 6.92c-1.14,0.24 -1.12,2.02 0.29,2.04 0.31,0 1.02,0.03 1.28,-0.03 1.13,-0.27 1.05,-2.01 -0.29,-2.03 -0.31,-0.01 -1.02,-0.03 -1.28,0.02z"/>
   <path class="fil0" d="M0.77 6.94c-0.2,0.06 -0.29,0.1 -0.42,0.21 -0.63,0.53 -0.44,1.81 0.78,1.81 0.32,0 1,0.03 1.27,-0.04 0.64,-0.16 1.05,-1.01 0.55,-1.63 -0.19,-0.23 -0.46,-0.4 -0.92,-0.4 -0.31,-0 -1,-0.03 -1.26,0.04z"/>
   <polygon class="fil0" points="8.33,17.09 9.39,17.1 9.4,14.01 8.33,14.01 "/>
   <path class="fil0" d="M3.17 21.02c-0.88,0.28 -0.51,1.62 0.4,1.37 0.89,-0.24 0.53,-1.66 -0.4,-1.37z"/>
   <path class="fil0" d="M14.14 21.02c-0.89,0.29 -0.5,1.61 0.4,1.37 0.32,-0.09 0.61,-0.44 0.49,-0.88 -0.09,-0.32 -0.46,-0.63 -0.9,-0.49z"/>
   <path class="fil0" d="M8.32 21.31c0,1.2 -0.09,1.11 0.53,1.11 0.65,-0 0.56,0.12 0.56,-1.11 0,-0.35 -0.23,-0.29 -0.65,-0.29 -0.28,0 -0.44,-0.02 -0.44,0.29z"/>
  </g>
 </g>
</svg>
