<?xml version="1.0" encoding="UTF-8"?>
<!DOCTYPE svg PUBLIC "-//W3C//DTD SVG 1.1//EN" "http://www.w3.org/Graphics/SVG/1.1/DTD/svg11.dtd">
<!-- Creator: CorelDRAW 2019 (64-Bit) -->
<svg xmlns="http://www.w3.org/2000/svg" xml:space="preserve" width="4.6115mm" height="4.9008mm" version="1.1" style="shape-rendering:geometricPrecision; text-rendering:geometricPrecision; image-rendering:optimizeQuality; fill-rule:evenodd; clip-rule:evenodd"
viewBox="0 0 181.05 192.41"
 xmlns:xlink="http://www.w3.org/1999/xlink"
 xmlns:xodm="http://www.corel.com/coreldraw/odm/2003">
 <defs>
  <style type="text/css">
   <![CDATA[
    .fil1 {fill:black}
    .fil0 {fill:red}
   ]]>
  </style>
 </defs>
 <g id="Слой_x0020_1">
  <metadata id="CorelCorpID_0Corel-Layer"/>
  <g id="_1989423586256">
   <rect class="fil0" transform="matrix(-1.48837E-15 0.0561978 0.0561978 1.48837E-15 48.8487 67.6395)" width="276.32" height="1317.17"/>
   <path class="fil1" d="M85.86 137.34c3.42,0 7.1,0 11.03,0 6.7,-2.17 11.7,-6.07 15.65,-11.21 4.68,-6.1 7.26,-13.06 7.12,-21.37l0 -18.1 -33.8 0 -33.8 0 0 18.1c-0.14,8.31 2.45,15.26 7.13,21.37 3.94,5.14 8.94,9.04 15.64,11.21 3.93,0 7.61,0 11.03,0z"/>
   <path class="fil1" d="M62.5 65.07l0 -24.05c0,-2.89 2.36,-5.25 5.25,-5.25l0.58 0c2.89,0 5.25,2.36 5.25,5.25l0 24.05 -11.09 0z"/>
   <path class="fil1" d="M98 65.07l0 -24.05c0,-2.89 2.36,-5.25 5.25,-5.25l0.58 0c2.89,0 5.25,2.36 5.25,5.25l0 24.05 -11.09 0z"/>
   <path class="fil1" d="M96.31 140.85c3.92,4.3 11.86,6.5 23.83,6.68 14.65,0.22 28.91,-7.02 39.34,-24.15 11.67,-19.17 11.84,-42.16 0.76,-65.45 -14.34,-30.14 -38.84,-45.16 -70.25,-45.19 -24.83,-0.02 -45.79,11.31 -61.02,33.83 -14.22,21.03 -19.91,45.55 -13.51,71.16 6.32,25.3 22.09,41.47 41.55,50.9 12.96,6.28 27.79,9.66 44.91,9.24 -0.08,4.85 -0.11,9.5 0,14.55 -24.56,-1.5 -43.5,-5.91 -56.48,-13.76 -18.55,-11.22 -30.42,-26.12 -37.56,-43.5 -6.65,-16.17 -11.28,-37.87 -4.68,-64.27 5.54,-22.15 15.96,-40.24 31.15,-51.67 18.01,-13.55 36.89,-19.17 55.44,-19.21 20.44,-0.04 38.68,4.53 53.75,15.84 13.27,9.96 22.33,22.12 28.03,35.2 10.78,24.71 12.4,47.29 4.68,67.54 -10.29,26.98 -29.8,41.83 -58.31,41.94 -19.8,0.07 -32.77,-7.12 -38.94,-19.68l17.32 0z"/>
  </g>
 </g>
</svg>
