<?xml version="1.0" encoding="UTF-8"?>
<!DOCTYPE svg PUBLIC "-//W3C//DTD SVG 1.1//EN" "http://www.w3.org/Graphics/SVG/1.1/DTD/svg11.dtd">
<!-- Creator: CorelDRAW 2020 (64-Bit) -->
<svg xmlns="http://www.w3.org/2000/svg" xml:space="preserve" width="2.8696mm" height="5.3754mm" version="1.1" style="shape-rendering:geometricPrecision; text-rendering:geometricPrecision; image-rendering:optimizeQuality; fill-rule:evenodd; clip-rule:evenodd"
viewBox="0 0 2.18 4.09"
 xmlns:xlink="http://www.w3.org/1999/xlink"
 xmlns:xodm="http://www.corel.com/coreldraw/odm/2003">
 <defs>
  <style type="text/css">
   <![CDATA[
    .fil0 {fill:black}
    .fil1 {fill:red}
   ]]>
  </style>
 </defs>
 <g id="Слой_x0020_1">
  <metadata id="CorelCorpID_0Corel-Layer"/>
  <g id="_2390157519728">
   <path class="fil0" d="M1 2.74c-0.06,-0.08 -0.22,-0.14 -0.54,-0.23 -0.17,-0.05 -0.28,-0.22 -0.29,-0.38 -0,-0.1 -0.01,-0.14 -0.01,-0.23 -0.1,-0.03 -0.17,-0.13 -0.17,-0.24 0,-0.14 0.11,-0.25 0.25,-0.25 0.14,0 0.25,0.11 0.25,0.25 0,0.11 -0.07,0.2 -0.17,0.24 -0.02,0.17 -0.01,0.25 0.01,0.3 0.04,0.08 0.17,0.17 0.38,0.23 0.12,0.03 0.21,0.07 0.28,0.12l0 -2.09 -0.2 0 0.14 -0.24 0.14 -0.23 0.14 0.23 0.14 0.24 -0.19 0 0 1.67c0.06,-0.05 0.15,-0.09 0.26,-0.11 0.22,-0.05 0.35,-0.12 0.38,-0.2 0.02,-0.05 0.03,-0.15 0.01,-0.32l-0.16 0 0 -0.52 0.49 0 0 0.52 -0.17 0c0,0.1 0,0.19 -0,0.29 -0.01,0.16 -0.12,0.26 -0.27,0.3 -0.3,0.08 -0.48,0.15 -0.55,0.23l0 0.77c-0.07,-0.01 -0.11,-0.01 -0.19,0l-0 -0.35z"/>
   <circle class="fil1" cx="1.1" cy="3.61" r="0.48"/>
  </g>
 </g>
</svg>
