<?xml version="1.0" encoding="UTF-8"?>
<!DOCTYPE svg PUBLIC "-//W3C//DTD SVG 1.1//EN" "http://www.w3.org/Graphics/SVG/1.1/DTD/svg11.dtd">
<!-- Creator: CorelDRAW 2019 (64-Bit) -->
<svg xmlns="http://www.w3.org/2000/svg" xml:space="preserve" width="6.581mm" height="5.3673mm" version="1.1" style="shape-rendering:geometricPrecision; text-rendering:geometricPrecision; image-rendering:optimizeQuality; fill-rule:evenodd; clip-rule:evenodd"
viewBox="0 0 25.28 20.62"
 xmlns:xlink="http://www.w3.org/1999/xlink"
 xmlns:xodm="http://www.corel.com/coreldraw/odm/2003">
 <defs>
  <style type="text/css">
   <![CDATA[
    .fil0 {fill:black}
    .fil1 {fill:black}
    .fil2 {fill:red}
   ]]>
  </style>
 </defs>
 <g id="Слой_x0020_1">
  <metadata id="CorelCorpID_0Corel-Layer"/>
  <g id="_1989451811152">
   <path class="fil0" d="M24.15 14.49c0.84,-0.08 1.13,-0.65 1.12,-1.04l0 -12.41c-0.03,-0.69 -0.5,-1.04 -1.55,-1.04l-17.15 0c-0.87,0 -1.73,-0.01 -2.6,-0 -0.73,0.01 -1.29,0.54 -1.32,1.28l21.3 -0 0.01 10.59 -14.27 -0 0 2.63c3.62,-0.02 11.03,-0 14.46,-0.01zm-10.5 -2.22c0.52,0 0.94,0.42 0.94,0.94 0,0.52 -0.42,0.94 -0.94,0.94 -0.52,0 -0.94,-0.42 -0.94,-0.94 0,-0.52 0.42,-0.94 0.94,-0.94z"/>
   <path class="fil0" d="M11.99 17c-0.41,0.05 -0.68,0.15 -0.92,0.37 -0.19,0.17 -0.41,0.58 -0.38,0.92l6.56 0c-0.04,-0.54 -0.33,-0.97 -0.79,-1.17 -0.66,-0.29 -0.53,0.35 -0.53,-1.43l-3.91 -0.01 -0.02 1.32z"/>
   <path class="fil1" d="M1.51 3.54l4.97 0c0.83,0 1.51,0.77 1.51,1.72l0 13.64c0,0.94 -0.68,1.72 -1.51,1.72l-4.97 0c-0.83,0 -1.51,-0.77 -1.51,-1.72l0 -13.64c0,-0.95 0.68,-1.72 1.51,-1.72zm1.06 12.28c0.76,0 1.38,0.62 1.38,1.38 0,0.76 -0.62,1.38 -1.38,1.38 -0.76,0 -1.38,-0.62 -1.38,-1.38 0,-0.76 0.62,-1.38 1.38,-1.38zm-1.31 -8.25l5.47 0c0.07,0 0.13,0.06 0.13,0.13l0 1.25c0,0.07 -0.06,0.13 -0.13,0.13l-5.47 0c-0.07,0 -0.13,-0.06 -0.13,-0.13l0 -1.25c0,-0.07 0.06,-0.13 0.13,-0.13zm0 -2.03l5.47 0c0.07,0 0.13,0.06 0.13,0.13l0 1.25c0,0.07 -0.06,0.13 -0.13,0.13l-5.47 0c-0.07,0 -0.13,-0.06 -0.13,-0.13l0 -1.25c0,-0.07 0.06,-0.13 0.13,-0.13z"/>
   <path class="fil2" d="M2.54 16.19c-0.1,0.03 -0.14,0.11 -0.14,0.21 0,0.1 -0.01,0.63 0.01,0.69 0.02,0.07 0.1,0.16 0.2,0.13 0.1,-0.03 0.14,-0.11 0.14,-0.21 -0,-0.1 0.01,-0.63 -0,-0.69 -0.02,-0.07 -0.11,-0.16 -0.21,-0.13zm0.38 0.24c-0,0.08 -0,0.3 -0,0.39 0,0.03 0.1,0.09 0.15,0.25 0.1,0.34 -0.14,0.67 -0.5,0.67 -0.24,0 -0.42,-0.16 -0.48,-0.32 -0.06,-0.16 -0.05,-0.34 0.05,-0.48 0.02,-0.02 0.03,-0.04 0.04,-0.06 0.01,-0.02 0.04,-0.03 0.04,-0.06 0,-0.11 0,-0.29 -0,-0.39 -0.07,0.02 -0.23,0.14 -0.28,0.19 -0.29,0.3 -0.33,0.78 -0.07,1.11 0.06,0.07 0.07,0.09 0.14,0.15 0.05,0.04 0.16,0.12 0.24,0.14 0.24,0.08 0.4,0.08 0.64,0 0.08,-0.03 0.19,-0.1 0.24,-0.14 0.15,-0.14 0.24,-0.27 0.29,-0.47 0.06,-0.26 -0.02,-0.56 -0.17,-0.74 -0.04,-0.05 -0.05,-0.05 -0.09,-0.1 -0.03,-0.03 -0.17,-0.14 -0.23,-0.15z"/>
   <path class="fil2" d="M13.62 12.5c-0.07,0.02 -0.1,0.08 -0.1,0.15 0,0.07 -0.01,0.45 0,0.49 0.01,0.05 0.07,0.11 0.14,0.09 0.07,-0.02 0.1,-0.08 0.1,-0.15 -0,-0.07 0.01,-0.45 -0,-0.49 -0.01,-0.05 -0.08,-0.12 -0.15,-0.1zm0.27 0.17c-0,0.06 -0,0.21 -0,0.28 0,0.02 0.07,0.06 0.11,0.18 0.07,0.24 -0.1,0.48 -0.35,0.48 -0.17,0 -0.3,-0.11 -0.34,-0.23 -0.04,-0.11 -0.03,-0.24 0.04,-0.34 0.01,-0.02 0.02,-0.03 0.03,-0.04 0.01,-0.01 0.03,-0.02 0.03,-0.04 0,-0.08 0,-0.2 -0,-0.28 -0.05,0.01 -0.16,0.1 -0.2,0.14 -0.21,0.21 -0.23,0.56 -0.05,0.8 0.04,0.05 0.05,0.06 0.1,0.11 0.03,0.03 0.11,0.08 0.17,0.1 0.17,0.06 0.29,0.06 0.46,0 0.06,-0.02 0.14,-0.07 0.17,-0.1 0.11,-0.1 0.17,-0.19 0.21,-0.34 0.04,-0.19 -0.01,-0.4 -0.12,-0.53 -0.03,-0.04 -0.03,-0.04 -0.07,-0.07 -0.02,-0.02 -0.12,-0.1 -0.17,-0.11z"/>
  </g>
 </g>
</svg>
