<?xml version="1.0" encoding="UTF-8"?>
<!DOCTYPE svg PUBLIC "-//W3C//DTD SVG 1.1//EN" "http://www.w3.org/Graphics/SVG/1.1/DTD/svg11.dtd">
<!-- Creator: CorelDRAW 2020 (64-Bit) -->
<svg xmlns="http://www.w3.org/2000/svg" xml:space="preserve" width="5.9269mm" height="5.9268mm" version="1.1" style="shape-rendering:geometricPrecision; text-rendering:geometricPrecision; image-rendering:optimizeQuality; fill-rule:evenodd; clip-rule:evenodd"
viewBox="0 0 36.39 36.39"
 xmlns:xlink="http://www.w3.org/1999/xlink"
 xmlns:xodm="http://www.corel.com/coreldraw/odm/2003">
 <defs>
  <style type="text/css">
   <![CDATA[
    .fil1 {fill:none}
    .fil0 {fill:black}
    .fil2 {fill:red}
   ]]>
  </style>
 </defs>
 <g id="Слой_x0020_1">
  <metadata id="CorelCorpID_0Corel-Layer"/>
  <g id="_2390331610224">
   <path class="fil0" d="M36.39 28.53l0 0.88c0,0.23 -0.19,0.42 -0.42,0.42l-35.54 0c-0.23,0 -0.42,-0.19 -0.42,-0.42l0 -0.88 14.95 0c0.07,0.25 0.3,0.43 0.57,0.43l5.36 0c0.27,0 0.5,-0.18 0.57,-0.43l14.95 0z"/>
   <path class="fil0" d="M3.48 27.69l29.44 0c0.61,0 1.1,-0.49 1.1,-1.1l0 -18.92c0,-0.61 -0.49,-1.1 -1.1,-1.1l-29.44 0c-0.61,0 -1.1,0.5 -1.1,1.1l0 18.92c0,0.61 0.5,1.1 1.1,1.1zm0.18 -19.81c0,-0.09 0.07,-0.15 0.15,-0.15l28.76 0c0.08,0 0.15,0.07 0.15,0.15l0 18.49c0,0.09 -0.07,0.15 -0.15,0.15l-28.76 0c-0.08,0 -0.15,-0.07 -0.15,-0.15l0 -18.49zm14.54 -1.15c0.23,0 0.41,0.19 0.41,0.41 0,0.23 -0.18,0.41 -0.41,0.41 -0.23,0 -0.41,-0.18 -0.41,-0.41 0,-0.23 0.18,-0.41 0.41,-0.41z"/>
   <line class="fil1" x1="14.11" y1="28.53" x2="22.85" y2= "28.53" />
   <path class="fil2" d="M18.2 28.79c-0.99,-0 -1.88,-0 -2.68,0 -0.14,-0.06 -0.28,-0.15 -0.32,-0.26l3 0 3 0c-0.05,0.11 -0.18,0.2 -0.32,0.26 -0.8,-0 -1.69,-0 -2.68,0z"/>
  </g>
  <rect class="fil1" x="0" y="-0" width="36.39" height="36.39"/>
 </g>
</svg>
