<?xml version="1.0" encoding="UTF-8"?>
<!DOCTYPE svg PUBLIC "-//W3C//DTD SVG 1.1//EN" "http://www.w3.org/Graphics/SVG/1.1/DTD/svg11.dtd">
<!-- Creator: CorelDRAW 2020 (64-Bit) -->
<svg xmlns="http://www.w3.org/2000/svg" xml:space="preserve" width="2.9188mm" height="5.3751mm" version="1.1" style="shape-rendering:geometricPrecision; text-rendering:geometricPrecision; image-rendering:optimizeQuality; fill-rule:evenodd; clip-rule:evenodd"
viewBox="0 0 2.68 4.94"
 xmlns:xlink="http://www.w3.org/1999/xlink"
 xmlns:xodm="http://www.corel.com/coreldraw/odm/2003">
 <defs>
  <style type="text/css">
   <![CDATA[
    .fil0 {fill:black}
    .fil1 {fill:red}
   ]]>
  </style>
 </defs>
 <g id="Слой_x0020_1">
  <metadata id="CorelCorpID_0Corel-Layer"/>
  <g id="_2166574902112">
   <path class="fil0" d="M1.29 2.91c-0.04,-0.05 -0.14,-0.09 -0.34,-0.15 -0.11,-0.03 -0.18,-0.14 -0.18,-0.24 -0,-0.06 -0.01,-0.09 -0.01,-0.14 -0.06,-0.02 -0.11,-0.08 -0.11,-0.15 0,-0.09 0.07,-0.16 0.16,-0.16 0.09,0 0.16,0.07 0.16,0.16 0,0.07 -0.04,0.13 -0.1,0.15 -0.01,0.11 -0,0.16 0.01,0.19 0.02,0.05 0.11,0.11 0.24,0.14 0.08,0.02 0.13,0.04 0.17,0.08l0 -1.32 -0.13 0 0.09 -0.15 0.09 -0.15 0.09 0.15 0.09 0.15 -0.12 0 0 1.05c0.04,-0.03 0.09,-0.05 0.17,-0.07 0.14,-0.03 0.22,-0.08 0.24,-0.13 0.01,-0.03 0.02,-0.1 0,-0.2l-0.1 0 0 -0.33 0.31 0 0 0.33 -0.11 0c0,0.06 0,0.12 -0,0.18 -0,0.1 -0.07,0.16 -0.17,0.19 -0.19,0.05 -0.3,0.1 -0.35,0.14l0 0.49c-0.04,-0.01 -0.07,-0.01 -0.12,0l-0 -0.22z"/>
   <circle class="fil1" cx="1.34" cy="3.45" r="0.3"/>
  </g>
  <g id="_2166574903504">
   <path class="fil0" d="M0.07 0l2.54 0c0.04,0 0.07,0.03 0.07,0.07l0 4.8c0,0.04 -0.03,0.07 -0.07,0.07l-2.54 0c-0.04,0 -0.07,-0.03 -0.07,-0.07l0 -4.8c0,-0.04 0.03,-0.07 0.07,-0.07zm0.22 0.48l2.11 0c0.03,0 0.06,0.03 0.06,0.06l0 3.54c0,0.03 -0.03,0.06 -0.06,0.06l-2.11 0c-0.03,0 -0.06,-0.03 -0.06,-0.06l0 -3.54c0,-0.03 0.03,-0.06 0.06,-0.06zm0.92 3.85l0.26 0c0.05,0 0.09,0.04 0.09,0.09l0 0.26c0,0.05 -0.04,0.09 -0.09,0.09l-0.26 0c-0.05,0 -0.09,-0.04 -0.09,-0.09l0 -0.26c0,-0.05 0.04,-0.09 0.09,-0.09z"/>
   <rect class="fil1" x="1.2" y="4.41" width="0.28" height="0.28" rx="0.01" ry="0"/>
  </g>
 </g>
</svg>
