<?xml version="1.0" encoding="UTF-8"?>
<!DOCTYPE svg PUBLIC "-//W3C//DTD SVG 1.1//EN" "http://www.w3.org/Graphics/SVG/1.1/DTD/svg11.dtd">
<!-- Creator: CorelDRAW 2019 (64-Bit) -->
<svg xmlns="http://www.w3.org/2000/svg" xml:space="preserve" width="7.1775mm" height="5.3655mm" version="1.1" style="shape-rendering:geometricPrecision; text-rendering:geometricPrecision; image-rendering:optimizeQuality; fill-rule:evenodd; clip-rule:evenodd"
viewBox="0 0 37.69 28.17"
 xmlns:xlink="http://www.w3.org/1999/xlink"
 xmlns:xodm="http://www.corel.com/coreldraw/odm/2003">
 <defs>
  <style type="text/css">
   <![CDATA[
    .fil0 {fill:black}
    .fil1 {fill:red}
   ]]>
  </style>
 </defs>
 <g id="Слой_x0020_1">
  <metadata id="CorelCorpID_0Corel-Layer"/>
  <g id="_1989457600864">
   <path class="fil0" d="M9.24 0l19.2 0c0.11,0 0.19,0.11 0.19,0.25l0 14.46 -19.59 0 0 -14.46c0,-0.14 0.09,-0.25 0.19,-0.25zm0.02 0.27l0 14.17 19.17 0 0 -14.17 -19.17 0zm19.79 9.06l2.09 0c0.05,0 0.09,0.04 0.09,0.09l0 5.29 -2.19 0 0 -5.38z"/>
   <path class="fil0" d="M6.49 9.33l2.08 0 0 5.38 -2.17 0 0 -5.29c0,-0.05 0.04,-0.09 0.09,-0.09z"/>
   <path class="fil1" d="M32.26 16.95c-0.17,0.05 -0.23,0.17 -0.22,0.34 0,0.16 -0.01,1.04 0.01,1.12 0.03,0.12 0.17,0.26 0.33,0.22 0.16,-0.04 0.23,-0.18 0.23,-0.34 -0,-0.17 0.01,-1.03 -0.01,-1.12 -0.03,-0.12 -0.17,-0.27 -0.33,-0.22zm0.63 0.39c-0.01,0.13 -0,0.48 -0,0.64 0,0.06 0.17,0.14 0.25,0.41 0.16,0.55 -0.23,1.09 -0.81,1.09 -0.39,0 -0.68,-0.25 -0.79,-0.53 -0.1,-0.26 -0.08,-0.56 0.08,-0.79 0.03,-0.04 0.04,-0.06 0.07,-0.1 0.02,-0.03 0.07,-0.06 0.07,-0.1 0,-0.18 0.01,-0.47 -0,-0.64 -0.12,0.02 -0.37,0.23 -0.45,0.31 -0.47,0.49 -0.54,1.27 -0.12,1.82 0.09,0.12 0.11,0.14 0.23,0.24 0.08,0.07 0.26,0.19 0.39,0.23 0.39,0.13 0.66,0.14 1.04,0 0.13,-0.05 0.31,-0.16 0.39,-0.23 0.24,-0.22 0.39,-0.44 0.47,-0.77 0.1,-0.43 -0.03,-0.91 -0.29,-1.21 -0.07,-0.08 -0.08,-0.09 -0.15,-0.16 -0.06,-0.05 -0.28,-0.22 -0.38,-0.24z"/>
   <path class="fil0" d="M11.63 1.86l14.53 0c0.08,0 0.14,0.06 0.14,0.14l0 0c0,0.08 -0.06,0.14 -0.14,0.14l-14.53 0c-0.08,0 -0.14,-0.06 -0.14,-0.14l0 0c0,-0.08 0.06,-0.14 0.14,-0.14zm-0.23 10.47l14.99 0c0.08,0 0.14,0.06 0.14,0.14l0 0c0,0.08 -0.06,0.14 -0.14,0.14l-14.99 0c-0.08,0 -0.14,-0.06 -0.14,-0.14l0 0c0,-0.08 0.06,-0.14 0.14,-0.14zm0.13 -1.75l14.72 0c0.08,0 0.14,0.06 0.14,0.14l0 0c0,0.08 -0.06,0.14 -0.14,0.14l-14.72 0c-0.08,0 -0.14,-0.06 -0.14,-0.14l0 0c0,-0.08 0.06,-0.14 0.14,-0.14zm0.1 -1.75l14.53 0c0.08,0 0.14,0.06 0.14,0.14l0 0c0,0.08 -0.06,0.14 -0.14,0.14l-14.53 0c-0.08,0 -0.14,-0.06 -0.14,-0.14l0 0c0,-0.08 0.06,-0.14 0.14,-0.14zm0 -1.75l14.53 0c0.08,0 0.14,0.06 0.14,0.14l0 0c0,0.08 -0.06,0.14 -0.14,0.14l-14.53 0c-0.08,0 -0.14,-0.06 -0.14,-0.14l0 0c0,-0.08 0.06,-0.14 0.14,-0.14zm0 -1.75l14.53 0c0.08,0 0.14,0.06 0.14,0.14l0 0c0,0.08 -0.06,0.14 -0.14,0.14l-14.53 0c-0.08,0 -0.14,-0.06 -0.14,-0.14l0 0c0,-0.08 0.06,-0.14 0.14,-0.14zm0 -1.75l14.53 0c0.08,0 0.14,0.06 0.14,0.14l0 0c0,0.08 -0.06,0.14 -0.14,0.14l-14.53 0c-0.08,0 -0.14,-0.06 -0.14,-0.14l0 0c0,-0.08 0.06,-0.14 0.14,-0.14z"/>
   <path class="fil0" d="M32.02 28.17l-1.68 0 -0.2 0 -1.68 0 -0.22 0 -18.82 0 -0.09 0 -0.09 0 -1.68 0 -0.23 0 -0.28 0 -1.4 0 -0.88 0 -4.12 0c-0.36,0 -0.66,-0.3 -0.66,-0.66l0 -11.78c0,-0.36 0.3,-0.66 0.66,-0.66l36.36 0c0.36,0 0.66,0.3 0.66,0.66l0 11.78c0,0.36 -0.3,0.66 -0.66,0.66l-4.78 0 -0.22 0zm-1.14 -11.53l2.93 0c0.28,0 0.51,0.23 0.51,0.51l0 2.93c0,0.28 -0.23,0.51 -0.51,0.51l-2.93 0c-0.28,0 -0.51,-0.23 -0.51,-0.51l0 -2.93c0,-0.28 0.23,-0.51 0.51,-0.51z"/>
  </g>
 </g>
</svg>
