<?xml version="1.0" encoding="UTF-8"?>
<!DOCTYPE svg PUBLIC "-//W3C//DTD SVG 1.1//EN" "http://www.w3.org/Graphics/SVG/1.1/DTD/svg11.dtd">
<!-- Creator: CorelDRAW 2020 (64-Bit) -->
<svg xmlns="http://www.w3.org/2000/svg" xml:space="preserve" width="7.8325mm" height="5.3803mm" version="1.1" style="shape-rendering:geometricPrecision; text-rendering:geometricPrecision; image-rendering:optimizeQuality; fill-rule:evenodd; clip-rule:evenodd"
viewBox="0 0 123.66 84.94"
 xmlns:xlink="http://www.w3.org/1999/xlink"
 xmlns:xodm="http://www.corel.com/coreldraw/odm/2003">
 <defs>
  <style type="text/css">
   <![CDATA[
    .fil0 {fill:black}
    .fil1 {fill:red}
   ]]>
  </style>
 </defs>
 <g id="Слой_x0020_1">
  <metadata id="CorelCorpID_0Corel-Layer"/>
  <g id="_2166751251184">
   <path class="fil0" d="M61.83 53.77l0 22.36 -14.24 0 3.85 -22.25 0.55 -0.05 9.83 -0.06zm0 0l0 22.36 14.24 0 -3.85 -22.25 -0.55 -0.05 -9.83 -0.06zm0 30.71l58.16 0.45 3.14 -3.38 -46.04 -4.12 -15.26 -0.04 -15.26 0.04 -46.04 4.12 3.14 3.38 58.16 -0.45zm17.86 -8.11l43.97 4.06 -16.76 -23.39 -20.07 -1.83 -10.26 -0.94 0 0 -0.9 -0.08 4.01 22.18zm18.95 -21.33l6.02 -45.99c0.07,-0.74 -0.18,-1.38 -0.81,-1.85 -1.41,-1.05 -1.96,-0.57 -2.27,1.3l-7.79 46.09 4.85 0.44zm-21.98 -2.01l3.2 -51.66c0.05,-0.74 -0.37,-1.16 -1.37,-1.34 -0.88,-0.16 -1.53,0.12 -1.62,0.94l-0.1 0.9 -4.97 50.72 4.87 0.45zm-32.69 23.34l-43.97 4.06 16.76 -23.39 20.07 -1.83 10.26 -0.94 0 0 0.9 -0.08 -4.01 22.18zm-18.95 -21.33l-6.02 -45.99c-0.07,-0.74 0.18,-1.38 0.81,-1.85 1.41,-1.05 1.96,-0.57 2.27,1.3l7.79 46.09 -4.85 0.44zm21.98 -2.01l-3.2 -51.66c-0.05,-0.74 0.37,-1.16 1.37,-1.34 0.88,-0.16 1.53,0.12 1.62,0.94l0.1 0.9 4.97 50.72 -4.87 0.45z"/>
   <polygon class="fil1" points="50.39,53.98 49.03,54.11 45.01,76.32 46.55,76.17 "/>
   <polygon class="fil1" points="73.27,53.98 74.63,54.11 78.65,76.32 77.1,76.17 "/>
  </g>
 </g>
</svg>
