<?xml version="1.0" encoding="UTF-8"?>
<!DOCTYPE svg PUBLIC "-//W3C//DTD SVG 1.1//EN" "http://www.w3.org/Graphics/SVG/1.1/DTD/svg11.dtd">
<!-- Creator: CorelDRAW 2020 (64-Bit) -->
<svg xmlns="http://www.w3.org/2000/svg" xml:space="preserve" width="6.2852mm" height="5.3751mm" version="1.1" style="shape-rendering:geometricPrecision; text-rendering:geometricPrecision; image-rendering:optimizeQuality; fill-rule:evenodd; clip-rule:evenodd"
viewBox="0 0 59.95 51.27"
 xmlns:xlink="http://www.w3.org/1999/xlink"
 xmlns:xodm="http://www.corel.com/coreldraw/odm/2003">
 <defs>
  <style type="text/css">
   <![CDATA[
    .fil0 {fill:black}
    .fil1 {fill:red}
   ]]>
  </style>
 </defs>
 <g id="Слой_x0020_1">
  <metadata id="CorelCorpID_0Corel-Layer"/>
  <path class="fil0" d="M5.56 36.79l4.95 -0.29 0 -20.42c0,-0.91 0.73,-1.66 1.63,-1.66l0 0c0.9,0 1.63,0.75 1.63,1.66l0 20.42 32.92 0.29 0 -20.45c0,-0.9 0.73,-1.63 1.63,-1.63l0 0c0.9,0 1.63,0.74 1.63,1.63l0 20.45 4.45 0c0.9,0 1.64,0.74 1.64,1.64l0 11.2c0,0.9 -0.74,1.64 -1.64,1.64l-48.83 0c-0.9,0 -1.64,-0.74 -1.64,-1.64l0 -11.2c0,-0.9 0.74,-1.59 1.64,-1.64zm3.39 2.26c0.58,0 1.05,0.47 1.05,1.05 0,0.58 -0.47,1.05 -1.05,1.05 -0.58,0 -1.05,-0.47 -1.05,-1.05 0,-0.58 0.47,-1.05 1.05,-1.05zm3.6 0c0.58,0 1.05,0.47 1.05,1.05 0,0.58 -0.47,1.05 -1.05,1.05 -0.58,0 -1.05,-0.47 -1.05,-1.05 0,-0.58 0.47,-1.05 1.05,-1.05zm3.6 0c0.58,0 1.05,0.47 1.05,1.05 0,0.58 -0.47,1.05 -1.05,1.05 -0.58,0 -1.05,-0.47 -1.05,-1.05 0,-0.58 0.47,-1.05 1.05,-1.05z"/>
  <path class="fil1" d="M42.29 11.91c0,0.84 0.9,1.62 1.83,1.11 0.5,-0.27 1.45,-1.73 4,-1.73 1.29,0 2.44,0.58 3.17,1.18 0.37,0.31 0.68,0.85 1.49,0.68 0.54,-0.11 0.98,-0.6 0.98,-1.28 0,-0.56 -0.58,-1.02 -0.87,-1.25 -2.54,-2 -5.59,-2.35 -8.47,-0.86 -0.47,0.24 -0.91,0.56 -1.27,0.87 -0.32,0.28 -0.87,0.61 -0.87,1.29zm5.2 -11.89c-3.92,0.24 -6.72,1.29 -9.66,3.48 -0.36,0.27 -1.5,1.18 -1.66,1.62 -0.4,1.13 1.05,2.34 2.13,1.23 0.86,-0.89 2.06,-1.67 3.18,-2.28 4.28,-2.35 9.75,-2.03 13.87,0.42 0.97,0.58 1.78,1.22 2.49,1.89 0.2,0.19 0.32,0.32 0.71,0.38 0.97,0.14 1.68,-0.91 1.32,-1.71 -0.23,-0.52 -1.74,-1.65 -2.31,-2.06 -0.83,-0.59 -1.77,-1.09 -2.8,-1.57 -1.93,-0.88 -4.83,-1.54 -7.25,-1.4zm-0.52 4.58c-2.44,0.23 -4.19,0.98 -6.01,2.22 -0.39,0.27 -1.53,1.17 -1.69,1.59 -0.34,0.9 0.51,1.85 1.41,1.66 0.53,-0.11 0.64,-0.42 0.96,-0.68 0.3,-0.24 0.57,-0.49 0.93,-0.72 1.92,-1.22 3.94,-1.91 6.49,-1.64 1.91,0.21 3.45,0.94 4.7,1.84 0.9,0.65 1.23,1.35 2.1,1.18 0.82,-0.16 1.34,-1.3 0.68,-2.02 -0.96,-1.04 -2.57,-2.05 -3.95,-2.61 -1.66,-0.67 -3.64,-1.03 -5.63,-0.84z"/>
  <path class="fil1" d="M6.19 11.91c0,0.84 0.9,1.62 1.83,1.11 0.5,-0.27 1.45,-1.73 4,-1.73 1.29,0 2.44,0.58 3.17,1.18 0.37,0.31 0.68,0.85 1.49,0.68 0.54,-0.11 0.98,-0.6 0.98,-1.28 0,-0.56 -0.58,-1.02 -0.87,-1.25 -2.54,-2 -5.59,-2.35 -8.47,-0.86 -0.47,0.24 -0.91,0.56 -1.27,0.87 -0.32,0.28 -0.87,0.61 -0.87,1.29zm5.2 -11.89c-3.92,0.24 -6.72,1.29 -9.66,3.48 -0.36,0.27 -1.5,1.18 -1.66,1.62 -0.4,1.13 1.05,2.34 2.13,1.23 0.86,-0.89 2.06,-1.67 3.18,-2.28 4.28,-2.35 9.75,-2.03 13.87,0.42 0.97,0.58 1.78,1.22 2.49,1.89 0.2,0.19 0.32,0.32 0.71,0.38 0.97,0.14 1.68,-0.91 1.32,-1.71 -0.23,-0.52 -1.74,-1.65 -2.31,-2.06 -0.83,-0.59 -1.77,-1.09 -2.8,-1.57 -1.93,-0.88 -4.83,-1.54 -7.25,-1.4zm-0.52 4.58c-2.44,0.23 -4.19,0.98 -6.01,2.22 -0.39,0.27 -1.53,1.17 -1.69,1.59 -0.34,0.9 0.51,1.85 1.41,1.66 0.53,-0.11 0.64,-0.42 0.96,-0.68 0.3,-0.24 0.57,-0.49 0.93,-0.72 1.92,-1.22 3.94,-1.91 6.49,-1.64 1.91,0.21 3.45,0.94 4.7,1.84 0.9,0.65 1.23,1.35 2.1,1.18 0.82,-0.16 1.34,-1.3 0.68,-2.02 -0.96,-1.04 -2.57,-2.05 -3.95,-2.61 -1.66,-0.67 -3.64,-1.03 -5.63,-0.84z"/>
 </g>
</svg>
