<?xml version="1.0" encoding="UTF-8"?>
<!DOCTYPE svg PUBLIC "-//W3C//DTD SVG 1.1//EN" "http://www.w3.org/Graphics/SVG/1.1/DTD/svg11.dtd">
<!-- Creator: CorelDRAW 2019 (64-Bit) -->
<svg xmlns="http://www.w3.org/2000/svg" xml:space="preserve" width="6.0749mm" height="5.3751mm" version="1.1" style="shape-rendering:geometricPrecision; text-rendering:geometricPrecision; image-rendering:optimizeQuality; fill-rule:evenodd; clip-rule:evenodd"
viewBox="0 0 39.33 34.8"
 xmlns:xlink="http://www.w3.org/1999/xlink"
 xmlns:xodm="http://www.corel.com/coreldraw/odm/2003">
 <defs>
  <style type="text/css">
   <![CDATA[
    .fil0 {fill:black}
    .fil1 {fill:red}
   ]]>
  </style>
 </defs>
 <g id="Слой_x0020_1">
  <metadata id="CorelCorpID_0Corel-Layer"/>
  <g id="_1989453003632">
   <path class="fil0" d="M1.11 24.97l28.43 0 0 -13.88c0,-0.61 0.5,-1.11 1.11,-1.11l0 0c0.61,0 1.11,0.5 1.11,1.11l0 13.88 2.5 0c0.61,0 1.11,0.5 1.11,1.11l0 7.61c0,0.61 -0.5,1.11 -1.11,1.11l-33.15 0c-0.61,0 -1.11,-0.5 -1.11,-1.11l0 -7.61c0,-0.61 0.5,-1.11 1.11,-1.11zm2.3 1.54c0.39,0 0.71,0.32 0.71,0.71 0,0.39 -0.32,0.71 -0.71,0.71 -0.39,0 -0.71,-0.32 -0.71,-0.71 0,-0.39 0.32,-0.71 0.71,-0.71zm2.45 0c0.39,0 0.71,0.32 0.71,0.71 0,0.39 -0.32,0.71 -0.71,0.71 -0.39,0 -0.71,-0.32 -0.71,-0.71 0,-0.39 0.32,-0.71 0.71,-0.71zm2.45 0c0.39,0 0.71,0.32 0.71,0.71 0,0.39 -0.32,0.71 -0.71,0.71 -0.39,0 -0.71,-0.32 -0.71,-0.71 0,-0.39 0.32,-0.71 0.71,-0.71z"/>
   <path class="fil1" d="M29.88 3.35c-1.77,0.17 -3.05,0.72 -4.37,1.62 -0.29,0.19 -1.11,0.85 -1.23,1.16 -0.25,0.66 0.37,1.35 1.03,1.21 0.39,-0.08 0.47,-0.31 0.7,-0.49 0.22,-0.17 0.41,-0.36 0.67,-0.52 1.4,-0.89 2.87,-1.39 4.73,-1.19 1.39,0.15 2.52,0.68 3.42,1.34 0.65,0.47 0.89,0.98 1.53,0.86 0.6,-0.12 0.97,-0.95 0.5,-1.47 -0.7,-0.76 -1.87,-1.49 -2.88,-1.9 -1.21,-0.49 -2.65,-0.75 -4.1,-0.61z"/>
   <path class="fil1" d="M26.48 8.85c0,0.61 0.66,1.18 1.33,0.81 0.37,-0.2 1.06,-1.26 2.91,-1.26 0.94,0 1.78,0.42 2.31,0.86 0.27,0.22 0.5,0.62 1.08,0.49 0.39,-0.08 0.71,-0.44 0.71,-0.93 0,-0.41 -0.42,-0.74 -0.63,-0.91 -1.85,-1.46 -4.07,-1.71 -6.17,-0.63 -0.34,0.18 -0.66,0.41 -0.92,0.63 -0.23,0.21 -0.63,0.44 -0.63,0.94z"/>
   <path class="fil1" d="M30.26 0.01c-2.86,0.17 -4.9,0.94 -7.03,2.53 -0.27,0.2 -1.09,0.86 -1.21,1.18 -0.29,0.82 0.77,1.7 1.55,0.9 0.63,-0.65 1.5,-1.22 2.31,-1.66 3.11,-1.71 7.1,-1.48 10.1,0.31 0.71,0.42 1.29,0.89 1.81,1.37 0.14,0.14 0.23,0.24 0.52,0.28 0.71,0.1 1.22,-0.66 0.96,-1.25 -0.17,-0.38 -1.26,-1.2 -1.68,-1.5 -0.61,-0.43 -1.29,-0.8 -2.04,-1.14 -1.4,-0.64 -3.52,-1.12 -5.28,-1.02z"/>
  </g>
 </g>
</svg>
