<?xml version="1.0" encoding="UTF-8"?>
<!DOCTYPE svg PUBLIC "-//W3C//DTD SVG 1.1//EN" "http://www.w3.org/Graphics/SVG/1.1/DTD/svg11.dtd">
<!-- Creator: CorelDRAW 2019 (64-Bit) -->
<svg xmlns="http://www.w3.org/2000/svg" xml:space="preserve" width="3.8511mm" height="5.3751mm" version="1.1" style="shape-rendering:geometricPrecision; text-rendering:geometricPrecision; image-rendering:optimizeQuality; fill-rule:evenodd; clip-rule:evenodd"
viewBox="0 0 19.79 27.62"
 xmlns:xlink="http://www.w3.org/1999/xlink"
 xmlns:xodm="http://www.corel.com/coreldraw/odm/2003">
 <defs>
  <style type="text/css">
   <![CDATA[
    .fil0 {fill:black}
    .fil1 {fill:red}
   ]]>
  </style>
 </defs>
 <g id="Слой_x0020_1">
  <metadata id="CorelCorpID_0Corel-Layer"/>
  <g id="_1989417360896">
   <path class="fil0" d="M3.38 27.38l0 -23.54 -1.42 0 -0.33 0 -0 0 -0.83 0c-0.44,0 -0.79,-0.36 -0.79,-0.79l0 0c0,-0.01 0,-0.02 0,-0.03 -0,-0 -0,-0 -0,-0.01l0 -2.97c0,-0.02 0.01,-0.03 0.03,-0.03l1.55 0c0.02,0 0.03,0.01 0.03,0.03l0 2.21c0.01,-0 0.01,-0.01 0.02,-0.01l18.13 0c0.02,0 0.03,0.01 0.03,0.03l0 1.55c0,0.02 -0.01,0.03 -0.03,0.03l-3.4 0 0 4.26 2.27 0c0.06,0 0.1,0.05 0.1,0.1l0 7.48c0,0.06 -0.05,0.1 -0.1,0.1l-2.27 0 0 3.9 2.29 0c0.04,0 0.08,0.04 0.08,0.08l0 4.18c0,0.04 -0.04,0.08 -0.08,0.08l-2.29 0 0 3.36c0,0.13 -0.11,0.24 -0.24,0.24l-12.49 0c-0.13,0 -0.24,-0.11 -0.24,-0.24zm3.4 -12.32c0,-0.63 0.51,-1.15 1.15,-1.15 0.63,0 1.15,0.51 1.15,1.15 0,0.63 -0.51,1.15 -1.15,1.15 -0.63,0 -1.15,-0.51 -1.15,-1.15zm0 -5.4c0,-0.63 0.51,-1.15 1.15,-1.15 0.63,0 1.15,0.51 1.15,1.15 0,0.63 -0.51,1.15 -1.15,1.15 -0.63,0 -1.15,-0.51 -1.15,-1.15zm9.64 5.8l0 -7.04c0,-0.07 0.06,-0.13 0.13,-0.13l1.85 0c0.07,0 0.13,0.06 0.13,0.13l0 7.04c0,0.07 -0.06,0.13 -0.13,0.13l-1.85 0c-0.07,0 -0.13,-0.06 -0.13,-0.13zm0 8.17l0 -3.6c0,-0.07 0.06,-0.13 0.13,-0.13l1.85 0c0.07,0 0.13,0.06 0.13,0.13l0 3.6c0,0.07 -0.06,0.13 -0.13,0.13l-1.85 0c-0.07,0 -0.13,-0.06 -0.13,-0.13zm-12.67 3.16l0 0c0,-0.26 0.21,-0.47 0.47,-0.47l0 0c0.26,0 0.47,0.21 0.47,0.47l0 0c0,0.26 -0.21,0.47 -0.47,0.47l0 0c-0.26,0 -0.47,-0.21 -0.47,-0.47zm11.26 0l0 0c0,-0.26 0.21,-0.47 0.47,-0.47l0 0c0.26,0 0.47,0.21 0.47,0.47l0 0c0,0.26 -0.21,0.47 -0.47,0.47l0 0c-0.26,0 -0.47,-0.21 -0.47,-0.47zm-9.7 -21.08l4.45 0c0.05,0 0.09,0.04 0.09,0.09l0 0.38c0,0.05 -0.04,0.09 -0.09,0.09l-4.45 0c-0.05,0 -0.09,-0.04 -0.09,-0.09l0 -0.38c0,-0.05 0.04,-0.09 0.09,-0.09zm7.94 3.1l0 -2.53 -2.54 0c-0.05,0 -0.09,-0.04 -0.09,-0.09l0 -0.38c0,-0.05 0.04,-0.09 0.09,-0.09l1.73 0 0.81 0 0.57 0 0 0.57 0 0.38 0 2.16c0,0.05 -0.04,0.09 -0.09,0.09l-0.38 0c-0.05,0 -0.09,-0.04 -0.09,-0.09zm0 16.57l0 -4.45c0,-0.05 0.04,-0.09 0.09,-0.09l0.38 0c0.05,0 0.09,0.04 0.09,0.09l0 4.45c0,0.05 -0.04,0.09 -0.09,0.09l-0.38 0c-0.05,0 -0.09,-0.04 -0.09,-0.09zm0 -5.52l0 -4.45c0,-0.05 0.04,-0.09 0.09,-0.09l0.38 0c0.05,0 0.09,0.04 0.09,0.09l0 4.45c0,0.05 -0.04,0.09 -0.09,0.09l-0.38 0c-0.05,0 -0.09,-0.04 -0.09,-0.09zm0 -5.52l0 -4.45c0,-0.05 0.04,-0.09 0.09,-0.09l0.38 0c0.05,0 0.09,0.04 0.09,0.09l0 4.45c0,0.05 -0.04,0.09 -0.09,0.09l-0.38 0c-0.05,0 -0.09,-0.04 -0.09,-0.09zm-7.43 -4.68c0,-1.16 0.94,-2.11 2.11,-2.11 1.16,0 2.11,0.94 2.11,2.11 0,1.16 -0.94,2.11 -2.11,2.11 -1.16,0 -2.11,-0.94 -2.11,-2.11zm0 5.4c0,-1.16 0.94,-2.11 2.11,-2.11 1.16,0 2.11,0.94 2.11,2.11 0,1.16 -0.94,2.11 -2.11,2.11 -1.16,0 -2.11,-0.94 -2.11,-2.11zm0.1 9.11l0 -5.52c0,-0.04 0.03,-0.07 0.07,-0.07l5.52 0c0.04,0 0.07,0.03 0.07,0.07l0 5.52c0,0.04 -0.03,0.07 -0.07,0.07l-5.52 0c-0.04,0 -0.07,-0.03 -0.07,-0.07z"/>
   <rect class="fil1" transform="matrix(1.95586E-15 -0.073849 0.073849 1.95586E-15 6.5147 23.6459)" width="60.66" height="60.66"/>
  </g>
 </g>
</svg>
