<?xml version="1.0" encoding="UTF-8"?>
<!DOCTYPE svg PUBLIC "-//W3C//DTD SVG 1.1//EN" "http://www.w3.org/Graphics/SVG/1.1/DTD/svg11.dtd">
<!-- Creator: CorelDRAW 2019 (64-Bit) -->
<svg xmlns="http://www.w3.org/2000/svg" xml:space="preserve" width="3.5983mm" height="5.3751mm" version="1.1" style="shape-rendering:geometricPrecision; text-rendering:geometricPrecision; image-rendering:optimizeQuality; fill-rule:evenodd; clip-rule:evenodd"
viewBox="0 0 12.59 18.81"
 xmlns:xlink="http://www.w3.org/1999/xlink"
 xmlns:xodm="http://www.corel.com/coreldraw/odm/2003">
 <defs>
  <style type="text/css">
   <![CDATA[
    .fil0 {fill:black}
    .fil1 {fill:red}
   ]]>
  </style>
 </defs>
 <g id="Слой_x0020_1">
  <metadata id="CorelCorpID_0Corel-Layer"/>
  <g id="_1989452988176">
   <path class="fil0" d="M2.13 0l8.33 0c1.17,0 2.13,0.96 2.13,2.13l0 14.54c0,1.17 -0.96,2.13 -2.13,2.13l-8.33 0c-1.17,0 -2.13,-0.96 -2.13,-2.13l0 -14.54c0,-1.17 0.96,-2.13 2.13,-2.13zm8.42 15.99c0.24,0 0.44,0.2 0.44,0.44 0,0.24 -0.2,0.44 -0.44,0.44 -0.24,0 -0.44,-0.2 -0.44,-0.44 0,-0.24 0.2,-0.44 0.44,-0.44zm0 -1.74c0.24,0 0.44,0.2 0.44,0.44 0,0.24 -0.2,0.44 -0.44,0.44 -0.24,0 -0.44,-0.2 -0.44,-0.44 0,-0.24 0.2,-0.44 0.44,-0.44zm0 -1.74c0.24,0 0.44,0.2 0.44,0.44 0,0.24 -0.2,0.44 -0.44,0.44 -0.24,0 -0.44,-0.2 -0.44,-0.44 0,-0.24 0.2,-0.44 0.44,-0.44zm0 -1.74c0.24,0 0.44,0.2 0.44,0.44 0,0.24 -0.2,0.44 -0.44,0.44 -0.24,0 -0.44,-0.2 -0.44,-0.44 0,-0.24 0.2,-0.44 0.44,-0.44zm0 -1.74c0.24,0 0.44,0.2 0.44,0.44 0,0.24 -0.2,0.44 -0.44,0.44 -0.24,0 -0.44,-0.2 -0.44,-0.44 0,-0.24 0.2,-0.44 0.44,-0.44zm0 -1.74c0.24,0 0.44,0.2 0.44,0.44 0,0.24 -0.2,0.44 -0.44,0.44 -0.24,0 -0.44,-0.2 -0.44,-0.44 0,-0.24 0.2,-0.44 0.44,-0.44zm0 -1.74c0.24,0 0.44,0.2 0.44,0.44 0,0.24 -0.2,0.44 -0.44,0.44 -0.24,0 -0.44,-0.2 -0.44,-0.44 0,-0.24 0.2,-0.44 0.44,-0.44zm0 -1.74c0.24,0 0.44,0.2 0.44,0.44 0,0.24 -0.2,0.44 -0.44,0.44 -0.24,0 -0.44,-0.2 -0.44,-0.44 0,-0.24 0.2,-0.44 0.44,-0.44zm0 -1.74c0.24,0 0.44,0.2 0.44,0.44 0,0.24 -0.2,0.44 -0.44,0.44 -0.24,0 -0.44,-0.2 -0.44,-0.44 0,-0.24 0.2,-0.44 0.44,-0.44zm-8.23 13.6c0.35,0 0.64,0.29 0.64,0.64 0,0.35 -0.29,0.64 -0.64,0.64 -0.35,0 -0.64,-0.29 -0.64,-0.64 0,-0.35 0.29,-0.64 0.64,-0.64zm-0.19 -15.16c-0.88,0 -1.61,0.72 -1.61,1.61l0 14.54c0,0.88 0.72,1.61 1.61,1.61l8.33 0c0.88,0 1.61,-0.72 1.61,-1.61l0 -14.54c0,-0.88 -0.72,-1.61 -1.61,-1.61l-8.33 0zm0 -0.17c-0.98,0 -1.78,0.8 -1.78,1.78l0 14.54c0,0.98 0.8,1.78 1.78,1.78l8.33 0c0.98,0 1.78,-0.8 1.78,-1.78l0 -14.54c0,-0.98 -0.8,-1.78 -1.78,-1.78l-8.33 0z"/>
   <circle class="fil1" cx="2.32" cy="16.32" r="0.36"/>
  </g>
 </g>
</svg>
