<?xml version="1.0" encoding="UTF-8"?>
<!DOCTYPE svg PUBLIC "-//W3C//DTD SVG 1.1//EN" "http://www.w3.org/Graphics/SVG/1.1/DTD/svg11.dtd">
<!-- Creator: CorelDRAW 2019 (64-Bit) -->
<svg xmlns="http://www.w3.org/2000/svg" xml:space="preserve" width="1.7377mm" height="5.3751mm" version="1.1" style="shape-rendering:geometricPrecision; text-rendering:geometricPrecision; image-rendering:optimizeQuality; fill-rule:evenodd; clip-rule:evenodd"
viewBox="0 0 3.78 11.69"
 xmlns:xlink="http://www.w3.org/1999/xlink"
 xmlns:xodm="http://www.corel.com/coreldraw/odm/2003">
 <defs>
  <style type="text/css">
   <![CDATA[
    .fil0 {fill:black}
    .fil1 {fill:red}
   ]]>
  </style>
 </defs>
 <g id="Слой_x0020_1">
  <metadata id="CorelCorpID_0Corel-Layer"/>
  <g id="_1989457592544">
   <path class="fil0" d="M3.61 8.98l-3.44 0c-0.09,0 -0.17,-0.08 -0.17,-0.17l0 -7.18c0,-0.9 0.74,-1.64 1.64,-1.64l0.5 0c0.9,0 1.64,0.74 1.64,1.64l0 7.18c0,0.09 -0.08,0.17 -0.17,0.17zm-1.97 -3.91c0,0.04 -0,0.06 -0.01,0.08 -0.01,0.02 -0.02,0.03 -0.03,0.03l-0.12 0 0 0.25c0,0.01 -0,0.01 -0.01,0.02 -0,0.01 -0.01,0.01 -0.02,0.01 -0.01,0 -0.03,0.01 -0.04,0.01 -0.02,0 -0.04,0 -0.07,0 -0.03,0 -0.05,-0 -0.07,-0 -0.02,-0 -0.03,-0 -0.04,-0.01 -0.01,-0 -0.02,-0.01 -0.02,-0.01 -0,-0.01 -0.01,-0.01 -0.01,-0.02l0 -0.25 -0.53 0c-0.01,0 -0.02,-0 -0.03,-0 -0.01,-0 -0.01,-0.01 -0.02,-0.02 -0.01,-0.01 -0.01,-0.02 -0.01,-0.04 -0,-0.02 -0,-0.04 -0,-0.07 0,-0.02 0,-0.04 0,-0.06 0,-0.02 0,-0.03 0.01,-0.05 0,-0.01 0.01,-0.03 0.01,-0.04 0,-0.01 0.01,-0.03 0.02,-0.04l0.43 -0.76c0,-0.01 0.01,-0.01 0.02,-0.02 0.01,-0 0.02,-0.01 0.04,-0.01 0.02,-0 0.04,-0.01 0.06,-0.01 0.02,-0 0.05,-0 0.09,-0 0.04,0 0.07,0 0.09,0 0.03,0 0.05,0 0.06,0.01 0.02,0 0.03,0.01 0.03,0.01 0.01,0.01 0.01,0.01 0.01,0.02l0 0.84 0.12 0c0.01,0 0.02,0.01 0.03,0.03 0.01,0.02 0.01,0.05 0.01,0.09zm1.38 -1.26c-0.15,-0.11 -0.29,-0.16 -0.47,-0.17 -0.02,-0 -0.09,-0 -0.11,0.01 -0.05,0.03 -0.03,0.12 0.04,0.11 0.06,-0.01 0.13,0 0.19,0.01 0.23,0.04 0.43,0.23 0.51,0.44 0.02,0.05 0.03,0.1 0.04,0.15 0,0.01 0,0.02 0.01,0.04 0.03,0.04 0.09,0.02 0.1,-0.02 0.01,-0.03 -0.01,-0.12 -0.02,-0.15 -0.01,-0.05 -0.03,-0.1 -0.06,-0.15 -0.05,-0.09 -0.13,-0.21 -0.23,-0.28zm-0.57 0.29c-0.03,0.03 -0.02,0.09 0.03,0.1 0.03,0.01 0.11,-0.02 0.2,0.06 0.05,0.04 0.07,0.1 0.08,0.14 0,0.02 -0,0.05 0.04,0.07 0.02,0.01 0.06,0.01 0.08,-0.02 0.02,-0.02 0.01,-0.06 0.01,-0.07 -0.03,-0.15 -0.14,-0.26 -0.29,-0.29 -0.03,-0.01 -0.05,-0.01 -0.07,-0.01 -0.02,0 -0.05,-0 -0.07,0.02zm0.41 -0.14c-0.1,-0.07 -0.19,-0.09 -0.29,-0.1 -0.02,-0 -0.09,-0 -0.11,0.01 -0.04,0.02 -0.04,0.09 0,0.11 0.02,0.01 0.04,0 0.06,0 0.02,0 0.04,-0 0.06,0 0.11,0.01 0.21,0.05 0.29,0.14 0.07,0.07 0.1,0.14 0.12,0.21 0.01,0.05 0,0.09 0.04,0.11 0.04,0.02 0.09,-0.01 0.09,-0.05 -0,-0.07 -0.03,-0.16 -0.07,-0.22 -0.04,-0.08 -0.1,-0.15 -0.19,-0.21zm-0.2 0.54c0,0.02 -0,0.03 -0,0.04 -0,0.01 -0,0.02 -0.01,0.03 -0,0.01 -0.01,0.01 -0.01,0.02 -0,0 -0.01,0 -0.01,0 -0.01,0 -0.02,-0.01 -0.04,-0.02 -0.02,-0.01 -0.04,-0.02 -0.07,-0.04 -0.03,-0.01 -0.06,-0.02 -0.1,-0.04 -0.04,-0.01 -0.09,-0.02 -0.14,-0.02 -0.06,0 -0.11,0.01 -0.15,0.03 -0.05,0.02 -0.08,0.05 -0.12,0.08 -0.03,0.04 -0.06,0.08 -0.07,0.13 -0.02,0.05 -0.03,0.11 -0.03,0.17 0,0.07 0.01,0.13 0.03,0.18 0.02,0.05 0.04,0.09 0.07,0.13 0.03,0.03 0.07,0.06 0.11,0.08 0.04,0.02 0.09,0.03 0.15,0.03 0.03,0 0.05,-0 0.08,-0.01 0.03,-0.01 0.05,-0.02 0.07,-0.03l0 -0.27 -0.22 0c-0.01,0 -0.02,-0.01 -0.03,-0.02 -0.01,-0.01 -0.01,-0.04 -0.01,-0.07 0,-0.02 0,-0.03 0,-0.04 0,-0.01 0,-0.02 0.01,-0.03 0,-0.01 0.01,-0.01 0.01,-0.02 0,-0 0.01,-0.01 0.01,-0.01l0.39 0c0.01,0 0.02,0 0.03,0.01 0.01,0 0.01,0.01 0.02,0.02 0.01,0.01 0.01,0.01 0.01,0.02 0,0.01 0,0.02 0,0.03l0 0.46c0,0.02 -0,0.03 -0.01,0.05 -0.01,0.01 -0.02,0.02 -0.04,0.03 -0.02,0.01 -0.04,0.02 -0.07,0.02 -0.03,0.01 -0.06,0.02 -0.09,0.02 -0.03,0.01 -0.06,0.01 -0.09,0.01 -0.03,0 -0.06,0 -0.09,0 -0.09,0 -0.18,-0.01 -0.25,-0.04 -0.07,-0.03 -0.14,-0.07 -0.19,-0.12 -0.05,-0.05 -0.09,-0.11 -0.12,-0.19 -0.03,-0.07 -0.04,-0.16 -0.04,-0.25 0,-0.1 0.01,-0.18 0.04,-0.26 0.03,-0.08 0.07,-0.14 0.12,-0.19 0.05,-0.05 0.12,-0.09 0.19,-0.12 0.07,-0.03 0.16,-0.04 0.25,-0.04 0.05,0 0.1,0 0.14,0.01 0.04,0.01 0.08,0.02 0.11,0.03 0.03,0.01 0.06,0.02 0.08,0.03 0.02,0.01 0.03,0.02 0.04,0.03 0.01,0.01 0.01,0.02 0.02,0.04 0,0.02 0.01,0.04 0.01,0.07zm-1.45 -0.19l-0 0 -0.37 0.64 0.37 0 0 -0.64z"/>
   <path class="fil1" d="M0.59 9.34l2.6 0c0.05,0 0.1,0.04 0.1,0.1l0 2.16c0,0.05 -0.04,0.1 -0.1,0.1l-2.6 0c-0.05,0 -0.1,-0.04 -0.1,-0.1l0 -2.16c0,-0.05 0.04,-0.1 0.1,-0.1zm0.24 0.92l0.69 0c0.03,0 0.05,0.02 0.05,0.05l0 0.42c0,0.03 -0.02,0.05 -0.05,0.05l-0.69 0c-0.03,0 -0.05,-0.02 -0.05,-0.05l0 -0.42c0,-0.03 0.02,-0.05 0.05,-0.05zm1.46 0l0.69 0c0.03,0 0.05,0.02 0.05,0.05l0 0.42c0,0.03 -0.02,0.05 -0.05,0.05l-0.69 0c-0.03,0 -0.05,-0.02 -0.05,-0.05l0 -0.42c0,-0.03 0.02,-0.05 0.05,-0.05z"/>
  </g>
 </g>
</svg>
