<?xml version="1.0" encoding="UTF-8"?>
<!DOCTYPE svg PUBLIC "-//W3C//DTD SVG 1.1//EN" "http://www.w3.org/Graphics/SVG/1.1/DTD/svg11.dtd">
<!-- Creator: CorelDRAW 2019 (64-Bit) -->
<svg xmlns="http://www.w3.org/2000/svg" xml:space="preserve" width="1.4767mm" height="5.3751mm" version="1.1" style="shape-rendering:geometricPrecision; text-rendering:geometricPrecision; image-rendering:optimizeQuality; fill-rule:evenodd; clip-rule:evenodd"
viewBox="0 0 4.37 15.91"
 xmlns:xlink="http://www.w3.org/1999/xlink"
 xmlns:xodm="http://www.corel.com/coreldraw/odm/2003">
 <defs>
  <style type="text/css">
   <![CDATA[
    .fil0 {fill:black}
    .fil1 {fill:red}
   ]]>
  </style>
 </defs>
 <g id="Слой_x0020_1">
  <metadata id="CorelCorpID_0Corel-Layer"/>
  <g id="_1989454943760">
   <path class="fil0" d="M0.79 0l2.83 0c0.1,0 0.18,0.08 0.18,0.18l0 2.3 -0.35 0 0 -0.35 0 -0.85 0 -0.93 -2.48 0 0 0.93 0 0.85 0 0.35 -0.35 0 0 -2.3c0,-0.1 0.08,-0.18 0.18,-0.18zm-0.68 2.83l1.67 0 0 1.34c0,0.03 0.02,0.05 0.05,0.05l0.7 0c0.03,0 0.05,-0.02 0.05,-0.05l0 -1.34 1.67 0c0.06,0 0.12,0.05 0.12,0.12l0 4.35c0,0.36 -0.29,0.65 -0.65,0.65l-3.06 0c-0.36,0 -0.65,-0.29 -0.65,-0.65l0 -4.35c0,-0.06 0.05,-0.12 0.12,-0.12zm2.78 8.64l0 4.41c0,0.01 -0.01,0.03 -0.03,0.03l-1.36 0c-0.01,0 -0.03,-0.01 -0.03,-0.03l0 -4.41 -0.16 0c-0.04,0 -0.06,-0.03 -0.07,-0.07l-0.59 -3.03c-0.01,-0.04 0.03,-0.07 0.07,-0.07l2.93 0c0.04,0 0.08,0.03 0.07,0.07l-0.59 3.03c-0.01,0.04 -0.03,0.07 -0.07,0.07l-0.16 0z"/>
   <rect class="fil1" x="1.15" y="0.55" width="0.38" height="1.4" rx="0.05" ry="0.04"/>
   <rect class="fil1" x="1.73" y="0.55" width="0.38" height="1.4" rx="0.05" ry="0.04"/>
   <rect class="fil1" x="2.32" y="0.55" width="0.38" height="1.4" rx="0.05" ry="0.04"/>
   <rect class="fil1" x="2.9" y="0.55" width="0.38" height="1.4" rx="0.05" ry="0.04"/>
  </g>
 </g>
</svg>
