<?xml version="1.0" encoding="UTF-8"?>
<!DOCTYPE svg PUBLIC "-//W3C//DTD SVG 1.1//EN" "http://www.w3.org/Graphics/SVG/1.1/DTD/svg11.dtd">
<!-- Creator: CorelDRAW 2019 (64-Bit) -->
<svg xmlns="http://www.w3.org/2000/svg" xml:space="preserve" width="2.5239mm" height="5.3909mm" version="1.1" style="shape-rendering:geometricPrecision; text-rendering:geometricPrecision; image-rendering:optimizeQuality; fill-rule:evenodd; clip-rule:evenodd"
viewBox="0 0 2.68 5.72"
 xmlns:xlink="http://www.w3.org/1999/xlink"
 xmlns:xodm="http://www.corel.com/coreldraw/odm/2003">
 <defs>
  <style type="text/css">
   <![CDATA[
    .fil0 {fill:black}
    .fil1 {fill:red}
   ]]>
  </style>
 </defs>
 <g id="Слой_x0020_1">
  <metadata id="CorelCorpID_0Corel-Layer"/>
  <g id="_1989253641984">
   <path class="fil0" d="M0.51 0l1.66 0c0.28,0 0.51,0.26 0.51,0.58l0 4.57c0,0.32 -0.23,0.58 -0.51,0.58l-1.66 0c-0.28,0 -0.51,-0.26 -0.51,-0.58l0 -4.57c0,-0.32 0.23,-0.58 0.51,-0.58zm0.36 4.12c0.25,0 0.46,0.21 0.46,0.46 0,0.25 -0.21,0.46 -0.46,0.46 -0.25,0 -0.46,-0.21 -0.46,-0.46 0,-0.25 0.21,-0.46 0.46,-0.46zm-0.44 -2.76l1.83 0c0.02,0 0.04,0.02 0.04,0.04l0 0.42c0,0.02 -0.02,0.04 -0.04,0.04l-1.83 0c-0.02,0 -0.04,-0.02 -0.04,-0.04l0 -0.42c0,-0.02 0.02,-0.04 0.04,-0.04zm0 -0.68l1.83 0c0.02,0 0.04,0.02 0.04,0.04l0 0.42c0,0.02 -0.02,0.04 -0.04,0.04l-1.83 0c-0.02,0 -0.04,-0.02 -0.04,-0.04l0 -0.42c0,-0.02 0.02,-0.04 0.04,-0.04z"/>
   <path class="fil1" d="M0.85 4.24c-0.03,0.01 -0.05,0.04 -0.05,0.07 0,0.03 -0,0.21 0,0.23 0.01,0.02 0.04,0.05 0.07,0.04 0.03,-0.01 0.05,-0.04 0.05,-0.07 -0,-0.03 0,-0.21 -0,-0.23 -0.01,-0.02 -0.04,-0.05 -0.07,-0.05zm0.13 0.08c-0,0.03 -0,0.1 -0,0.13 0,0.01 0.03,0.03 0.05,0.08 0.03,0.11 -0.05,0.22 -0.17,0.22 -0.08,0 -0.14,-0.05 -0.16,-0.11 -0.02,-0.05 -0.02,-0.11 0.02,-0.16 0.01,-0.01 0.01,-0.01 0.01,-0.02 0,-0.01 0.01,-0.01 0.01,-0.02 0,-0.04 0,-0.1 -0,-0.13 -0.02,0.01 -0.08,0.05 -0.09,0.06 -0.1,0.1 -0.11,0.26 -0.02,0.37 0.02,0.02 0.02,0.03 0.05,0.05 0.02,0.01 0.05,0.04 0.08,0.05 0.08,0.03 0.13,0.03 0.21,0 0.03,-0.01 0.06,-0.03 0.08,-0.05 0.05,-0.05 0.08,-0.09 0.1,-0.16 0.02,-0.09 -0.01,-0.19 -0.06,-0.25 -0.01,-0.02 -0.02,-0.02 -0.03,-0.03 -0.01,-0.01 -0.06,-0.05 -0.08,-0.05z"/>
  </g>
 </g>
</svg>
