<?xml version="1.0" encoding="UTF-8"?>
<!DOCTYPE svg PUBLIC "-//W3C//DTD SVG 1.1//EN" "http://www.w3.org/Graphics/SVG/1.1/DTD/svg11.dtd">
<!-- Creator: CorelDRAW 2019 (64-Bit) -->
<svg xmlns="http://www.w3.org/2000/svg" xml:space="preserve" width="2.6955mm" height="5.391mm" version="1.1" style="shape-rendering:geometricPrecision; text-rendering:geometricPrecision; image-rendering:optimizeQuality; fill-rule:evenodd; clip-rule:evenodd"
viewBox="0 0 2.87 5.75"
 xmlns:xlink="http://www.w3.org/1999/xlink"
 xmlns:xodm="http://www.corel.com/coreldraw/odm/2003">
 <defs>
  <style type="text/css">
   <![CDATA[
    .fil0 {fill:black}
    .fil1 {fill:red}
   ]]>
  </style>
 </defs>
 <g id="Слой_x0020_1">
  <metadata id="CorelCorpID_0Corel-Layer"/>
  <g id="_1989256611072">
   <path class="fil0" d="M0.27 0l2.34 0c0.15,0 0.27,0.12 0.27,0.27l0 2.34c0,0.15 -0.12,0.27 -0.27,0.27l-2.34 0c-0.15,0 -0.27,-0.12 -0.27,-0.27l0 -2.34c0,-0.15 0.12,-0.27 0.27,-0.27zm1.17 0.33c0.61,0 1.1,0.49 1.1,1.1 0,0.61 -0.49,1.1 -1.1,1.1 -0.61,0 -1.1,-0.49 -1.1,-1.1 0,-0.61 0.49,-1.1 1.1,-1.1zm-1.13 -0.22c0.1,0 0.17,0.08 0.17,0.17 0,0.1 -0.08,0.17 -0.17,0.17 -0.1,0 -0.17,-0.08 -0.17,-0.17 0,-0.1 0.08,-0.17 0.17,-0.17zm2.27 0c0.1,0 0.17,0.08 0.17,0.17 0,0.1 -0.08,0.17 -0.17,0.17 -0.1,0 -0.17,-0.08 -0.17,-0.17 0,-0.1 0.08,-0.17 0.17,-0.17zm-2.27 2.29c0.1,0 0.17,0.08 0.17,0.17 0,0.1 -0.08,0.17 -0.17,0.17 -0.1,0 -0.17,-0.08 -0.17,-0.17 0,-0.1 0.08,-0.17 0.17,-0.17zm2.27 0c0.1,0 0.17,0.08 0.17,0.17 0,0.1 -0.08,0.17 -0.17,0.17 -0.1,0 -0.17,-0.08 -0.17,-0.17 0,-0.1 0.08,-0.17 0.17,-0.17z"/>
   <path class="fil1" d="M2.23 1.15l-0.33 0.13c0.01,-0.07 0.18,-0.26 0.2,-0.37 -0.11,-0.13 -0.27,-0.27 -0.52,-0.31 -0.01,0.08 -0.03,0.3 -0.06,0.35 -0.05,-0.06 -0.12,-0.26 -0.21,-0.35 -0.14,0.01 -0.33,0.1 -0.43,0.18 -0.02,0.02 -0.09,0.09 -0.1,0.11 0.06,0.03 0.23,0.16 0.27,0.23l-0.41 -0.01c-0.08,0.19 -0.08,0.41 -0.01,0.6l0.34 -0.13c-0.06,0.12 -0.15,0.24 -0.21,0.36 0.08,0.11 0.29,0.29 0.52,0.31 0.01,-0.08 0.03,-0.3 0.06,-0.36l0.2 0.36c0.2,0.01 0.47,-0.2 0.53,-0.29 -0.06,-0.06 -0.21,-0.15 -0.27,-0.23l0.41 0.01c0.09,-0.13 0.09,-0.47 0.01,-0.6zm-0.79 0.06c0.12,0 0.21,0.09 0.21,0.21 0,0.12 -0.09,0.21 -0.21,0.21 -0.12,0 -0.21,-0.09 -0.21,-0.21 0,-0.12 0.09,-0.21 0.21,-0.21z"/>
   <path class="fil0" d="M0.27 2.87l2.34 0c0.15,0 0.27,0.12 0.27,0.27l0 2.34c0,0.15 -0.12,0.27 -0.27,0.27l-2.34 0c-0.15,0 -0.27,-0.12 -0.27,-0.27l0 -2.34c0,-0.15 0.12,-0.27 0.27,-0.27zm1.17 0.33c0.61,0 1.1,0.49 1.1,1.1 0,0.61 -0.49,1.1 -1.1,1.1 -0.61,0 -1.1,-0.49 -1.1,-1.1 0,-0.61 0.49,-1.1 1.1,-1.1zm-1.13 -0.22c0.1,0 0.17,0.08 0.17,0.17 0,0.1 -0.08,0.17 -0.17,0.17 -0.1,0 -0.17,-0.08 -0.17,-0.17 0,-0.1 0.08,-0.17 0.17,-0.17zm2.27 0c0.1,0 0.17,0.08 0.17,0.17 0,0.1 -0.08,0.17 -0.17,0.17 -0.1,0 -0.17,-0.08 -0.17,-0.17 0,-0.1 0.08,-0.17 0.17,-0.17zm-2.27 2.29c0.1,0 0.17,0.08 0.17,0.17 0,0.1 -0.08,0.17 -0.17,0.17 -0.1,0 -0.17,-0.08 -0.17,-0.17 0,-0.1 0.08,-0.17 0.17,-0.17zm2.27 0c0.1,0 0.17,0.08 0.17,0.17 0,0.1 -0.08,0.17 -0.17,0.17 -0.1,0 -0.17,-0.08 -0.17,-0.17 0,-0.1 0.08,-0.17 0.17,-0.17z"/>
   <path class="fil1" d="M2.23 4.03l-0.33 0.13c0.01,-0.07 0.18,-0.26 0.2,-0.37 -0.11,-0.13 -0.27,-0.27 -0.52,-0.31 -0.01,0.08 -0.03,0.3 -0.06,0.35 -0.05,-0.06 -0.12,-0.26 -0.21,-0.35 -0.14,0.01 -0.33,0.1 -0.43,0.18 -0.02,0.02 -0.09,0.09 -0.1,0.11 0.06,0.03 0.23,0.16 0.27,0.23l-0.41 -0.01c-0.08,0.19 -0.08,0.41 -0.01,0.6l0.34 -0.13c-0.06,0.12 -0.15,0.24 -0.21,0.36 0.08,0.11 0.29,0.29 0.52,0.31 0.01,-0.08 0.03,-0.3 0.06,-0.36l0.2 0.36c0.2,0.01 0.47,-0.2 0.53,-0.29 -0.06,-0.06 -0.21,-0.15 -0.27,-0.23l0.41 0.01c0.09,-0.13 0.09,-0.47 0.01,-0.6zm-0.79 0.06c0.12,0 0.21,0.09 0.21,0.21 0,0.12 -0.09,0.21 -0.21,0.21 -0.12,0 -0.21,-0.09 -0.21,-0.21 0,-0.12 0.09,-0.21 0.21,-0.21z"/>
  </g>
 </g>
</svg>
