<?xml version="1.0" encoding="UTF-8"?>
<!DOCTYPE svg PUBLIC "-//W3C//DTD SVG 1.1//EN" "http://www.w3.org/Graphics/SVG/1.1/DTD/svg11.dtd">
<!-- Creator: CorelDRAW 2020 (64-Bit) -->
<svg xmlns="http://www.w3.org/2000/svg" xml:space="preserve" width="3.9915mm" height="5.3751mm" version="1.1" style="shape-rendering:geometricPrecision; text-rendering:geometricPrecision; image-rendering:optimizeQuality; fill-rule:evenodd; clip-rule:evenodd"
viewBox="0 0 5.08 6.85"
 xmlns:xlink="http://www.w3.org/1999/xlink"
 xmlns:xodm="http://www.corel.com/coreldraw/odm/2003">
 <defs>
  <style type="text/css">
   <![CDATA[
    .fil0 {fill:black}
    .fil1 {fill:red}
   ]]>
  </style>
 </defs>
 <g id="Слой_x0020_1">
  <metadata id="CorelCorpID_0Corel-Layer"/>
  <g id="_2166747609632">
   <path class="fil0" d="M0.21 5.97c-0.05,0.1 0.47,0.49 0.61,0.44l2.47 -3.58 -0.61 -0.42 -2.47 3.56z"/>
   <path class="fil0" d="M2.4 1.84l1.49 1.04c0.06,0.04 -0.05,0.15 -0.1,0.12l-1.49 -1.04c-0.06,-0.04 0.04,-0.16 0.1,-0.12z"/>
   <polygon class="fil0" points="3.42,2.38 4.45,0.78 4.18,0.6 3.05,2.12 "/>
   <path class="fil1" d="M-0 6.74c0.03,0.07 0.08,0.1 0.16,0.11l0.36 -0.4c-0.1,-0.05 -0.2,-0.13 -0.28,-0.2l-0.25 0.49z"/>
   <path class="fil0" d="M3.87 0.01l1.2 0.83c0.06,0.04 -0.05,0.15 -0.1,0.12l-1.2 -0.83c-0.06,-0.04 0.04,-0.16 0.1,-0.12z"/>
  </g>
 </g>
</svg>
