<?xml version="1.0" encoding="UTF-8"?>
<!DOCTYPE svg PUBLIC "-//W3C//DTD SVG 1.1//EN" "http://www.w3.org/Graphics/SVG/1.1/DTD/svg11.dtd">
<!-- Creator: CorelDRAW 2019 (64-Bit) -->
<svg xmlns="http://www.w3.org/2000/svg" xml:space="preserve" width="3.5mm" height="5.391mm" version="1.1" style="shape-rendering:geometricPrecision; text-rendering:geometricPrecision; image-rendering:optimizeQuality; fill-rule:evenodd; clip-rule:evenodd"
viewBox="0 0 5.59 8.6"
 xmlns:xlink="http://www.w3.org/1999/xlink"
 xmlns:xodm="http://www.corel.com/coreldraw/odm/2003">
 <defs>
  <style type="text/css">
   <![CDATA[
    .fil0 {fill:black}
    .fil1 {fill:red}
   ]]>
  </style>
 </defs>
 <g id="Слой_x0020_1">
  <metadata id="CorelCorpID_0Corel-Layer"/>
  <g id="_1989264921696">
   <path class="fil0" d="M5.2 8.6l-4.81 0c-0.21,0 -0.39,-0.18 -0.39,-0.39l0 -7.82c0,-0.21 0.18,-0.39 0.39,-0.39l4.81 0c0.21,0 0.39,0.18 0.39,0.39l0 7.82c0,0.21 -0.18,0.39 -0.39,0.39zm-1.52 -2.93l-3.04 0c-0.03,0 -0.05,-0.02 -0.05,-0.05l0 -0c0,-0.03 0.02,-0.05 0.05,-0.05l3.04 0c0.03,0 0.05,0.02 0.05,0.05l0 0c0,0.03 -0.02,0.05 -0.05,0.05zm0 0.98l-3.04 0c-0.03,0 -0.05,-0.02 -0.05,-0.05l0 -0c0,-0.03 0.02,-0.05 0.05,-0.05l3.04 0c0.03,0 0.05,0.02 0.05,0.05l0 0c0,0.03 -0.02,0.05 -0.05,0.05zm0 1l-3.04 0c-0.03,0 -0.05,-0.02 -0.05,-0.05l0 -0c0,-0.03 0.02,-0.05 0.05,-0.05l3.04 0c0.03,0 0.05,0.02 0.05,0.05l0 0c0,0.03 -0.02,0.05 -0.05,0.05zm1.05 -6.46c-0.11,0 -0.19,-0.09 -0.19,-0.19 0,-0.11 0.09,-0.19 0.19,-0.19 0.11,0 0.19,0.09 0.19,0.19 0,0.11 -0.09,0.19 -0.19,0.19zm0 1.01c-0.11,0 -0.19,-0.09 -0.19,-0.19 0,-0.11 0.09,-0.19 0.19,-0.19 0.11,0 0.19,0.09 0.19,0.19 0,0.11 -0.09,0.19 -0.19,0.19zm0 1.01c-0.11,0 -0.19,-0.09 -0.19,-0.19 0,-0.11 0.09,-0.19 0.19,-0.19 0.11,0 0.19,0.09 0.19,0.19 0,0.11 -0.09,0.19 -0.19,0.19zm0 2.59c-0.11,0 -0.19,-0.09 -0.19,-0.19 0,-0.11 0.09,-0.19 0.19,-0.19 0.11,0 0.19,0.09 0.19,0.19 0,0.11 -0.09,0.19 -0.19,0.19zm0 1c-0.11,0 -0.19,-0.09 -0.19,-0.19 0,-0.11 0.09,-0.19 0.19,-0.19 0.11,0 0.19,0.09 0.19,0.19 0,0.11 -0.09,0.19 -0.19,0.19zm0 1c-0.11,0 -0.19,-0.09 -0.19,-0.19 0,-0.11 0.09,-0.19 0.19,-0.19 0.11,0 0.19,0.09 0.19,0.19 0,0.11 -0.09,0.19 -0.19,0.19zm0.32 -3.22l-0.53 0c-0.02,0 -0.03,-0.01 -0.03,-0.03l0 -0.52c0,-0.02 0.01,-0.03 0.03,-0.03l0.53 0c0.02,0 0.03,0.01 0.03,0.03l0 0.52c0,0.02 -0.01,0.03 -0.03,0.03zm-0.32 3.43c-0.23,0 -0.41,-0.18 -0.41,-0.41 0,-0.23 0.18,-0.41 0.41,-0.41 0.23,0 0.41,0.18 0.41,0.41 0,0.23 -0.18,0.41 -0.41,0.41zm0 -1c-0.23,0 -0.41,-0.18 -0.41,-0.41 0,-0.23 0.18,-0.41 0.41,-0.41 0.23,0 0.41,0.18 0.41,0.41 0,0.23 -0.18,0.41 -0.41,0.41zm0 -1c-0.23,0 -0.41,-0.18 -0.41,-0.41 0,-0.23 0.18,-0.41 0.41,-0.41 0.23,0 0.41,0.18 0.41,0.41 0,0.23 -0.18,0.41 -0.41,0.41zm-0.95 0.01l-3.23 0c-0.14,0 -0.25,-0.11 -0.25,-0.25l0 -0.35c0,-0.14 0.11,-0.25 0.25,-0.25l3.23 0c0.14,0 0.25,0.11 0.25,0.25l0 0.35c0,0.14 -0.11,0.25 -0.25,0.25zm0 1l-3.23 0c-0.14,0 -0.25,-0.11 -0.25,-0.25l0 -0.35c0,-0.14 0.11,-0.25 0.25,-0.25l3.23 0c0.14,0 0.25,0.11 0.25,0.25l0 0.35c0,0.14 -0.11,0.25 -0.25,0.25zm0 1l-3.23 0c-0.14,0 -0.25,-0.11 -0.25,-0.25l0 -0.35c0,-0.14 0.11,-0.25 0.25,-0.25l3.23 0c0.14,0 0.25,0.11 0.25,0.25l0 0.35c0,0.14 -0.11,0.25 -0.25,0.25zm0.95 -6.62c-0.23,0 -0.41,-0.18 -0.41,-0.41 0,-0.23 0.18,-0.41 0.41,-0.41 0.23,0 0.41,0.18 0.41,0.41 0,0.23 -0.18,0.41 -0.41,0.41zm0 1.01c-0.23,0 -0.41,-0.18 -0.41,-0.41 0,-0.23 0.18,-0.41 0.41,-0.41 0.23,0 0.41,0.18 0.41,0.41 0,0.23 -0.18,0.41 -0.41,0.41zm0 1.01c-0.23,0 -0.41,-0.18 -0.41,-0.41 0,-0.23 0.18,-0.41 0.41,-0.41 0.23,0 0.41,0.18 0.41,0.41 0,0.23 -0.18,0.41 -0.41,0.41zm0.45 1.44l-0.8 0c-0.09,0 -0.17,-0.08 -0.17,-0.17l0 -0.79c0,-0.09 0.08,-0.17 0.17,-0.17l0.8 0c0.09,0 0.17,0.08 0.17,0.17l0 0.79c0,0.09 -0.08,0.17 -0.17,0.17zm-1.47 -0.43l-0.54 0c-0.01,0 -0.01,-0.01 -0.01,-0.01l0 -0.24c0,-0.01 0.01,-0.01 0.01,-0.01l0.54 0c0.01,0 0.01,0.01 0.01,0.01l0 0.24c0,0.01 -0.01,0.01 -0.01,0.01zm-3.42 -2.89l0 -0.54c0,-0.01 0.01,-0.01 0.01,-0.01l0.24 0c0.01,0 0.01,0.01 0.01,0.01l0 0.54c0,0.01 -0.01,0.01 -0.01,0.01l-0.24 0c-0.01,0 -0.01,-0.01 -0.01,-0.01zm0 0.72l0 -0.54c0,-0.01 0.01,-0.01 0.01,-0.01l0.24 0c0.01,0 0.01,0.01 0.01,0.01l0 0.54c0,0.01 -0.01,0.01 -0.01,0.01l-0.24 0c-0.01,0 -0.01,-0.01 -0.01,-0.01zm0 0.72l0 -0.54c0,-0.01 0.01,-0.01 0.01,-0.01l0.24 0c0.01,0 0.01,0.01 0.01,0.01l0 0.54c0,0.01 -0.01,0.01 -0.01,0.01l-0.24 0c-0.01,0 -0.01,-0.01 -0.01,-0.01zm0 0.71l0 -0.54c0,-0.01 0.01,-0.01 0.01,-0.01l0.24 0c0.01,0 0.01,0.01 0.01,0.01l0 0.54c0,0.01 -0.01,0.01 -0.01,0.01l-0.24 0c-0.01,0 -0.01,-0.01 -0.01,-0.01zm0 0.48l0 -0.29c0,-0.01 0.01,-0.01 0.01,-0.01l0.24 0c0.01,0 0.01,0.01 0.01,0.01l0 0.28 0.28 0c0.01,0 0.01,0.01 0.01,0.01l0 0.24c0,0.01 -0.01,0.01 -0.01,0.01l-0.29 0 -0.24 0c-0.01,0 -0.01,-0.01 -0.01,-0.01l0 -0.24zm1.26 0.26l-0.54 0c-0.01,0 -0.01,-0.01 -0.01,-0.01l0 -0.24c0,-0.01 0.01,-0.01 0.01,-0.01l0.54 0c0.01,0 0.01,0.01 0.01,0.01l0 0.24c0,0.01 -0.01,0.01 -0.01,0.01zm0.72 0l-0.54 0c-0.01,0 -0.01,-0.01 -0.01,-0.01l0 -0.24c0,-0.01 0.01,-0.01 0.01,-0.01l0.54 0c0.01,0 0.01,0.01 0.01,0.01l0 0.24c0,0.01 -0.01,0.01 -0.01,0.01zm0.72 0l-0.54 0c-0.01,0 -0.01,-0.01 -0.01,-0.01l0 -0.24c0,-0.01 0.01,-0.01 0.01,-0.01l0.54 0c0.01,0 0.01,0.01 0.01,0.01l0 0.24c0,0.01 -0.01,0.01 -0.01,0.01zm0.65 -0.85l-2.17 0c-0.23,0 -0.42,-0.19 -0.42,-0.42l0 -2.17c0,-0.23 0.19,-0.42 0.42,-0.42l2.17 0c0.23,0 0.42,0.19 0.42,0.42l0 2.17c0,0.23 -0.19,0.42 -0.42,0.42z"/>
   <g>
    <path class="fil0" d="M1.86 1.31l0 1.54 1.42 0 0 -1.54 -1.42 0zm0.47 0.47l0 0.6 0.48 0 0 -0.6 -0.48 0z"/>
    <rect class="fil1" transform="matrix(-5.58573E-15 -0.068529 0.0761225 -5.90302E-15 1.34724 2.84671)" width="3.26" height="4.7"/>
    <rect class="fil1" transform="matrix(-5.58573E-15 -0.068529 0.0761225 -5.90302E-15 1.34724 2.40802)" width="3.26" height="4.7"/>
    <rect class="fil1" transform="matrix(-5.58573E-15 -0.068529 0.0761225 -5.90302E-15 1.34724 1.96934)" width="3.26" height="4.7"/>
    <rect class="fil1" transform="matrix(-5.58573E-15 -0.068529 0.0761225 -5.90302E-15 1.34724 1.53064)" width="3.26" height="4.7"/>
    <rect class="fil1" transform="matrix(-5.58573E-15 -0.068529 0.0761225 -5.90302E-15 3.41265 2.84671)" width="3.26" height="4.7"/>
    <rect class="fil1" transform="matrix(-5.58573E-15 -0.068529 0.0761225 -5.90302E-15 3.41265 2.40802)" width="3.26" height="4.7"/>
    <rect class="fil1" transform="matrix(-5.58573E-15 -0.068529 0.0761225 -5.90302E-15 3.41265 1.96934)" width="3.26" height="4.7"/>
    <rect class="fil1" transform="matrix(-5.58573E-15 -0.068529 0.0761225 -5.90302E-15 3.41265 1.53064)" width="3.26" height="4.7"/>
    <rect class="fil1" x="1.86" y="0.86" width="0.24" height="0.33"/>
    <rect class="fil1" x="2.25" y="0.86" width="0.24" height="0.33"/>
    <rect class="fil1" x="2.64" y="0.86" width="0.24" height="0.33"/>
    <rect class="fil1" x="3.04" y="0.86" width="0.24" height="0.33"/>
    <rect class="fil1" x="1.86" y="2.97" width="0.24" height="0.33"/>
    <rect class="fil1" x="2.25" y="2.97" width="0.24" height="0.33"/>
    <rect class="fil1" x="2.64" y="2.97" width="0.24" height="0.33"/>
    <rect class="fil1" x="3.04" y="2.97" width="0.24" height="0.33"/>
   </g>
  </g>
 </g>
</svg>
