<?xml version="1.0" encoding="UTF-8"?>
<!DOCTYPE svg PUBLIC "-//W3C//DTD SVG 1.1//EN" "http://www.w3.org/Graphics/SVG/1.1/DTD/svg11.dtd">
<!-- Creator: CorelDRAW 2019 (64-Bit) -->
<svg xmlns="http://www.w3.org/2000/svg" xml:space="preserve" width="4.9644mm" height="5.391mm" version="1.1" style="shape-rendering:geometricPrecision; text-rendering:geometricPrecision; image-rendering:optimizeQuality; fill-rule:evenodd; clip-rule:evenodd"
viewBox="0 0 10.66 11.58"
 xmlns:xlink="http://www.w3.org/1999/xlink"
 xmlns:xodm="http://www.corel.com/coreldraw/odm/2003">
 <defs>
  <style type="text/css">
   <![CDATA[
    .fil0 {fill:black}
    .fil1 {fill:red}
   ]]>
  </style>
 </defs>
 <g id="Слой_x0020_1">
  <metadata id="CorelCorpID_0Corel-Layer"/>
  <g id="_1989253593600">
   <path class="fil0" d="M8.41 9.48l0 -7.3 -6.25 0 0 7.3 6.25 0zm-2.06 -2.23l0 -2.84 -2.13 0 0 2.84 2.13 0z"/>
   <rect class="fil1" transform="matrix(6.39492E-15 0.241459 -0.248899 6.59198E-15 10.6615 2.18013)" width="4.39" height="6.32"/>
   <rect class="fil1" transform="matrix(6.39492E-15 0.241459 -0.248899 6.59198E-15 10.6615 4.26034)" width="4.39" height="6.32"/>
   <rect class="fil1" transform="matrix(6.39492E-15 0.241459 -0.248899 6.59198E-15 10.6615 6.34055)" width="4.39" height="6.32"/>
   <rect class="fil1" transform="matrix(6.39492E-15 0.241459 -0.248899 6.59198E-15 10.6615 8.42081)" width="4.39" height="6.32"/>
   <rect class="fil1" transform="matrix(6.39492E-15 0.241459 -0.248899 6.59198E-15 1.57282 2.18013)" width="4.39" height="6.32"/>
   <rect class="fil1" transform="matrix(6.39492E-15 0.241459 -0.248899 6.59198E-15 1.57282 4.26034)" width="4.39" height="6.32"/>
   <rect class="fil1" transform="matrix(6.39492E-15 0.241459 -0.248899 6.59198E-15 1.57282 6.34055)" width="4.39" height="6.32"/>
   <rect class="fil1" transform="matrix(6.39492E-15 0.241459 -0.248899 6.59198E-15 1.57282 8.42081)" width="4.39" height="6.32"/>
   <rect class="fil1" x="7.35" y="10" width="1.06" height="1.57"/>
   <rect class="fil1" x="5.62" y="10" width="1.06" height="1.57"/>
   <rect class="fil1" x="3.89" y="10" width="1.06" height="1.57"/>
   <rect class="fil1" x="2.16" y="10" width="1.06" height="1.57"/>
   <rect class="fil1" x="7.35" y="-0" width="1.06" height="1.57"/>
   <rect class="fil1" x="5.62" y="-0" width="1.06" height="1.57"/>
   <rect class="fil1" x="3.89" y="-0" width="1.06" height="1.57"/>
   <rect class="fil1" x="2.16" y="-0" width="1.06" height="1.57"/>
  </g>
 </g>
</svg>
