<?xml version="1.0" encoding="UTF-8"?>
<!DOCTYPE svg PUBLIC "-//W3C//DTD SVG 1.1//EN" "http://www.w3.org/Graphics/SVG/1.1/DTD/svg11.dtd">
<!-- Creator: CorelDRAW 2019 (64-Bit) -->
<svg xmlns="http://www.w3.org/2000/svg" xml:space="preserve" width="2.4626mm" height="5.391mm" version="1.1" style="shape-rendering:geometricPrecision; text-rendering:geometricPrecision; image-rendering:optimizeQuality; fill-rule:evenodd; clip-rule:evenodd"
viewBox="0 0 2.88 6.3"
 xmlns:xlink="http://www.w3.org/1999/xlink"
 xmlns:xodm="http://www.corel.com/coreldraw/odm/2003">
 <defs>
  <style type="text/css">
   <![CDATA[
    .fil0 {fill:black}
    .fil1 {fill:red}
   ]]>
  </style>
 </defs>
 <g id="Слой_x0020_1">
  <metadata id="CorelCorpID_0Corel-Layer"/>
  <g id="_1989326429520">
   <g>
    <path class="fil0" d="M1.34 0.06l0 6.18c0,0.03 -0.03,0.06 -0.06,0.06l-0.23 0c0,-0.09 -0.08,-0.17 -0.17,-0.17 -0.09,0 -0.17,0.08 -0.17,0.17l-0.1 0c0,-0.09 -0.08,-0.17 -0.17,-0.17 -0.09,0 -0.17,0.08 -0.17,0.17l-0.21 0c-0.03,0 -0.06,-0.03 -0.06,-0.06l0 -2.8 0.2 0c0.01,0 0.03,-0.01 0.03,-0.03l0 -0.2c0,-0.01 -0.01,-0.03 -0.03,-0.03l-0.2 0 0 -3.13c0,-0.03 0.03,-0.06 0.06,-0.06l0.21 0c0,0.09 0.08,0.17 0.17,0.17 0.09,0 0.17,-0.08 0.17,-0.17l0.1 0c0,0.09 0.08,0.17 0.17,0.17 0.09,0 0.17,-0.08 0.17,-0.17l0.23 0c0.03,0 0.06,0.03 0.06,0.06zm-1.11 3.54l0 2.46c0,0.01 -0.01,0.02 -0.02,0.02l-0.11 0c-0.01,0 -0.02,-0.01 -0.02,-0.02l0 -2.46c0,-0.01 0.01,-0.02 0.02,-0.02l0.11 0c0.01,0 0.02,0.01 0.02,0.02zm0 -3.33l0 2.79c0,0.01 -0.01,0.02 -0.02,0.02l-0.11 0c-0.01,0 -0.02,-0.01 -0.02,-0.02l0 -2.79c0,-0.01 0.01,-0.02 0.02,-0.02l0.11 0c0.01,0 0.02,0.01 0.02,0.02zm0.92 5.29l0 0.32c0,0.03 -0.03,0.06 -0.06,0.06l-0.63 0c-0.03,0 -0.06,-0.03 -0.06,-0.06l0 -0.32c0,-0.03 0.03,-0.06 0.06,-0.06l0.63 0c0.03,0 0.06,0.03 0.06,0.06zm0 -0.69l0 0.32c0,0.03 -0.03,0.06 -0.06,0.06l-0.63 0c-0.03,0 -0.06,-0.03 -0.06,-0.06l0 -0.32c0,-0.03 0.03,-0.06 0.06,-0.06l0.63 0c0.03,0 0.06,0.03 0.06,0.06zm0 -0.69l0 0.32c0,0.03 -0.03,0.06 -0.06,0.06l-0.63 0c-0.03,0 -0.06,-0.03 -0.06,-0.06l0 -0.32c0,-0.03 0.03,-0.06 0.06,-0.06l0.63 0c0.03,0 0.06,0.03 0.06,0.06zm0 -0.69l0 0.32c0,0.03 -0.03,0.06 -0.06,0.06l-0.63 0c-0.03,0 -0.06,-0.03 -0.06,-0.06l0 -0.32c0,-0.03 0.03,-0.06 0.06,-0.06l0.63 0c0.03,0 0.06,0.03 0.06,0.06zm0 -0.98l0 0.32c0,0.03 -0.03,0.06 -0.06,0.06l-0.63 0c-0.03,0 -0.06,-0.03 -0.06,-0.06l0 -0.32c0,-0.03 0.03,-0.06 0.06,-0.06l0.63 0c0.03,0 0.06,0.03 0.06,0.06zm0 -0.69l0 0.32c0,0.03 -0.03,0.06 -0.06,0.06l-0.63 0c-0.03,0 -0.06,-0.03 -0.06,-0.06l0 -0.32c0,-0.03 0.03,-0.06 0.06,-0.06l0.63 0c0.03,0 0.06,0.03 0.06,0.06zm0 -0.69l0 0.32c0,0.03 -0.03,0.06 -0.06,0.06l-0.63 0c-0.03,0 -0.06,-0.03 -0.06,-0.06l0 -0.32c0,-0.03 0.03,-0.06 0.06,-0.06l0.63 0c0.03,0 0.06,0.03 0.06,0.06zm0 -0.69l0 0.32c0,0.03 -0.03,0.06 -0.06,0.06l-0.63 0c-0.03,0 -0.06,-0.03 -0.06,-0.06l0 -0.32c0,-0.03 0.03,-0.06 0.06,-0.06l0.63 0c0.03,0 0.06,0.03 0.06,0.06z"/>
    <rect class="fil1" transform="matrix(1.17057E-14 0.441984 -0.441984 1.17057E-14 1.09968 0.41353)" width="0.79" height="1.48" rx="0.07" ry="0.07"/>
    <rect class="fil1" transform="matrix(1.17057E-14 0.441984 -0.441984 1.17057E-14 1.09968 1.10612)" width="0.79" height="1.48" rx="0.07" ry="0.07"/>
    <rect class="fil1" transform="matrix(1.17057E-14 0.441984 -0.441984 1.17057E-14 1.09968 1.79871)" width="0.79" height="1.48" rx="0.07" ry="0.07"/>
    <rect class="fil1" transform="matrix(1.17057E-14 0.441984 -0.441984 1.17057E-14 1.09968 2.4913)" width="0.79" height="1.48" rx="0.07" ry="0.07"/>
    <rect class="fil1" transform="matrix(1.17057E-14 0.441984 -0.441984 1.17057E-14 1.09968 3.46687)" width="0.79" height="1.48" rx="0.07" ry="0.07"/>
    <rect class="fil1" transform="matrix(1.17057E-14 0.441984 -0.441984 1.17057E-14 1.09968 4.15946)" width="0.79" height="1.48" rx="0.07" ry="0.07"/>
    <rect class="fil1" transform="matrix(1.17057E-14 0.441984 -0.441984 1.17057E-14 1.09968 4.85205)" width="0.79" height="1.48" rx="0.07" ry="0.07"/>
    <rect class="fil1" transform="matrix(1.17057E-14 0.441984 -0.441984 1.17057E-14 1.09968 5.54464)" width="0.79" height="1.48" rx="0.07" ry="0.07"/>
   </g>
   <g>
    <path class="fil0" d="M1.54 6.24l0 -6.18c0,-0.03 0.03,-0.06 0.06,-0.06l0.23 0c0,0.09 0.08,0.17 0.17,0.17 0.09,0 0.17,-0.08 0.17,-0.17l0.1 0c0,0.09 0.08,0.17 0.17,0.17 0.09,0 0.17,-0.08 0.17,-0.17l0.21 0c0.03,0 0.06,0.03 0.06,0.06l0 2.8 -0.2 0c-0.01,0 -0.03,0.01 -0.03,0.03l0 0.2c0,0.01 0.01,0.03 0.03,0.03l0.2 0 0 3.13c0,0.03 -0.03,0.06 -0.06,0.06l-0.21 0c0,-0.09 -0.08,-0.17 -0.17,-0.17 -0.09,0 -0.17,0.08 -0.17,0.17l-0.1 0c0,-0.09 -0.08,-0.17 -0.17,-0.17 -0.09,0 -0.17,0.08 -0.17,0.17l-0.23 0c-0.03,0 -0.06,-0.03 -0.06,-0.06zm1.11 -3.54l0 -2.46c0,-0.01 0.01,-0.02 0.02,-0.02l0.11 0c0.01,0 0.02,0.01 0.02,0.02l0 2.46c0,0.01 -0.01,0.02 -0.02,0.02l-0.11 0c-0.01,0 -0.02,-0.01 -0.02,-0.02zm0 3.33l0 -2.79c0,-0.01 0.01,-0.02 0.02,-0.02l0.11 0c0.01,0 0.02,0.01 0.02,0.02l0 2.79c0,0.01 -0.01,0.02 -0.02,0.02l-0.11 0c-0.01,0 -0.02,-0.01 -0.02,-0.02zm-0.92 -5.29l0 -0.32c0,-0.03 0.03,-0.06 0.06,-0.06l0.63 0c0.03,0 0.06,0.03 0.06,0.06l0 0.32c0,0.03 -0.03,0.06 -0.06,0.06l-0.63 0c-0.03,0 -0.06,-0.03 -0.06,-0.06zm0 0.69l0 -0.32c0,-0.03 0.03,-0.06 0.06,-0.06l0.63 0c0.03,0 0.06,0.03 0.06,0.06l0 0.32c0,0.03 -0.03,0.06 -0.06,0.06l-0.63 0c-0.03,0 -0.06,-0.03 -0.06,-0.06zm0 0.69l0 -0.32c0,-0.03 0.03,-0.06 0.06,-0.06l0.63 0c0.03,0 0.06,0.03 0.06,0.06l0 0.32c0,0.03 -0.03,0.06 -0.06,0.06l-0.63 0c-0.03,0 -0.06,-0.03 -0.06,-0.06zm0 0.69l0 -0.32c0,-0.03 0.03,-0.06 0.06,-0.06l0.63 0c0.03,0 0.06,0.03 0.06,0.06l0 0.32c0,0.03 -0.03,0.06 -0.06,0.06l-0.63 0c-0.03,0 -0.06,-0.03 -0.06,-0.06zm0 0.98l0 -0.32c0,-0.03 0.03,-0.06 0.06,-0.06l0.63 0c0.03,0 0.06,0.03 0.06,0.06l0 0.32c0,0.03 -0.03,0.06 -0.06,0.06l-0.63 0c-0.03,0 -0.06,-0.03 -0.06,-0.06zm0 0.69l0 -0.32c0,-0.03 0.03,-0.06 0.06,-0.06l0.63 0c0.03,0 0.06,0.03 0.06,0.06l0 0.32c0,0.03 -0.03,0.06 -0.06,0.06l-0.63 0c-0.03,0 -0.06,-0.03 -0.06,-0.06zm0 0.69l0 -0.32c0,-0.03 0.03,-0.06 0.06,-0.06l0.63 0c0.03,0 0.06,0.03 0.06,0.06l0 0.32c0,0.03 -0.03,0.06 -0.06,0.06l-0.63 0c-0.03,0 -0.06,-0.03 -0.06,-0.06zm0 0.69l0 -0.32c0,-0.03 0.03,-0.06 0.06,-0.06l0.63 0c0.03,0 0.06,0.03 0.06,0.06l0 0.32c0,0.03 -0.03,0.06 -0.06,0.06l-0.63 0c-0.03,0 -0.06,-0.03 -0.06,-0.06z"/>
    <rect class="fil1" transform="matrix(1.17057E-14 -0.441984 0.441984 1.17057E-14 1.77644 5.88274)" width="0.79" height="1.48" rx="0.07" ry="0.07"/>
    <rect class="fil1" transform="matrix(1.17057E-14 -0.441984 0.441984 1.17057E-14 1.77644 5.19015)" width="0.79" height="1.48" rx="0.07" ry="0.07"/>
    <rect class="fil1" transform="matrix(1.17057E-14 -0.441984 0.441984 1.17057E-14 1.77644 4.49756)" width="0.79" height="1.48" rx="0.07" ry="0.07"/>
    <rect class="fil1" transform="matrix(1.17057E-14 -0.441984 0.441984 1.17057E-14 1.77644 3.80497)" width="0.79" height="1.48" rx="0.07" ry="0.07"/>
    <rect class="fil1" transform="matrix(1.17057E-14 -0.441984 0.441984 1.17057E-14 1.77644 2.8294)" width="0.79" height="1.48" rx="0.07" ry="0.07"/>
    <rect class="fil1" transform="matrix(1.17057E-14 -0.441984 0.441984 1.17057E-14 1.77644 2.13681)" width="0.79" height="1.48" rx="0.07" ry="0.07"/>
    <rect class="fil1" transform="matrix(1.17057E-14 -0.441984 0.441984 1.17057E-14 1.77644 1.44423)" width="0.79" height="1.48" rx="0.07" ry="0.07"/>
    <rect class="fil1" transform="matrix(1.17057E-14 -0.441984 0.441984 1.17057E-14 1.77644 0.751636)" width="0.79" height="1.48" rx="0.07" ry="0.07"/>
   </g>
  </g>
 </g>
</svg>
