<?xml version="1.0" encoding="UTF-8"?>
<!DOCTYPE svg PUBLIC "-//W3C//DTD SVG 1.1//EN" "http://www.w3.org/Graphics/SVG/1.1/DTD/svg11.dtd">
<!-- Creator: CorelDRAW 2019 (64-Bit) -->
<svg xmlns="http://www.w3.org/2000/svg" xml:space="preserve" width="3.6094mm" height="5.395mm" version="1.1" style="shape-rendering:geometricPrecision; text-rendering:geometricPrecision; image-rendering:optimizeQuality; fill-rule:evenodd; clip-rule:evenodd"
viewBox="0 0 4.96 7.42"
 xmlns:xlink="http://www.w3.org/1999/xlink"
 xmlns:xodm="http://www.corel.com/coreldraw/odm/2003">
 <defs>
  <style type="text/css">
   <![CDATA[
    .fil0 {fill:black}
    .fil1 {fill:red}
   ]]>
  </style>
 </defs>
 <g id="Слой_x0020_1">
  <metadata id="CorelCorpID_0Corel-Layer"/>
  <g id="_1989262866800">
   <path class="fil0" d="M0.77 1.25l-0 0.17 -0.41 0 -0 2.65 0.41 0.01 0 0.25 -0.41 0 -0 2.65 0.41 0.01c0.03,0.15 0.06,0.3 0.25,0.38 0.14,0.06 0.43,0.04 0.6,0.04l1.91 0c0.19,0 0.43,0.03 0.58,-0.06 0.15,-0.09 0.21,-0.2 0.21,-0.43l-0 -4.46c0,-0.4 0.01,-0.82 0,-1.22 0.35,-0 0.62,-0.01 0.65,-0.01l0 -1.23 -0.54 0 0 0.71 -0.5 -0 0 -0.22 -1.28 -0 -0 0.22 -0.92 0 -0.01 -0.22 -1.27 -0 -0 0.22 -0.44 0 0 0.54c0.25,0.01 0.51,0.01 0.77,0.01zm-0.28 1.96l0 0.13 0.3 -0 0 -0.13 -0.3 -0.01zm0 0.53l-0 0.13 0.3 -0 -0 -0.13 -0.3 -0.01zm0 2.91l-0.01 0.13 0.3 0 -0 -0.13 -0.29 -0zm-0 -1.06l0 0.13 0.29 0 0.01 -0.13 -0.3 -0zm0 -0.27l-0 0.13 0.3 -0 -0 -0.13 -0.29 -0zm-0 -0.53l0 0.13 0.29 0 0 -0.13 -0.3 -0zm0 -2.91l-0 0.13 0.29 0 0 -0.13 -0.3 -0zm-0 0.8l0 0.13 0.29 0 0.01 -0.13 -0.3 -0zm0 3.18l-0 0.13 0.3 -0 -0 -0.13 -0.29 -0zm-0 -0.8l-0 0.13 0.29 0 0 -0.13 -0.3 -0zm-0 1.06l0 0.13 0.3 0 0 -0.13 -0.3 -0zm0 -3.71l-0 0.13 0.29 0 0.01 -0.13 -0.3 -0zm0 3.98l-0 0.13 0.29 -0 0 -0.13 -0.29 -0.01zm-0 -4.77l-0 0.13 0.29 0 0 -0.13 -0.29 -0zm-0 0.53l-0 0.13 0.29 0 0 -0.13 -0.3 -0zm0 2.38l-0 0.13 0.29 0 0 -0.13 -0.29 -0zm-0 -1.06l-0 0.13 0.3 0 0 -0.13 -0.3 -0zm0 -0.53l-0 0.13 0.3 0 -0 -0.13 -0.3 -0zm3.13 -0.35c-0.09,-0.59 -0.64,-1.08 -1.32,-0.98 -0.58,0.09 -1.07,0.63 -0.97,1.32 0.08,0.57 0.63,1.08 1.31,0.97 0.58,-0.09 1.09,-0.62 0.98,-1.32zm0 2.98c-0.09,-0.59 -0.64,-1.08 -1.32,-0.98 -0.58,0.09 -1.07,0.63 -0.97,1.32 0.08,0.57 0.63,1.08 1.31,0.97 0.58,-0.09 1.09,-0.62 0.98,-1.32z"/>
   <path class="fil1" d="M3.3 2.47l-0.35 0.13c0.01,-0.07 0.19,-0.28 0.21,-0.39 -0.11,-0.13 -0.28,-0.28 -0.54,-0.32 -0.01,0.08 -0.03,0.31 -0.06,0.37 -0.06,-0.06 -0.13,-0.27 -0.22,-0.37 -0.14,0.01 -0.34,0.11 -0.44,0.19 -0.02,0.02 -0.09,0.09 -0.1,0.12 0.06,0.03 0.24,0.17 0.28,0.24l-0.42 -0.01c-0.08,0.19 -0.08,0.43 -0.01,0.63l0.36 -0.13c-0.06,0.13 -0.16,0.25 -0.22,0.38 0.09,0.12 0.3,0.31 0.54,0.33 0.01,-0.09 0.03,-0.31 0.06,-0.37l0.21 0.37c0.21,0.01 0.49,-0.21 0.55,-0.3 -0.06,-0.07 -0.22,-0.16 -0.29,-0.24l0.43 0.01c0.09,-0.13 0.09,-0.49 0.01,-0.63zm-0.83 0.07c0.12,0 0.22,0.1 0.22,0.22 0,0.12 -0.1,0.22 -0.22,0.22 -0.12,0 -0.22,-0.1 -0.22,-0.22 0,-0.12 0.1,-0.22 0.22,-0.22z"/>
   <path class="fil1" d="M3.3 5.44l-0.35 0.13c0.01,-0.07 0.19,-0.28 0.21,-0.39 -0.11,-0.13 -0.28,-0.28 -0.54,-0.32 -0.01,0.08 -0.03,0.31 -0.06,0.37 -0.06,-0.06 -0.13,-0.27 -0.22,-0.37 -0.14,0.01 -0.34,0.11 -0.44,0.19 -0.02,0.02 -0.09,0.09 -0.1,0.12 0.06,0.03 0.24,0.17 0.28,0.24l-0.42 -0.01c-0.08,0.19 -0.08,0.43 -0.01,0.63l0.36 -0.13c-0.06,0.13 -0.16,0.25 -0.22,0.38 0.09,0.12 0.3,0.31 0.54,0.33 0.01,-0.09 0.03,-0.31 0.06,-0.37l0.21 0.37c0.21,0.01 0.49,-0.21 0.55,-0.3 -0.06,-0.07 -0.22,-0.16 -0.29,-0.24l0.43 0.01c0.09,-0.13 0.09,-0.49 0.01,-0.63zm-0.83 0.07c0.12,0 0.22,0.1 0.22,0.22 0,0.12 -0.1,0.22 -0.22,0.22 -0.12,0 -0.22,-0.1 -0.22,-0.22 0,-0.12 0.1,-0.22 0.22,-0.22z"/>
  </g>
 </g>
</svg>
