<?xml version="1.0" encoding="UTF-8"?>
<!DOCTYPE svg PUBLIC "-//W3C//DTD SVG 1.1//EN" "http://www.w3.org/Graphics/SVG/1.1/DTD/svg11.dtd">
<!-- Creator: CorelDRAW 2020 (64-Bit) -->
<svg xmlns="http://www.w3.org/2000/svg" xml:space="preserve" width="4.4115mm" height="5.3909mm" version="1.1" style="shape-rendering:geometricPrecision; text-rendering:geometricPrecision; image-rendering:optimizeQuality; fill-rule:evenodd; clip-rule:evenodd"
viewBox="0 0 6.68 8.17"
 xmlns:xlink="http://www.w3.org/1999/xlink"
 xmlns:xodm="http://www.corel.com/coreldraw/odm/2003">
 <defs>
  <style type="text/css">
   <![CDATA[
    .fil0 {fill:black}
    .fil1 {fill:red}
   ]]>
  </style>
 </defs>
 <g id="Слой_x0020_1">
  <metadata id="CorelCorpID_0Corel-Layer"/>
  <g id="_2782689211920">
   <path class="fil0" d="M3.34 2.71c0.41,0 0.74,0.33 0.74,0.74 0,0.41 -0.33,0.74 -0.74,0.74 -0.41,0 -0.74,-0.33 -0.74,-0.74 0,-0.41 0.33,-0.74 0.74,-0.74z"/>
   <path class="fil0" d="M0.82 0l5.04 0c0.45,0 0.82,0.37 0.82,0.82l0 6.52c0,0.45 -0.37,0.82 -0.82,0.82l-5.04 0c-0.45,0 -0.82,-0.37 -0.82,-0.82l0 -6.52c0,-0.45 0.37,-0.82 0.82,-0.82zm2.52 0.72c1.51,0 2.73,1.22 2.73,2.73 0,1.51 -1.22,2.73 -2.73,2.73 -0.11,0 -0.22,-0.01 -0.33,-0.02 -0.25,0.36 -0.58,0.81 -1,1.34 -0.37,0.46 -1.06,0.5 -1.44,0.12 -0.38,-0.37 -0.4,-1.15 0.04,-1.52 0.31,-0.26 0.6,-0.48 0.86,-0.67 -0.52,-0.5 -0.85,-1.2 -0.85,-1.97 0,-1.51 1.22,-2.73 2.73,-2.73zm2.54 6.27c0.21,0 0.38,0.17 0.38,0.38 0,0.21 -0.17,0.38 -0.38,0.38 -0.21,0 -0.38,-0.17 -0.38,-0.38 0,-0.21 0.17,-0.38 0.38,-0.38zm0 -6.55c0.21,0 0.38,0.17 0.38,0.38 0,0.21 -0.17,0.38 -0.38,0.38 -0.21,0 -0.38,-0.17 -0.38,-0.38 0,-0.21 0.17,-0.38 0.38,-0.38zm-5.07 0c0.21,0 0.38,0.17 0.38,0.38 0,0.21 -0.17,0.38 -0.38,0.38 -0.21,0 -0.38,-0.17 -0.38,-0.38 0,-0.21 0.17,-0.38 0.38,-0.38z"/>
   <path class="fil1" d="M3.21 4.88c-0.06,-0.05 -0.16,-0 -0.27,0.05 -0.03,0.02 -0.66,0.34 -1.93,1.4 -0.3,0.25 -0.45,0.62 -0.15,0.92 0.3,0.3 0.62,0.24 0.87,-0.08 1.02,-1.3 1.41,-1.99 1.43,-2.03 0.06,-0.1 0.11,-0.22 0.05,-0.27z"/>
  </g>
 </g>
</svg>
