<?xml version="1.0" encoding="UTF-8"?>
<!DOCTYPE svg PUBLIC "-//W3C//DTD SVG 1.1//EN" "http://www.w3.org/Graphics/SVG/1.1/DTD/svg11.dtd">
<!-- Creator: CorelDRAW 2019 (64-Bit) -->
<svg xmlns="http://www.w3.org/2000/svg" xml:space="preserve" width="4.4212mm" height="5.391mm" version="1.1" style="shape-rendering:geometricPrecision; text-rendering:geometricPrecision; image-rendering:optimizeQuality; fill-rule:evenodd; clip-rule:evenodd"
viewBox="0 0 6.15 7.5"
 xmlns:xlink="http://www.w3.org/1999/xlink"
 xmlns:xodm="http://www.corel.com/coreldraw/odm/2003">
 <defs>
  <style type="text/css">
   <![CDATA[
    .fil0 {fill:black}
    .fil1 {fill:red}
   ]]>
  </style>
 </defs>
 <g id="Слой_x0020_1">
  <metadata id="CorelCorpID_0Corel-Layer"/>
  <g id="_1933311022208">
   <path class="fil0" d="M0.39 0l5.36 0c0.22,0 0.39,0.18 0.39,0.39l0 6.71c0,0.22 -0.18,0.39 -0.39,0.39l-5.36 0c-0.22,0 -0.39,-0.18 -0.39,-0.39l0 -6.71c0,-0.22 0.18,-0.39 0.39,-0.39zm0.34 5.98l4.68 0c0.09,0 0.17,0.08 0.17,0.17l0 0.92c0,0.09 -0.08,0.17 -0.17,0.17l-4.68 0c-0.09,0 -0.17,-0.08 -0.17,-0.17l0 -0.92c0,-0.09 0.08,-0.17 0.17,-0.17z"/>
   <path class="fil1" d="M0.9 6.14l0.33 0c0.03,0 0.06,0.03 0.06,0.06l0 0.81c0,0.03 -0.03,0.06 -0.06,0.06l-0.33 0c-0.03,0 -0.06,-0.03 -0.06,-0.06l0 -0.81c0,-0.03 0.03,-0.06 0.06,-0.06zm4.05 0l0.33 0c0.03,0 0.06,0.03 0.06,0.06l0 0.81c0,0.03 -0.03,0.06 -0.06,0.06l-0.33 0c-0.03,0 -0.06,-0.03 -0.06,-0.06l0 -0.81c0,-0.03 0.03,-0.06 0.06,-0.06zm-0.81 0l0.33 0c0.03,0 0.06,0.03 0.06,0.06l0 0.81c0,0.03 -0.03,0.06 -0.06,0.06l-0.33 0c-0.03,0 -0.06,-0.03 -0.06,-0.06l0 -0.81c0,-0.03 0.03,-0.06 0.06,-0.06zm-0.81 0l0.33 0c0.03,0 0.06,0.03 0.06,0.06l0 0.81c0,0.03 -0.03,0.06 -0.06,0.06l-0.33 0c-0.03,0 -0.06,-0.03 -0.06,-0.06l0 -0.81c0,-0.03 0.03,-0.06 0.06,-0.06zm-0.81 0l0.33 0c0.03,0 0.06,0.03 0.06,0.06l0 0.81c0,0.03 -0.03,0.06 -0.06,0.06l-0.33 0c-0.03,0 -0.06,-0.03 -0.06,-0.06l0 -0.81c0,-0.03 0.03,-0.06 0.06,-0.06zm-0.81 0l0.33 0c0.03,0 0.06,0.03 0.06,0.06l0 0.81c0,0.03 -0.03,0.06 -0.06,0.06l-0.33 0c-0.03,0 -0.06,-0.03 -0.06,-0.06l0 -0.81c0,-0.03 0.03,-0.06 0.06,-0.06z"/>
  </g>
 </g>
</svg>
