<?xml version="1.0" encoding="UTF-8"?>
<!DOCTYPE svg PUBLIC "-//W3C//DTD SVG 1.1//EN" "http://www.w3.org/Graphics/SVG/1.1/DTD/svg11.dtd">
<!-- Creator: CorelDRAW 2019 (64-Bit) -->
<svg xmlns="http://www.w3.org/2000/svg" xml:space="preserve" width="3.7301mm" height="5.3909mm" version="1.1" style="shape-rendering:geometricPrecision; text-rendering:geometricPrecision; image-rendering:optimizeQuality; fill-rule:evenodd; clip-rule:evenodd"
viewBox="0 0 4.07 5.89"
 xmlns:xlink="http://www.w3.org/1999/xlink"
 xmlns:xodm="http://www.corel.com/coreldraw/odm/2003">
 <defs>
  <style type="text/css">
   <![CDATA[
    .fil0 {fill:black}
    .fil1 {fill:red}
   ]]>
  </style>
 </defs>
 <g id="Слой_x0020_1">
  <metadata id="CorelCorpID_0Corel-Layer"/>
  <g id="_1933392090384">
   <polygon class="fil0" points="-0,0 4.07,0 4.07,4.09 -0,4.09 "/>
   <path class="fil0" d="M0.12 4.21l0.11 0c0.22,0.81 0.95,1.4 1.81,1.4 0.86,0 1.59,-0.59 1.81,-1.4l0.11 0 0 1.43 -3.84 0 0 -1.43z"/>
   <path class="fil1" d="M3.72 4.21c-0.22,0.74 -0.89,1.28 -1.68,1.28 -0.79,0 -1.46,-0.54 -1.68,-1.28l1.28 0c0.11,0.09 0.25,0.14 0.4,0.14 0.15,0 0.29,-0.05 0.4,-0.14l1.28 0z"/>
   <rect class="fil0" x="-0" y="5.72" width="4.07" height="0.17"/>
  </g>
 </g>
</svg>
