<?xml version="1.0" encoding="UTF-8"?>
<!DOCTYPE svg PUBLIC "-//W3C//DTD SVG 1.1//EN" "http://www.w3.org/Graphics/SVG/1.1/DTD/svg11.dtd">
<!-- Creator: CorelDRAW 2019 (64-Bit) -->
<svg xmlns="http://www.w3.org/2000/svg" xml:space="preserve" width="9.1676mm" height="5.3909mm" version="1.1" style="shape-rendering:geometricPrecision; text-rendering:geometricPrecision; image-rendering:optimizeQuality; fill-rule:evenodd; clip-rule:evenodd"
viewBox="0 0 23.23 13.66"
 xmlns:xlink="http://www.w3.org/1999/xlink"
 xmlns:xodm="http://www.corel.com/coreldraw/odm/2003">
 <defs>
  <style type="text/css">
   <![CDATA[
    .fil0 {fill:black}
    .fil1 {fill:red}
   ]]>
  </style>
 </defs>
 <g id="Слой_x0020_1">
  <metadata id="CorelCorpID_0Corel-Layer"/>
  <g id="_1933390586880">
   <path class="fil0" d="M0.56 0l22.11 0c0.31,0 0.56,0.25 0.56,0.56l0 12.54c0,0.31 -0.25,0.56 -0.56,0.56l-22.11 0c-0.31,0 -0.56,-0.25 -0.56,-0.56l0 -12.54c0,-0.31 0.25,-0.56 0.56,-0.56zm10.9 6.95l-0.82 0c-0.06,2.1 -1.76,3.78 -3.85,3.84l0 0.82c2.55,-0.05 4.61,-2.11 4.67,-4.65zm-1.04 0l-0.76 0c-0.06,1.56 -1.32,2.8 -2.87,2.86l0 0.76c1.98,-0.05 3.57,-1.64 3.64,-3.62zm-1 0l-0.75 0c-0.06,1.01 -0.87,1.82 -1.89,1.87l0 0.75c1.43,-0.05 2.57,-1.19 2.64,-2.62zm-0.96 0l-0.89 0c-0.05,0.41 -0.38,0.73 -0.79,0.77l0 0.89c0.9,-0.05 1.62,-0.77 1.68,-1.66zm-2.68 0l-0.89 0c0.06,0.9 0.78,1.61 1.68,1.66l0 -0.89c-0.41,-0.05 -0.74,-0.37 -0.79,-0.77zm-1.09 0l-0.75 0c0.06,1.42 1.21,2.57 2.64,2.62l0 -0.75c-1.01,-0.05 -1.82,-0.86 -1.89,-1.87zm-0.99 0l-0.76 0c0.06,1.98 1.66,3.56 3.64,3.62l0 -0.76c-1.56,-0.05 -2.81,-1.3 -2.87,-2.86zm-0.98 0l-0.82 0c0.06,2.55 2.12,4.6 4.67,4.65l0 -0.82c-2.1,-0.05 -3.79,-1.74 -3.85,-3.84zm-0.82 -0.21l0.82 0c0.04,-2.11 1.74,-3.82 3.85,-3.87l0 -0.82c-2.56,0.05 -4.63,2.13 -4.67,4.69zm1.03 0l0.76 0c0.04,-1.57 1.31,-2.84 2.88,-2.89l0 -0.76c-1.99,0.05 -3.59,1.66 -3.64,3.66zm1 0l0.75 0c0.04,-1.03 0.86,-1.85 1.89,-1.91l0 -0.75c-1.44,0.05 -2.6,1.22 -2.64,2.66zm0.96 0l0.89 0c0.04,-0.43 0.37,-0.77 0.8,-0.81l0 -0.89c-0.91,0.05 -1.64,0.79 -1.68,1.7zm2.68 0l0.89 0c-0.04,-0.91 -0.77,-1.65 -1.68,-1.7l0 0.89c0.42,0.05 0.76,0.39 0.8,0.81zm1.09 0l0.75 0c-0.04,-1.44 -1.2,-2.6 -2.64,-2.66l0 0.75c1.02,0.05 1.84,0.88 1.89,1.91zm0.99 0l0.76 0c-0.04,-1.99 -1.65,-3.6 -3.64,-3.66l0 0.76c1.57,0.05 2.83,1.32 2.88,2.89zm0.98 0l0.82 0c-0.04,-2.56 -2.11,-4.64 -4.67,-4.69l0 0.82c2.11,0.05 3.81,1.76 3.85,3.87zm-9.49 -6.04c0.24,0 0.44,0.19 0.44,0.44 0,0.24 -0.19,0.44 -0.44,0.44 -0.24,0 -0.44,-0.19 -0.44,-0.44 0,-0.24 0.2,-0.44 0.44,-0.44zm11.16 0c0.24,0 0.44,0.19 0.44,0.44 0,0.24 -0.19,0.44 -0.44,0.44 -0.24,0 -0.44,-0.19 -0.44,-0.44 0,-0.24 0.2,-0.44 0.44,-0.44zm-11.16 11.16c0.24,0 0.44,0.19 0.44,0.44 0,0.24 -0.19,0.44 -0.44,0.44 -0.24,0 -0.44,-0.19 -0.44,-0.44 0,-0.24 0.2,-0.44 0.44,-0.44zm11.16 0c0.24,0 0.44,0.19 0.44,0.44 0,0.24 -0.19,0.44 -0.44,0.44 -0.24,0 -0.44,-0.19 -0.44,-0.44 0,-0.24 0.2,-0.44 0.44,-0.44zm4.52 -10.95c0.15,0 0.28,0.12 0.28,0.28 0,0.15 -0.12,0.28 -0.28,0.28 -0.15,0 -0.28,-0.12 -0.28,-0.28 0,-0.15 0.12,-0.28 0.28,-0.28zm0.84 0c0.15,0 0.28,0.12 0.28,0.28 0,0.15 -0.12,0.28 -0.28,0.28 -0.15,0 -0.28,-0.12 -0.28,-0.28 0,-0.15 0.12,-0.28 0.28,-0.28zm0.84 0c0.15,0 0.28,0.12 0.28,0.28 0,0.15 -0.12,0.28 -0.28,0.28 -0.15,0 -0.28,-0.12 -0.28,-0.28 0,-0.15 0.12,-0.28 0.28,-0.28zm0.84 0c0.15,0 0.28,0.12 0.28,0.28 0,0.15 -0.12,0.28 -0.28,0.28 -0.15,0 -0.28,-0.12 -0.28,-0.28 0,-0.15 0.12,-0.28 0.28,-0.28zm0.84 0c0.15,0 0.28,0.12 0.28,0.28 0,0.15 -0.12,0.28 -0.28,0.28 -0.15,0 -0.28,-0.12 -0.28,-0.28 0,-0.15 0.12,-0.28 0.28,-0.28zm0.84 0c0.15,0 0.28,0.12 0.28,0.28 0,0.15 -0.12,0.28 -0.28,0.28 -0.15,0 -0.28,-0.12 -0.28,-0.28 0,-0.15 0.12,-0.28 0.28,-0.28zm-3.77 0.92c0.15,0 0.28,0.12 0.28,0.28 0,0.15 -0.12,0.28 -0.28,0.28 -0.15,0 -0.28,-0.12 -0.28,-0.28 0,-0.15 0.12,-0.28 0.28,-0.28zm0.84 0c0.15,0 0.28,0.12 0.28,0.28 0,0.15 -0.12,0.28 -0.28,0.28 -0.15,0 -0.28,-0.12 -0.28,-0.28 0,-0.15 0.12,-0.28 0.28,-0.28zm0.84 0c0.15,0 0.28,0.12 0.28,0.28 0,0.15 -0.12,0.28 -0.28,0.28 -0.15,0 -0.28,-0.12 -0.28,-0.28 0,-0.15 0.12,-0.28 0.28,-0.28zm0.84 0c0.15,0 0.28,0.12 0.28,0.28 0,0.15 -0.12,0.28 -0.28,0.28 -0.15,0 -0.28,-0.12 -0.28,-0.28 0,-0.15 0.12,-0.28 0.28,-0.28zm0.84 0c0.15,0 0.28,0.12 0.28,0.28 0,0.15 -0.12,0.28 -0.28,0.28 -0.15,0 -0.28,-0.12 -0.28,-0.28 0,-0.15 0.12,-0.28 0.28,-0.28zm-3.76 0.9c0.15,0 0.28,0.12 0.28,0.28 0,0.15 -0.12,0.28 -0.28,0.28 -0.15,0 -0.28,-0.12 -0.28,-0.28 0,-0.15 0.12,-0.28 0.28,-0.28zm0.84 0c0.15,0 0.28,0.12 0.28,0.28 0,0.15 -0.12,0.28 -0.28,0.28 -0.15,0 -0.28,-0.12 -0.28,-0.28 0,-0.15 0.12,-0.28 0.28,-0.28zm0.84 0c0.15,0 0.28,0.12 0.28,0.28 0,0.15 -0.12,0.28 -0.28,0.28 -0.15,0 -0.28,-0.12 -0.28,-0.28 0,-0.15 0.12,-0.28 0.28,-0.28zm0.84 0c0.15,0 0.28,0.12 0.28,0.28 0,0.15 -0.12,0.28 -0.28,0.28 -0.15,0 -0.28,-0.12 -0.28,-0.28 0,-0.15 0.12,-0.28 0.28,-0.28zm0.84 0c0.15,0 0.28,0.12 0.28,0.28 0,0.15 -0.12,0.28 -0.28,0.28 -0.15,0 -0.28,-0.12 -0.28,-0.28 0,-0.15 0.12,-0.28 0.28,-0.28zm0.84 0c0.15,0 0.28,0.12 0.28,0.28 0,0.15 -0.12,0.28 -0.28,0.28 -0.15,0 -0.28,-0.12 -0.28,-0.28 0,-0.15 0.12,-0.28 0.28,-0.28zm-3.77 0.92c0.15,0 0.28,0.12 0.28,0.28 0,0.15 -0.12,0.28 -0.28,0.28 -0.15,0 -0.28,-0.12 -0.28,-0.28 0,-0.15 0.12,-0.28 0.28,-0.28zm0.84 0c0.15,0 0.28,0.12 0.28,0.28 0,0.15 -0.12,0.28 -0.28,0.28 -0.15,0 -0.28,-0.12 -0.28,-0.28 0,-0.15 0.12,-0.28 0.28,-0.28zm0.84 0c0.15,0 0.28,0.12 0.28,0.28 0,0.15 -0.12,0.28 -0.28,0.28 -0.15,0 -0.28,-0.12 -0.28,-0.28 0,-0.15 0.12,-0.28 0.28,-0.28zm0.84 0c0.15,0 0.28,0.12 0.28,0.28 0,0.15 -0.12,0.28 -0.28,0.28 -0.15,0 -0.28,-0.12 -0.28,-0.28 0,-0.15 0.12,-0.28 0.28,-0.28zm0.84 0c0.15,0 0.28,0.12 0.28,0.28 0,0.15 -0.12,0.28 -0.28,0.28 -0.15,0 -0.28,-0.12 -0.28,-0.28 0,-0.15 0.12,-0.28 0.28,-0.28zm-3.76 0.9c0.15,0 0.28,0.12 0.28,0.28 0,0.15 -0.12,0.28 -0.28,0.28 -0.15,0 -0.28,-0.12 -0.28,-0.28 0,-0.15 0.12,-0.28 0.28,-0.28zm0.84 0c0.15,0 0.28,0.12 0.28,0.28 0,0.15 -0.12,0.28 -0.28,0.28 -0.15,0 -0.28,-0.12 -0.28,-0.28 0,-0.15 0.12,-0.28 0.28,-0.28zm0.84 0c0.15,0 0.28,0.12 0.28,0.28 0,0.15 -0.12,0.28 -0.28,0.28 -0.15,0 -0.28,-0.12 -0.28,-0.28 0,-0.15 0.12,-0.28 0.28,-0.28zm0.84 0c0.15,0 0.28,0.12 0.28,0.28 0,0.15 -0.12,0.28 -0.28,0.28 -0.15,0 -0.28,-0.12 -0.28,-0.28 0,-0.15 0.12,-0.28 0.28,-0.28zm0.84 0c0.15,0 0.28,0.12 0.28,0.28 0,0.15 -0.12,0.28 -0.28,0.28 -0.15,0 -0.28,-0.12 -0.28,-0.28 0,-0.15 0.12,-0.28 0.28,-0.28zm0.84 0c0.15,0 0.28,0.12 0.28,0.28 0,0.15 -0.12,0.28 -0.28,0.28 -0.15,0 -0.28,-0.12 -0.28,-0.28 0,-0.15 0.12,-0.28 0.28,-0.28zm-5.87 4.65l2.15 0c0.05,0 0.1,0.04 0.1,0.1l0 3.26c0,0.05 -0.04,0.1 -0.1,0.1l-2.15 0c-0.05,0 -0.1,-0.04 -0.1,-0.1l0 -3.26c0,-0.05 0.04,-0.1 0.1,-0.1zm3.29 0.1l3.76 0c0.07,0 0.12,0.06 0.12,0.12l0 2.19 -1.13 1.13 -1.75 0 -1.13 -1.13 0 -2.19c0,-0.07 0.06,-0.12 0.12,-0.12zm-3.05 0.25l1.67 0c0.03,0 0.05,0.02 0.05,0.05l0 1.2c0,0.03 -0.02,0.05 -0.05,0.05l-1.67 0c-0.03,0 -0.05,-0.02 -0.05,-0.05l0 -1.2c0,-0.03 0.02,-0.05 0.05,-0.05z"/>
   <path class="fil1" d="M18.57 9.55l0 1.97 0.99 0.99 1.54 0 0.99 -0.99 0 -1.97 -3.52 0zm0.6 0.6l0.36 0c0.04,0 0.08,0.04 0.08,0.08l0 0.72c0,0.04 -0.04,0.08 -0.08,0.08l-0.36 0c-0.04,0 -0.08,-0.04 -0.08,-0.08l0 -0.72c0,-0.04 0.04,-0.08 0.08,-0.08zm1.91 0l0.36 0c0.04,0 0.08,0.04 0.08,0.08l0 0.72c0,0.04 -0.04,0.08 -0.08,0.08l-0.36 0c-0.04,0 -0.08,-0.04 -0.08,-0.08l0 -0.72c0,-0.04 0.04,-0.08 0.08,-0.08zm-0.93 1.04l0.36 0c0.04,0 0.08,0.04 0.08,0.08l0 0.72c0,0.04 -0.04,0.08 -0.08,0.08l-0.36 0c-0.04,0 -0.08,-0.04 -0.08,-0.08l0 -0.72c0,-0.04 0.04,-0.08 0.08,-0.08z"/>
  </g>
 </g>
</svg>
