<?xml version="1.0" encoding="UTF-8"?>
<!DOCTYPE svg PUBLIC "-//W3C//DTD SVG 1.1//EN" "http://www.w3.org/Graphics/SVG/1.1/DTD/svg11.dtd">
<!-- Creator: CorelDRAW 2020 (64-Bit) -->
<svg xmlns="http://www.w3.org/2000/svg" xml:space="preserve" width="11.8128mm" height="5.4046mm" version="1.1" style="shape-rendering:geometricPrecision; text-rendering:geometricPrecision; image-rendering:optimizeQuality; fill-rule:evenodd; clip-rule:evenodd"
viewBox="0 0 125.83 57.57"
 xmlns:xlink="http://www.w3.org/1999/xlink"
 xmlns:xodm="http://www.corel.com/coreldraw/odm/2003">
 <defs>
  <style type="text/css">
   <![CDATA[
    .fil0 {fill:black}
    .fil1 {fill:red}
   ]]>
  </style>
 </defs>
 <g id="Слой_x0020_1">
  <metadata id="CorelCorpID_0Corel-Layer"/>
  <g id="_2782686377824">
   <path class="fil0" d="M40.38 10.19l0 45.09c0,1.08 -0.89,1.97 -1.97,1.97l-31.14 0c-1.08,0 -1.97,-0.89 -1.97,-1.97 0,-16.26 -0.01,-32.53 -0.01,-48.79l-4.2 0c-0.6,0 -1.09,-0.49 -1.09,-1.09l0 -4.32c0,-0.6 0.49,-1.09 1.09,-1.09l123.65 0c0.6,0 1.09,0.49 1.09,1.09l0 4.32c0,0.6 -0.49,1.09 -1.09,1.09l-4.23 0 0 0.59 0 2.02 0 47.66c0,0.44 -0.36,0.8 -0.8,0.8l-4.63 0c-0.44,0 -0.8,-0.36 -0.8,-0.8l0 -46.58 -73.9 0zm-29.77 15.9l24.46 0c0.85,0 1.55,0.7 1.55,1.54l0 25.05c0,0.85 -0.7,1.55 -1.55,1.55l-24.46 0c-0.85,0 -1.55,-0.7 -1.55,-1.55l0 -25.05c0,-0.85 0.7,-1.54 1.55,-1.54zm-0.81 -15.9l26.09 0c0.4,0 0.73,0.33 0.73,0.73l0 11.58c0,0.4 -0.33,0.73 -0.73,0.73l-26.09 0c-0.4,0 -0.73,-0.33 -0.73,-0.73l0 -11.58c0,-0.4 0.33,-0.73 0.73,-0.73z"/>
   <rect class="fil1" x="11.8" y="13.11" width="22.13" height="7.06"/>
   <rect class="fil1" x="11.8" y="28.62" width="22.13" height="23.01"/>
  </g>
 </g>
</svg>
